<svg xmlns="http://www.w3.org/2000/svg" viewBox="0 0 24 24">
  <g fill="currentColor">
    <path d="M7.55932 21.275L20.0574 19.2955V19.0013L4.12695 18.7812C4.38614 20.4177 5.92287 21.5342 7.55932 21.275Z"/>
    <path d="M19.9728 5.16395C19.7136 3.52749 18.1769 2.411 16.5404 2.67019L4 4.65639V5.16395H19.9728Z"/>
    <path fill-rule="evenodd" d="M4.5 4.5H19.5A2.5 2.5 0 0 1 22 7V17A2.5 2.5 0 0 1 19.5 19.5H4.5A2.5 2.5 0 0 1 2 17V7A2.5 2.5 0 0 1 4.5 4.5ZM5.25 7.5H18.75V16.5H5.25V7.5ZM6.75 9H17.25V15H6.75V9Z"/>
  </g>
</svg>
