<svg xmlns="http://www.w3.org/2000/svg" viewBox="0 0 24 24" fill="none">
  <path fill-rule="evenodd" clip-rule="evenodd" d="M15 4C16.1046 4 17 4.89543 17 6V18C17 19.1046 16.1046 20 15 20H4.75C3.36929 20 2.25 18.8807 2.25 17.5V9C2.25 6.23858 4.48858 4 7.25 4H15Z" fill="url(#gme-l0)"/>
  <path d="M4.25 16.5C4.25021 15.6167 4.96626 14.9006 5.84961 14.9004C6.73313 14.9004 7.44998 15.6165 7.4502 16.5C7.4502 17.3837 6.73326 18.1006 5.84961 18.1006C4.96613 18.1004 4.25 17.3835 4.25 16.5Z" fill="white"/>
  <path d="M17 15.5V9L20.9631 6.47801C21.6288 6.05437 22.5 6.53258 22.5 7.32167V17.1783C22.5 17.9674 21.6288 18.4456 20.9631 18.022L17 15.5Z" fill="#F9AC02"/>
  <defs>
    <linearGradient id="gme-l0" x1="17" y1="9.5" x2="1.97684" y2="14.4294" gradientUnits="userSpaceOnUse">
      <stop stop-color="#FADE13"/>
      <stop offset="0.4" stop-color="#FADE13"/>
      <stop offset="1" stop-color="#FCCA03"/>
    </linearGradient>
  </defs>
</svg>
