<svg xmlns="http://www.w3.org/2000/svg" viewBox="0 0 24 24">
  <path fill="currentColor" fill-rule="evenodd" d="M7.25 4C4.48858 4 2.25 6.23858 2.25 9V17.5C2.25 18.8807 3.36929 20 4.75 20H15C16.1046 20 17 19.1046 17 18V15.5L20.9631 18.022C21.6288 18.4456 22.5 17.9674 22.5 17.1783V7.32167C22.5 6.53258 21.6288 6.05437 20.9631 6.47801L17 9V6C17 4.89543 16.1046 4 15 4H7.25ZM5.84961 14.9004C4.96626 14.9006 4.25021 15.6167 4.25 16.5C4.25 17.3835 4.96613 18.1004 5.84961 18.1006C6.73326 18.1006 7.4502 17.3837 7.4502 16.5C7.44998 15.6165 6.73313 14.9004 5.84961 14.9004Z"/>
</svg>
