<svg xmlns="http://www.w3.org/2000/svg" viewBox="0 0 24 24">
  <g fill="currentColor">
    <path d="M6 6V19.5C6 19.7761 5.77614 20 5.5 20H2.5C1.94772 20 1.5 19.5523 1.5 19V6H6Z"/>
    <path d="M22.5 6V19C22.5 19.5523 22.0523 20 21.5 20H18.5C18.2239 20 18 19.7761 18 19.5V6H22.5Z"/>
    <path d="M18.8022 4.52777C19.7534 3.72816 21.1725 3.85101 21.9721 4.80219C22.7717 5.75337 22.6489 7.17248 21.6977 7.97211L12.6434 15.584C12.2714 15.8967 11.7284 15.8967 11.3564 15.584L2.30219 7.97211C1.35101 7.17248 1.22816 5.75337 2.02777 4.80219C2.8274 3.85101 4.24652 3.72816 5.1977 4.52777L11.9999 10.246L18.8022 4.52777Z"/>
  </g>
</svg>
