<svg xmlns="http://www.w3.org/2000/svg" viewBox="0 0 24 24"><g transform="scale(0.0234375)"><circle cx="512" cy="512" r="512" fill="#93C4D3"/><path fill="#FFF" d="M774.6 333c-86.1-109.8-246.9-138-370.2-64.2-73.3 43.8-117.9 106.2-122.6 194-1.3 23.5-4.5 47.1-9.3 70.1-4.9 23.2-15.3 30.2-39.1 31.4-14.2.7-25.2 6.4-31.2 19.5-6 13.2-2.9 25.1 5.9 36.3 23.7 30.4 53 53.8 87.4 70.9 11 5.5 22.3 10.1 33.3 15.1-1.6 6-2.5 12.3-2.5 18.8 0 17.2 6.1 33 16.2 45.3 2.6 3.3 5.5 6.3 8.7 8.9 12.5 10.7 28.7 17.2 46.4 17.2 37.4 0 68-28.7 71.1-65.3h77.7c3.1 36.6 33.7 65.3 71.1 65.3 39.4 0 71.4-32 71.4-71.4 0-8.1-1.4-15.8-3.8-23 10.4-6.3 20.5-12 30.1-18.5 121.3-82.1 147.6-237.9 59.4-350.4M398.7 754.8c-17.2 0-31.1-13.9-31.1-31.1s13.9-31.1 31.1-31.1 31.1 13.9 31.1 31.1-13.9 31.1-31.1 31.1m222.1 0c-17.2 0-31.1-13.9-31.1-31.1s13.9-31.1 31.1-31.1 31.1 13.9 31.1 31.1-13.9 31.1-31.1 31.1m75.9-98.6c-3.6 2.4-7.3 4.7-10.9 7.1-6.9 4.4-13.1 8-20 8.8-12.7-11.6-29.6-18.7-48.2-18.7-29.8 0-55.4 18.3-66 44.3-1.5.2-3.1.3-4.8.2-27.8-.7-55.6-.9-83.4-1-10.9-25.5-36.2-43.4-65.7-43.4-20 0-38.1 8.3-51.1 21.6-2.2.2-4.4 0-6.2-.6-43.1-14.1-87.1-45.7-106.7-76.2 9-1.6 17.3-2.3 25.1-4.6 28.4-8.4 41.7-30.4 46.8-57.2 4.7-24.7 7.7-49.9 9.2-74.9 4.4-70.9 40.3-122 98.1-159.5 109.6-71 256.4-49 335 49.9 77.7 97.7 55.1 232-51.2 304.2"/><path fill="#FFF" d="M656.4 495.1c-9.7-3.1-17.9 1.4-21.4 12.7-5.5 17.5-16.8 30-32.1 39.2-50.1 30.1-107.8 11-129.9-43-3.4-8.4-9.9-12.5-18.8-10.5-9.5 2.1-13.6 8.9-12.4 18.5.5 3.9 1.7 7.7 2.9 11.4 14.4 41.4 58.3 69.7 110 69.6 3.1-.2 8.2-.3 13.3-.7 45.5-4 86.4-34.9 97.8-73.9 3.3-11.5-.2-20.4-9.4-23.3"/><circle cx="479.1" cy="424.1" r="31.1" fill="#FFF"/><circle cx="627.1" cy="424.1" r="31.1" fill="#FFF"/></g></svg>
