<svg xmlns="http://www.w3.org/2000/svg" viewBox="0 0 24 24" fill="currentColor" fill-rule="evenodd">
  <path d="M13.2.084c-3.3 0-6.4 1.466-8.5 4.1-1.5 1.9-2.3 4.233-2.3 6.666v1.733c0 .9-.633 1.733-1.867 1.8-.3 0-.533.233-.566.533-.034.8.833 2.3 2.033 3.5.833.834 1.8 1.5 2.833 2.034-.333 1.834 1.1 3.5 2.967 3.5h.033a3 3 0 0 0 2.934-2.367h2.5c.266 1.367 1.466 2.367 2.933 2.367.333 0 .7-.067 1.033-.166.834-.267 1.467-.9 1.767-1.734a3.2 3.2 0 0 0 0-2.166c.667-.434 1.267-.9 1.833-1.467 2.034-2 3.167-4.734 3.167-7.567 0-2.867-1.133-5.534-3.167-7.567-2.033-2.1-4.766-3.2-7.633-3.2M18 7.217c-.667 0-1.2.533-1.2 1.2s.533 1.2 1.2 1.2 1.2-.533 1.2-1.2-.533-1.2-1.2-1.2m-7.2 0c-.667 0-1.2.533-1.2 1.2s.533 1.2 1.2 1.2 1.2-.533 1.2-1.2-.533-1.2-1.2-1.2m-.2 4.766c-.433 0-.733.434-.533.833A4.79 4.79 0 0 0 14.4 15.55a4.79 4.79 0 0 0 4.333-2.734c.167-.4-.1-.833-.533-.833a.59.59 0 0 0-.533.334 3.62 3.62 0 0 1-3.234 2.033c-1.4 0-2.666-.8-3.233-2.033a.7.7 0 0 0-.6-.334"/>
</svg>
