<svg xmlns="http://www.w3.org/2000/svg" viewBox="0 0 24 24">
  <path fill="currentColor" fill-rule="evenodd" d="M6.5 1C5.11929 1 4 2.11929 4 3.5V20.5C4 21.8807 5.11929 23 6.5 23H17.5C18.8807 23 20 21.8807 20 20.5V8.91421C20 8.649 19.8946 8.39464 19.7071 8.20711L12.5 1H6.5ZM8.125 15C8.125 14.5858 8.46079 14.25 8.875 14.25H15.5C15.9142 14.25 16.25 14.5858 16.25 15C16.25 15.4142 15.9142 15.75 15.5 15.75H8.875C8.46079 15.75 8.125 15.4142 8.125 15ZM8.875 17.875C8.46079 17.875 8.125 18.2108 8.125 18.625C8.125 19.0392 8.46079 19.375 8.875 19.375H13.375C13.7892 19.375 14.125 19.0392 14.125 18.625C14.125 18.2108 13.7892 17.875 13.375 17.875H8.875Z"/>
  <path fill="currentColor" opacity="0.7" d="M12.5 6V1L19 7.5H14C13.1716 7.5 12.5 6.82843 12.5 6Z"/>
</svg>
