<svg xmlns="http://www.w3.org/2000/svg" viewBox="0 0 24 24">
  <path fill="#5E6AD2" d="M.2941 14.7655c-.0534-.2277.2178-.371.3831-.2057l8.763 8.763c.1653.1653.022.4365-.2057.3831-4.4221-1.0374-7.903-4.5183-8.9404-8.9404m-.2936-3.5121a.238.238 0 0 0 .0695.1825L12.564 23.93a.237.237 0 0 0 .1826.0695 12 12 0 0 0 1.671-.2222c.1835-.0377.2472-.263.1148-.3955L.6182 9.4676c-.1324-.1324-.3579-.0687-.3955.1148a12 12 0 0 0-.2222 1.671m1.0101-4.1241a.237.237 0 0 0 .0499.264l15.5462 15.5462a.237.237 0 0 0 .264.0499c.4287-.191.8441-.4063 1.2445-.6442.1325-.0787.153-.2608.044-.3697L2.0246 5.8408c-.109-.109-.291-.0885-.3698.044a12 12 0 0 0-.6442 1.2445m2.0275-2.7915a.2366.2366 0 0 1-.0106-.325C5.227 1.5502 8.4267 0 11.9885 0 18.6222 0 24 5.3778 24 12.0115c0 3.5618-1.5502 6.7614-4.0128 8.961a.2366.2366 0 0 1-.325-.0106z"/>
</svg>
