<svg xmlns="http://www.w3.org/2000/svg" viewBox="0 0 24 24">
  <g transform="translate(0 0.0263) scale(0.0526)">
    <path fill="currentColor" fill-rule="evenodd" d="M228 454.3c99.7 0 155.1 0 191.4-36.1 36.2-36.1 36.2-91.3 36.2-190.7 0-99.4 0-154.6-36.2-190.7C383.1.8 327.7.8 228 .8S72.9.8 36.6 36.9C.4 73 .4 128.2.4 227.6c0 99.4 0 154.6 36.2 190.7 36.3 36 91.7 36 191.4 36zM347.8 107.6c-66.5-66.4-174.4-66.4-241 0-66.5 66.4-66.5 174 0 240.3 66.5 66.4 174.4 66.4 241 0s66.6-174 0-240.3zm-10.2 78.1c-28.1 48.7-56.2 97.4-84.3 146.2-5.2 9.1-12.8 14.5-23.2 15.3-11.6.8-20.8-4.1-26.7-14.1-17.8-30.5-35.4-61.2-53-91.8-10.7-18.6-21.5-37.2-32.2-55.9-10.8-18.8 1.4-41.7 23-42.8 11.4-.6 20.2 4.7 26 14.6 7.9 13.5 15.7 27.2 23.6 40.8 5.7 9.8 11.2 19.7 17 29.3 8.4 14.1 20.8 22 37.3 23 23.3 1.4 45-15.5 47.8-40.2.2-1.8.3-3.7.4-4.6-.1-8-1.6-14.8-4.8-21.1-8.7-17.4.6-36.9 19.5-41.1 15.4-3.4 31.4 7.9 33.4 23.5 1 6.7-.4 13-3.8 18.9z"/>
  </g>
</svg>
