<svg xmlns="http://www.w3.org/2000/svg" viewBox="0 0 24 24"><g fill="currentColor"><path d="M19.161 2.233c-.585.68-.856 2.21-.264 3.763s1.5 1.214 2.066 2.796c.747 2.088.4 4.893.4 4.893s.897 2.6 1.523-.162c1.385-5.188-3.725-10.012-3.725-11.29"/><path d="M12.034 23.771c5.982 0 10.827-4.871 10.827-10.877S18.016 2.016 12.04 2.016 1.22 6.886 1.22 12.893C1.207 18.906 6.058 23.77 12.033 23.77"/><path d="M20.146 19.6a6 6 0 0 1-.734.444 17 17 0 0 0 .934-1.536c.23-.256.442-.504.614-.772a7 7 0 0 0 .279-.484c.607-1.095 1.278-2.867 1.297-4.687v-.139a6.3 6.3 0 0 0-.14-1.36l.014.105-.015-.08q.013.072.024.146c.124 1.054.036 2.082-.407 2.84l-.021.032c.23-1.152.306-2.424.05-3.697 0 0-.101-.62-.862-2.499-.44-1.081-1.215-1.968-1.903-2.615-.602-.745-1.149-1.243-1.45-1.562-.63-.663-.894-1.16-1.002-1.485-.094-.047-1.296-1.214-1.39-1.259-.525.814-2.175 3.358-1.39 5.735.355 1.078 1.255 2.196 2.196 2.823.041.048.561.61.807 1.882.255 1.314.122 2.338-.403 3.854-.617 1.33-2.197 2.644-3.676 2.778-3.163.287-4.32-1.588-4.32-1.588 1.128.45 2.378.357 3.137-.11.766-.474 1.23-.825 1.605-.687.37.136.667-.265.4-.68a1.92 1.92 0 0 0-1.936-.842c-.766.124-1.469.731-2.473.143a2 2 0 0 1-.189-.123c-.066-.044.216.066.15.017a5 5 0 0 1-.631-.42c-.015-.014.151.053.137.04-.94-.774-.822-1.297-.793-1.624.025-.263.195-.598.482-.735.139.076.225.134.225.134l-.091-.185c.011-.005.022-.004.033-.008.114.055.366.197.498.284.172.122.228.23.228.23s.045-.024.011-.13a.7.7 0 0 0-.235-.322h.01a2 2 0 0 1 .29.2c.049-.175.135-.358.116-.685-.012-.23-.006-.29-.047-.378-.036-.076.02-.106.084-.027a.8.8 0 0 0-.054-.18v-.006c.078-.274 1.664-.987 1.78-1.07a1.6 1.6 0 0 0 .467-.507c.088-.14.154-.338.17-.637.01-.216-.091-.36-1.695-.527-.439-.044-.696-.361-.842-.654a4 4 0 0 0-.081-.178 1.4 1.4 0 0 1-.063-.206c.262-.753.703-1.39 1.35-1.87.036-.033-.14.008-.105-.025.041-.037.31-.146.36-.17.063-.03-.265-.169-.554-.135-.294.033-.357.068-.514.135.065-.065.273-.15.224-.15-.317.05-.712.234-1.049.442a.3.3 0 0 1 .02-.106c-.156.067-.542.337-.655.565a1 1 0 0 0 .007-.132 2 2 0 0 0-.322.337l-.006.005c-.91-.365-1.713-.39-2.391-.226-.149-.149-.221-.04-.559-.782-.023-.045.018.044 0 0-.055-.144.034.192 0 0-.568.448-1.315.956-1.674 1.314-.004.015.419-.12 0 0-.146.042-.136.13-.159.915-.005.06 0 .126-.005.18-.286.366-.482.674-.556.834-.37.639-.778 1.634-1.174 3.209a8 8 0 0 1 .63-1.227c-.33.836-.648 2.148-.711 4.17a12 12 0 0 1 .305-1.236 11.5 11.5 0 0 0 .847 4.904c.228.556.604 1.401 1.244 2.327a11 11 0 0 0 7.997 3.436 11 11 0 0 0 8.255-3.716"/><path d="M17.718 21.14c3.972-.46 5.731-4.555 3.472-4.635-2.04-.066-5.353 4.851-3.472 4.634"/><path d="M21.476 15.669c2.733-1.59 2.02-5.027 2.02-5.027s-1.055 1.226-1.771 3.179c-.707 1.935-1.892 2.808-.249 1.848"/><path d="M12.8 23.172c3.81 1.216 7.086-1.786 5.067-2.788-1.835-.904-6.876 2.213-5.067 2.788"/><path d="M21.76 17.127c.093-.13.218-.55.33-.736.672-1.086.677-1.952.677-1.972.406-2.03.37-2.859.12-4.39-.202-1.234-1.082-3.002-1.844-3.854-.785-.878-.232-.591-.992-1.232-.667-.739-1.313-1.47-1.665-1.765C15.843 1.051 15.9.6 15.949.522l-.036.04c-.03-.12-.051-.22-.051-.22s-1.39 1.39-1.683 3.707c-.191 1.512.375 3.09 1.195 4.097a9.3 9.3 0 0 0 1.439 1.415c.62.89.96 1.987.96 3.168a5.356 5.356 0 0 1-5.357 5.355 5.4 5.4 0 0 1-1.198-.135c-1.396-.266-2.203-.97-2.605-1.449-.23-.274-.328-.474-.328-.474 1.25.448 2.634.355 3.475-.11.848-.47 1.36-.818 1.777-.68.41.136.736-.261.443-.672-.287-.411-1.034-1-2.143-.837-.848.124-1.626.726-2.737.143a2 2 0 0 1-.209-.122c-.073-.044.238.065.166.016a5.5 5.5 0 0 1-.699-.416c-.017-.014.168.053.151.039-1.04-.767-.91-1.285-.878-1.61a.93.93 0 0 1 .533-.728c.154.075.25.132.25.132l-.101-.183c.012-.004.024-.003.037-.008.125.054.404.195.55.282.191.122.252.228.252.228s.05-.024.013-.13c-.013-.043-.071-.18-.26-.318h.012a2 2 0 0 1 .32.199c.053-.174.15-.355.128-.68-.013-.228-.007-.287-.052-.375-.04-.076.023-.105.092-.027a.7.7 0 0 0-.06-.179v-.005c.088-.272 1.843-.979 1.97-1.062a1.7 1.7 0 0 0 .517-.503c.098-.14.17-.335.19-.631.005-.134-.036-.24-.5-.342-.28-.06-.712-.12-1.377-.182-.485-.043-.77-.358-.932-.649q-.045-.092-.09-.176a1.3 1.3 0 0 1-.069-.204 3.87 3.87 0 0 1 1.495-1.855c.039-.032-.156.008-.117-.024.045-.037.343-.145.399-.169.069-.029-.293-.167-.614-.133-.326.033-.395.067-.568.133.073-.064.301-.148.247-.148-.35.049-.787.231-1.16.44a.24.24 0 0 1 .022-.106c-.174.066-.601.334-.725.561a1 1 0 0 0 .007-.13 2.2 2.2 0 0 0-.356.334l-.007.005C6.67 4.78 5.782 4.756 5.032 4.92c-.164-.148-.428-.372-.802-1.107-.024-.045-.039.091-.058.048-.147-.336-.233-.888-.22-1.268 0 0-.3.137-.549.709-.046.103-.076.16-.105.216-.014.017.03-.188.024-.176-.043.073-.155.175-.204.307-.034.098-.08.153-.111.276L3 3.936c-.003-.036.009-.148 0-.125a6 6 0 0 0-.3.726 6.8 6.8 0 0 0-.315 1.818c-.006.06 0 .126-.006.179-.317.362-.533.668-.615.827-.41.634-.861 1.62-1.3 3.182a8 8 0 0 1 .697-1.22c-.365.83-.717 2.131-.787 4.135a11 11 0 0 1 .338-1.225 10.4 10.4 0 0 0 .938 4.864c.502 1.098 1.657 3.332 4.479 5.074s.96.714 2.61 1.25q.182.067.37.13l-.114-.049A11.8 11.8 0 0 0 12.38 24c4.273.003 5.533-1.712 5.533-1.712l-.012.009q.09-.085.174-.177c-.674.636-2.213.679-2.788.634.981-.288 1.627-.532 2.882-1.013q.22-.082.451-.186l.049-.023.091-.042a8.5 8.5 0 0 0 1.714-1.074c1.261-1.007 1.537-1.989 1.679-2.636a4 4 0 0 1-.126.3c-.325.695-1.045 1.122-1.827 1.488a17 17 0 0 0 1.033-1.523c.257-.255.336-.651.527-.918"/><path d="M20.226 19.536a8 8 0 0 0 1.325-1.95c.9-1.893 2.293-5.04 1.195-8.325-.866-2.597-2.055-4.017-3.565-5.404C16.73 1.604 16.044.598 16.044 0c0 0-2.831 3.156-1.603 6.448s3.743 3.17 5.406 6.607c1.958 4.042-1.585 8.454-4.512 9.688.18-.04 6.512-1.472 6.844-5.094-.008.066-.15 1.068-1.953 1.887"/><path d="M12.022 7.79c.01-.214-.101-.358-1.87-.524-.728-.067-1.006-.74-1.091-1.023-.259.672-.366 1.378-.309 2.231.04.56.415 1.16.595 1.512 0 0 .04-.051.058-.07.338-.352 1.755-.889 1.888-.965.146-.094.705-.501.73-1.162"/><path d="M4.235 3.816c-.024-.044-.039.092-.058.05-.147-.338-.234-.884-.213-1.27 0 0-.3.138-.55.71a3 3 0 0 1-.104.216c-.014.016.03-.188.024-.177-.043.073-.155.175-.204.302-.04.103-.081.16-.112.287-.01.035.01-.154.001-.131-.579 1.116-.69 2.807-.628 2.734C3.622 5.223 5.032 4.91 5.032 4.91c-.15-.11-.476-.43-.797-1.095Z"/><path d="M8.907 17.563c-1.7-.726-3.635-1.75-3.561-4.076.1-3.064 2.857-2.458 2.857-2.458-.104.024-.382.223-.48.434-.105.264-.295.86.28 1.486.906.98-1.858 2.325 2.407 4.867.108.059-1-.035-1.503-.253"/><path d="M8.302 16.036c1.206.42 2.61.347 3.452-.118.563-.314 1.285-.815 1.73-.692-.385-.152-.676-.223-1.027-.24-.06 0-.131 0-.195-.008a3 3 0 0 0-.384.021c-.218.02-.458.157-.677.135-.012 0 .212-.092.195-.088-.116.024-.242.03-.375.046-.084.01-.157.02-.241.024-2.512.213-4.634-1.361-4.634-1.361-.18.61.809 1.812 2.159 2.282Z"/><path d="M20.221 19.552c2.54-2.494 3.826-5.526 3.283-8.926 0 0 .217 1.743-.607 3.527.396-1.741.442-3.905-.61-6.146-1.401-2.991-3.707-4.565-4.588-5.222C16.366 1.79 15.813.777 15.802.568c-.398.817-1.604 3.615-.13 6.025 1.382 2.257 3.558 2.926 5.082 5 2.807 3.813-.533 7.96-.533 7.96"/><path d="M19.857 13.062c-.888-1.834-1.995-2.634-3.044-3.501.122.17.152.23.22.341.922.984 2.283 3.382 1.295 6.393-1.86 5.668-9.296 2.999-10.076 2.25.315 3.28 5.805 4.849 9.38 2.723 2.034-1.927 3.68-5.2 2.225-8.206"/></g></svg>
