<svg xmlns="http://www.w3.org/2000/svg" viewBox="0 0 24 24">
  <g transform="translate(3.27 0) scale(0.6)">
    <g transform="translate(5.704918 0.108571)">
      <path d="M21.1385279,1.8462381 C19.1289705,0.865285714 16.9706098,0.367666667 14.7228721,0.367666667 C6.64233115,0.367666667 0.0683639344,6.95242857 0.0683639344,15.0467143 L0.0683639344,38.7429048 C0.0683639344,39.1676667 0.416363934,39.511 0.845183607,39.511 L6.17452787,39.511 C6.60382295,39.511 6.95134754,39.1676667 6.95134754,38.7429048 L6.95134754,15.0467143 C6.95134754,10.7543333 10.4380033,7.26195238 14.7228721,7.26195238 C15.9166262,7.26195238 17.0604623,7.52528571 18.1220525,8.04385714 C19.8311508,8.87814286 21.8911016,8.16671429 22.7235443,6.45528571 C23.5564623,4.74385714 22.8466754,2.68052381 21.1385279,1.8462381" fill="#00A365"/>
      <path d="M19.6389902,24.5730476 C17.738777,24.5730476 16.1974984,26.1159048 16.1974984,28.0201905 L16.1974984,38.7325714 C16.1974984,39.1625714 16.5454984,39.5111429 16.9747934,39.5111429 L22.3036623,39.5111429 C22.732482,39.5111429 23.0809574,39.1625714 23.0809574,38.7325714 L23.0809574,28.0201905 C23.0809574,26.1159048 21.5401541,24.5730476 19.6389902,24.5730476" fill="#F0B21C"/>
    </g>
    <polygon points="5.77337705,23.0142857 5.77337705,27.3395238 12.6563607,34.2338095 12.6563607,23.3466667 9.04895082,19.7333333" fill="#008555"/>
    <path d="M25.4029541,23.6064286 L3.49987213,23.6064286 C1.59965902,23.6064286 0.0583803279,22.0635714 0.0583803279,20.1592857 C0.0583803279,18.2554762 1.59965902,16.7121429 3.49987213,16.7121429 L25.4029541,16.7121429 C27.3031672,16.7121429 28.8444459,18.2554762 28.8444459,20.1592857 C28.8444459,22.0635714 27.3031672,23.6064286 25.4029541,23.6064286" fill="#00B7D5"/>
    <path d="M27.6757459,20.1219048 C27.6757459,21.4119048 26.6317459,22.457619 25.3438607,22.457619 C24.0564508,22.457619 23.0124508,21.4119048 23.0124508,20.1219048 C23.0124508,18.832381 24.0564508,17.7866667 25.3438607,17.7866667 C26.6317459,17.7866667 27.6757459,18.832381 27.6757459,20.1219048" fill="#FFFFFF"/>
    <path d="M23.7124918,21.7904762 L25.522377,23.6033333 C27.3051639,23.5314286 28.7570656,22.1033333 28.8407377,20.3214286 L27.009459,18.487619 L23.7124918,21.7904762 Z" fill="#0095AA"/>
  </g>
</svg>
