<svg xmlns="http://www.w3.org/2000/svg" viewBox="0 0 24 24"><g transform="translate(-3.0204 -3.0204) scale(0.058673)"><g transform="translate(0 512) scale(0.1 -0.1)"><path fill="#FFFFFF" d="M3518 4005 c-1 -1 -37 -6 -78 -9 -41 -4 -91 -9 -110 -11 -19 -3 -57 -7 -85 -10 -69 -8 -135 -16 -165 -20 -14 -2 -52 -7 -85 -11 -33 -3 -67 -8 -75 -9 -8 -2 -44 -6 -80 -10 -36 -4 -73 -9 -84 -11 -10 -2 -44 -6 -75 -10 -31 -3 -63 -8 -72 -9 -9 -2 -40 -6 -70 -10 -30 -3 -65 -8 -79 -10 -14 -2 -45 -7 -70 -10 -25 -3 -56 -8 -70 -10 -14 -2 -45 -7 -70 -10 -25 -3 -56 -8 -70 -10 -14 -2 -45 -7 -70 -10 -25 -3 -58 -8 -75 -11 -61 -10 -81 -13 -120 -19 -23 -3 -50 -7 -60 -9 -11 -2 -67 -11 -125 -21 -305 -49 -399 -74 -532 -140 -241 -120 -390 -280 -438 -472 -20 -77 -23 -317 -6 -423 3 -19 8 -55 11 -80 3 -25 7 -61 10 -80 2 -19 7 -60 11 -90 3 -30 8 -62 9 -71 2 -9 6 -40 10 -69 4 -29 8 -61 10 -70 2 -9 6 -41 10 -70 4 -29 9 -62 11 -74 2 -11 6 -38 9 -61 7 -45 13 -86 30 -182 3 -18 7 -48 10 -65 89 -539 230 -697 620 -698 167 0 240 12 555 95 381 100 530 127 885 160 129 12 219 16 440 20 331 7 371 11 507 55 237 75 397 234 452 448 28 106 31 141 31 352 0 179 -5 267 -20 394 -2 17 -6 56 -9 86 -4 30 -8 71 -11 90 -2 19 -7 55 -10 80 -13 110 -17 137 -20 160 -2 14 -7 48 -11 75 -3 28 -8 59 -10 70 -2 11 -7 40 -10 65 -3 25 -7 52 -9 60 -3 8 -7 33 -11 55 -50 340 -306 588 -629 611 -44 3 -85 7 -92 9 -6 2 -13 2 -15 0z"/><path fill="#FF0033" fill-rule="evenodd" d="M3518 4005 c-1 -1 -37 -6 -78 -9 -41 -4 -91 -9 -110 -11 -19 -3 -57 -7 -85 -10 -69 -8 -135 -16 -165 -20 -14 -2 -52 -7 -85 -11 -33 -3 -67 -8 -75 -9 -8 -2 -44 -6 -80 -10 -36 -4 -73 -9 -84 -11 -10 -2 -44 -6 -75 -10 -31 -3 -63 -8 -72 -9 -9 -2 -40 -6 -70 -10 -30 -3 -65 -8 -79 -10 -14 -2 -45 -7 -70 -10 -25 -3 -56 -8 -70 -10 -14 -2 -45 -7 -70 -10 -25 -3 -56 -8 -70 -10 -14 -2 -45 -7 -70 -10 -25 -3 -58 -8 -75 -11 -61 -10 -81 -13 -120 -19 -23 -3 -50 -7 -60 -9 -11 -2 -67 -11 -125 -21 -305 -49 -399 -74 -532 -140 -241 -120 -390 -280 -438 -472 -20 -77 -23 -317 -6 -423 3 -19 8 -55 11 -80 3 -25 7 -61 10 -80 2 -19 7 -60 11 -90 3 -30 8 -62 9 -71 2 -9 6 -40 10 -69 4 -29 8 -61 10 -70 2 -9 6 -41 10 -70 4 -29 9 -62 11 -74 2 -11 6 -38 9 -61 7 -45 13 -86 30 -182 3 -18 7 -48 10 -65 89 -539 230 -697 620 -698 167 0 240 12 555 95 381 100 530 127 885 160 129 12 219 16 440 20 331 7 371 11 507 55 237 75 397 234 452 448 28 106 31 141 31 352 0 179 -5 267 -20 394 -2 17 -6 56 -9 86 -4 30 -8 71 -11 90 -2 19 -7 55 -10 80 -13 110 -17 137 -20 160 -2 14 -7 48 -11 75 -3 28 -8 59 -10 70 -2 11 -7 40 -10 65 -3 25 -7 52 -9 60 -3 8 -7 33 -11 55 -50 340 -306 588 -629 611 -44 3 -85 7 -92 9 -6 2 -13 2 -15 0z m-1176 -940 c306 -102 923 -338 950 -361 20 -19 24 -65 7 -95 -6 -11 -83 -68 -172 -126 -217 -142 -326 -213 -487 -318 -74 -48 -192 -126 -262 -172 -108 -71 -199 -118 -218 -112 -40 11 -59 58 -76 189 -3 25 -7 56 -9 70 -3 14 -7 48 -10 75 -3 28 -8 61 -10 75 -2 14 -7 50 -10 80 -3 30 -8 66 -10 80 -2 14 -7 50 -10 80 -3 30 -8 66 -10 80 -2 14 -6 48 -10 75 -3 28 -7 66 -10 85 -6 47 -14 116 -20 165 -3 22 -7 56 -10 75 -8 59 -8 127 0 140 16 25 121 2 377 -85z"/><path fill="#000000" fill-rule="evenodd" d="M3477 4134 c-1 -1 -36 -5 -77 -9 -41 -3 -88 -8 -105 -10 -16 -2 -55 -7 -85 -10 -30 -3 -66 -8 -80 -10 -14 -2 -47 -6 -75 -10 -27 -3 -66 -7 -85 -10 -19 -2 -55 -7 -80 -10 -119 -14 -137 -17 -160 -21 -14 -2 -49 -6 -78 -10 -29 -3 -63 -7 -75 -10 -12 -2 -46 -6 -75 -10 -29 -3 -61 -7 -71 -9 -10 -2 -42 -6 -71 -10 -29 -4 -61 -8 -70 -10 -9 -2 -41 -6 -70 -10 -29 -4 -61 -8 -70 -10 -9 -2 -41 -6 -70 -10 -29 -4 -62 -9 -74 -11 -11 -2 -38 -6 -61 -9 -59 -9 -95 -15 -245 -40 -52 -9 -108 -18 -125 -21 -320 -54 -536 -152 -719 -325 -205 -194 -280 -428 -242 -754 2 -16 7 -57 11 -90 3 -33 8 -71 10 -85 2 -14 6 -50 9 -80 4 -30 9 -66 11 -80 2 -14 7 -45 10 -70 8 -71 17 -134 20 -151 2 -9 6 -40 10 -70 3 -30 8 -61 10 -69 2 -8 7 -35 10 -60 5 -38 20 -126 50 -305 79 -464 244 -682 560 -740 41 -7 298 -7 360 0 84 10 230 43 445 99 196 52 321 81 385 91 17 2 45 7 63 10 261 43 460 59 892 70 129 3 247 8 263 11 15 2 42 6 60 9 403 67 665 337 712 735 6 48 6 392 1 450 -2 19 -7 69 -10 110 -4 41 -8 89 -10 105 -3 17 -7 57 -11 90 -3 33 -8 71 -10 85 -2 14 -7 50 -10 80 -3 30 -8 66 -10 80 -2 14 -7 45 -10 70 -3 25 -8 56 -10 70 -2 14 -7 45 -10 70 -68 504 -266 782 -623 874 -77 20 -302 41 -315 30z m213 -140 c299 -43 513 -286 574 -649 21 -123 24 -141 31 -195 3 -25 8 -56 10 -70 2 -14 7 -45 10 -70 3 -25 8 -63 10 -85 11 -84 14 -112 20 -165 3 -30 8 -69 10 -86 3 -28 9 -85 21 -209 5 -55 5 -384 0 -417 -2 -16 -7 -47 -11 -70 -59 -373 -338 -570 -825 -583 -210 -6 -499 -16 -545 -20 -67 -5 -189 -16 -215 -20 -14 -2 -50 -6 -80 -10 -58 -6 -109 -14 -144 -21 -11 -2 -50 -9 -86 -15 -36 -5 -81 -14 -100 -19 -165 -44 -592 -150 -620 -154 -550 -84 -777 78 -855 609 -3 22 -15 94 -26 160 -11 66 -22 131 -24 145 -7 49 -17 115 -20 131 -2 9 -6 40 -10 69 -4 29 -8 60 -10 69 -1 9 -6 39 -9 66 -4 28 -9 67 -12 87 -8 63 -13 101 -19 153 -3 28 -8 64 -10 80 -56 424 11 626 270 818 157 116 317 181 537 217 35 5 74 12 88 15 13 2 40 7 60 10 20 3 47 7 60 10 13 3 42 7 65 10 22 3 47 8 55 10 8 2 40 7 70 10 30 4 57 8 60 10 3 1 30 6 61 9 31 4 66 8 76 10 11 3 44 7 73 11 29 4 61 8 70 10 9 2 41 6 70 10 29 4 60 8 69 10 9 1 41 6 72 9 31 4 67 9 80 11 12 3 45 7 73 10 28 3 62 8 76 10 14 2 48 6 75 10 28 4 64 8 80 10 91 12 171 22 335 41 25 3 61 7 80 9 19 3 64 8 100 11 36 3 67 7 69 10 5 5 153 -3 211 -12z"/><path fill="#000000" d="M1971 3146 c-12 -15 -11 -85 4 -186 2 -14 6 -47 9 -75 3 -27 8 -66 11 -85 2 -19 7 -55 10 -80 3 -25 8 -63 10 -85 3 -22 8 -58 10 -80 3 -22 8 -58 10 -80 3 -22 7 -56 10 -75 2 -19 7 -55 10 -80 3 -25 8 -63 10 -85 3 -22 8 -58 10 -80 3 -22 8 -58 11 -80 29 -239 41 -241 349 -40 77 51 194 127 260 170 66 43 163 106 215 140 52 34 144 93 204 131 192 122 229 170 173 223 -52 48 -1127 440 -1252 456 -40 6 -54 4 -64 -9z m365 -220 c211 -70 750 -272 767 -287 8 -6 -19 -25 -263 -184 -131 -85 -330 -215 -477 -312 -119 -78 -142 -90 -144 -77 -1 5 -3 18 -4 29 -1 11 -5 43 -9 70 -4 28 -9 70 -12 95 -3 25 -7 56 -9 70 -2 14 -7 50 -10 80 -3 30 -8 66 -10 80 -2 14 -7 50 -10 80 -3 30 -8 66 -10 80 -2 14 -7 50 -10 80 -3 30 -8 66 -10 80 -2 14 -7 50 -10 80 -3 30 -8 67 -11 83 -6 35 -22 38 232 -47z"/></g></g></svg>
