<svg xmlns="http://www.w3.org/2000/svg" viewBox="0 0 24 24"><g transform="translate(-3.0204 -3.0204) scale(0.058673)"><g transform="translate(0 512) scale(0.1 -0.1)"><path fill="currentColor" fill-rule="evenodd" d="M3477 4134 c-1 -1 -36 -5 -77 -9 -41 -3 -88 -8 -105 -10 -16 -2 -55 -7 -85 -10 -30 -3 -66 -8 -80 -10 -14 -2 -47 -6 -75 -10 -27 -3 -66 -7 -85 -10 -19 -2 -55 -7 -80 -10 -119 -14 -137 -17 -160 -21 -14 -2 -49 -6 -78 -10 -29 -3 -63 -7 -75 -10 -12 -2 -46 -6 -75 -10 -29 -3 -61 -7 -71 -9 -10 -2 -42 -6 -71 -10 -29 -4 -61 -8 -70 -10 -9 -2 -41 -6 -70 -10 -29 -4 -61 -8 -70 -10 -9 -2 -41 -6 -70 -10 -29 -4 -62 -9 -74 -11 -11 -2 -38 -6 -61 -9 -59 -9 -95 -15 -245 -40 -52 -9 -108 -18 -125 -21 -320 -54 -536 -152 -719 -325 -205 -194 -280 -428 -242 -754 2 -16 7 -57 11 -90 3 -33 8 -71 10 -85 2 -14 6 -50 9 -80 4 -30 9 -66 11 -80 2 -14 7 -45 10 -70 8 -71 17 -134 20 -151 2 -9 6 -40 10 -70 3 -30 8 -61 10 -69 2 -8 7 -35 10 -60 5 -38 20 -126 50 -305 79 -464 244 -682 560 -740 41 -7 298 -7 360 0 84 10 230 43 445 99 196 52 321 81 385 91 17 2 45 7 63 10 261 43 460 59 892 70 129 3 247 8 263 11 15 2 42 6 60 9 403 67 665 337 712 735 6 48 6 392 1 450 -2 19 -7 69 -10 110 -4 41 -8 89 -10 105 -3 17 -7 57 -11 90 -3 33 -8 71 -10 85 -2 14 -7 50 -10 80 -3 30 -8 66 -10 80 -2 14 -7 45 -10 70 -3 25 -8 56 -10 70 -2 14 -7 45 -10 70 -68 504 -266 782 -623 874 -77 20 -302 41 -315 30z M2342 3065 c306 -102 923 -338 950 -361 20 -19 24 -65 7 -95 -6 -11 -83 -68 -172 -126 -217 -142 -326 -213 -487 -318 -74 -48 -192 -126 -262 -172 -108 -71 -199 -118 -218 -112 -40 11 -59 58 -76 189 -3 25 -7 56 -9 70 -3 14 -7 48 -10 75 -3 28 -8 61 -10 75 -2 14 -7 50 -10 80 -3 30 -8 66 -10 80 -2 14 -7 50 -10 80 -3 30 -8 66 -10 80 -2 14 -6 48 -10 75 -3 28 -7 66 -10 85 -6 47 -14 116 -20 165 -3 22 -7 56 -10 75 -8 59 -8 127 0 140 16 25 121 2 377 -85z"/></g></g></svg>
