<svg xmlns="http://www.w3.org/2000/svg" viewBox="0 0 24 24"><path fill="#FF0033" d="M13.2124 2.2 19.8806 6.05Q21.093 6.75 21.093 8.15L21.093 15.85Q21.093 17.25 19.8806 17.95L13.2124 21.8Q12 22.5 10.7876 21.8L4.1194 17.95Q2.907 17.25 2.907 15.85L2.907 8.15Q2.907 6.75 4.1194 6.05L10.7876 2.2Q12 1.5 13.2124 2.2Z"/><path fill="none" stroke="#FFFFFF" stroke-width="0.55" d="M12.866 5.1 17.542 7.8Q18.408 8.3 18.408 9.3L18.408 14.7Q18.408 15.7 17.542 16.2L12.866 18.9Q12 19.4 11.134 18.9L6.458 16.2Q5.592 15.7 5.592 14.7L5.592 9.3Q5.592 8.3 6.458 7.8L11.134 5.1Q12 4.6 12.866 5.1Z"/><path fill="#FFFFFF" d="M10 8.5 16 12 10 15.5Z"/></svg>
