<svg xmlns="http://www.w3.org/2000/svg" viewBox="0 0 24 24"><path fill="currentColor" fill-rule="evenodd" d="M13.2124 2.2 19.8806 6.05Q21.093 6.75 21.093 8.15L21.093 15.85Q21.093 17.25 19.8806 17.95L13.2124 21.8Q12 22.5 10.7876 21.8L4.1194 17.95Q2.907 17.25 2.907 15.85L2.907 8.15Q2.907 6.75 4.1194 6.05L10.7876 2.2Q12 1.5 13.2124 2.2ZM12.779 4.73 17.906 7.69Q18.685 8.14 18.685 9.04L18.685 14.96Q18.685 15.86 17.906 16.31L12.779 19.27Q12 19.72 11.221 19.27L6.094 16.31Q5.315 15.86 5.315 14.96L5.315 9.04Q5.315 8.14 6.094 7.69L11.221 4.73Q12 4.28 12.779 4.73ZM12.779 5.37 17.353 8.01Q18.132 8.46 18.132 9.36L18.132 14.64Q18.132 15.54 17.353 15.99L12.779 18.63Q12 19.08 11.221 18.63L6.647 15.99Q5.868 15.54 5.868 14.64L5.868 9.36Q5.868 8.46 6.647 8.01L11.221 5.37Q12 4.92 12.779 5.37ZM10 8.5 16 12 10 15.5Z"/></svg>
