<svg xmlns="http://www.w3.org/2000/svg" viewBox="0 0 24 24">
  <g transform="translate(0.3 0) scale(0.2034)">
    <path fill="currentColor" d="M113.647 56.134 62.47 4.956 57.51 0 1.376 56.134c-1.835 1.84-1.835 4.819 0 6.655l35.196 35.195 20.938 20.943 56.137-56.138c1.836-1.836 1.836-4.815 0-6.655zM57.51 77.041 39.931 59.464 57.51 41.88l17.582 17.584z"/>
    <path fill="currentColor" d="M57.51 41.88C46.001 30.366 45.942 11.719 57.387.137L18.911 38.599l20.943 20.942z"/>
    <path fill="currentColor" d="m75.141 59.414-17.631 17.627c5.557 5.552 8.681 13.087 8.681 20.943s-3.125 15.386-8.681 20.942l38.569-38.57z"/>
  </g>
</svg>
