<svg xmlns="http://www.w3.org/2000/svg" viewBox="0 0 24 24">
  <defs>
    <linearGradient id="docs2014-shade" x1="50%" y1="8.586%" x2="50%" y2="100.014%">
      <stop offset="0%" stop-color="#1A237E" stop-opacity="0.2"/>
      <stop offset="100%" stop-color="#1A237E" stop-opacity="0.02"/>
    </linearGradient>
    <clipPath id="docs2014-clip">
      <path d="M29.375 0H4.40625C1.9828 0 0 1.9943 0 4.4318V60.5682C0 63.0057 1.9828 65 4.40625 65H42.5938C45.0172 65 47 63.0057 47 60.5682V17.7273L29.375 0Z"/>
    </clipPath>
  </defs>
  <g transform="translate(3.325 0) scale(0.36923)" clip-path="url(#docs2014-clip)">
    <path fill="#4285F4" d="M29.375 0H4.40625C1.9828 0 0 1.9943 0 4.4318V60.5682C0 63.0057 1.9828 65 4.40625 65H42.5938C45.0172 65 47 63.0057 47 60.5682V17.7273L36.7188 10.3409 29.375 0Z"/>
    <polygon fill="url(#docs2014-shade)" points="30.6638 16.4310 47 32.8582 47 17.7273"/>
    <path fill="#F1F1F1" d="M11.75 47.2727H35.25V44.3182H11.75V47.2727ZM11.75 53.1818H29.375V50.2273H11.75V53.1818ZM11.75 32.5V35.4545H35.25V32.5H11.75ZM11.75 41.3636H35.25V38.4091H11.75V41.3636Z"/>
    <path fill="#A1C2FA" d="M29.375 0V13.2955C29.375 15.7440 31.3468 17.7273 33.7813 17.7273H47L29.375 0Z"/>
  </g>
</svg>
