<svg xmlns="http://www.w3.org/2000/svg" viewBox="0 0 24 24">
  <g transform="translate(3.325 0) scale(0.36923)" fill="currentColor" fill-rule="evenodd">
    <path d="M29.375 0V13.2955C29.375 15.7440 31.3468 17.7273 33.7813 17.7273H47L29.375 0Z"/>
    <path d="M29.375 0H4.40625C1.9828 0 0 1.9943 0 4.4318V60.5682C0 63.0057 1.9828 65 4.40625 65H42.5938C45.0172 65 47 63.0057 47 60.5682V17.7273L29.375 0ZM11.75 32.5H35.25V35.4545H11.75V32.5ZM35.25 38.4091H11.75V41.3636H35.25V38.4091ZM11.75 44.3182H35.25V47.2727H11.75V44.3182ZM29.375 50.2273H11.75V53.1818H29.375V50.2273Z"/>
  </g>
</svg>
