<svg xmlns="http://www.w3.org/2000/svg" viewBox="0 0 24 24">
  <g transform="translate(0 4.641) scale(0.220989)">
    <path d="m 0,66.600726 19.799975,0 0,-6.000275 -19.799975,0 0,6.000275 z" fill="#ED1C24"/>
    <path d="m 0,58.802113 19.799975,0 0,-6.001101 -19.799975,0 0,6.001101 z" fill="#ED1C24"/>
    <path d="m 0,51.002689 19.799975,0 0,-6.001102 -19.799975,0 0,6.001102 z" fill="#ED1C24"/>
    <path d="m 0,43.201676 19.799975,0 0,-5.998602 -19.799975,0 0,5.998602 z" fill="#F6836C"/>
    <path d="m 0,35.400475 19.799975,0 0,-5.998603 -19.799975,0 0,5.998604 z" fill="#F6836C"/>
    <path d="m 22.200279,66.600726 19.800801,0 0,-6.000275 -19.800801,0 0,6.000275 z" fill="#FFF200"/>
    <path d="m 22.200279,58.802113 19.800801,0 0,-6.001101 -19.800801,0 0,6.001101 z" fill="#FFF200"/>
    <path d="m 22.200279,51.002689 19.800801,0 0,-6.001102 -19.800801,0 0,6.001102 z" fill="#FFF200"/>
    <path d="m 44.40056,66.600726 19.800801,0 0,-6.000275 -19.800801,0 0,6.000275 z" fill="#EC008C"/>
    <path d="m 44.40056,58.802113 19.800801,0 0,-6.001101 -19.800801,0 0,6.001101 z" fill="#EC008C"/>
    <path d="m 44.40056,51.002689 19.800801,0 0,-6.001102 -19.800801,0 0,6.001102 z" fill="#EC008C"/>
    <path d="m 44.40056,43.201676 19.800801,0 0,-5.998602 -19.800801,0 0,5.998602 z" fill="#F680C5"/>
    <path d="m 44.40056,35.400475 19.800801,0 0,-5.998603 -19.800801,0 0,5.998604 z" fill="#F680C5"/>
    <path d="m 44.40056,27.600967 19.800801,0 0,-6.000276 -19.800801,0 0,6.000276 z" fill="#F680C5"/>
    <path d="m 44.40056,19.802516 19.800801,0 0,-6.001102 -19.800801,0 0,6.001102 z" fill="#F680C5"/>
    <path d="m 66.600628,66.600726 19.799973,0 0,-6.000275 -19.799973,0 0,6.000275 z" fill="#B2DB18"/>
    <path d="m 66.600628,58.802113 19.799973,0 0,-6.001101 -19.799973,0 0,6.001101 z" fill="#B2DB18"/>
    <path d="m 66.600628,51.002689 19.799973,0 0,-6.001102 -19.799973,0 0,6.001102 z" fill="#B2DB18"/>
    <path d="m 66.600628,43.201676 19.799973,0 0,-5.998602 -19.799973,0 0,5.998602 z" fill="#D9ED84"/>
    <path d="m 66.600628,35.400475 19.799973,0 0,-5.998603 -19.799973,0 0,5.998604 z" fill="#D9ED84"/>
    <path d="m 88.800905,66.600726 19.801625,0 0,-6.000275 -19.801625,0 0,6.000275 z" fill="#59CAF5"/>
    <path d="m 88.800905,58.802113 19.801625,0 0,-6.001101 -19.801625,0 0,6.001101 z" fill="#59CAF5"/>
    <path d="m 88.800905,51.000191 19.801625,0 0,-6.000277 -19.801625,0 0,6.000277 z" fill="#59CAF5"/>
    <path d="m 88.800905,43.201676 19.801625,0 0,-6.001102 -19.801625,0 0,6.001101 z" fill="#B2E6FA"/>
    <path d="m 88.800905,35.400475 19.801625,0 0,-6.001101 -19.801625,0 0,6.001101 z" fill="#B2E6FA"/>
    <path d="m 88.800905,27.599486 19.801625,0 0,-5.998604 -19.801625,0 0,5.998604 z" fill="#B2E6FA"/>
    <path d="m 88.800905,19.798282 19.801625,0 0,-5.998604 -19.801625,0 0,5.998604 z" fill="#B2E6FA"/>
    <path d="m 88.800905,11.998984 19.801625,0 0,-6.0002747 -19.801625,0 0,6.0002747 z" fill="#B2E6FA"/>
  </g>
</svg>
