<svg xmlns="http://www.w3.org/2000/svg" viewBox="0 0 24 24">
  <g transform="translate(0 9.336) scale(0.08)">
    <path d="m 0,66.600726 19.799975,0 0,-6.000275 -19.799975,0 0,6.000275 z" fill="#ED1C24"/>
    <path d="m 0,58.802113 19.799975,0 0,-6.001101 -19.799975,0 0,6.001101 z" fill="#ED1C24"/>
    <path d="m 0,51.002689 19.799975,0 0,-6.001102 -19.799975,0 0,6.001102 z" fill="#ED1C24"/>
    <path d="m 0,43.201676 19.799975,0 0,-5.998602 -19.799975,0 0,5.998602 z" fill="#F6836C"/>
    <path d="m 0,35.400475 19.799975,0 0,-5.998603 -19.799975,0 0,5.998604 z" fill="#F6836C"/>
    <path d="m 22.200279,66.600726 19.800801,0 0,-6.000275 -19.800801,0 0,6.000275 z" fill="#FFF200"/>
    <path d="m 22.200279,58.802113 19.800801,0 0,-6.001101 -19.800801,0 0,6.001101 z" fill="#FFF200"/>
    <path d="m 22.200279,51.002689 19.800801,0 0,-6.001102 -19.800801,0 0,6.001102 z" fill="#FFF200"/>
    <path d="m 44.40056,66.600726 19.800801,0 0,-6.000275 -19.800801,0 0,6.000275 z" fill="#EC008C"/>
    <path d="m 44.40056,58.802113 19.800801,0 0,-6.001101 -19.800801,0 0,6.001101 z" fill="#EC008C"/>
    <path d="m 44.40056,51.002689 19.800801,0 0,-6.001102 -19.800801,0 0,6.001102 z" fill="#EC008C"/>
    <path d="m 44.40056,43.201676 19.800801,0 0,-5.998602 -19.800801,0 0,5.998602 z" fill="#F680C5"/>
    <path d="m 44.40056,35.400475 19.800801,0 0,-5.998603 -19.800801,0 0,5.998604 z" fill="#F680C5"/>
    <path d="m 44.40056,27.600967 19.800801,0 0,-6.000276 -19.800801,0 0,6.000276 z" fill="#F680C5"/>
    <path d="m 44.40056,19.802516 19.800801,0 0,-6.001102 -19.800801,0 0,6.001102 z" fill="#F680C5"/>
    <path d="m 66.600628,66.600726 19.799973,0 0,-6.000275 -19.799973,0 0,6.000275 z" fill="#B2DB18"/>
    <path d="m 66.600628,58.802113 19.799973,0 0,-6.001101 -19.799973,0 0,6.001101 z" fill="#B2DB18"/>
    <path d="m 66.600628,51.002689 19.799973,0 0,-6.001102 -19.799973,0 0,6.001102 z" fill="#B2DB18"/>
    <path d="m 66.600628,43.201676 19.799973,0 0,-5.998602 -19.799973,0 0,5.998602 z" fill="#D9ED84"/>
    <path d="m 66.600628,35.400475 19.799973,0 0,-5.998603 -19.799973,0 0,5.998604 z" fill="#D9ED84"/>
    <path d="m 88.800905,66.600726 19.801625,0 0,-6.000275 -19.801625,0 0,6.000275 z" fill="#59CAF5"/>
    <path d="m 88.800905,58.802113 19.801625,0 0,-6.001101 -19.801625,0 0,6.001101 z" fill="#59CAF5"/>
    <path d="m 88.800905,51.000191 19.801625,0 0,-6.000277 -19.801625,0 0,6.000277 z" fill="#59CAF5"/>
    <path d="m 88.800905,43.201676 19.801625,0 0,-6.001102 -19.801625,0 0,6.001101 z" fill="#B2E6FA"/>
    <path d="m 88.800905,35.400475 19.801625,0 0,-6.001101 -19.801625,0 0,6.001101 z" fill="#B2E6FA"/>
    <path d="m 88.800905,27.599486 19.801625,0 0,-5.998604 -19.801625,0 0,5.998604 z" fill="#B2E6FA"/>
    <path d="m 88.800905,19.798282 19.801625,0 0,-5.998604 -19.801625,0 0,5.998604 z" fill="#B2E6FA"/>
    <path d="m 88.800905,11.998984 19.801625,0 0,-6.0002747 -19.801625,0 0,6.0002747 z" fill="#B2E6FA"/>
    <path d="m 125.39709,58.850902 4.65075,0 c 6.82796,0 7.94598,-3.59834 7.94598,-15.037508 l 0,-22.874014 c 0,-9.872366 -0.84518,-13.1919395 -8.68173,-13.1919395 l -3.915,0 0,51.1034615 z M 116.40039,5e-7 l 14.8457,0 c 14.94391,0 16.35445,5.2296587 16.35445,24.6020665 l 0,19.798492 c 0,17.065596 -3.43218,22.200167 -18.00249,22.200167 l -13.19766,0 L 116.40039,5e-7" fill="#231F20"/>
    <path d="m 151.19719,5e-7 25.20087,0 0,7.9167737 -16.20078,0 0,20.8832848 14.99936,0 0,7.801839 -14.99936,0 0,22.087777 16.20078,0 0,7.911051 -25.20087,0 L 151.19719,5e-7" fill="#231F20"/>
    <path d="m 179.99895,5e-7 25.19917,0 0,7.9167737 -16.1993,0 0,20.8832848 15.00021,0 0,7.801839 -15.00021,0 0,22.087777 16.1993,0 0,7.911051 -25.19917,0 L 179.99895,5e-7" fill="#231F20"/>
    <path d="m 241.79577,5e-7 25.20109,0 0,7.9167737 -16.20098,0 0,20.8832848 15.00296,0 0,7.801839 -15.00296,0 0,22.087777 16.20098,0 0,7.911051 -25.20108,0 L 241.79578,5e-7" fill="#231F20"/>
    <path d="m 208.79709,58.799631 20.73471,-51.0010792 -20.73471,0 0,-7.7984513 29.39823,0 0,7.7984513 -20.37717,51.0010792 20.37717,0 0,7.801097 -29.39823,-0.0041 0,-7.796963" fill="#231F20"/>
    <path d="m 279.59741,29.397698 2.7919,0 c 7.28769,0 8.39894,-0.899587 8.39894,-10.860217 0,-9.8723642 -0.88477,-10.7429517 -6.59765,-10.7429517 l -4.59319,0 0,21.6031687 z m -9.00007,-29.3975975 14.3997,0 c 13.46837,0 14.41241,3.4311237 14.41241,18.0056735 0,8.944628 -0.84456,13.318517 -8.40952,15.622937 l 0,0 c 6.2717,0.644737 8.42012,3.919016 8.42012,10.188806 l 0,14.481882 c 0,2.401934 0.0169,5.528977 0.57995,8.297195 l -9.00007,0 c -0.92712,-1.661917 -0.5948,-3.297386 -0.5948,-5.97381 l 0,-15.034142 c 0,-6.273073 -1.19167,-7.790303 -7.28134,-7.790303 l -3.52638,0 0,28.802389 -9.00007,-0.0041 0,-66.5964935" fill="#231F20"/>
  </g>
</svg>
