<svg xmlns="http://www.w3.org/2000/svg" viewBox="0 0 24 24">
  <g transform="scale(0.6667)">
    <path fill="currentColor" fill-rule="evenodd" d="M11.333 8A3.333 3.333 0 0 0 8 11.333v13.334A3.333 3.333 0 0 0 11.333 28h13.334A3.333 3.333 0 0 0 28 24.667V11.333A3.333 3.333 0 0 0 24.667 8H11.333ZM14.054 16.355a.84.84 0 0 1 .84.84v7.12a.84.84 0 0 1-1.68 0v-7.12a.84.84 0 0 1 .84-.84ZM10.414 21.835a.84.84 0 0 1 .84-.84h7.92a.84.84 0 0 1 0 1.68h-7.92a.84.84 0 0 1-.84-.84ZM18 8h5v5h-5V8ZM23 8h1.666A3.333 3.333 0 0 1 28 11.333V13h-5V8ZM23 13h5v5h-5v-5Z"/>
  </g>
</svg>
