<svg xmlns="http://www.w3.org/2000/svg" viewBox="0 0 24 24" fill="none">
  <g transform="scale(0.6667)">
    <path fill="currentColor" fill-opacity=".15" d="M0 10C0 4.477 4.477 0 10 0h16c5.523 0 10 4.477 10 10v16c0 5.523-4.477 10-10 10H10C4.477 36 0 31.523 0 26V10Z"/>
    <path fill="url(#a)" d="M8 11.333A3.333 3.333 0 0 1 11.333 8h13.334A3.333 3.333 0 0 1 28 11.333v13.334A3.333 3.333 0 0 1 24.667 28H11.333A3.333 3.333 0 0 1 8 24.667V11.333Z"/>
    <path fill="currentColor" fill-rule="evenodd" d="M14.054 16.355a.84.84 0 0 1 .84.84v7.12a.84.84 0 0 1-1.68 0v-7.12a.84.84 0 0 1 .84-.84Z" clip-rule="evenodd"/>
    <path fill="currentColor" fill-rule="evenodd" d="M10.414 21.835a.84.84 0 0 1 .84-.84h7.92a.84.84 0 0 1 0 1.68h-7.92a.84.84 0 0 1-.84-.84Z" clip-rule="evenodd"/>
    <path fill="currentColor" fill-opacity=".5" d="M18 8h5v5h-5V8Z"/>
    <path fill="currentColor" fill-opacity=".8" d="M23 8h1.666A3.333 3.333 0 0 1 28 11.333V13h-5V8Z"/>
    <path fill="currentColor" fill-opacity=".5" d="M23 13h5v5h-5v-5Z"/>
    <defs>
      <radialGradient id="a" cx="0" cy="0" r="1" gradientTransform="rotate(-53.15 35.289 9.383) scale(23.6005)" gradientUnits="userSpaceOnUse">
        <stop stop-color="currentColor" stop-opacity="1"/>
        <stop offset="1" stop-color="currentColor" stop-opacity="0.35"/>
      </radialGradient>
    </defs>
  </g>
</svg>
