<svg xmlns="http://www.w3.org/2000/svg" viewBox="0 0 24 24" fill="none">
  <g transform="translate(-9.6 -9.6) scale(1.2)">
    <path fill="url(#a)" fill-rule="evenodd" clip-rule="evenodd" d="M8 11.333A3.333 3.333 0 0 1 11.333 8h13.334A3.333 3.333 0 0 1 28 11.333v13.334A3.333 3.333 0 0 1 24.667 28H11.333A3.333 3.333 0 0 1 8 24.667V11.333ZM18 8h5v5h-5V8Zm5 0h1.666A3.333 3.333 0 0 1 28 11.333V13h-5V8Zm0 5h5v5h-5v-5Zm-8.946 3.355a.84.84 0 0 1 .84.84v7.12a.84.84 0 0 1-1.68 0v-7.12a.84.84 0 0 1 .84-.84Zm-3.64 5.48a.84.84 0 0 1 .84-.84h7.92a.84.84 0 0 1 0 1.68h-7.92a.84.84 0 0 1-.84-.84ZM13.214 20.995h1.68v1.68h-1.68z"/>
    <path fill="currentColor" fill-opacity=".4" d="M18 8h5v5h-5V8Z"/>
    <path fill="currentColor" fill-opacity=".25" d="M23 8h1.666A3.333 3.333 0 0 1 28 11.333V13h-5V8Z"/>
    <path fill="currentColor" fill-opacity=".4" d="M23 13h5v5h-5v-5Z"/>
    <defs>
      <radialGradient id="a" cx="0" cy="0" r="1" gradientTransform="rotate(-53.15 35.289 9.383) scale(23.6005)" gradientUnits="userSpaceOnUse">
        <stop stop-color="currentColor"/>
        <stop offset="1" stop-color="currentColor" stop-opacity=".5"/>
      </radialGradient>
    </defs>
  </g>
</svg>
