<svg xmlns="http://www.w3.org/2000/svg" viewBox="0 0 24 24"><g transform="scale(0.1333)">
<path fill="#FFFFFF" d="M0 0 H180 V180 H0 Z"/>
<path fill="#2B2627" d="
  M89.5 35
  A39 39 0 0 1 128.5 74
  C128 83 125 91 124 96
  C123 99 134 100 134 100
  C138 103 143 108 143 112
  C143 126 116 144 89.5 144
  C63 144 36 126 36 112
  C36 108 41 103 45 100
  C45 100 56 99 55 96
  C54 91 51 83 51 74
  A39 39 0 0 1 89.5 35 Z"/>
<path fill="#CCCCCC" d="M57 113 A34 17 0 0 0 122 113 A34 11 0 0 1 57 113 Z"/>
</g></svg>
