<svg xmlns="http://www.w3.org/2000/svg" viewBox="0 0 24 24"><g transform="translate(0 0) scale(0.1333)">
<path d="M0 0 C8.59853 6.2351 13.84961 13.17384 17.1875 23.1875 C17.28405 26.18624 17.31731 29.18721 17.3125 32.1875 C17.31508 33.79625 17.31766 35.405 17.32031 37.0625 C17.1875 41.1875 17.1875 41.1875 16.1875 44.1875 C15.5275 44.1875 14.8675 44.1875 14.1875 44.1875 C13.8575 46.4975 13.5275 48.8075 13.1875 51.1875 C12.5275 51.1875 11.8675 51.1875 11.1875 51.1875 C11.6825 53.6625 11.6825 53.6625 12.1875 56.1875 C13.65188 56.33187 15.11625 56.47625 16.625 56.625 C21.1875 57.1875 21.1875 57.1875 22.1875 58.1875 C22.33007 61.52368 22.22978 64.84726 22.1875 68.1875 C25.1575 68.5175 28.1275 68.8475 31.1875 69.1875 C31.30424 74.55747 29.60909 77.29581 26.1875 81.1875 C14.39257 93.4468 0.52609 101.4311 -16.78516 102.58594 C-18.7948 102.5782 -20.80445 102.57047 -22.875 102.5625 C-24.88723 102.57023 -26.89945 102.57797 -28.97266 102.58594 C-46.52934 101.38809 -59.40739 92.61414 -70.89844 79.875 C-74.08545 75.9249 -74.8125 74.42435 -74.8125 69.1875 C-72.59136 66.96636 -67.80034 67.48208 -64.8125 67.1875 C-65.09094 64.99094 -65.09094 64.99094 -65.375 62.75 C-65.51937 61.24438 -65.66375 59.73875 -65.8125 58.1875 C-63.59136 55.96636 -58.80034 56.48208 -55.8125 56.1875 C-55.4825 54.5375 -55.1525 52.8875 -54.8125 51.1875 C-55.4725 51.1875 -56.1325 51.1875 -56.8125 51.1875 C-57.8025 46.2375 -57.8025 46.2375 -58.8125 41.1875 C-59.4725 41.1875 -60.1325 41.1875 -60.8125 41.1875 C-61.4715 27.87562 -61.10723 18.30607 -52.4375 7.875 C-37.77999 -7.53903 -18.62516 -11.81494 0 0 Z " fill="currentColor" transform="translate(111.8125,41.8125)"/>
<path d="M0 0 C4.07215 0.0116 8.1443 0.0232 12.33984 0.03516 C16.41457 0.04418 20.4893 0.0532 24.6875 0.0625 C27.85215 0.0741 31.0168 0.0857 34.27734 0.09766 C35.27734 5.09766 35.27734 5.09766 35.27734 10.09766 C38.24734 10.42766 41.21734 10.75766 44.27734 11.09766 C44.77234 13.07766 44.77234 13.07766 45.27734 15.09766 C32.18532 26.61864 21.77961 28.96197 4.27734 28.09766 C1.60725 27.79303 -1.06089 27.46809 -3.72266 27.09766 C-3.72266 26.43766 -3.72266 25.77766 -3.72266 25.09766 C-5.04266 24.76766 -6.36266 24.43766 -7.72266 24.09766 C-12.91471 22.17467 -16.61396 19.8055 -20.72266 16.09766 C-20.39266 14.44766 -20.06266 12.79766 -19.72266 11.09766 C-16.42266 11.09766 -13.12266 11.09766 -9.72266 11.09766 C-9.90828 9.46828 -10.09391 7.83891 -10.28516 6.16016 C-10.47688 4.47725 -10.63303 2.78907 -10.72266 1.09766 C-8.18209 -1.44291 -3.59272 0.03609 0 0 Z " fill="none" transform="translate(77.72265625,100.90234375)"/>
</g></svg>
