<svg xmlns="http://www.w3.org/2000/svg" viewBox="0 0 24 24">
  <g transform="scale(0.5714)">
    <path fill-rule="evenodd" clip-rule="evenodd" d="M8.64997 22.9287C9.01774 23.4987 8.63027 24.3009 7.95196 24.3009H4.94354C4.01997 24.3009 3.47034 25.3116 4.03656 26.0413C4.33142 26.4212 4.63876 26.791 4.95797 27.15C5.44256 27.6949 5.0724 28.6091 4.34313 28.6091H1.67955C0.800881 28.6091 0.240084 29.5366 0.703651 30.283C4.91506 37.0642 12.4302 41.5794 21 41.5794C29.5697 41.5794 37.0849 37.0642 41.2963 30.283C41.7599 29.5366 41.1991 28.6091 40.3204 28.6091H37.6568C36.9275 28.6091 36.5574 27.6949 37.042 27.15C37.3612 26.791 37.6685 26.4212 37.9634 26.0413C38.5296 25.3116 37.98 24.3009 37.0564 24.3009H34.0476C33.3693 24.3009 32.9818 23.4987 33.3496 22.9287C34.8284 20.6369 35.6867 17.9069 35.6867 14.9765C35.6867 6.86519 29.1111 0.289673 20.9998 0.289673C12.8884 0.289673 6.3129 6.86519 6.3129 14.9765C6.3129 17.9069 7.17114 20.6369 8.64997 22.9287ZM30.6476 29.1542C29.8266 29.1542 29.416 29.1542 29.4067 29.1541C28.4005 29.1339 28.0492 28.2479 28.7683 27.5438C28.7749 27.5374 29.1208 27.2119 29.8124 26.5612L29.8387 26.5365L29.8461 26.5295C30.4423 25.9686 30.0084 25.039 29.1897 25.039H12.8103C11.9917 25.039 11.5577 25.9686 12.1539 26.5295L12.1596 26.5348L12.1701 26.5447C12.8734 27.2064 13.2251 27.5373 13.2318 27.5438C13.9508 28.2479 13.5996 29.1339 12.5934 29.1541C12.584 29.1542 12.1735 29.1542 11.3525 29.1542H9.17985C8.35974 29.1542 7.92044 30.0903 8.4981 30.6724C11.752 33.9515 16.1544 35.9641 21.0005 35.9641C25.8467 35.9641 30.249 33.9515 33.5029 30.6724C34.0806 30.0903 33.6413 29.1542 32.8212 29.1542H30.6476Z" fill="currentColor"/>
  </g>
</svg>
