<svg xmlns="http://www.w3.org/2000/svg" viewBox="0 0 24 24">
  <!-- 16 leaf petals — wide oval shape matching reference -->
  <ellipse cx="12" cy="3.8" rx="1.4" ry="2.4" fill="#0097A6" transform="rotate(0,12,12)"/>
  <ellipse cx="12" cy="3.8" rx="1.4" ry="2.4" fill="#0097A6" transform="rotate(22.5,12,12)"/>
  <ellipse cx="12" cy="3.8" rx="1.4" ry="2.4" fill="#0097A6" transform="rotate(45,12,12)"/>
  <ellipse cx="12" cy="3.8" rx="1.4" ry="2.4" fill="#0097A6" transform="rotate(67.5,12,12)"/>
  <ellipse cx="12" cy="3.8" rx="1.4" ry="2.4" fill="#0097A6" transform="rotate(90,12,12)"/>
  <ellipse cx="12" cy="3.8" rx="1.4" ry="2.4" fill="#0097A6" transform="rotate(112.5,12,12)"/>
  <ellipse cx="12" cy="3.8" rx="1.4" ry="2.4" fill="#0097A6" transform="rotate(135,12,12)"/>
  <ellipse cx="12" cy="3.8" rx="1.4" ry="2.4" fill="#0097A6" transform="rotate(157.5,12,12)"/>
  <ellipse cx="12" cy="3.8" rx="1.4" ry="2.4" fill="#0097A6" transform="rotate(180,12,12)"/>
  <ellipse cx="12" cy="3.8" rx="1.4" ry="2.4" fill="#0097A6" transform="rotate(202.5,12,12)"/>
  <ellipse cx="12" cy="3.8" rx="1.4" ry="2.4" fill="#0097A6" transform="rotate(225,12,12)"/>
  <ellipse cx="12" cy="3.8" rx="1.4" ry="2.4" fill="#0097A6" transform="rotate(247.5,12,12)"/>
  <ellipse cx="12" cy="3.8" rx="1.4" ry="2.4" fill="#0097A6" transform="rotate(270,12,12)"/>
  <ellipse cx="12" cy="3.8" rx="1.4" ry="2.4" fill="#0097A6" transform="rotate(292.5,12,12)"/>
  <ellipse cx="12" cy="3.8" rx="1.4" ry="2.4" fill="#0097A6" transform="rotate(315,12,12)"/>
  <ellipse cx="12" cy="3.8" rx="1.4" ry="2.4" fill="#0097A6" transform="rotate(337.5,12,12)"/>
  <!-- Orange ring -->
  <circle cx="12" cy="12" r="8.8" fill="#E65000"/>
  <!-- White annular separator -->
  <circle cx="12" cy="12" r="7.5" fill="#FFFFFF"/>
  <!-- Teal globe base -->
  <circle cx="12" cy="12" r="7.2" fill="#0097A6"/>
  <!-- Continent (upper center, moderate size — keeps teal dominant) -->
  <path fill="#CADB3A" d="M 10.0 7.0 C 11.5 6.2 13.5 6.5 14.8 7.5 C 16.0 8.5 16.2 10.0 15.5 11.2 C 14.8 12.2 13.5 12.5 12.5 12.0 C 11.8 12.8 11.2 13.8 10.2 14.2 C 9.2 14.5 8.2 14.0 7.8 13.0 C 7.5 12.2 7.8 11.2 8.5 10.8 C 8.0 9.8 8.0 8.5 8.8 7.8 C 9.2 7.2 9.5 7.2 10.0 7.0 Z"/>
  <path fill="#CADB3A" d="M 15.5 12.5 C 16.2 12.2 17.0 12.8 17.0 13.8 C 17.0 14.5 16.5 15.0 15.8 15.0 C 15.2 15.0 14.8 14.5 14.8 13.8 C 14.8 13.0 15.0 12.8 15.5 12.5 Z"/>
  <path fill="#CADB3A" d="M 8.0 15.0 C 8.5 14.8 9.2 15.0 9.5 15.5 C 9.8 16.2 9.5 17.0 8.8 17.2 C 8.2 17.2 7.8 16.8 7.8 16.2 C 7.8 15.5 7.8 15.2 8.0 15.0 Z"/>
</svg>
