<svg xmlns="http://www.w3.org/2000/svg" viewBox="0 0 24 24">
  <ellipse cx="12" cy="4.5" rx="0.55" ry="3.0" fill="currentColor" transform="rotate(0,12,12)"/>
  <ellipse cx="12" cy="4.5" rx="0.55" ry="3.0" fill="currentColor" transform="rotate(30,12,12)"/>
  <ellipse cx="12" cy="4.5" rx="0.55" ry="3.0" fill="currentColor" transform="rotate(60,12,12)"/>
  <ellipse cx="12" cy="4.5" rx="0.55" ry="3.0" fill="currentColor" transform="rotate(90,12,12)"/>
  <ellipse cx="12" cy="4.5" rx="0.55" ry="3.0" fill="currentColor" transform="rotate(120,12,12)"/>
  <ellipse cx="12" cy="4.5" rx="0.55" ry="3.0" fill="currentColor" transform="rotate(150,12,12)"/>
  <ellipse cx="12" cy="4.5" rx="0.55" ry="3.0" fill="currentColor" transform="rotate(180,12,12)"/>
  <ellipse cx="12" cy="4.5" rx="0.55" ry="3.0" fill="currentColor" transform="rotate(210,12,12)"/>
  <ellipse cx="12" cy="4.5" rx="0.55" ry="3.0" fill="currentColor" transform="rotate(240,12,12)"/>
  <ellipse cx="12" cy="4.5" rx="0.55" ry="3.0" fill="currentColor" transform="rotate(270,12,12)"/>
  <ellipse cx="12" cy="4.5" rx="0.55" ry="3.0" fill="currentColor" transform="rotate(300,12,12)"/>
  <ellipse cx="12" cy="4.5" rx="0.55" ry="3.0" fill="currentColor" transform="rotate(330,12,12)"/>
  <circle cx="12" cy="12" r="8.8" fill="currentColor"/>
  <circle cx="12" cy="12" r="7.3" fill="none"/>
  <circle cx="12" cy="12" r="7.0" fill="currentColor"/>
  <path fill="currentColor" fill-opacity="0.6" d="M 7.2 7.2 C 8.8 6.2 11.5 6.2 13.2 7.2 C 14.5 8.2 14.5 9.8 13.2 10.8 C 14.5 12.0 14.0 13.8 12.5 14.5 C 12.8 15.5 12.2 16.2 11.0 16.5 C 9.8 16.8 8.5 16.2 7.8 15.2 C 7.0 14.2 6.8 13.0 7.0 12.0 C 6.2 10.8 5.8 9.2 6.2 7.8 C 6.5 7.2 6.8 7.0 7.2 7.2 Z"/>
</svg>
