<svg xmlns="http://www.w3.org/2000/svg" viewBox="0 0 24 24"><g transform="translate(0 0) scale(0.0469)">
<path d="M0 0 C3.45818 2.87685 6.75519 5.88569 10 9 C10.84563 9.80437 11.69125 10.60875 12.5625 11.4375 C13.76906 12.70594 13.76906 12.70594 15 14 C15.65355 14.67031 16.30711 15.34062 16.98047 16.03125 C38.10922 38.43282 47.92213 68.88051 47.28125 99.40234 C45.59981 126.88928 36.67949 150.82608 19 172 C18.40574 172.74637 17.81148 173.49273 17.19922 174.26172 C12.4849 179.98865 6.86304 184.49248 1 189 C-0.17176 189.91266 -0.17176 189.91266 -1.36719 190.84375 C-27.25738 210.02167 -59.66182 216.08894 -91.12109 211.69141 C-97.24883 210.59915 -103.09889 208.96475 -109 207 C-110.05574 206.65195 -111.11148 206.30391 -112.19922 205.94531 C-125.97516 201.03139 -138.06273 193.6462 -149 184 C-150.19625 183.05125 -151.3925 182.1025 -152.625 181.125 C-159.50268 174.75678 -165.0255 167.20508 -170.29688 159.48438 C-171.63413 157.53369 -173.0445 155.63311 -174.48047 153.75391 C-189.80211 130.92585 -191.60485 97.84741 -186.96875 71.59766 C-182.36903 49.76752 -172.44843 30.09579 -157 14 C-155.79344 12.73156 -155.79344 12.73156 -154.5625 11.4375 C-153.71688 10.63313 -152.87125 9.82875 -152 9 C-151.32969 8.34645 -150.65938 7.69289 -149.96875 7.01953 C-109.46989 -31.17825 -44.27724 -32.45631 0 0 Z " fill="currentColor" transform="translate(327,161)"/>
<path d="M0 0 C34.15138 27.49508 55.53567 65.28539 61 109 C62.29038 159.97021 50.84563 202.00593 16 240 C-14.81288 271.19282 -55.54655 286.94618 -99 287.375 C-143.6795 286.93408 -183.38684 270.26464 -215.20703 238.83203 C-247.32328 204.98422 -259.73389 163.3672 -259.28125 117.5 C-257.92605 76.54286 -238.61344 37.35522 -209.26172 9.01562 C-150.67772 -43.19395 -62.62278 -48.0691 0 0 Z M-166 6 C-167.07895 6.5775 -168.15789 7.155 -169.26953 7.75 C-176.51969 11.77063 -182.75575 16.56741 -189 22 C-190.2317 23.03061 -190.2317 23.03061 -191.48828 24.08203 C-217.60995 46.5375 -233.55963 79.90074 -237 114 C-238.00134 142.76933 -234.06239 168.59432 -220 194 C-219.4225 195.07895 -218.845 196.15789 -218.25 197.26953 C-214.22949 204.51948 -209.43315 210.75648 -204 217 C-203.30133 217.83273 -202.60266 218.66547 -201.88281 219.52344 C-181.03257 243.73416 -151.20411 258.55788 -120 264 C-118.47633 264.27457 -118.47633 264.27457 -116.92188 264.55469 C-79.9045 268.75786 -43.27399 259.13936 -13.9375 236.125 C-12.28313 234.76028 -10.63727 233.38518 -9 232 C-7.78184 230.98486 -7.78184 230.98486 -6.53906 229.94922 C19.51877 207.46714 35.56354 174.06048 39 140 C40.00134 111.23067 36.06239 85.40568 22 60 C21.13375 58.38158 21.13375 58.38158 20.25 56.73047 C16.22949 49.48052 11.43315 43.24352 6 37 C5.30133 36.16727 4.60266 35.33453 3.88281 34.47656 C-18.72 8.23081 -50.92541 -6.9836 -85 -11 C-114.04552 -12.45066 -140.38541 -8.17802 -166 6 Z " fill="currentColor" transform="translate(355,129)"/>
<path d="M0 0 C14.22153 4.26646 27.11826 2.3741 41.61328 0.09375 C47.16512 -0.59056 52.35157 -0.91403 57.9375 -0.5625 C61.38 2.46273 63.41237 4.73998 65.9375 8.4375 C67.06672 10.05012 67.06672 10.05012 68.21875 11.69531 C87.81728 40.89712 92.55708 74.20653 85.9375 108.4375 C85.08461 111.86442 84.10478 115.10241 82.9375 118.4375 C79.25927 114.75927 78.97114 113.53088 78.8125 108.375 C78.9375 104.4375 78.9375 104.4375 79.9375 102.4375 C80.49685 95.94906 79.35085 91.97266 75.9375 86.4375 C73.24273 83.6009 71.77613 82.59474 67.9375 81.875 C63.73328 82.66329 62.56949 84.06315 59.9375 87.4375 C58.12115 90.70592 56.48946 94.03639 54.9375 97.4375 C52.59766 97.27734 52.59766 97.27734 49.9375 96.4375 C48.49609 94.06641 48.49609 94.06641 47.375 91 C46.96508 89.92105 46.55516 88.84211 46.13281 87.73047 C45.73836 86.64379 45.34391 85.55711 44.9375 84.4375 C42.75069 77.94393 42.75069 77.94393 38.9375 72.4375 C35.11017 71.89995 33.41575 72.12314 30.15625 74.26562 C29.25906 75.06484 28.36187 75.86406 27.4375 76.6875 C24.43308 79.31994 21.86964 81.4756 18.375 83.4375 C15.23468 86.01417 15.53635 87.94924 14.95703 91.80078 C13.02727 96.79154 8.67444 100.01284 4.78516 103.54297 C0.57969 107.81766 -0.92105 110.98258 -1.5 116.9375 C-2.32616 123.54681 -5.22507 126.67332 -9.875 131.125 C-13.0962 134.22668 -15.38619 137.35539 -17.6875 141.1875 C-20.31248 145.45976 -22.30947 148.40049 -27.0625 150.4375 C-31.62037 151.06859 -33.97419 151.17953 -37.8125 148.5625 C-43.04193 141.2994 -45.20994 133.25182 -45.1875 124.375 C-45.19137 122.84166 -45.19137 122.84166 -45.19531 121.27734 C-45.0625 118.4375 -45.0625 118.4375 -44.0625 114.4375 C-43.40137 106.24381 -43.79799 100.5006 -48.0625 93.4375 C-48.0625 92.7775 -48.0625 92.1175 -48.0625 91.4375 C-53.07938 88.92906 -56.92825 87.51627 -62.5625 87.125 C-67.76022 86.3309 -69.58514 85.32883 -73.0625 81.4375 C-76.61009 74.81534 -77.18669 67.79421 -76.0625 60.4375 C-74.5166 56.98549 -72.55207 54.26878 -70.0625 51.4375 C-68.94875 50.16906 -68.94875 50.16906 -67.8125 48.875 C-66.0625 47.4375 -66.0625 47.4375 -64.0625 47.4375 C-62.3656 44.0437 -61.43025 41.23881 -60.4375 37.625 C-58.36746 31.16995 -55.46967 28.40276 -50.0625 24.4375 C-50.3925 23.55062 -50.7225 22.66375 -51.0625 21.75 C-52.0625 18.4375 -52.0625 18.4375 -52.0625 13.4375 C-51.4025 12.7775 -50.7425 12.1175 -50.0625 11.4375 C-44.53255 11.4375 -43.37518 12.34362 -39.0625 15.4375 C-38.0725 15.7675 -37.0825 16.0975 -36.0625 16.4375 C-35.91555 15.70145 -35.76859 14.96539 -35.61719 14.20703 C-34.53514 9.4995 -33.71651 6.18722 -30.5 2.5 C-19.24288 -4.25427 -12.31489 -3.93268 0 0 Z " fill="currentColor" transform="translate(285.0625,176.5625)"/>
<path d="M0 0 C3.64287 7.28574 1.85138 20.71764 -0.4375 28.375 C-6.40481 43.19906 -16.56005 56.28387 -31.21484 63.01562 C-34.59803 64.21136 -37.44369 64.48495 -41 64 C-43.81238 48.80406 -41.55192 34.94502 -33 22 C-26.1176 12.46206 -12.35024 0 0 0 Z " fill="currentColor" transform="translate(361,32)"/>
<path d="M0 0 C9.14915 2.28729 14.91848 7.25674 20 15 C20.85078 16.47727 20.85078 16.47727 21.71875 17.98438 C24.46383 21.61314 27.12124 23.12692 31.125 25.25 C37.86547 28.86547 37.86547 28.86547 40 31 C39.72084 35.93188 38.58321 38.886 36 43 C35.45457 44.64459 34.91332 46.29057 34.375 47.9375 C32.48462 52.82815 30.11243 54.47679 25.52734 57.08594 C20.12656 61.17618 16.68034 67.39113 13 73 C8.51496 70.75748 7.35306 62.80731 5.75 58.35547 C1.31767 44.79136 -1.14964 31.21479 -1.125 16.9375 C-1.12758 15.4409 -1.13016 13.9443 -1.13281 12.40234 C-1.00617 8.20453 -0.59423 4.1549 0 0 Z " fill="currentColor" transform="translate(139,239)"/>
<path d="M0 0 C6.66274 3.33137 9.74849 8.7935 12.3125 15.5625 C17.21256 30.40502 15.88778 46.80234 9.55859 61.01953 C6.94173 66.02371 3.98868 70.97167 0 75 C-1.32 75 -2.64 75 -4 75 C-13.98869 63.87225 -15.69665 50.59374 -15.37891 36.20312 C-14.39023 22.62666 -10.15717 9.51121 0 0 Z " fill="currentColor" transform="translate(259,426)"/>
<path d="M0 0 C8.02745 4.01372 11.52006 12.34245 14.27344 20.55469 C16.13318 26.81383 16.20333 32.46559 16.25 39 C16.27578 41.145 16.30156 43.29 16.32812 45.5 C15.89998 53.98127 14.66433 62.32555 10.0625 69.625 C9.5791 70.42164 9.0957 71.21828 8.59766 72.03906 C7 74 7 74 3 76 C-8.92262 61.23726 -11.81888 47.67674 -11 29 C-9.80801 18.29595 -5.06885 9.37919 0 0 Z " fill="currentColor" transform="translate(240,10)"/>
<path d="M0 0 C0.6448 17.12297 -0.61223 28.82183 -12 42 C-17.02366 47.24165 -22.52372 50.76186 -29 54 C-29.66 54 -30.32 54 -31 54 C-34.36065 47.2787 -32.81357 35.50901 -31.16406 28.39453 C-26.81838 17.35534 -18.92415 6.33942 -8.375 0.5625 C-5.53356 -0.11047 -2.9114 -0.03589 0 0 Z " fill="currentColor" transform="translate(180,416)"/>
<path d="M0 0 C10.05711 2.01142 19.02744 6.61041 25.0625 15.0625 C30.62094 23.83823 32.6553 31.64618 32 42 C31.505 42.99 31.505 42.99 31 44 C20.3562 42.25511 11.54456 37.95056 4.66016 29.46875 C-1.09881 20.90482 -1.84081 12.13104 -1 2 C-0.67 1.34 -0.34 0.68 0 0 Z " fill="currentColor" transform="translate(150,42)"/>
<path d="M0 0 C0.68707 0.50145 1.37414 1.00289 2.08203 1.51953 C2.84129 2.05191 3.60055 2.5843 4.38281 3.13281 C11.22375 8.50209 15.07385 15.42357 18.08203 23.51953 C18.08203 25.16953 18.08203 26.81953 18.08203 28.51953 C4.36051 29.1561 -4.38554 26.5358 -14.91797 17.51953 C-21.76939 10.84282 -25.0937 5.08109 -25.91797 -4.48047 C-17.36886 -6.69809 -7.38417 -4.75382 0 0 Z " fill="currentColor" transform="translate(408.91796875,377.48046875)"/>
<path d="M0 0 C-0.30063 9.31951 -3.63884 15.42876 -10 22.1875 C-18.14058 27.91135 -27.08549 33.17112 -37.1875 33.0625 C-38.81752 33.04896 -38.81752 33.04896 -40.48047 33.03516 C-41.31191 33.02355 -42.14336 33.01195 -43 33 C-43.67911 25.02043 -40.7732 18.88025 -35.875 12.8125 C-26.09418 2.27445 -13.87514 -0.21346 0 0 Z " fill="currentColor" transform="translate(427,95)"/>
<path d="M0 0 C8.8361 0.16363 16.45317 4.34584 22.875 10.25 C29.29506 17.95407 32.1424 25.19943 32.0625 35.1875 C32.05348 36.64543 32.04445 38.10336 32.03516 39.60547 C32.02355 40.72566 32.01195 41.84586 32 43 C21.58873 41.89187 13.70605 36.88947 7 29 C0.62827 19.72265 -1.75615 12.30709 -1 1 C-0.67 0.67 -0.34 0.34 0 0 Z " fill="currentColor" transform="translate(342,416)"/>
<path d="M0 0 C13.60572 0.22139 25.09538 3.24718 35 13 C40.49986 19.25846 43.067 24.71966 44 33 C43 34 43 34 40.26172 34.05469 C26.36353 33.35598 16.46341 29.3837 7 19 C2.40554 13.05423 0 7.5308 0 0 Z " fill="currentColor" transform="translate(85,95)"/>
<path d="M0 0 C-0.31671 9.81813 -4.10646 16.54928 -11.1875 23.3125 C-18.96766 29.81571 -27.70655 33.18426 -37.8125 33.0625 C-38.78832 33.05348 -39.76414 33.04445 -40.76953 33.03516 C-41.87361 33.01775 -41.87361 33.01775 -43 33 C-42.7166 24.2147 -39.89511 18.17539 -33.88281 11.73047 C-23.73349 2.26596 -13.54205 -0.40026 0 0 Z " fill="currentColor" transform="translate(128,373)"/>
<path d="M0 0 C4.64717 0.26471 9.29403 0.44394 13.94531 0.62109 C18 1 18 1 21 3 C21.5 5.8125 21.5 5.8125 21 9 C15.10065 16.50826 8.19769 18.28832 -0.83984 19.42969 C-4.99682 20.1799 -8.29881 22.01722 -12 24 C-13.65 24 -15.3 24 -17 24 C-20 20 -20 20 -19.75 16.5 C-19.21211 13.98983 -18.62263 11.4905 -18 9 C-18 8.01 -18 7.02 -18 6 C-15.94765 4.79504 -13.88266 3.61159 -11.8125 2.4375 C-10.66395 1.77621 -9.51539 1.11492 -8.33203 0.43359 C-4.59906 -1.1725 -3.77559 -1.05962 0 0 Z " fill="currentColor" transform="translate(212,149)"/>
<path d="M0 0 C5.32419 0.54992 9.32386 2.44104 14.0625 4.875 C15.43535 5.57367 16.8082 6.27234 18.22266 6.99219 C20.44311 8.17245 22.64467 9.39221 24.79297 10.69922 C27.07543 12.16791 27.07543 12.16791 30.25 12.9375 C31.1575 13.28813 32.065 13.63875 33 14 C33.495 15.98 33.495 15.98 34 18 C31.26095 19.36953 29.02913 19.12621 26 19 C25.34 18.67 24.68 18.34 24 18 C22.63875 17.95875 21.2775 17.9175 19.875 17.875 C13.68259 16.76354 11.26936 14.37307 7 10 C6.32195 9.36836 5.64391 8.73672 4.94531 8.08594 C3.22563 6.46294 1.60388 4.73753 0 3 C0 2.01 0 1.02 0 0 Z " fill="currentColor" transform="translate(245,211)"/>
<path d="M0 0 C3.66701 3.66701 4.80925 6.05437 5.3125 11.1875 C5.20937 12.11562 5.10625 13.04375 5 14 C2 16 2 16 -1.75 15.875 C-6.6472 16.01904 -8.91245 17.43527 -13 20 C-13.99 20 -14.98 20 -16 20 C-13.88769 11.55074 -6.65507 5.2686 0 0 Z " fill="currentColor" transform="translate(174,172)"/>
<path d="M0 0 C1.32 0 2.64 0 4 0 C4.29255 4.97334 4.16504 8.0437 1 12 C-0.98 12.99 -0.98 12.99 -3 14 C-4 13 -4 13 -4.3125 9.8125 C-3.94751 5.35965 -2.93045 3.33746 0 0 Z " fill="currentColor" transform="translate(288,303)"/>
<path d="M0 0 C0.66 0.66 1.32 1.32 2 2 C0.75482 3.13033 -0.49637 4.25405 -1.75 5.375 C-2.44609 6.00148 -3.14219 6.62797 -3.85938 7.27344 C-6 9 -6 9 -10 11 C-8.12078 7.24156 -6.97529 5.85025 -3.875 3.25 C-3.15055 2.63641 -2.42609 2.02281 -1.67969 1.39062 C-0.84824 0.70227 -0.84824 0.70227 0 0 Z " fill="currentColor" transform="translate(174,172)"/>
</g></svg>
