<svg xmlns="http://www.w3.org/2000/svg" viewBox="0 0 24 24">
  <g fill="currentColor">
    <rect x="2.25" y="6.75" width="11.25" height="10.5" rx="3.5" opacity="0.3"/>
    <rect x="4.25" y="4.25" width="13.25" height="15.5" rx="3.75" opacity="0.55"/>
    <path fill-rule="evenodd" d="M10.75 2.5A4 4 0 0 0 6.75 6.5V17.5A4 4 0 0 0 10.75 21.5H16A4 4 0 0 0 20 17.5V6.5A4 4 0 0 0 16 2.5H10.75ZM11.125 9.93487V14.0651C11.125 14.6449 11.7547 15.0054 12.2547 14.7119L15.773 12.6468C16.2668 12.357 16.2668 11.643 15.773 11.3532L12.2547 9.28806C11.7547 8.99459 11.125 9.35512 11.125 9.93487Z"/>
  </g>
</svg>
