<svg xmlns="http://www.w3.org/2000/svg" viewBox="0 0 24 24"><defs><linearGradient id="a" gradientUnits="userSpaceOnUse" x1="0" x2="1" y1="0" y2="0" gradientTransform="matrix(0 -299.998 299.998 0 152.889 298.93)"><stop offset="0" stop-color="#bdbdbd"/><stop offset="1" stop-color="#fff"/></linearGradient><radialGradient id="b" cx="159.376" cy="131.129" gradientUnits="userSpaceOnUse" r="150"><stop offset="0" stop-color="#06c2e7"/><stop offset=".25" stop-color="#0db8ec"/><stop offset=".5" stop-color="#12aef1"/><stop offset=".75" stop-color="#1f86f9"/><stop offset="1" stop-color="#107ddd"/></radialGradient></defs><g transform="translate(-10.4 -4)scale(.08)"><g fill-rule="nonzero"><path fill="url(#a)" stroke="#cdcdcd" stroke-width=".45" d="M430 200c0 82.288-67.713 150-150 150-82.288 0-150-67.712-150-150s67.712-150 150-150c82.287 0 150 67.712 150 150z"/><path fill="url(#b)" d="M418.246 200c0 75.84-62.406 138.246-138.246 138.246s-138.246-62.406-138.246-138.246 62.406-138.246 138.246-138.246 138.246 62.406 138.246 138.246z"/><g fill="#f4f2f3"><circle cx="280" cy="83" r="2.01"/><circle cx="280" cy="317" r="2.01"/><circle cx="163" cy="200" r="2.01"/><circle cx="397" cy="200" r="2.01"/><circle cx="217" cy="93" r="2"/><circle cx="343" cy="93" r="2"/><circle cx="217" cy="307" r="2"/><circle cx="343" cy="307" r="2"/><circle cx="173" cy="137" r="2"/><circle cx="173" cy="263" r="2"/><circle cx="387" cy="137" r="2"/><circle cx="387" cy="263" r="2"/></g><path fill="#ff5150" d="m295.804 216.55-31.609-33.101 112.128-75.428z"/><path fill="#f1f1f1" d="m295.804 216.55-31.609-33.101-80.518 108.53z"/><path fill="#bdbdbd" fill-opacity=".24" d="m183.677 291.979 112.127-75.429 80.519-108.529z"/></g></g></svg>
