<svg xmlns="http://www.w3.org/2000/svg" viewBox="0 0 24 24" fill="currentColor"><g transform="translate(-10.4 -4)scale(.08)"><circle cx="280" cy="200" r="150" fill="none" stroke="currentColor" stroke-width="11.75"/><circle cx="280" cy="83" r="2.01"/><circle cx="280" cy="317" r="2.01"/><circle cx="163" cy="200" r="2.01"/><circle cx="397" cy="200" r="2.01"/><circle cx="217" cy="93" r="2"/><circle cx="343" cy="93" r="2"/><circle cx="217" cy="307" r="2"/><circle cx="343" cy="307" r="2"/><circle cx="173" cy="137" r="2"/><circle cx="173" cy="263" r="2"/><circle cx="387" cy="137" r="2"/><circle cx="387" cy="263" r="2"/><path d="m295.804 216.55-31.609-33.101 112.128-75.428z"/><path opacity=".5" d="m295.804 216.55-31.609-33.101-80.518 108.53z"/><path opacity=".3" d="m183.677 291.979 112.127-75.429 80.519-108.529z"/></g></svg>
