<svg xmlns="http://www.w3.org/2000/svg" viewBox="0 0 24 24">
  <g transform="scale(0.0067055)">
    <defs>
      <clipPath id="sv-frame">
        <path d="M256.4 332.894h2734.95c141.02 0 256.4 115.38 256.4 256.4v2734.95c0 141.02-115.38 256.4-256.4 256.4H256.4C115.38 3580.65 0 3465.27 0 3324.247V589.295c0-141.02 115.38-256.4 256.4-256.4z"/>
      </clipPath>
    </defs>
    <g clip-path="url(#sv-frame)">
      <path fill="#139F5A" d="M0 332.894h3247.753V3580.65H0z"/>
      <path fill="#F5F5F5" d="M0 3324.247 2991.352 332.894h-42.734L0 3281.512z"/>
      <path fill="#CDCDCD" d="M3247.753 632.03 299.135 3580.65h2691.218c141.02 0 256.4-115.38 256.4-256.4z"/>
      <path fill="#EEEEEE" d="M723.473 981.922v182.045h252.983c-20.085 108.116-114.953 186.746-252.983 186.746-153.413 0-278.195-129.9-278.195-282.896S570.06 784.92 723.473 784.92c69.23 0 130.765 23.93 179.91 70.083l134.61-134.61c-81.62-76.493-187.6-123.073-314.52-123.073-259.82 0-470.07 210.25-470.07 470.07s210.25 470.07 470.07 470.07c271.358 0 451.267-191.02 451.267-459.386 0-33.332-2.99-65.383-8.546-96.15h-442.722z"/>
      <path fill="#F79022" d="M2308.514 1934.965c-229.906 63.44-693.015 234.28-693.015 496.977v1148.708h1632.254V1957.1c-283.896-91.045-561.407-123.43-924.863-26.037l-14.376 3.902z"/>
      <path fill="#FFC107" d="M2322.888 1931.053l-6.488 1.752-1.467.4-6.42 1.76c-73.224 20.225-169.594 51.368-266.9 92.926l703.25 705.126 502.888-506.713V1957.1c-283.896-91.045-561.407-123.43-924.863-26.037z"/>
    </g>
    <path fill="#FFC107" d="M2725.28 0c471.586 0 853.874 382.294 853.874 853.873 0 471.586-382.288 853.874-853.874 853.874-471.58 0-853.874-382.287-853.874-853.874C1871.407 382.294 2253.702 0 2725.28 0z"/>
  </g>
</svg>
