<svg xmlns="http://www.w3.org/2000/svg" viewBox="0 0 24 24">
  <g transform="scale(0.0067055)" fill="currentColor" fill-rule="evenodd">
    <path d="M256.4 332.894h2734.95c141.02 0 256.4 115.38 256.4 256.4v2734.95c0 141.02-115.38 256.4-256.4 256.4H256.4C115.38 3580.65 0 3465.27 0 3324.247V589.295c0-141.02 115.38-256.4 256.4-256.4zM723.473 981.922v182.045h252.983c-20.085 108.116-114.953 186.746-252.983 186.746-153.413 0-278.195-129.9-278.195-282.896S570.06 784.92 723.473 784.92c69.23 0 130.765 23.93 179.91 70.083l134.61-134.61c-81.62-76.493-187.6-123.073-314.52-123.073-259.82 0-470.07 210.25-470.07 470.07s210.25 470.07 470.07 470.07c271.358 0 451.267-191.02 451.267-459.386 0-33.332-2.99-65.383-8.546-96.15h-442.722z"/>
    <path d="M2725.28 0c471.586 0 853.874 382.294 853.874 853.873 0 471.586-382.288 853.874-853.874 853.874-471.58 0-853.874-382.287-853.874-853.874C1871.407 382.294 2253.702 0 2725.28 0z"/>
  </g>
</svg>
