<svg xmlns="http://www.w3.org/2000/svg" viewBox="0 0 24 24" fill="none">
  <defs>
    <linearGradient id="paint0_linear" x1="21.4874" y1="16.2949" x2="33.4689" y2="21.4377" gradientUnits="userSpaceOnUse">
      <stop stop-color="#6D4AFF"/>
      <stop offset="1" stop-color="#6D4AFF" stop-opacity="0.5"/>
    </linearGradient>
    <linearGradient id="paint1_linear" x1="30.9044" y1="29.7546" x2="38.8488" y2="46.2185" gradientUnits="userSpaceOnUse">
      <stop offset="0.475962" stop-color="#6D4AFF"/>
      <stop offset="0.730769" stop-color="#E6AD32"/>
      <stop offset="0.903064" stop-color="#F2FB00"/>
    </linearGradient>
    <radialGradient id="paint2_radial" cx="0" cy="0" r="1" gradientUnits="userSpaceOnUse" gradientTransform="translate(29.6108 24.1841) rotate(114.099) scale(23.804 25.8)">
      <stop offset="0.475962" stop-color="#6D4AFF"/>
      <stop offset="0.730769" stop-color="#E6AD32"/>
      <stop offset="0.903064" stop-color="#F2FB00"/>
    </radialGradient>
  </defs>
  <g transform="scale(0.4)">
    <path d="M6.6001 19.6001C6.6001 12.4204 12.4204 6.6001 19.6001 6.6001H40.4001C47.5798 6.6001 53.4001 12.4204 53.4001 19.6001V40.4001C53.4001 47.5798 47.5798 53.4001 40.4001 53.4001H19.6001C12.4204 53.4001 6.6001 47.5798 6.6001 40.4001V19.6001Z" fill="white"/>
    <path d="M19.6001 7.16846H40.3999C47.2655 7.16846 52.8315 12.7345 52.8315 19.6001V40.3999C52.8315 47.2655 47.2655 52.8315 40.3999 52.8315H19.6001C12.7345 52.8315 7.16846 47.2655 7.16846 40.3999V19.6001C7.16846 12.7345 12.7345 7.16846 19.6001 7.16846Z" stroke="black" stroke-opacity="0.1" stroke-width="1.1375"/>
    <path d="M31.8506 28.7004C31.8506 29.7028 31.2588 30.5636 30.4092 30.9629V32.744C30.4092 33.3273 29.9363 33.8003 29.3501 33.8003C28.764 33.8003 28.2939 33.3273 28.2939 32.744V30.9629C27.4415 30.5636 26.8525 29.7028 26.8525 28.7004C26.8525 27.3185 27.971 26.2 29.3501 26.2C30.7293 26.2 31.8506 27.3185 31.8506 28.7004Z" fill="#E6E6E6"/>
    <path d="M35.0371 35.1245C35.2011 34.9437 35.3537 34.7571 35.4978 34.5623C35.3565 34.7544 35.2011 34.9437 35.0371 35.1245Z" fill="#E6E6E6"/>
    <path d="M36.3975 32.9935C36.6297 32.4442 36.7967 31.8751 36.8959 31.2974C36.7996 31.8778 36.6325 32.4442 36.3975 32.9935Z" fill="#E6E6E6"/>
    <path d="M37.0106 29.9973C37.0106 30.0822 37.0077 30.17 37.0048 30.2549C36.9992 30.4872 36.9794 30.7194 36.9482 30.9488C36.9765 30.7136 36.9964 30.4815 37.0021 30.2464C37.0077 30.1643 37.0106 30.0822 37.0106 29.9973Z" fill="#E6E6E6"/>
    <path d="M32.6767 19.0244C32.6767 19.0867 32.6738 19.1461 32.671 19.2084C32.671 19.2396 32.6682 19.2707 32.6625 19.3019C32.6596 19.367 32.6512 19.4293 32.6427 19.4944C32.6342 19.5624 32.6229 19.6275 32.6087 19.6926C32.6087 19.7153 32.6002 19.7351 32.5946 19.7521C32.5832 19.8087 32.569 19.8654 32.5521 19.922C32.5323 20.0041 32.504 20.0834 32.4756 20.1599C32.4586 20.2137 32.4359 20.2646 32.4161 20.3156C32.4048 20.3439 32.3934 20.3694 32.3822 20.3921C32.3538 20.4544 32.3255 20.5138 32.2944 20.5705C32.2632 20.6299 32.2292 20.6894 32.1953 20.746C32.1386 20.8366 32.0791 20.9244 32.0168 21.0094C31.9432 21.1085 31.8612 21.2048 31.7762 21.2954C31.7252 21.3492 31.6742 21.403 31.6204 21.4511C31.5638 21.5021 31.51 21.5531 31.4505 21.5984C31.2778 21.74 31.0909 21.8645 30.8926 21.9693H30.8899C30.0148 21.4086 29.0945 20.9556 28.1401 20.6044C27.823 20.4884 27.503 20.3836 27.1802 20.2901C27.0159 20.242 26.8545 20.1995 26.6903 20.1599C24.4362 19.5964 22.0717 19.5907 19.8119 20.1372C19.6278 20.1825 19.4409 20.2335 19.2569 20.2845C19.0728 20.3383 18.8887 20.3949 18.7075 20.4544C18.8774 20.2618 19.0558 20.0721 19.2399 19.888C19.3362 19.7946 19.4296 19.704 19.5231 19.6134C19.6958 19.4491 19.8685 19.2905 20.0498 19.1405C20.1432 19.0583 20.2367 18.9819 20.3301 18.9026C20.5057 18.7582 20.6869 18.6194 20.8682 18.4863C20.8795 18.4778 20.888 18.4722 20.8965 18.4637C20.9956 18.3957 21.0919 18.3221 21.1881 18.257C21.8508 17.7954 22.5446 17.3933 23.261 17.0563C23.4649 16.9601 23.6717 16.8723 23.8812 16.7845C23.9888 16.7392 24.0992 16.6967 24.2097 16.6542C24.3145 16.6118 24.422 16.575 24.5268 16.5353C24.6344 16.4985 24.7449 16.4617 24.8525 16.4249C24.9601 16.3881 25.0705 16.3541 25.1752 16.3201C25.2829 16.2889 25.3933 16.2578 25.501 16.2266C25.9399 16.1049 26.3816 16.0029 26.8262 15.9237C26.9366 15.9038 27.0471 15.8869 27.1603 15.8699C27.8287 15.7651 28.5026 15.7113 29.1794 15.7028C29.2389 15.7028 29.2955 15.7 29.3522 15.7C29.4088 15.7 29.4683 15.7028 29.5249 15.7028C31.2834 15.7906 32.6795 17.2432 32.6767 19.0244Z" fill="white"/>
    <path d="M32.6767 19.0244C32.6767 19.0867 32.6738 19.1461 32.671 19.2084C32.671 19.2396 32.6682 19.2707 32.6625 19.3019C32.6596 19.367 32.6512 19.4293 32.6427 19.4944C32.6342 19.5624 32.6229 19.6275 32.6087 19.6926C32.6087 19.7153 32.6002 19.7351 32.5946 19.7521C32.5832 19.8087 32.569 19.8654 32.5521 19.922C32.5323 20.0041 32.504 20.0834 32.4756 20.1599C32.4586 20.2137 32.4359 20.2646 32.4161 20.3156C32.4048 20.3439 32.3934 20.3694 32.3822 20.3921C32.3538 20.4544 32.3255 20.5138 32.2944 20.5705C32.2632 20.6299 32.2292 20.6894 32.1953 20.746C32.1386 20.8366 32.0791 20.9244 32.0168 21.0094C31.9432 21.1085 31.8612 21.2048 31.7762 21.2954C31.7252 21.3492 31.6742 21.403 31.6204 21.4511C31.5638 21.5021 31.51 21.5531 31.4505 21.5984C31.2778 21.74 31.0909 21.8645 30.8926 21.9693H30.8899C30.0148 21.4086 29.0945 20.9556 28.1401 20.6044C27.823 20.4884 27.503 20.3836 27.1802 20.2901C27.0159 20.242 26.8545 20.1995 26.6903 20.1599C24.4362 19.5964 22.0717 19.5907 19.8119 20.1372C19.6278 20.1825 19.4409 20.2335 19.2569 20.2845C19.0728 20.3383 18.8887 20.3949 18.7075 20.4544C18.8774 20.2618 19.0558 20.0721 19.2399 19.888C19.3362 19.7946 19.4296 19.704 19.5231 19.6134C19.6958 19.4491 19.8685 19.2905 20.0498 19.1405C20.1432 19.0583 20.2367 18.9819 20.3301 18.9026C20.5057 18.7582 20.6869 18.6194 20.8682 18.4863C20.8795 18.4778 20.888 18.4722 20.8965 18.4637C20.9956 18.3957 21.0919 18.3221 21.1881 18.257C21.8508 17.7954 22.5446 17.3933 23.261 17.0563C23.4649 16.9601 23.6717 16.8723 23.8812 16.7845C23.9888 16.7392 24.0992 16.6967 24.2097 16.6542C24.3145 16.6118 24.422 16.575 24.5268 16.5353C24.6344 16.4985 24.7449 16.4617 24.8525 16.4249C24.9601 16.3881 25.0705 16.3541 25.1752 16.3201C25.2829 16.2889 25.3933 16.2578 25.501 16.2266C25.9399 16.1049 26.3816 16.0029 26.8262 15.9237C26.9366 15.9038 27.0471 15.8869 27.1603 15.8699C27.8287 15.7651 28.5026 15.7113 29.1794 15.7028C29.2389 15.7028 29.2955 15.7 29.3522 15.7C29.4088 15.7 29.4683 15.7028 29.5249 15.7028C31.2834 15.7906 32.6795 17.2432 32.6767 19.0244Z" fill="url(#paint0_linear)" fill-opacity="0.73"/>
    <path d="M43.652 30.0005C43.652 30.057 43.652 30.1137 43.652 30.1732C43.6435 30.85 43.5897 31.5239 43.4849 32.1922C43.4708 32.3054 43.451 32.4159 43.4311 32.5263C43.3518 32.9709 43.2527 33.4126 43.1281 33.8515C43.0969 33.9592 43.0686 34.0696 43.0346 34.1772C43.0007 34.282 42.9667 34.3924 42.9299 34.5C42.8959 34.6105 42.8563 34.718 42.8194 34.8257C42.7798 34.9305 42.743 35.038 42.7005 35.1428C42.658 35.2532 42.6155 35.3636 42.5703 35.4713C42.4853 35.6808 42.3947 35.8875 42.2984 36.0914C41.9614 36.8078 41.5621 37.5016 41.0977 38.1642C41.0326 38.2605 40.9618 38.3568 40.891 38.4559C40.8825 38.4644 40.8768 38.4729 40.8712 38.4842C40.7352 38.6626 40.5965 38.8467 40.4521 39.0222C40.3728 39.1156 40.2963 39.2091 40.217 39.3026C40.0641 39.4838 39.9055 39.6565 39.7414 39.8293C39.6506 39.9227 39.56 40.0161 39.4666 40.1125C37.8355 41.7435 35.9043 42.9017 33.854 43.5784C37.1983 39.8576 38.249 34.8058 37.0058 30.2553C37.0058 30.2524 37.0029 30.2497 37.0029 30.2468C37.0087 30.1647 37.0115 30.0826 37.0115 29.9976C37.0115 28.1627 38.4981 26.676 40.3332 26.676C42.1115 26.6732 43.5642 28.0693 43.652 29.8277C43.652 29.8843 43.652 29.9438 43.652 30.0005Z" fill="white"/>
    <path d="M43.652 30.0005C43.652 30.057 43.652 30.1137 43.652 30.1732C43.6435 30.85 43.5897 31.5239 43.4849 32.1922C43.4708 32.3054 43.451 32.4159 43.4311 32.5263C43.3518 32.9709 43.2527 33.4126 43.1281 33.8515C43.0969 33.9592 43.0686 34.0696 43.0346 34.1772C43.0007 34.282 42.9667 34.3924 42.9299 34.5C42.8959 34.6105 42.8563 34.718 42.8194 34.8257C42.7798 34.9305 42.743 35.038 42.7005 35.1428C42.658 35.2532 42.6155 35.3636 42.5703 35.4713C42.4853 35.6808 42.3947 35.8875 42.2984 36.0914C41.9614 36.8078 41.5621 37.5016 41.0977 38.1642C41.0326 38.2605 40.9618 38.3568 40.891 38.4559C40.8825 38.4644 40.8768 38.4729 40.8712 38.4842C40.7352 38.6626 40.5965 38.8467 40.4521 39.0222C40.3728 39.1156 40.2963 39.2091 40.217 39.3026C40.0641 39.4838 39.9055 39.6565 39.7414 39.8293C39.6506 39.9227 39.56 40.0161 39.4666 40.1125C37.8355 41.7435 35.9043 42.9017 33.854 43.5784C37.1983 39.8576 38.249 34.8058 37.0058 30.2553C37.0058 30.2524 37.0029 30.2497 37.0029 30.2468C37.0087 30.1647 37.0115 30.0826 37.0115 29.9976C37.0115 28.1627 38.4981 26.676 40.3332 26.676C42.1115 26.6732 43.5642 28.0693 43.652 29.8277C43.652 29.8843 43.652 29.9438 43.652 30.0005Z" fill="url(#paint1_linear)" fill-opacity="0.5"/>
    <path d="M33.8509 43.5788C28.8811 45.2184 23.192 44.0631 19.2389 40.1128C13.8387 34.7128 13.6603 26.0677 18.7065 20.4552C18.8878 20.3958 19.0718 20.3391 19.2559 20.2853C19.44 20.2344 19.6269 20.1834 19.8109 20.1381C22.0707 19.5887 24.4352 19.5944 26.6893 20.1607C26.8535 20.2004 27.0149 20.2429 27.1792 20.291C27.5021 20.3844 27.822 20.4892 28.1391 20.6053C29.0935 20.9564 30.0138 21.4095 30.8889 21.9702C30.8322 22.0014 30.7727 22.0297 30.7133 22.058C30.6539 22.0806 30.5943 22.1061 30.5349 22.1287C30.4754 22.1514 30.4131 22.1741 30.3508 22.1939C30.3479 22.1939 30.3452 22.1939 30.3423 22.1967C30.0931 22.2732 29.8326 22.3213 29.5607 22.3383C29.4928 22.3411 29.4248 22.344 29.3541 22.344C27.3944 22.344 25.4348 23.0915 23.9396 24.5867C20.9521 27.5769 20.9493 32.4219 23.9396 35.4123C26.93 38.4025 31.7781 38.3997 34.7655 35.4123C34.859 35.3188 34.9496 35.2253 35.0374 35.1263C35.2017 34.9451 35.3546 34.7581 35.499 34.5627C35.5698 34.4664 35.6406 34.3645 35.7114 34.2625C35.7793 34.1635 35.8445 34.0587 35.9068 33.9567C35.9691 33.8519 36.0285 33.7472 36.0851 33.6424C36.1446 33.5348 36.1984 33.4272 36.2494 33.3197C36.3003 33.212 36.3513 33.1045 36.3967 32.9939C36.6288 32.4446 36.796 31.8755 36.895 31.2978C36.9149 31.1817 36.9318 31.0656 36.946 30.9495C36.9743 30.7144 36.9941 30.4823 36.9998 30.2472C36.9998 30.2501 37.0027 30.2528 37.0027 30.2557C38.2458 34.8062 37.1952 39.858 33.8509 43.5788Z" fill="#6D4AFF"/>
    <path d="M33.8509 43.5788C28.8811 45.2184 23.192 44.0631 19.2389 40.1128C13.8387 34.7128 13.6603 26.0677 18.7065 20.4552C18.8878 20.3958 19.0718 20.3391 19.2559 20.2853C19.44 20.2344 19.6269 20.1834 19.8109 20.1381C22.0707 19.5887 24.4352 19.5944 26.6893 20.1607C26.8535 20.2004 27.0149 20.2429 27.1792 20.291C27.5021 20.3844 27.822 20.4892 28.1391 20.6053C29.0935 20.9564 30.0138 21.4095 30.8889 21.9702C30.8322 22.0014 30.7727 22.0297 30.7133 22.058C30.6539 22.0806 30.5943 22.1061 30.5349 22.1287C30.4754 22.1514 30.4131 22.1741 30.3508 22.1939C30.3479 22.1939 30.3452 22.1939 30.3423 22.1967C30.0931 22.2732 29.8326 22.3213 29.5607 22.3383C29.4928 22.3411 29.4248 22.344 29.3541 22.344C27.3944 22.344 25.4348 23.0915 23.9396 24.5867C20.9521 27.5769 20.9493 32.4219 23.9396 35.4123C26.93 38.4025 31.7781 38.3997 34.7655 35.4123C34.859 35.3188 34.9496 35.2253 35.0374 35.1263C35.2017 34.9451 35.3546 34.7581 35.499 34.5627C35.5698 34.4664 35.6406 34.3645 35.7114 34.2625C35.7793 34.1635 35.8445 34.0587 35.9068 33.9567C35.9691 33.8519 36.0285 33.7472 36.0851 33.6424C36.1446 33.5348 36.1984 33.4272 36.2494 33.3197C36.3003 33.212 36.3513 33.1045 36.3967 32.9939C36.6288 32.4446 36.796 31.8755 36.895 31.2978C36.9149 31.1817 36.9318 31.0656 36.946 30.9495C36.9743 30.7144 36.9941 30.4823 36.9998 30.2472C36.9998 30.2501 37.0027 30.2528 37.0027 30.2557C38.2458 34.8062 37.1952 39.858 33.8509 43.5788Z" fill="url(#paint2_radial)" fill-opacity="0.85"/>
    <path d="M31.8506 28.7004C31.8506 29.7028 31.2588 30.5636 30.4092 30.9629V32.744C30.4092 33.3273 29.9363 33.8003 29.3501 33.8003C28.764 33.8003 28.2939 33.3273 28.2939 32.744V30.9629C27.4415 30.5636 26.8525 29.7028 26.8525 28.7004C26.8525 27.3185 27.971 26.2 29.3501 26.2C30.7293 26.2 31.8506 27.3185 31.8506 28.7004Z" fill="#BE3232"/>
    <path d="M31.8506 28.7004C31.8506 29.7028 31.2588 30.5636 30.4092 30.9629V32.744C30.4092 33.3273 29.9363 33.8003 29.3501 33.8003C28.764 33.8003 28.2939 33.3273 28.2939 32.744V30.9629C27.4415 30.5636 26.8525 29.7028 26.8525 28.7004C26.8525 27.3185 27.971 26.2 29.3501 26.2C30.7293 26.2 31.8506 27.3185 31.8506 28.7004Z" fill="#8F69FF"/>
  </g>
</svg>
