<svg xmlns="http://www.w3.org/2000/svg" viewBox="0 0 24 24">
  <g transform="translate(2.1164 0) scale(0.046875) translate(-45 0)" fill="currentColor" fill-rule="evenodd">
    <path d="m466.647 140.549-210.823-140.549-210.824 140.549v341.357c0 16.62 13.551 30.094 30.155 30.094h361.337c16.654 0 30.155-13.577 30.155-30.094zM95.196 150.588h80.314v80.314h-80.314zM215.667 150.588h80.313v80.314h-80.313zM336.137 150.588h80.314v80.314h-80.314zM336.137 271.059h80.314v80.314h-80.314zM215.667 271.059h80.313v80.314h-80.313zM95.196 271.059h80.314v80.314h-80.314zM95.196 391.53h80.314v80.313h-80.314zM215.667 391.53h80.313v80.313h-80.313zM336.137 391.53h80.314v80.313h-80.314z"/>
  </g>
</svg>
