<svg xmlns="http://www.w3.org/2000/svg" viewBox="0 0 24 24">
  <defs>
    <linearGradient id="gm13-grad" gradientUnits="userSpaceOnUse" x1="4562.665" y1="4155.487" x2="7756.132" y2="4043.716">
      <stop offset="0" stop-color="#CECECE" stop-opacity="0.48"/>
      <stop offset="1" stop-color="#EAEAEA" stop-opacity="1"/>
    </linearGradient>
  </defs>
  <g transform="translate(0 3.274) scale(0.001995)">
    <path fill="#D23F31" d="M31.934 823.146V7932.601c0 451.178 369.145 820.321 820.322 820.321h546.881V823.146Z"/>
    <path fill="#C53929" d="M10696.116 823.146V8752.922h546.882c451.177 0 820.321-369.144 820.321-820.321V823.146Z"/>
    <path fill="#EEEEEE" d="M1399.138 8750.098H10696.116V2190.019L6047.627 5369.005Z"/>
    <path fill="url(#gm13-grad)" d="m299.388 1441.041 8486.636 7305.054 1910.092 4.003 13.972-6558.592-4662.461 3177.499z"/>
    <path fill="#E4E4E4" d="m1399.137 2401.718 4648.49 2967.287-4648.489 3381.093z"/>
    <path fill="#D0D0D0" d="M1417.096 2175.536v201.268l3992.361 3456.525 638.17-464.324z"/>
    <path fill="#B0473E" d="M299.388 1441.041 1395.146 2389.733V2189.809Z"/>
    <path fill="#F1F1F1" d="M852.257 0 6047.627 3554.727 11242.997 0Z"/>
    <path fill="#DB4437" d="M11242.997 0 6047.627 3554.727 852.257 0C401.08 0 31.935 369.145 31.935 820.322c0 280.961 141.505 529.108 356.84 676.766L6047.627 5369.005 11706.479 1497.088c215.334-147.658 356.84-395.805 356.84-676.766C12063.319 369.145 11694.174 0 11242.997 0Z"/>
  </g>
</svg>
