<svg xmlns="http://www.w3.org/2000/svg" viewBox="0 0 24 24">
  <g fill="currentColor" transform="translate(0 3.274) scale(0.001995)">
    <path d="M11242.997 0H852.257C401.08 0 31.935 369.145 31.935 820.322v7112.279c0 451.177 369.145 820.321 820.322 820.321h10390.74c451.177 0 820.321-369.144 820.321-820.321V820.322C12063.318 369.145 11694.174 0 11242.997 0ZM6047.627 5369.005 388.775 1497.088C173.44 1349.43 31.935 1101.283 31.935 820.322 31.935 369.145 401.08 0 852.257 0l5195.37 3554.727L11242.997 0c451.177 0 820.321 369.145 820.321 820.322 0 280.961-141.505 529.108-356.84 676.766L6047.627 5369.005Z"/>
  </g>
</svg>
