<svg xmlns="http://www.w3.org/2000/svg" viewBox="0 0 24 24" fill="currentColor">
  <g transform="scale(0.1244)">
    <path d="M40.621 157.524 11.213 135.467a4.46 4.46 0 0 1-2.171-2.59 4.46 4.46 0 0 1-.77-3.29V63.414a4.46 4.46 0 0 1 .77-3.29 4.46 4.46 0 0 1 2.17-2.591l29.408-22.057a4.85 4.85 0 0 0-2.021 2.69 4.85 4.85 0 0 0-.819 3.19v110.286a4.85 4.85 0 0 0 .819 3.19 4.85 4.85 0 0 0 2.021 2.692M181.456 38.895a7.4 7.4 0 0 0-4.08-1.213 5.7 5.7 0 0 0-2.742.523 5.7 5.7 0 0 0-2.331 1.534l-.514.515-58.673 56.246-32.462 31.137L50.62 156.42l-.515.516a5.4 5.4 0 0 1-1.83 1.536 5.4 5.4 0 0 1-2.243.524 7.07 7.07 0 0 1-4.411-1.472L11.213 135.467a7.04 7.04 0 0 0 5.218 1.428 7.04 7.04 0 0 0 4.78-2.531L53.855 96.464l26.8-31.1 46.946-54.52a6.27 6.27 0 0 1 2.491-1.91 6.27 6.27 0 0 1 3.06-.673c1.448-.005 2.866.417 4.078 1.213zM181.456 154.105l-44.114 29.41a8.06 8.06 0 0 1-5.081 1.143 8.06 8.06 0 0 1-4.585-2.466l-47.022-54.555-26.8-31.173L37.682 77.716 21.21 58.598a8.07 8.07 0 0 0-4.79-2.495 8.07 8.07 0 0 0-5.207 1.43L40.62 35.476a7.04 7.04 0 0 1 4.412-1.472 5.4 5.4 0 0 1 2.743.523 5.4 5.4 0 0 1 2.331 1.536l.515.516 30.034 28.784 32.462 31.137 27.46 26.323 31.211 29.923.514.516a5.7 5.7 0 0 0 2.331 1.534 5.7 5.7 0 0 0 2.742.523 7.4 7.4 0 0 0 4.08-1.213M184.729 45.032v102.935a6.36 6.36 0 0 1-.868 3.479 6.36 6.36 0 0 1-2.405 2.659l-44.114 29.41a6.83 6.83 0 0 0 2.405-2.659 6.83 6.83 0 0 0 .868-3.48V15.625a6.94 6.94 0 0 0-.923-3.494 6.94 6.94 0 0 0-2.46-2.646l44.225 29.41a6.85 6.85 0 0 1 2.4 2.66 6.85 6.85 0 0 1 .872 3.477"/>
  </g>
</svg>
