<svg xmlns="http://www.w3.org/2000/svg" viewBox="0 0 24 24" fill="none">
  <g transform="translate(-8.48 -13.6) scale(0.04)">
    <path fill="currentColor" d="M312 840C312 784.772 356.772 740 412 740H512V840C512 895.228 467.228 940 412 940C356.772 940 312 895.228 312 840Z"/>
    <path fill="currentColor" d="M512 340V540H612C667.228 540 712 495.228 712 440C712 384.772 667.228 340 612 340H512Z"/>
    <circle fill="currentColor" cx="611.167" cy="640" r="100"/>
    <path fill="currentColor" d="M312 440C312 495.228 356.772 540 412 540H512V340H412C356.772 340 312 384.772 312 440Z"/>
    <path fill="currentColor" d="M312 640C312 695.228 356.772 740 412 740H512V540H412C356.772 540 312 584.772 312 640Z"/>
  </g>
</svg>
