<svg xmlns="http://www.w3.org/2000/svg" viewBox="0 0 24 24">
  <defs>
    <linearGradient id="gf-2014-fold" x1="50%" y1="8.59%" x2="50%" y2="100%">
      <stop offset="0%" stop-color="#311B92" stop-opacity="0.2"/>
      <stop offset="100%" stop-color="#311B92" stop-opacity="0.02"/>
    </linearGradient>
  </defs>
  <g transform="translate(3.2727 0) scale(0.36364)">
    <path fill="#673AB7" d="M29.5833 0H4.4375C1.9969 0 0 1.9969 0 4.4375v56.2083C0 63.0865 1.9969 65.0833 4.4375 65.0833h38.4583c2.4406 0 4.4375-1.9968 4.4375-4.4375V17.75L29.5833 0z"/>
    <path fill="#B39DDB" d="M29.5833 0v13.3125c0 2.4517 1.9858 4.4375 4.4375 4.4375h13.3125L29.5833 0z"/>
    <path fill="url(#gf-2014-fold)" d="M30.8813 16.4520L47.3333 32.9004V17.75z"/>
    <path fill="#F1F1F1" d="M19.2292 50.2917H35.5v-2.9584H19.2292v2.9584zm0-17.7501v2.9584H35.5v-2.9584H19.2292zm-3.6979 1.4792c0 1.224-.9948 2.2187-2.2188 2.2187s-2.2188-.9947-2.2188-2.2187.9948-2.2188 2.2188-2.2188 2.2188.9948 2.2188 2.2188zm0 7.3958c0 1.2241-.9948 2.2188-2.2188 2.2188s-2.2188-.9947-2.2188-2.2188.9948-2.2187 2.2188-2.2187 2.2188.9946 2.2188 2.2187zm0 7.3959c0 1.224-.9948 2.2187-2.2188 2.2187s-2.2188-.9947-2.2188-2.2187.9948-2.2188 2.2188-2.2188 2.2188.9948 2.2188 2.2188zM19.2292 42.8958H35.5v-2.9583H19.2292v2.9583z"/>
  </g>
</svg>
