<svg xmlns="http://www.w3.org/2000/svg" viewBox="0 0 24 24">
  <g transform="translate(3.2727 0) scale(0.36364)" fill="currentColor">
    <path fill-rule="evenodd" d="M29.5833 0H4.4375C1.9969 0 0 1.9969 0 4.4375v56.2083C0 63.0865 1.9969 65.0833 4.4375 65.0833h38.4583c2.4406 0 4.4375-1.9968 4.4375-4.4375V17.75L29.5833 0zM19.2292 50.2917H35.5v-2.9584H19.2292v2.9584zm0-17.7501v2.9584H35.5v-2.9584H19.2292zm-3.6979 1.4792c0 1.224-.9948 2.2187-2.2188 2.2187s-2.2188-.9947-2.2188-2.2187.9948-2.2188 2.2188-2.2188 2.2188.9948 2.2188 2.2188zm0 7.3958c0 1.2241-.9948 2.2188-2.2188 2.2188s-2.2188-.9947-2.2188-2.2188.9948-2.2187 2.2188-2.2187 2.2188.9946 2.2188 2.2187zm0 7.3959c0 1.224-.9948 2.2187-2.2188 2.2187s-2.2188-.9947-2.2188-2.2187.9948-2.2188 2.2188-2.2188 2.2188.9948 2.2188 2.2188zM19.2292 42.8958H35.5v-2.9583H19.2292v2.9583z"/>
  </g>
</svg>
