<svg xmlns="http://www.w3.org/2000/svg" viewBox="0 0 24 24">
  <g transform="translate(3.2727 0) scale(0.36364)" fill="currentColor">
    <path fill-rule="evenodd" clip-rule="evenodd" d="M4.4375 0C1.9969 0 0 1.9969 0 4.4375v56.2083C0 63.0865 1.9969 65.0833 4.4375 65.0833h38.4583c2.4406 0 4.4375-1.9968 4.4375-4.4375V17.75L29.5833 0H4.4375zm10.3438 33.999v.0436c0 1.224-.9948 2.2187-2.2188 2.2187s-2.2188-.9947-2.2188-2.2187c0-1.2241.9948-2.2188 2.2188-2.2188s2.2188.9947 2.2188 2.2188zm2.9583-1.4574h17.0208v2.9584H17.7396v-2.9584zm-2.9583 8.8532c0 1.2241-.9948 2.2188-2.2188 2.2188s-2.2188-.9947-2.2188-2.2188.9948-2.2187 2.2188-2.2187 2.2188.9946 2.2188 2.2187zm2.9583-1.4584h17.0208v2.9583H17.7396v-2.9583zm-2.9583 8.8542c0 1.224-.9948 2.2187-2.2188 2.2187s-2.2188-.9947-2.2188-2.2187.9948-2.2188 2.2188-2.2188 2.2188.9948 2.2188 2.2188zm2.9583-1.4583h17.0208v2.9584H17.7396v-2.9584z"/>
  </g>
</svg>
