<svg xmlns="http://www.w3.org/2000/svg" xmlns:xlink="http://www.w3.org/1999/xlink" viewBox="0 0 24 24">
  <defs>
    <linearGradient id="a" gradientUnits="userSpaceOnUse" x1="108.6646" x2="148.682" y1="14.8213" y2="241.7714">
      <stop offset="0" stop-color="#FF8C8F"/>
      <stop offset=".3804" stop-color="#F21818"/>
      <stop offset=".4461" stop-color="#E51515"/>
      <stop offset=".5683" stop-color="#C20E0E"/>
      <stop offset=".7324" stop-color="#8A0202"/>
      <stop offset=".7607" stop-color="#800000"/>
    </linearGradient>
    <linearGradient id="b" gradientUnits="userSpaceOnUse" x1="126.9907" x2="129.3565" y1="217.542" y2="24.0477">
      <stop offset="0" stop-color="#E60000"/>
      <stop offset=".3568" stop-color="#DC0B0A"/>
      <stop offset=".9811" stop-color="#C02825"/>
      <stop offset="1" stop-color="#BF2926"/>
    </linearGradient>
    <linearGradient id="c" gradientUnits="userSpaceOnUse" x1="128.2974" x2="128.2973" y1="216.1572" y2="25.6538">
      <stop offset="0" stop-color="#B80000"/>
      <stop offset="1" stop-color="#900"/>
    </linearGradient>
    <linearGradient id="d" gradientUnits="userSpaceOnUse" x1="22.3491" x2="234.4102" y1="182.1504" y2="182.1504">
      <stop offset="0" stop-color="#E8000F"/>
      <stop offset="1" stop-color="#E0000F"/>
    </linearGradient>
    <linearGradient id="e" gradientUnits="userSpaceOnUse" x1="128.2612" x2="128.2612" y1="104.6548" y2="1.6424">
      <stop offset="0" stop-color="#FFF" stop-opacity="0"/>
      <stop offset="1" stop-color="#FFF"/>
    </linearGradient>
  </defs>
  <g transform="scale(0.09375)">
    <path clip-rule="evenodd" fill="url(#a)" fill-rule="evenodd" d="M127.58,219.93c38.093,0,41.525-57.701,41.525-96.527,0-44.688-6.686-93.438-41.525-93.438-34.833,0-40.667,51.831-40.667,93.438-0.005,38.47,3.117,96.53,40.667,96.53zm-0.01-208.72c62.368,0,109.04,45.103,109.04,114.12,0,60.942-44.215,116.26-109.03,116.26-64.187,0-108.17-55.332-108.17-116.26-0.001-68.47,45.227-114.12,108.16-114.12z"/>
    <path clip-rule="evenodd" fill="url(#b)" fill-rule="evenodd" opacity=".8" d="M127.56,217.11c-38.832,0-40.449-55.159-40.449-93.828,0-45.36,4.392-88.925,40.449-88.925,36.061,0,41.547,44.113,41.547,88.88-0.01,38.74-2.17,93.87-41.55,93.87zm0.01-188.49c-42.417,0-46.658,56.642-46.658,94.636,0,43.015,8.46,98.88,46.658,98.88,40.686,0,47.812-55.944,47.812-98.88,0-37.389-4.52-94.638-47.81-94.638z"/>
    <path clip-rule="evenodd" fill="url(#c)" fill-rule="evenodd" d="M127.58,215.73c-37.526,0-39.021-54.272-39.021-92.309,0-44.63,4.177-87.418,39.021-87.418,34.847,0,40.107,43.33,40.107,87.373-0.01,38.10-2.05,92.35-40.11,92.35zm0.01-185.56c-41.763,0-44.731,56.157-44.731,93.224,0,42.318,7.048,97.28,44.731,97.28,39.314,0,46.143-55.04,46.143-97.28,0-36.472-4.31-93.225-46.14-93.225z"/>
    <path clip-rule="evenodd" fill="url(#d)" fill-rule="evenodd" opacity=".8" d="M22.349,124.62c0,58.949,40.173,115.07,105.47,115.07,65.771,0,106.59-57.72,106.59-115.07,0,56.832-41.77,114.15-106.59,114.15-64.334-0.01-105.47-55.75-105.47-114.15z"/>
    <path clip-rule="evenodd" fill="url(#e)" fill-rule="evenodd" opacity=".65" d="M22.737,121.94c0-48.528,33.292-108.32,104.84-108.32,59.595,0,106.21,46.224,106.21,108.32,0-62.712-42.592-110.57-106.21-110.57-64.115-0.007-104.84,46.55-104.84,110.57z"/>
  </g>
</svg>
