<svg xmlns="http://www.w3.org/2000/svg" viewBox="0 0 24 24">
  <defs>
    <linearGradient id="a" x1="63.54" y1="27.752" x2="147.64" y2="27.752" gradientUnits="userSpaceOnUse">
      <stop offset="0" stop-color="#84C8E3"/>
      <stop offset="0.069" stop-color="#81C5E1"/>
      <stop offset="0.145" stop-color="#7ABBDB"/>
      <stop offset="0.226" stop-color="#6FABD0"/>
      <stop offset="0.310" stop-color="#6094C0"/>
      <stop offset="0.395" stop-color="#5177AB"/>
      <stop offset="0.483" stop-color="#435693"/>
      <stop offset="0.570" stop-color="#37347A"/>
      <stop offset="0.600" stop-color="#322973"/>
      <stop offset="0.752" stop-color="#4F277C"/>
      <stop offset="0.952" stop-color="#662483"/>
      <stop offset="1" stop-color="#963470"/>
    </linearGradient>
  </defs>
  <g transform="translate(0 6.78) scale(0.282) translate(-63 -9)">
    <path fill="url(#a)" d="M112.788,9.631c16.386-8.146,36.55,0.822,34.737,20.317c-1.663,18.439-26.59,24.796-39.606,12.828c7.433,3.33,13.301,2.781,17.37,0.118c10.508,1.689,19.522-1.602,21.365-12.122c0.748-11.792-9.378-14.556-17.299-11.014c-0.005,0.002-0.008,0.004-0.012,0.006c-6.935,3.107-15.245,9.079-22.39,15.502c-0.072,0.063-0.144,0.126-0.215,0.189c-0.909,0.801-1.825,1.579-2.75,2.33c-4.75,3.856-9.736,6.991-15.171,8.642c-14.274,3.322-26.464-7.372-25.187-20.037c0.796-4.107,2.579-7.22,4.975-9.387l0.005,0.006c-7.069,7.583-5.383,17.695,2.798,20.003c8.542,3.04,17.063-3.129,24.055-10.638c0.873-0.938,1.723-1.896,2.545-2.859c0.015-0.018,0.029-0.035,0.044-0.053C102.694,18.017,107.207,12.41,112.788,9.631z"/>
  </g>
</svg>
