<svg xmlns="http://www.w3.org/2000/svg" viewBox="0 0 24 24"><g transform="translate(0 0) scale(0.1333)">
<path d="M0 0 C15.28699 0.00193 15.28699 0.00193 30.88281 0.00391 C60.38665 0.51577 60.38665 0.51577 73.875 8.4375 C73.875 9.0975 73.875 9.7575 73.875 10.4375 C75.855 11.4275 75.855 11.4275 77.875 12.4375 C79.875 14.65234 79.875 14.65234 81.875 17.375 C82.865 18.68791 82.865 18.68791 83.875 20.02734 C95.65419 40.11178 90.35437 68.50505 90.3125 90.5625 C90.31057 105.84949 90.31057 105.84949 90.30859 121.44531 C89.79673 150.94915 89.79673 150.94915 81.875 164.4375 C81.215 164.4375 80.555 164.4375 79.875 164.4375 C79.215 165.7575 78.555 167.0775 77.875 168.4375 C75.66016 170.4375 75.66016 170.4375 72.9375 172.4375 C71.62459 173.4275 71.62459 173.4275 70.28516 174.4375 C50.20072 186.21669 21.80745 180.91687 -0.25 180.875 C-15.53699 180.87307 -15.53699 180.87307 -31.13281 180.87109 C-60.63665 180.35923 -60.63665 180.35923 -74.125 172.4375 C-74.125 171.7775 -74.125 171.1175 -74.125 170.4375 C-75.445 169.7775 -76.765 169.1175 -78.125 168.4375 C-80.125 166.22266 -80.125 166.22266 -82.125 163.5 C-82.785 162.62473 -83.445 161.74945 -84.125 160.84766 C-95.90419 140.76322 -90.60437 112.36995 -90.5625 90.3125 C-90.56121 80.12117 -90.55992 69.92984 -90.55859 59.42969 C-90.04673 29.92585 -90.04673 29.92585 -82.125 16.4375 C-81.465 16.4375 -80.805 16.4375 -80.125 16.4375 C-79.465 15.1175 -78.805 13.7975 -78.125 12.4375 C-75.91016 10.4375 -75.91016 10.4375 -73.1875 8.4375 C-72.31223 7.7775 -71.43695 7.1175 -70.53516 6.4375 C-50.45072 -5.34169 -22.05745 -0.04187 0 0 Z " fill="#010101" transform="translate(90.125,0)"/>
<path d="M0 0 C20.4733 0.26625 32.69617 7.77541 46.78906 21.76562 C57.92039 34.34424 59.80053 50.32184 59.34766 66.54297 C58.33476 77.40853 53.74082 89.16543 45.83203 97.07422 C40.19729 97.67366 36.31707 96.26477 31.25391 94.09375 C21.48039 89.97941 11.68754 89.91263 1.20703 89.88672 C-1.38398 89.87254 -3.975 89.85836 -6.64453 89.84375 C-16.10673 90.13361 -24.72905 91.18598 -33.54297 94.69922 C-37.92888 96.4435 -41.4203 97.69115 -46.16797 97.07422 C-51.16797 91.20465 -51.16797 91.20465 -51.16797 88.07422 C-51.82797 88.07422 -52.48797 88.07422 -53.16797 88.07422 C-53.5173 87.00301 -53.86664 85.9318 -54.22656 84.82812 C-54.90912 82.75338 -54.90912 82.75338 -55.60547 80.63672 C-56.05793 79.25613 -56.51039 77.87555 -56.97656 76.45312 C-57.82411 73.27417 -57.82411 73.27417 -59.16797 72.07422 C-60.3418 53.17401 -59.37495 36.56598 -47.22656 21.36328 C-38.37453 11.52023 -25.42995 1.81802 -11.98047 0.26172 C-7.9875 0.07255 -3.99731 0.05741 0 0 Z " fill="#FDFDFD" transform="translate(90.16796875,36.92578125)"/>
<path d="M0 0 C0.66 0.33 1.32 0.66 2 1 C0.38114 2.67263 -1.24527 4.33796 -2.875 6 C-3.77992 6.92813 -4.68484 7.85625 -5.61719 8.8125 C-8 11 -8 11 -10 11 C-8.85456 7.56368 -7.72885 6.66528 -5 4.375 C-4.27813 3.76398 -3.55625 3.15297 -2.8125 2.52344 C-2.21438 2.0207 -1.61625 1.51797 -1 1 C-0.67 0.67 -0.34 0.34 0 0 Z " fill="#CCCCCC" transform="translate(54,48)"/>
</g></svg>
