<svg xmlns="http://www.w3.org/2000/svg" viewBox="0 0 24 24"><g transform="translate(0 0) scale(0.0469)">
<path d="M0 0 C44.24063 -0.00773 44.24063 -0.00773 89.375 -0.01562 C172.16558 0.29576 172.16558 0.29576 185 9.25 C186.98 9.745 186.98 9.745 189 10.25 C189 11.24 189 12.23 189 13.25 C190.98 13.25 192.96 13.25 195 13.25 C195.33 13.91 195.66 14.57 196 15.25 C197.98 15.745 197.98 15.745 200 16.25 C200 17.24 200 18.23 200 19.25 C200.70125 19.3325 201.4025 19.415 202.125 19.5 C205.70841 20.4348 208.0805 21.99403 211 24.25 C211.33 25.24 211.66 26.23 212 27.25 C212.99 27.25 213.98 27.25 215 27.25 C216.38903 28.87054 217.71333 30.54705 219 32.25 C221.43495 34.80982 223.8137 37.10806 226.625 39.25 C229.14534 41.37239 230.38747 43.40888 232 46.25 C232.66 46.58 233.32 46.91 234 47.25 C236.39715 50.66134 237 51.95613 237 56.25 C237.99 56.25 238.98 56.25 240 56.25 C240.33 57.57 240.66 58.89 241 60.25 C241.66 60.58 242.32 60.91 243 61.25 C245.39715 64.66134 246 65.95613 246 70.25 C246.66 70.25 247.32 70.25 248 70.25 C272.51368 123.36298 256.25959 201.41565 256.25 256.25 C256.25516 285.74375 256.26031 315.2375 256.26562 345.625 C255.95424 428.41558 255.95424 428.41558 247 441.25 C246.67 442.57 246.34 443.89 246 445.25 C245.01 445.25 244.02 445.25 243 445.25 C243 447.23 243 449.21 243 451.25 C242.34 451.58 241.68 451.91 241 452.25 C240.67 453.57 240.34 454.89 240 456.25 C239.01 456.25 238.02 456.25 237 456.25 C236.9175 456.95125 236.835 457.6525 236.75 458.375 C235.8152 461.95841 234.25597 464.3305 232 467.25 C231.01 467.58 230.02 467.91 229 468.25 C229 469.24 229 470.23 229 471.25 C227.37946 472.63903 225.70295 473.96333 224 475.25 C221.44018 477.68495 219.14194 480.0637 217 482.875 C214.87761 485.39534 212.84112 486.63747 210 488.25 C209.67 488.91 209.34 489.57 209 490.25 C205.58866 492.64715 204.29387 493.25 200 493.25 C200 494.24 200 495.23 200 496.25 C198.68 496.58 197.36 496.91 196 497.25 C195.67 497.91 195.34 498.57 195 499.25 C191.58866 501.64715 190.29387 502.25 186 502.25 C186 502.91 186 503.57 186 504.25 C132.88702 528.76368 54.83435 512.50959 0 512.5 C-44.24063 512.50773 -44.24063 512.50773 -89.375 512.51562 C-172.16558 512.20424 -172.16558 512.20424 -185 503.25 C-186.32 502.92 -187.64 502.59 -189 502.25 C-189 501.26 -189 500.27 -189 499.25 C-190.98 499.25 -192.96 499.25 -195 499.25 C-195.33 498.59 -195.66 497.93 -196 497.25 C-197.32 496.92 -198.64 496.59 -200 496.25 C-200 495.26 -200 494.27 -200 493.25 C-200.70125 493.1675 -201.4025 493.085 -202.125 493 C-205.70841 492.0652 -208.0805 490.50597 -211 488.25 C-211.495 486.765 -211.495 486.765 -212 485.25 C-212.99 485.25 -213.98 485.25 -215 485.25 C-216.38903 483.62946 -217.71333 481.95295 -219 480.25 C-221.43495 477.69018 -223.8137 475.39194 -226.625 473.25 C-229.14534 471.12761 -230.38747 469.09112 -232 466.25 C-232.66 465.92 -233.32 465.59 -234 465.25 C-236.39715 461.83866 -237 460.54387 -237 456.25 C-237.99 456.25 -238.98 456.25 -240 456.25 C-240.33 454.93 -240.66 453.61 -241 452.25 C-241.66 451.92 -242.32 451.59 -243 451.25 C-245.39715 447.83866 -246 446.54387 -246 442.25 C-246.66 442.25 -247.32 442.25 -248 442.25 C-272.51368 389.13702 -256.25959 311.08435 -256.25 256.25 C-256.25516 226.75625 -256.26031 197.2625 -256.26562 166.875 C-255.95424 84.08442 -255.95424 84.08442 -247 71.25 C-246.67 69.93 -246.34 68.61 -246 67.25 C-245.01 67.25 -244.02 67.25 -243 67.25 C-243 65.27 -243 63.29 -243 61.25 C-242.01 60.755 -242.01 60.755 -241 60.25 C-240.67 58.93 -240.34 57.61 -240 56.25 C-239.01 56.25 -238.02 56.25 -237 56.25 C-236.9175 55.54875 -236.835 54.8475 -236.75 54.125 C-235.8152 50.54159 -234.25597 48.1695 -232 45.25 C-230.515 44.755 -230.515 44.755 -229 44.25 C-229 43.26 -229 42.27 -229 41.25 C-227.37946 39.86097 -225.70295 38.53667 -224 37.25 C-221.44018 34.81505 -219.14194 32.4363 -217 29.625 C-214.87761 27.10466 -212.84112 25.86253 -210 24.25 C-209.67 23.59 -209.34 22.93 -209 22.25 C-205.58866 19.85285 -204.29387 19.25 -200 19.25 C-200 18.26 -200 17.27 -200 16.25 C-198.68 15.92 -197.36 15.59 -196 15.25 C-195.67 14.59 -195.34 13.93 -195 13.25 C-191.58866 10.85285 -190.29387 10.25 -186 10.25 C-186 9.59 -186 8.93 -186 8.25 C-132.88702 -16.26368 -54.83435 -0.00959 0 0 Z " fill="#000000" transform="translate(256,-0.25)"/>
<path d="M0 0 C4.2059 1.33812 4.2059 1.33812 8.99219 1.72656 C13.13672 2.19141 13.13672 2.19141 16.13672 4.19141 C17.10609 4.45953 18.07547 4.72766 19.07422 5.00391 C23.62108 6.33299 27.84625 8.10548 32.19922 9.96094 C34.63068 10.97944 37.09881 11.90992 39.57422 12.81641 C43.13672 14.19141 43.13672 14.19141 45.82422 15.81641 C48.2911 17.2832 50.31364 17.78811 53.13672 18.19141 C53.13672 18.85141 53.13672 19.51141 53.13672 20.19141 C54.02359 20.43891 54.91047 20.68641 55.82422 20.94141 C59.27289 22.24279 61.33927 23.83566 64.13672 26.19141 C66.11672 27.18141 66.11672 27.18141 68.13672 28.19141 C68.59047 28.99578 69.04422 29.80016 69.51172 30.62891 C70.9523 33.40247 70.9523 33.40247 73.88672 34.50391 C78.40421 36.84952 80.96495 40.28218 84.13672 44.19141 C88.43337 49.47456 88.43337 49.47456 94.13672 53.19141 C94.79672 54.51141 95.45672 55.83141 96.13672 57.19141 C96.79672 57.78953 97.45672 58.38766 98.13672 59.00391 C100.13672 61.19141 100.13672 61.19141 101.01172 64.44141 C102.49134 69.37347 104.94065 72.14741 108.13672 76.19141 C109.89821 78.86627 111.20743 81.35976 112.44922 84.31641 C113.84931 87.53143 115.3781 90.36103 117.13672 93.37891 C120.32879 99.11354 121.81719 104.80259 123.13672 111.19141 C123.46672 112.51141 123.79672 113.83141 124.13672 115.19141 C124.79672 115.19141 125.45672 115.19141 126.13672 115.19141 C136.31148 145.25319 133.08357 178.26581 128.13672 209.19141 C127.47672 209.19141 126.81672 209.19141 126.13672 209.19141 C126.05422 210.47016 125.97172 211.74891 125.88672 213.06641 C125.38067 217.57864 124.09916 221.28936 122.30859 225.44141 C120.97467 228.57168 119.81229 231.7485 118.63672 234.94141 C116.40113 240.76353 114.46134 245.64166 109.13672 249.19141 C108.13121 251.52237 107.1321 253.8561 106.13672 256.19141 C103.57422 260.12891 103.57422 260.12891 101.13672 263.19141 C100.47672 263.19141 99.81672 263.19141 99.13672 263.19141 C98.80672 264.18141 98.47672 265.17141 98.13672 266.19141 C97.47672 266.19141 96.81672 266.19141 96.13672 266.19141 C95.80672 267.51141 95.47672 268.83141 95.13672 270.19141 C94.13672 272.94141 94.13672 272.94141 92.13672 275.19141 C85.18961 276.1246 81.17155 274.4483 75.13672 271.19141 C72.48826 270.45572 69.82444 269.76735 67.13672 269.19141 C67.13672 268.53141 67.13672 267.87141 67.13672 267.19141 C65.87859 267.04703 64.62047 266.90266 63.32422 266.75391 C59.13672 266.19141 59.13672 266.19141 56.13672 265.19141 C56.13672 264.53141 56.13672 263.87141 56.13672 263.19141 C54.60531 263.08699 53.07391 262.98258 51.49609 262.875 C44.63115 262.13706 38.11763 260.78672 31.38672 259.25391 C29.06125 258.72926 26.73578 258.20461 24.33984 257.66406 C11.58015 254.63484 11.58015 254.63484 10.13672 253.19141 C7.78685 252.95613 5.43116 252.77754 3.07422 252.62891 C1.78387 252.54512 0.49352 252.46133 -0.83594 252.375 C-1.83496 252.31441 -2.83398 252.25383 -3.86328 252.19141 C-3.86328 251.53141 -3.86328 250.87141 -3.86328 250.19141 C-12.69669 250.33281 -21.53 250.4797 -30.36328 250.62891 C-37.74187 250.75072 -37.74187 250.75072 -45.26953 250.875 C-70.76253 251.46837 -93.88279 254.27525 -118.26172 261.80078 C-122.86328 263.19141 -122.86328 263.19141 -124.86328 263.19141 C-124.86328 263.85141 -124.86328 264.51141 -124.86328 265.19141 C-131.78914 267.95753 -138.55518 270.60798 -145.86328 272.19141 C-147.32766 272.56266 -148.79203 272.93391 -150.30078 273.31641 C-156.64388 274.53289 -163.02097 275.45623 -168.86328 272.19141 C-170.34828 270.70641 -170.34828 270.70641 -171.86328 269.19141 C-171.86328 268.53141 -171.86328 267.87141 -171.86328 267.19141 C-172.52328 267.19141 -173.18328 267.19141 -173.86328 267.19141 C-176.81035 264.24433 -177.99428 262.15567 -179.73828 258.44141 C-181.45434 254.89065 -183.03061 251.97103 -185.42578 248.81641 C-189.08224 243.3786 -190.83538 237.38817 -192.86328 231.19141 C-193.37891 229.64453 -193.89453 228.09766 -194.42578 226.50391 C-194.90016 225.08078 -195.37453 223.65766 -195.86328 222.19141 C-196.15848 221.45922 -196.45367 220.72703 -196.75781 219.97266 C-197.90831 217.07579 -198.89775 214.15552 -199.86328 211.19141 C-200.31445 209.83273 -200.76562 208.47406 -201.23047 207.07422 C-207.82494 183.49061 -208.37376 153.18958 -201.98828 129.50391 C-200.57949 124.12718 -199.36919 118.78257 -198.36328 113.31641 C-196.52902 103.94789 -193.5139 96.96101 -187.86328 89.19141 C-186.88289 86.97761 -185.90337 84.76312 -184.96484 82.53125 C-182.34743 76.97156 -178.53541 72.08758 -174.86328 67.19141 C-174.54617 66.37414 -174.22906 65.55687 -173.90234 64.71484 C-171.39296 58.62062 -165.77259 53.85881 -160.80078 49.69141 C-157.87294 47.23156 -155.63014 44.70792 -153.36328 41.62891 C-150.03347 37.14853 -146.41647 34.40103 -141.86328 31.19141 C-140.78047 30.10859 -140.78047 30.10859 -139.67578 29.00391 C-136.47491 25.80304 -133.16525 24.30165 -128.92578 22.75391 C-124.91012 21.38706 -124.91012 21.38706 -121.92578 19.19141 C-119.18021 17.39838 -117.19427 16.56745 -114.11328 15.62891 C-109.70882 14.62104 -109.70882 14.62104 -107.86328 11.19141 C-101.90197 7.63633 -95.63992 4.73696 -88.86328 3.19141 C-87.93258 2.96969 -87.00187 2.74797 -86.04297 2.51953 C-57.95939 -4.11225 -28.21016 -8.49937 0 0 Z " fill="#FEFEFE" transform="translate(292.86328125,108.80859375)"/>
<path d="M0 0 C0.66 0 1.32 0 2 0 C2.33 1.98 2.66 3.96 3 6 C3.99 6.33 4.98 6.66 6 7 C6 8.65 6 10.3 6 12 C6.66 12 7.32 12 8 12 C11 19.625 11 19.625 11 23 C11.99 23 12.98 23 14 23 C14 24.98 14 26.96 14 29 C14.66 29 15.32 29 16 29 C16.33 29.99 16.66 30.98 17 32 C17.99 32.99 18.98 33.98 20 35 C20.33 35.86625 20.66 36.7325 21 37.625 C21.495 38.80062 21.495 38.80062 22 40 C23.485 40.495 23.485 40.495 25 41 C25 41.66 25 42.32 25 43 C25.66 43 26.32 43 27 43 C27.33 44.32 27.66 45.64 28 47 C32.21322 48.05331 35.67251 48.20607 40 48 C40.99 47.34 41.98 46.68 43 46 C45.27783 45.44034 47.57257 44.94783 49.875 44.5 C54.15148 43.66468 57.99071 42.69757 62 41 C64.66379 40.32194 67.3312 39.65806 70 39 C72.41966 38.34428 74.83615 37.67678 77.25 37 C79.02117 36.505 79.02117 36.505 80.82812 36 C84.21509 35.02377 84.21509 35.02377 88 33 C90.99715 32.32065 93.99696 31.65283 97 31 C97.495 30.505 97.495 30.505 98 30 C100.33297 29.95907 102.66705 29.95758 105 30 C105.495 28.515 105.495 28.515 106 27 C107.53721 26.92652 107.53721 26.92652 109.10547 26.85156 C110.45254 26.7768 111.79961 26.70203 113.1875 26.625 C114.52168 26.55539 115.85586 26.48578 117.23047 26.41406 C121.30533 26.13673 121.30533 26.13673 126 24 C136.9155 23.82854 147.83319 23.78655 158.75 23.8125 C167.71414 23.82217 167.71414 23.82217 176.85938 23.83203 C191 24 191 24 192 25 C195.88322 25.2858 199.76643 25.44927 203.65625 25.62109 C204.75969 25.74613 205.86312 25.87117 207 26 C207.33 26.66 207.66 27.32 208 28 C210.4701 28.28288 212.95371 28.45206 215.4375 28.5625 C222.80982 28.90491 222.80982 28.90491 225 30 C225 30.66 225 31.32 225 32 C228.3 32 231.6 32 235 32 C235.33 32.99 235.66 33.98 236 35 C237.98 35 239.96 35 242 35 C242.33 35.66 242.66 36.32 243 37 C245.12103 37.43767 247.24262 37.87284 249.36719 38.29297 C253.89342 39.50847 257.90549 41.76042 262 44 C257.44968 45.13758 255.36916 44.42838 251 43 C251 42.34 251 41.68 251 41 C249.46859 40.89559 247.93719 40.79117 246.35938 40.68359 C239.49443 39.94565 232.98091 38.59532 226.25 37.0625 C223.92453 36.53785 221.59906 36.0132 219.20312 35.47266 C206.44344 32.44344 206.44344 32.44344 205 31 C202.65013 30.76472 200.29444 30.58614 197.9375 30.4375 C196.00197 30.31182 196.00197 30.31182 194.02734 30.18359 C192.52881 30.09271 192.52881 30.09271 191 30 C191 29.34 191 28.68 191 28 C182.16659 28.14141 173.33328 28.28829 164.5 28.4375 C157.12141 28.55932 157.12141 28.55932 149.59375 28.68359 C124.10075 29.27697 100.98049 32.08384 76.60156 39.60938 C72 41 72 41 70 41 C70 41.66 70 42.32 70 43 C63.07414 45.76612 56.3081 48.41658 49 50 C47.53563 50.37125 46.07125 50.7425 44.5625 51.125 C38.2194 52.34149 31.84231 53.26482 26 50 C25.01 49.01 24.02 48.02 23 47 C23 46.34 23 45.68 23 45 C22.34 45 21.68 45 21 45 C18.05293 42.05293 16.86901 39.96426 15.125 36.25 C13.40894 32.69924 11.83267 29.77962 9.4375 26.625 C4.82366 19.76339 0 8.40483 0 0 Z " fill="#BEBEBE" transform="translate(98,331)"/>
<path d="M0 0 C4.2059 1.33812 4.2059 1.33812 8.99219 1.72656 C13.13672 2.19141 13.13672 2.19141 16.13672 4.19141 C17.10609 4.45953 18.07547 4.72766 19.07422 5.00391 C23.62108 6.33299 27.84625 8.10548 32.19922 9.96094 C34.63068 10.97944 37.09881 11.90992 39.57422 12.81641 C43.13672 14.19141 43.13672 14.19141 45.82422 15.81641 C48.2911 17.2832 50.31364 17.78811 53.13672 18.19141 C53.13672 18.85141 53.13672 19.51141 53.13672 20.19141 C54.02359 20.43891 54.91047 20.68641 55.82422 20.94141 C59.27289 22.24279 61.33927 23.83566 64.13672 26.19141 C66.11672 27.18141 66.11672 27.18141 68.13672 28.19141 C68.59047 28.99578 69.04422 29.80016 69.51172 30.62891 C70.9523 33.40247 70.9523 33.40247 73.88672 34.50391 C78.40421 36.84952 80.96495 40.28218 84.13672 44.19141 C88.43337 49.47456 88.43337 49.47456 94.13672 53.19141 C95.12672 55.17141 95.12672 55.17141 96.13672 57.19141 C96.85859 57.85141 97.58047 58.51141 98.32422 59.19141 C98.92234 59.85141 99.52047 60.51141 100.13672 61.19141 C99.80672 62.51141 99.47672 63.83141 99.13672 65.19141 C94.40107 61.63967 91.9813 58.33001 89.13672 53.19141 C87.50835 51.4873 85.84902 49.81115 84.13672 48.19141 C83.80672 47.53141 83.47672 46.87141 83.13672 46.19141 C82.45609 45.79953 81.77547 45.40766 81.07422 45.00391 C75.51503 41.57377 71.04868 37.40736 67.13672 32.19141 C66.14672 31.86141 65.15672 31.53141 64.13672 31.19141 C64.13672 30.53141 64.13672 29.87141 64.13672 29.19141 C62.81672 28.53141 61.49672 27.87141 60.13672 27.19141 C59.14672 26.20141 59.14672 26.20141 58.13672 25.19141 C55.43613 23.95685 52.82972 23.11315 49.94922 22.37891 C45.04522 20.85143 40.66999 18.58118 36.13672 16.19141 C36.13672 15.53141 36.13672 14.87141 36.13672 14.19141 C34.15672 14.19141 32.17672 14.19141 30.13672 14.19141 C30.13672 13.53141 30.13672 12.87141 30.13672 12.19141 C28.48672 12.19141 26.83672 12.19141 25.13672 12.19141 C25.13672 11.53141 25.13672 10.87141 25.13672 10.19141 C24.08484 10.08828 23.03297 9.98516 21.94922 9.87891 C18.1535 9.19443 16.34151 8.1944 13.13672 6.19141 C7.57611 4.33787 1.87726 3.32441 -3.86328 2.19141 C-4.85328 1.86141 -5.84328 1.53141 -6.86328 1.19141 C-39.01615 -2.63891 -39.01615 -2.63891 -69.86328 2.19141 C-72.52964 2.23181 -75.19696 2.23441 -77.86328 2.19141 C-75.16189 -0.50999 -72.90219 -0.61472 -69.17578 -1.37109 C-67.97566 -1.61988 -66.77555 -1.86867 -65.53906 -2.125 C-44.48054 -6.0413 -20.58876 -6.20314 0 0 Z " fill="#E3E3E3" transform="translate(292.86328125,108.80859375)"/>
<path d="M0 0 C0.33 0 0.66 0 1 0 C1.495 4.95 1.495 4.95 2 10 C2.66 10 3.32 10 4 10 C4.05393 16.18741 4.09276 22.37494 4.125 28.5625 C4.1482 32.00816 4.17141 35.45383 4.19531 39.00391 C4 48 4 48 2 55 C1.66595 58.11274 1.50242 61.20231 1.34375 64.32812 C1 67 1 67 -1 70 C-1.165 71.34062 -1.33 72.68125 -1.5 74.0625 C-2 78 -2 78 -4 80 C-4.26812 80.94875 -4.53625 81.8975 -4.8125 82.875 C-7.10842 90.8503 -10.19751 98.21027 -15 105 C-15.71574 106.64619 -16.40257 108.30728 -17 110 C-17.66 110 -18.32 110 -19 110 C-19.09797 110.74379 -19.19594 111.48758 -19.29688 112.25391 C-20.08839 115.3452 -21.08364 116.63457 -23.25 118.9375 C-23.87777 119.62328 -24.50555 120.30906 -25.15234 121.01562 C-26.06693 121.99789 -26.06693 121.99789 -27 123 C-30.18665 126.61154 -32.36901 129.4834 -34 134 C-37.06216 137.06216 -39.88091 136.30143 -44.125 136.3125 C-50.42434 136.2333 -55.30551 135.89901 -61 133 C-62.32 132.34 -63.64 131.68 -65 131 C-66.32 130.34 -67.64 129.68 -69 129 C-71.65279 127.96375 -74.31982 126.96319 -77 126 C-79.66667 125 -82.33333 124 -85 123 C-85 122.67 -85 122.34 -85 122 C-77.25 121.875 -77.25 121.875 -75 123 C-75 123.66 -75 124.32 -75 125 C-71.37 125.66 -67.74 126.32 -64 127 C-64 127.66 -64 128.32 -64 129 C-62.47375 129.26812 -60.9475 129.53625 -59.375 129.8125 C-56.16862 130.44208 -53.87292 131.06484 -50.9375 132.5625 C-47.01757 134.48076 -43.31639 134.673 -39 135 C-38.67 133.68 -38.34 132.36 -38 131 C-36.52636 128.05271 -35.32871 126.24875 -32.6875 124.25 C-28.28841 120.56704 -25.04602 115.6943 -22.96875 110.34375 C-22 108 -22 108 -19.6875 105.9375 C-13.65331 99.34199 -11.45163 89.68936 -8.79688 81.30078 C-8 79 -8 79 -7 78 C-6.30298 75.00691 -5.63524 72.00681 -5 69 C-4.34 69 -3.68 69 -3 69 C-2.93941 67.89141 -2.87883 66.78281 -2.81641 65.64062 C-2.73262 64.19172 -2.64883 62.74281 -2.5625 61.25 C-2.44068 59.09211 -2.44068 59.09211 -2.31641 56.89062 C-2 53 -2 53 -1 49 C-0.0103 38.18941 0.1033 27.47668 0.0625 16.625 C0.05348 13.50289 0.04445 10.38078 0.03516 7.16406 C0.02355 4.79992 0.01195 2.43578 0 0 Z " fill="#303030" transform="translate(424,249)"/>
<path d="M0 0 C0 4.07628 -2.06243 5.90659 -4.47656 9.02344 C-7.17455 12.52391 -8.89204 15.69574 -10.375 19.875 C-12 24 -12 24 -14.4375 27.375 C-19.92089 35.13199 -21.65229 43.27991 -23.28906 52.48438 C-23.95736 55.78914 -24.90276 58.81757 -26 62 C-29.05308 75.64905 -29.13471 89.15682 -29.125 103.125 C-29.12887 108.69762 -29.12887 108.69762 -29.13281 114.38281 C-29.18028 123.75294 -29.18028 123.75294 -28 132 C-28.99 132 -29.98 132 -31 132 C-36.79291 123.31063 -34.16886 108.20038 -34.1875 98.3125 C-34.20168 94.88488 -34.21586 91.45727 -34.23047 87.92578 C-34 79 -34 79 -32 71 C-31.75908 68.90128 -31.56604 66.79609 -31.4375 64.6875 C-31.23715 61.4942 -31.01542 59.04626 -30 56 C-29.34 56 -28.68 56 -28 56 C-28.06188 54.11281 -28.06188 54.11281 -28.125 52.1875 C-28 48 -28 48 -26 45 C-24.98816 41.66263 -24.08964 38.30423 -23.19531 34.93359 C-22 32 -22 32 -18 30 C-17.67 28.68 -17.34 27.36 -17 26 C-16.2277 24.51998 -15.41211 23.06203 -14.5625 21.625 C-12.58212 18.1622 -11.08847 14.85911 -10 11 C-9.34 11 -8.68 11 -8 11 C-7.67 9.68 -7.34 8.36 -7 7 C-6.34 7 -5.68 7 -5 7 C-4.9175 6.21625 -4.835 5.4325 -4.75 4.625 C-4.5025 3.75875 -4.255 2.8925 -4 2 C-2.68 1.34 -1.36 0.68 0 0 Z " fill="#1F1F1F" transform="translate(118,174)"/>
<path d="M0 0 C0.66 0 1.32 0 2 0 C2.33 1.98 2.66 3.96 3 6 C3.99 6.33 4.98 6.66 6 7 C6 8.65 6 10.3 6 12 C6.66 12 7.32 12 8 12 C11 19.625 11 19.625 11 23 C11.99 23 12.98 23 14 23 C14 24.98 14 26.96 14 29 C14.66 29 15.32 29 16 29 C16.33 29.99 16.66 30.98 17 32 C17.99 32.99 18.98 33.98 20 35 C20.33 35.86625 20.66 36.7325 21 37.625 C21.495 38.80062 21.495 38.80062 22 40 C23.485 40.495 23.485 40.495 25 41 C25 41.66 25 42.32 25 43 C25.66 43 26.32 43 27 43 C27.33 44.32 27.66 45.64 28 47 C32.21322 48.05331 35.67251 48.20607 40 48 C40.99 47.34 41.98 46.68 43 46 C45.27783 45.44034 47.57257 44.94783 49.875 44.5 C54.15148 43.66468 57.99071 42.69757 62 41 C64.66379 40.32194 67.3312 39.65806 70 39 C72.41966 38.34428 74.83615 37.67678 77.25 37 C79.02117 36.505 79.02117 36.505 80.82812 36 C84.21509 35.02377 84.21509 35.02377 88 33 C90.99715 32.32065 93.99696 31.65283 97 31 C97.495 30.505 97.495 30.505 98 30 C103.01781 29.08593 107.84496 28.89243 112.9375 28.9375 C114.26652 28.94652 115.59555 28.95555 116.96484 28.96484 C117.96645 28.97645 118.96805 28.98805 120 29 C120 29.33 120 29.66 120 30 C117.81891 30.31131 117.81891 30.31131 115.59375 30.62891 C102.22414 32.6772 89.52547 35.61989 76.60156 39.60938 C72 41 72 41 70 41 C70 41.66 70 42.32 70 43 C63.07414 45.76612 56.3081 48.41658 49 50 C47.53563 50.37125 46.07125 50.7425 44.5625 51.125 C38.2194 52.34149 31.84231 53.26482 26 50 C25.01 49.01 24.02 48.02 23 47 C23 46.34 23 45.68 23 45 C22.34 45 21.68 45 21 45 C18.05293 42.05293 16.86901 39.96426 15.125 36.25 C13.40894 32.69924 11.83267 29.77962 9.4375 26.625 C4.82366 19.76339 0 8.40483 0 0 Z " fill="#9A9A9A" transform="translate(98,331)"/>
<path d="M0 0 C13.77992 27.55983 7.70108 64.61086 3 94 C2.34 94 1.68 94 1 94 C0.9175 95.27875 0.835 96.5575 0.75 97.875 C0.24396 102.38723 -1.03756 106.09796 -2.82812 110.25 C-4.16205 113.38027 -5.32443 116.55709 -6.5 119.75 C-8.73559 125.57213 -10.67538 130.45026 -16 134 C-17.00551 136.33096 -18.00462 138.66469 -19 141 C-21.5625 144.9375 -21.5625 144.9375 -24 148 C-24.66 148 -25.32 148 -26 148 C-26.33 148.99 -26.66 149.98 -27 151 C-27.66 151 -28.32 151 -29 151 C-29.33 152.32 -29.66 153.64 -30 155 C-31 157.75 -31 157.75 -33 160 C-39.9471 160.93319 -43.96516 159.2569 -50 156 C-52.64846 155.26432 -55.31228 154.57594 -58 154 C-58 153.34 -58 152.68 -58 152 C-48.25 153.875 -48.25 153.875 -46 155 C-38.13531 155.61137 -38.13531 155.61137 -31 153 C-29.23924 149.64161 -29.23924 149.64161 -28 146 C-27.01 144.02 -27.01 144.02 -26 142 C-25.01 142 -24.02 142 -23 142 C-23 141.34 -23 140.68 -23 140 C-22.36063 139.4225 -21.72125 138.845 -21.0625 138.25 C-18.5565 135.51618 -18.33019 133.63214 -18 130 C-17.01 130 -16.02 130 -15 130 C-15 128.35 -15 126.7 -15 125 C-13.02 124.505 -13.02 124.505 -11 124 C-10.7525 122.72125 -10.505 121.4425 -10.25 120.125 C-8.79778 113.63036 -6.2019 107.62672 -3.44141 101.59375 C0.63516 92.28705 1.97334 84.14497 2 74 C2.66 74 3.32 74 4 74 C4.10812 65.43778 4.18564 56.87516 4.25 48.3125 C4.29641 43.54426 4.34281 38.77602 4.39062 33.86328 C4.56197 20.78415 4.56197 20.78415 0 8 C-0.25 3.1875 -0.25 3.1875 0 0 Z " fill="#A0A0A0" transform="translate(418,224)"/>
<path d="M0 0 C5.53008 0.00967 5.53008 0.00967 11.17188 0.01953 C33.45339 0.39089 33.45339 0.39089 36.25 3.1875 C38.67715 3.8669 38.67715 3.8669 41.375 4.3125 C42.98375 4.60125 44.5925 4.89 46.25 5.1875 C46.25 5.8475 46.25 6.5075 46.25 7.1875 C47.34312 7.14625 48.43625 7.105 49.5625 7.0625 C53.25 7.1875 53.25 7.1875 56.25 9.1875 C56.25 9.8475 56.25 10.5075 56.25 11.1875 C57.00926 11.38086 57.76852 11.57422 58.55078 11.77344 C59.54465 12.03383 60.53852 12.29422 61.5625 12.5625 C62.54863 12.81773 63.53477 13.07297 64.55078 13.33594 C67.25 14.1875 67.25 14.1875 70.25 16.1875 C70.25 17.1775 70.25 18.1675 70.25 19.1875 C66.37357 18.06538 62.93634 16.55061 59.375 14.6875 C55.08991 12.48337 50.97308 11.21799 46.25 10.1875 C45.755 9.6925 45.755 9.6925 45.25 9.1875 C43.61098 8.87808 41.96279 8.61722 40.3125 8.375 C33.25 7.1875 33.25 7.1875 24.99609 5.14062 C15.13375 3.1642 6.29403 2.68846 -3.75 2.75 C-8.48344 2.75193 -8.48344 2.75193 -13.3125 2.75391 C-24.36981 3.26192 -35.39533 4.04563 -45.75 8.1875 C-47.49162 8.54374 -49.2429 8.85527 -51 9.125 C-56.15515 9.99698 -60.81998 11.4659 -65.75 13.1875 C-66.41 13.1875 -67.07 13.1875 -67.75 13.1875 C-67.75 12.5275 -67.75 11.8675 -67.75 11.1875 C-66.45063 10.71313 -65.15125 10.23875 -63.8125 9.75 C-60.04297 8.61585 -60.04297 8.61585 -58.75 7.1875 C-55.00696 6.38868 -51.24721 5.70303 -47.48438 5.00391 C-43.46471 4.23242 -43.46471 4.23242 -38.75 2.1875 C-25.77613 0.24958 -13.10621 -0.05055 0 0 Z " fill="#5B5B5B" transform="translate(260.75,102.8125)"/>
<path d="M0 0 C0 2.87137 -0.27113 5.2303 -1 8 C-1.99 8.495 -1.99 8.495 -3 9 C-4.85614 12.5781 -6.54139 16.22258 -8.24609 19.875 C-10 23 -10 23 -13 24 C-13.08637 24.73863 -13.17273 25.47727 -13.26172 26.23828 C-14.03257 31.80396 -15.0398 36.51709 -17.5625 41.5625 C-20.31929 47.10833 -20.61121 51.85706 -21 58 C-21.66 58.66 -22.32 59.32 -23 60 C-23.42843 62.98727 -23.42843 62.98727 -23.5625 66.375 C-23.77087 70.14267 -24.08051 73.32203 -25 77 C-25.23302 83.24847 -25.41265 89.49898 -25.5625 95.75 C-25.64629 99.14797 -25.73008 102.54594 -25.81641 106.04688 C-25.87699 108.67141 -25.93758 111.29594 -26 114 C-25.34 114 -24.68 114 -24 114 C-23.96133 115.45406 -23.96133 115.45406 -23.92188 116.9375 C-23.54602 125.82136 -22.30206 133.90502 -19.9375 142.47656 C-19.09355 145.64842 -18.47915 148.75573 -18 152 C-21.10014 148.89986 -21.70273 145.14798 -23 141 C-23.45762 139.6091 -23.91523 138.2182 -24.38672 136.78516 C-30.88969 113.17527 -31.51488 83.01449 -25.125 59.3125 C-23.71621 53.93577 -22.50591 48.59117 -21.5 43.125 C-19.66574 33.75649 -16.65062 26.7696 -11 19 C-10.02148 16.79043 -9.04371 14.58018 -8.10938 12.35156 C-6.08011 8.05009 -3.36223 3.36223 0 0 Z " fill="#C1C1C1" transform="translate(116,179)"/>
<path d="M0 0 C-4.27089 3.20317 -6.87242 3.811 -12 5 C-15.02073 5.94603 -18.00604 6.97083 -21 8 C-21 8.66 -21 9.32 -21 10 C-24.37097 11.49821 -26.20442 12 -30 12 C-30 12.66 -30 13.32 -30 14 C-30.96938 14.47437 -31.93875 14.94875 -32.9375 15.4375 C-35.80477 16.70194 -35.80477 16.70194 -37 18 C-38.11375 18.10313 -39.2275 18.20625 -40.375 18.3125 C-44.44978 18.66333 -44.44978 18.66333 -47 23 C-49.30469 24.08984 -49.30469 24.08984 -51.875 24.9375 C-56.30327 26.56184 -58.82715 28.44256 -62 32 C-62.99 32.33 -63.98 32.66 -65 33 C-65.99 34.32 -66.98 35.64 -68 37 C-68.66 37 -69.32 37 -70 37 C-70.66 38.32 -71.32 39.64 -72 41 C-73.6627 42.33827 -75.32916 43.6719 -77 45 C-77.33 45.99 -77.66 46.98 -78 48 C-79.312 49.35433 -80.64631 50.68733 -82 52 C-82.66 52.99 -83.32 53.98 -84 55 C-85.65948 56.01188 -87.32581 57.01265 -89 58 C-89.33 58.66 -89.66 59.32 -90 60 C-90.66 60 -91.32 60 -92 60 C-92.66 61.32 -93.32 62.64 -94 64 C-95.29471 65.37087 -96.62151 66.71341 -98 68 C-96.50475 58.17406 -88.1328 51.84324 -80.89844 45.78125 C-78.80961 43.82137 -77.19772 41.7421 -75.5 39.4375 C-72.17019 34.95712 -68.55319 32.20963 -64 29 C-63.27812 28.27812 -62.55625 27.55625 -61.8125 26.8125 C-58.61163 23.61163 -55.30197 22.11024 -51.0625 20.5625 C-47.04684 19.19565 -47.04684 19.19565 -44.0625 17 C-41.31693 15.20698 -39.33099 14.37605 -36.25 13.4375 C-31.84553 12.42963 -31.84553 12.42963 -30 9 C-24.03122 5.44047 -17.77864 2.58649 -11 1 C-7.24464 -0.25179 -3.93585 -0.06452 0 0 Z " fill="#AAAAAA" transform="translate(215,111)"/>
<path d="M0 0 C7.44047 0.01354 7.44047 0.01354 15.03125 0.02734 C20.70828 0.04475 20.70828 0.04475 26.5 0.0625 C26.5 0.7225 26.5 1.3825 26.5 2.0625 C27.48742 2.0277 28.47484 1.99289 29.49219 1.95703 C30.77352 1.92996 32.05484 1.90289 33.375 1.875 C35.28926 1.82279 35.28926 1.82279 37.24219 1.76953 C38.31727 1.86621 39.39234 1.96289 40.5 2.0625 C41.49 3.5475 41.49 3.5475 42.5 5.0625 C40.85 4.7325 39.2 4.4025 37.5 4.0625 C33.85592 3.86114 30.20959 3.69893 26.5625 3.5625 C20.72513 3.34384 15.26755 3.02376 9.5 2.0625 C-13.44249 1.40656 -38.02063 0.85253 -60.5 6.0625 C-61.49 7.0525 -62.48 8.0425 -63.5 9.0625 C-66.12891 9.50391 -66.12891 9.50391 -69.0625 9.625 C-73.28239 9.63095 -73.28239 9.63095 -76.5 12.0625 C-79.16202 12.43109 -81.82902 12.76572 -84.5 13.0625 C-84.83 13.3925 -85.16 13.7225 -85.5 14.0625 C-88.49972 14.10359 -91.5003 14.10475 -94.5 14.0625 C-71.32564 -3.31827 -26.61421 -0.06277 0 0 Z " fill="#434343" transform="translate(262.5,358.9375)"/>
<path d="M0 0 C1.32 0.33 2.64 0.66 4 1 C2.08187 1.89719 2.08187 1.89719 0.125 2.8125 C-4.09923 4.63404 -4.09923 4.63404 -6 8 C-8.82812 9.24609 -8.82812 9.24609 -12.25 10.4375 C-16.99803 12.17356 -20.889 14.01952 -25 17 C-26.66667 17.66667 -28.33333 18.33333 -30 19 C-33.76301 21.25781 -36.99158 23.83333 -40.25 26.75 C-44 30 -44 30 -46 30 C-46.66 31.32 -47.32 32.64 -48 34 C-51.67452 38.6369 -55.61214 42.48369 -60.09766 46.28906 C-62.69686 48.62675 -64.85294 51.24908 -67 54 C-67.495 52.515 -67.495 52.515 -68 51 C-63.79346 45.56655 -59.61973 41.96687 -54 38 C-53.34 36.68 -52.68 35.36 -52 34 C-49.5 31.25 -49.5 31.25 -47 29 C-46.34 29 -45.68 29 -45 29 C-45 27.68 -45 26.36 -45 25 C-44.01 25 -43.02 25 -42 25 C-41.67 24.01 -41.34 23.02 -41 22 C-40.34 22 -39.68 22 -39 22 C-39 21.34 -39 20.68 -39 20 C-37.35 19.67 -35.7 19.34 -34 19 C-33.505 17.515 -33.505 17.515 -33 16 C-32.34 16 -31.68 16 -31 16 C-31 15.34 -31 14.68 -31 14 C-27.8265 12.29715 -24.91454 10.97601 -21.4375 10 C-18.04507 9.17125 -18.04507 9.17125 -15.5 7.5 C-13 6 -13 6 -9.5625 5.0625 C-5.89342 4.16644 -5.89342 4.16644 -2.8125 1.8125 C-1.88438 1.21438 -0.95625 0.61625 0 0 Z " fill="#262626" transform="translate(189,116)"/>
<path d="M0 0 C0.495 1.98 0.495 1.98 1 4 C-0.2622 6.04564 -1.60288 8.04403 -3 10 C-3.43313 11.20656 -3.43313 11.20656 -3.875 12.4375 C-5.52862 16.20407 -8.33489 18.89071 -11 22 C-12.24017 24.67946 -12.24017 24.67946 -13 27 C-16.06216 30.06216 -18.88091 29.30143 -23.125 29.3125 C-29.42434 29.2333 -34.30551 28.89901 -40 26 C-41.32 25.34 -42.64 24.68 -44 24 C-45.32 23.34 -46.64 22.68 -48 22 C-50.65279 20.96375 -53.31982 19.96319 -56 19 C-58.66667 18 -61.33333 17 -64 16 C-64 15.67 -64 15.34 -64 15 C-56.25 14.875 -56.25 14.875 -54 16 C-54 16.66 -54 17.32 -54 18 C-50.37 18.66 -46.74 19.32 -43 20 C-43 20.66 -43 21.32 -43 22 C-41.47375 22.26812 -39.9475 22.53625 -38.375 22.8125 C-35.16862 23.44208 -32.87292 24.06484 -29.9375 25.5625 C-26.01757 27.48076 -22.31639 27.673 -18 28 C-17.67 26.68 -17.34 25.36 -17 24 C-15.52636 21.05271 -14.32871 19.24875 -11.6875 17.25 C-6.51516 12.91967 -3.42117 7.21824 -1 1 C-0.67 0.67 -0.34 0.34 0 0 Z " fill="#373737" transform="translate(403,356)"/>
<path d="M0 0 C5.75 1.75 5.75 1.75 8 4 C10.57061 4.64768 10.57061 4.64768 13 5 C13 5.66 13 6.32 13 7 C13.88687 7.2475 14.77375 7.495 15.6875 7.75 C19.13617 9.05138 21.20255 10.64425 24 13 C25.32 13.66 26.64 14.32 28 15 C28.68063 16.20656 28.68063 16.20656 29.375 17.4375 C30.81558 20.21106 30.81558 20.21106 33.75 21.3125 C38.26749 23.65812 40.82823 27.09078 44 31 C48.29665 36.28315 48.29665 36.28315 54 40 C54.66 41.32 55.32 42.64 56 44 C56.72188 44.66 57.44375 45.32 58.1875 46 C58.78562 46.66 59.38375 47.32 60 48 C59.67 49.32 59.34 50.64 59 52 C54.26435 48.44826 51.84458 45.1386 49 40 C47.37163 38.29589 45.7123 36.61975 44 35 C43.67 34.34 43.34 33.68 43 33 C42.31937 32.60813 41.63875 32.21625 40.9375 31.8125 C35.37831 28.38236 30.91196 24.21595 27 19 C26.01 18.67 25.02 18.34 24 18 C24 17.34 24 16.68 24 16 C22.68 15.34 21.36 14.68 20 14 C19.34 13.34 18.68 12.68 18 12 C16.11281 11.35031 16.11281 11.35031 14.1875 10.6875 C9.89207 8.95651 8.08675 7.33702 5 4 C3.34973 2.97317 1.68756 1.96432 0 1 C0 0.67 0 0.34 0 0 Z " fill="#747474" transform="translate(333,122)"/>
<path d="M0 0 C1.32902 0.00902 2.65805 0.01805 4.02734 0.02734 C5.02895 0.03895 6.03055 0.05055 7.0625 0.0625 C7.0625 0.3925 7.0625 0.7225 7.0625 1.0625 C5.60844 1.27004 4.15438 1.47758 2.65625 1.69141 C-10.71336 3.7397 -23.41203 6.68239 -36.33594 10.67188 C-40.9375 12.0625 -40.9375 12.0625 -42.9375 12.0625 C-42.9375 12.7225 -42.9375 13.3825 -42.9375 14.0625 C-52.199 17.76145 -60.99166 20.81927 -70.9375 22.0625 C-67.9375 20.0625 -67.9375 20.0625 -65.9375 20.0625 C-65.9375 19.4025 -65.9375 18.7425 -65.9375 18.0625 C-64.6175 18.0625 -63.2975 18.0625 -61.9375 18.0625 C-61.6075 17.0725 -61.2775 16.0825 -60.9375 15.0625 C-57.39453 13.81641 -57.39453 13.81641 -52.75 12.625 C-50.31174 11.98305 -50.31174 11.98305 -47.82422 11.32812 C-46.2116 10.91047 -44.59898 10.49281 -42.9375 10.0625 C-40.30973 9.34337 -37.68435 8.61542 -35.0625 7.875 C-33.42668 7.42061 -33.42668 7.42061 -31.75781 6.95703 C-28.66809 6.05769 -28.66809 6.05769 -24.9375 4.0625 C-21.94035 3.38315 -18.94054 2.71533 -15.9375 2.0625 C-15.6075 1.7325 -15.2775 1.4025 -14.9375 1.0625 C-9.91969 0.14843 -5.09254 -0.04507 0 0 Z " fill="#787878" transform="translate(210.9375,359.9375)"/>
<path d="M0 0 C4.40301 1.34536 6.47156 3.16052 9 7 C9 7.99 9 8.98 9 10 C9.99 10.33 10.98 10.66 12 11 C12 12.98 12 14.96 12 17 C12.66 17 13.32 17 14 17 C14.39188 17.96938 14.78375 18.93875 15.1875 19.9375 C16.55293 22.99796 17.97054 25.79099 19.625 28.6875 C22 33 22 33 23 37 C23.66 37 24.32 37 25 37 C25.19916 38.17369 25.19916 38.17369 25.40234 39.37109 C25.57895 40.38301 25.75555 41.39492 25.9375 42.4375 C26.11152 43.44684 26.28555 44.45617 26.46484 45.49609 C26.74751 47.92874 26.74751 47.92874 28 49 C28.04081 50.99958 28.04254 53.00045 28 55 C27.34 54.67 26.68 54.34 26 54 C26 52.68 26 51.36 26 50 C25.34 50 24.68 50 24 50 C20.16883 40.80519 20.16883 40.80519 19.1875 36.125 C17.75059 31.13361 15.37687 27.22998 12.65625 22.83203 C11.14922 20.25515 10.10091 17.76342 9 15 C8.06326 13.45268 7.08315 11.93081 6.0625 10.4375 C5.55848 9.69371 5.05445 8.94992 4.53516 8.18359 C3.06504 6.09252 1.53368 4.04491 0 2 C0 1.34 0 0.68 0 0 Z " fill="#515151" transform="translate(393,174)"/>
<path d="M0 0 C0.99 0 1.98 0 3 0 C1.25 6.75 1.25 6.75 -1 9 C-1.43313 10.05187 -1.86625 11.10375 -2.3125 12.1875 C-4.11335 16.25609 -6.23275 19.5232 -9 23 C-9.66 23 -10.32 23 -11 23 C-11.33 23.99 -11.66 24.98 -12 26 C-12.66 26 -13.32 26 -14 26 C-14.33 27.32 -14.66 28.64 -15 30 C-16 32.75 -16 32.75 -18 35 C-24.9471 35.93319 -28.96516 34.2569 -35 31 C-37.64846 30.26432 -40.31228 29.57594 -43 29 C-43 28.34 -43 27.68 -43 27 C-33.25 28.875 -33.25 28.875 -31 30 C-23.13531 30.61137 -23.13531 30.61137 -16 28 C-14.23924 24.64161 -14.23924 24.64161 -13 21 C-12.34 19.68 -11.68 18.36 -11 17 C-10.01 17 -9.02 17 -8 17 C-8 16.34 -8 15.68 -8 15 C-7.36063 14.4225 -6.72125 13.845 -6.0625 13.25 C-3.5565 10.51618 -3.33019 8.63214 -3 5 C-2.01 5 -1.02 5 0 5 C0 3.35 0 1.7 0 0 Z " fill="#B8B8B8" transform="translate(403,349)"/>
<path d="M0 0 C16.58795 0.4753 32.58601 2.75315 48 9 C51.38177 9.69103 51.38177 9.69103 54.5 9.9375 C60.88026 10.76247 65.42301 12.83693 71 16 C66.44968 17.13758 64.36916 16.42838 60 15 C60 14.34 60 13.68 60 13 C58.46859 12.89559 56.93719 12.79117 55.35938 12.68359 C48.49443 11.94565 41.98091 10.59532 35.25 9.0625 C32.92453 8.53785 30.59906 8.0132 28.20312 7.47266 C15.44344 4.44344 15.44344 4.44344 14 3 C11.65013 2.76472 9.29444 2.58614 6.9375 2.4375 C5.64715 2.35371 4.3568 2.26992 3.02734 2.18359 C1.52881 2.09271 1.52881 2.09271 0 2 C0 1.34 0 0.68 0 0 Z " fill="#828282" transform="translate(289,359)"/>
<path d="M0 0 C2.60525 0.28181 5.20919 0.57577 7.8125 0.875 C9.98779 1.11863 9.98779 1.11863 12.20703 1.36719 C16 2 16 2 19 4 C19.96938 4.26812 20.93875 4.53625 21.9375 4.8125 C32.85287 8.00315 44.05572 12.86445 53 20 C53 20.66 53 21.32 53 22 C49.48669 21.12167 46.93691 20.07289 43.75 18.4375 C42.85797 17.98246 41.96594 17.52742 41.04688 17.05859 C40.37141 16.70926 39.69594 16.35992 39 16 C39 15.34 39 14.68 39 14 C37.02 14 35.04 14 33 14 C33 13.34 33 12.68 33 12 C31.35 12 29.7 12 28 12 C28 11.34 28 10.68 28 10 C26.94813 9.89687 25.89625 9.79375 24.8125 9.6875 C21.01678 9.00303 19.20479 8.003 16 6 C11.03883 4.31508 6.20327 3.54771 1 3 C0.67 2.01 0.34 1.02 0 0 Z " fill="#C9C9C9" transform="translate(290,109)"/>
<path d="M0 0 C1.55363 3.10725 0.18921 5.24356 -0.8125 8.5 C-5.58585 24.63063 -6.13672 40.26553 -6.125 57.125 C-6.12758 60.84008 -6.13016 64.55516 -6.13281 68.38281 C-6.18028 77.75294 -6.18028 77.75294 -5 86 C-5.99 86 -6.98 86 -8 86 C-8.68003 72.3266 -9.26798 58.69133 -9 45 C-8.97164 43.44797 -8.94328 41.89594 -8.91406 40.29688 C-7.8027 7.8027 -7.8027 7.8027 0 0 Z " fill="#6B6B6B" transform="translate(95,220)"/>
<path d="M0 0 C-4.27089 3.20317 -6.87242 3.811 -12 5 C-15.02073 5.94603 -18.00604 6.97083 -21 8 C-21 8.66 -21 9.32 -21 10 C-24.37097 11.49821 -26.20442 12 -30 12 C-30 12.66 -30 13.32 -30 14 C-30.96938 14.47437 -31.93875 14.94875 -32.9375 15.4375 C-35.80477 16.70194 -35.80477 16.70194 -37 18 C-38.11375 18.10313 -39.2275 18.20625 -40.375 18.3125 C-44.44978 18.66333 -44.44978 18.66333 -47 23 C-49.93424 24.35816 -52.87929 25.09545 -56 26 C-50.58909 19.86763 -43.78911 15.71205 -36 13.3125 C-31.81823 12.39645 -31.81823 12.39645 -30 9 C-24.03122 5.44047 -17.77864 2.58649 -11 1 C-7.24464 -0.25179 -3.93585 -0.06452 0 0 Z " fill="#BABABA" transform="translate(215,111)"/>
<path d="M0 0 C3.62538 0.11348 7.25032 0.24109 10.875 0.375 C12.89367 0.44461 14.91234 0.51422 16.99219 0.58594 C22 1 22 1 24 3 C26.42715 3.6794 26.42715 3.6794 29.125 4.125 C30.73375 4.41375 32.3425 4.7025 34 5 C34 5.66 34 6.32 34 7 C35.09312 6.95875 36.18625 6.9175 37.3125 6.875 C41 7 41 7 44 9 C44 9.66 44 10.32 44 11 C44.75926 11.19336 45.51852 11.38672 46.30078 11.58594 C47.29465 11.84633 48.28852 12.10672 49.3125 12.375 C50.29863 12.63023 51.28477 12.88547 52.30078 13.14844 C55 14 55 14 58 16 C58 16.99 58 17.98 58 19 C54.12357 17.87788 50.68634 16.36311 47.125 14.5 C42.82853 12.29039 38.70867 11.11731 34 10 C33.21883 9.52949 32.43766 9.05898 31.63281 8.57422 C22.2064 2.93795 10.69915 2.04382 0 1 C0 0.67 0 0.34 0 0 Z " fill="#3D3D3D" transform="translate(273,103)"/>
<path d="M0 0 C0.33 0 0.66 0 1 0 C1.42318 2.24609 1.84635 4.49219 2.26953 6.73828 C3.3434 11.53335 4.70708 16.2593 6 21 C6.25925 29.49668 6.34426 37.99942 6.3125 46.5 C6.30863 51.00656 6.30477 55.51313 6.30078 60.15625 C6 71 6 71 4 74 C4.0232 71.64488 4.04641 69.28977 4.07031 66.86328 C5.87213 39.36601 5.87213 39.36601 0 13 C-0.19531 9.76562 -0.19531 9.76562 -0.125 6.25 C-0.09793 4.4943 -0.09793 4.4943 -0.07031 2.70312 C-0.04711 1.81109 -0.02391 0.91906 0 0 Z " fill="#DEDEDE" transform="translate(417,224)"/>
<path d="M0 0 C0.33 0 0.66 0 1 0 C1.05373 8.24993 1.09267 16.49996 1.125 24.75 C1.1482 29.34422 1.17141 33.93844 1.19531 38.67188 C1 50 1 50 -1 54 C-2.00674 44.79437 -2.16653 35.69513 -2.1875 26.4375 C-2.20168 23.58996 -2.21586 20.74242 -2.23047 17.80859 C-2.04464 11.51263 -1.51252 6.07998 0 0 Z " fill="#292929" transform="translate(86,249)"/>
<path d="M0 0 C3.3825 -0.01418 6.765 -0.02836 10.25 -0.04297 C19 0.1875 19 0.1875 26 2.1875 C26 2.5175 26 2.8475 26 3.1875 C24.14592 3.2149 22.29172 3.23407 20.4375 3.25 C19.40496 3.2616 18.37242 3.2732 17.30859 3.28516 C14 3.1875 14 3.1875 10.84375 2.70312 C-2.94621 0.85325 -17.30434 1.08214 -30.59766 5.3125 C-34.49929 6.3159 -37.98788 6.32812 -42 6.1875 C-39.29861 3.48611 -37.03891 3.38137 -33.3125 2.625 C-32.11238 2.37621 -30.91227 2.12742 -29.67578 1.87109 C-19.72177 0.01992 -10.11238 0.01927 0 0 Z " fill="#B4B4B4" transform="translate(257,104.8125)"/>
<path d="M0 0 C0.33 0 0.66 0 1 0 C3.29383 9.085 3.19853 17.7865 3.125 27.125 C3.10695 30.09758 3.08891 33.07016 3.07031 36.13281 C3.04711 38.39898 3.02391 40.66516 3 43 C2.34 43 1.68 43 1 43 C1.06187 44.67062 1.06187 44.67062 1.125 46.375 C0.98603 51.51702 0.11402 55.9869 -1 61 C-1.33 61 -1.66 61 -2 61 C-2.07122 56.72685 -2.04117 53.16468 -1 49 C-0.0103 38.18941 0.1033 27.47668 0.0625 16.625 C0.04896 11.94184 0.04896 11.94184 0.03516 7.16406 C0.02355 4.79992 0.01195 2.43578 0 0 Z " fill="#606060" transform="translate(424,249)"/>
<path d="M0 0 C0.33 0 0.66 0 1 0 C1 1.65 1 3.3 1 5 C0.34 5.66 -0.32 6.32 -1 7 C-1.26812 7.94875 -1.53625 8.8975 -1.8125 9.875 C-4.10842 17.8503 -7.19751 25.21027 -12 32 C-12.71574 33.64619 -13.40257 35.30728 -14 37 C-14.66 37 -15.32 37 -16 37 C-16.06187 37.7425 -16.12375 38.485 -16.1875 39.25 C-17.24185 42.81857 -18.9991 43.92245 -22 46 C-21.34 44.68 -20.68 43.36 -20 42 C-19.40188 40.61813 -18.80375 39.23625 -18.1875 37.8125 C-15.68035 32.134 -12.76093 26.70912 -9.375 21.5 C-7.78547 18.60995 -6.88204 15.62899 -5.89453 12.49219 C-4.33172 8.13816 -2.15732 4.08441 0 0 Z " fill="#202020" transform="translate(421,322)"/>
<path d="M0 0 C0.33 0 0.66 0 1 0 C1.24234 1.11117 1.48469 2.22234 1.73438 3.36719 C3.59228 11.61344 5.67372 19.23867 9 27 C9.69356 29.32548 10.36149 31.6588 11 34 C11.51562 35.52625 12.03125 37.0525 12.5625 38.625 C13.60439 41.79597 14.47131 44.72209 15 48 C14.505 46.515 14.505 46.515 14 45 C13.01 45 12.02 45 11 45 C8.97265 40.9453 8.06761 37.39602 7 33 C4.13349 22.25791 4.13349 22.25791 0 12 C-0.07066 9.95945 -0.08422 7.91666 -0.0625 5.875 C-0.05348 4.7793 -0.04445 3.68359 -0.03516 2.55469 C-0.02355 1.71164 -0.01195 0.86859 0 0 Z " fill="#4D4D4D" transform="translate(90,306)"/>
<path d="M0 0 C6.39574 -0.05423 12.79161 -0.09289 19.1875 -0.125 C22.74918 -0.1482 26.31086 -0.17141 29.98047 -0.19531 C40.30076 0.00586 50.05624 0.59864 59.8125 4.125 C60.80895 4.4782 61.80539 4.83141 62.83203 5.19531 C63.90518 5.59363 63.90518 5.59363 65 6 C65 6.33 65 6.66 65 7 C58.87267 7.27032 54.10697 6.30283 48.25 4.5625 C32.45474 0.5657 16.19836 1.09753 0 1 C0 0.67 0 0.34 0 0 Z " fill="#717171" transform="translate(240,104)"/>
<path d="M0 0 C0.99 0.99 1.98 1.98 3 3 C3 3.66 3 4.32 3 5 C3.99 5.33 4.98 5.66 6 6 C6 6.66 6 7.32 6 8 C6.66 8 7.32 8 8 8 C8.33 9.32 8.66 10.64 9 12 C13.21322 13.05331 16.67251 13.20607 21 13 C21.99 12.34 22.98 11.68 24 11 C26.98832 10.2828 29.98819 9.61109 33 9 C32.67 9.99 32.34 10.98 32 12 C30.68 12 29.36 12 28 12 C28 12.66 28 13.32 28 14 C22.45836 16.82977 18.2101 17.69973 12 17 C8.30871 14.56111 6.40545 13.21634 5 9 C4.01 8.01 3.02 7.02 2 6 C0 3 0 3 0 0 Z " fill="#C0C0C0" transform="translate(117,366)"/>
<path d="M0 0 C7.27075 -0.0537 14.54162 -0.09265 21.8125 -0.125 C27.88592 -0.1598 27.88592 -0.1598 34.08203 -0.19531 C44 0 44 0 47 2 C31.16 2.33 15.32 2.66 -1 3 C-0.67 2.01 -0.34 1.02 0 0 Z " fill="#1D1D1D" transform="translate(234,101)"/>
<path d="M0 0 C0 2.87137 -0.27113 5.2303 -1 8 C-1.99 8.495 -1.99 8.495 -3 9 C-4.85614 12.5781 -6.54139 16.22258 -8.24609 19.875 C-10 23 -10 23 -13 24 C-13.06188 24.96938 -13.12375 25.93875 -13.1875 26.9375 C-14.21765 32.08824 -16.30333 35.50555 -19 40 C-20.39837 34.40651 -18.4926 31.04792 -16 26 C-14.35287 23.65284 -12.68655 21.319 -11 19 C-10.02148 16.79043 -9.04371 14.58018 -8.10938 12.35156 C-6.08011 8.05009 -3.36223 3.36223 0 0 Z " fill="#A5A5A5" transform="translate(116,179)"/>
<path d="M0 0 C0 4.07628 -2.06243 5.90659 -4.47656 9.02344 C-7.17455 12.52391 -8.89204 15.69574 -10.375 19.875 C-12.06956 24.17657 -14.23729 27.31638 -17 31 C-17.66 32.32 -18.32 33.64 -19 35 C-19.33 34.34 -19.66 33.68 -20 33 C-18.20505 28.54587 -16.27218 24.47231 -13.875 20.3125 C-12.13301 17.23499 -10.99014 14.38299 -10 11 C-9.34 11 -8.68 11 -8 11 C-7.67 9.68 -7.34 8.36 -7 7 C-6.34 7 -5.68 7 -5 7 C-4.9175 6.21625 -4.835 5.4325 -4.75 4.625 C-4.5025 3.75875 -4.255 2.8925 -4 2 C-2.68 1.34 -1.36 0.68 0 0 Z " fill="#525252" transform="translate(118,174)"/>
<path d="M0 0 C1.14914 4.59655 0.74423 5.08747 -1.375 9.0625 C-4.19372 14.83971 -4.59671 19.62796 -5 26 C-5.66 26.66 -6.32 27.32 -7 28 C-7.46487 31.12196 -7.46487 31.12196 -7.625 34.625 C-7.69977 35.81352 -7.77453 37.00203 -7.85156 38.22656 C-7.90055 39.1418 -7.94953 40.05703 -8 41 C-8.66 41 -9.32 41 -10 41 C-10.33 41.66 -10.66 42.32 -11 43 C-11.44072 28.81831 -6.58337 12.56994 0 0 Z " fill="#C5C5C5" transform="translate(100,211)"/>
<path d="M0 0 C-0.66 0.99 -1.32 1.98 -2 3 C-4.53125 3.44141 -4.53125 3.44141 -7.5 3.5625 C-11.75333 3.56317 -11.75333 3.56317 -15 6 C-17.66202 6.36859 -20.32902 6.70322 -23 7 C-23.33 7.33 -23.66 7.66 -24 8 C-26.99972 8.04109 -30.0003 8.04225 -33 8 C-24.20254 1.4019 -10.83063 -0.20797 0 0 Z " fill="#272727" transform="translate(201,365)"/>
<path d="M0 0 C1.32 0.33 2.64 0.66 4 1 C2.72125 1.59812 1.4425 2.19625 0.125 2.8125 C-4.09923 4.63404 -4.09923 4.63404 -6 8 C-8.82812 9.24609 -8.82812 9.24609 -12.25 10.4375 C-16.9655 12.16077 -20.98928 13.90602 -25 17 C-25.66 16.67 -26.32 16.34 -27 16 C-21.0862 9.32313 -14.42545 6.38456 -6 4 C-4.94813 3.27813 -3.89625 2.55625 -2.8125 1.8125 C-1.88438 1.21438 -0.95625 0.61625 0 0 Z " fill="#797979" transform="translate(189,116)"/>
<path d="M0 0 C5.75 1.75 5.75 1.75 8 4 C10.57061 4.64768 10.57061 4.64768 13 5 C13 5.66 13 6.32 13 7 C13.88687 7.2475 14.77375 7.495 15.6875 7.75 C19.13617 9.05138 21.20255 10.64425 24 13 C25.32 13.66 26.64 14.32 28 15 C28 15.66 28 16.32 28 17 C23.49379 15.8947 21.34905 15.34905 18 12 C16.72125 11.54625 15.4425 11.0925 14.125 10.625 C9.8449 8.9389 8.06815 7.31692 5 4 C3.34973 2.97317 1.68756 1.96432 0 1 C0 0.67 0 0.34 0 0 Z " fill="#626262" transform="translate(333,122)"/>
<path d="M0 0 C8.06782 4.03391 13.75272 13.16908 18 21 C18.8125 24.5 18.8125 24.5 19 27 C18.34 27 17.68 27 17 27 C16.54109 26.01258 16.08219 25.02516 15.60938 24.00781 C14.68898 22.08582 14.68898 22.08582 13.75 20.125 C13.14672 18.84883 12.54344 17.57266 11.92188 16.25781 C10.18514 12.63995 10.18514 12.63995 6 11 C3.75045 7.42719 1.88788 3.77576 0 0 Z " fill="#C2C2C2" transform="translate(386,169)"/>
<path d="M0 0 C3 2 3 2 4.125 6.5625 C4.41375 8.02687 4.7025 9.49125 5 11 C5.33 11.33 5.66 11.66 6 12 C6.2114 14.43403 6.36901 16.87282 6.5 19.3125 C6.72192 23.42199 7.00008 27.00033 8 31 C8.03921 33.66638 8.04444 36.3337 8 39 C5.52795 35.29192 5.45988 32.66815 5 28.25 C4.44207 22.92976 3.50513 18.12591 2 13 C1.7611 11.25627 1.56721 9.50523 1.4375 7.75 C1.20307 3.2294 1.20307 3.2294 0 0 Z " fill="#262626" transform="translate(419,220)"/>
<path d="M0 0 C-3.287 1.6435 -5.4793 2.41322 -9 3 C-9 3.66 -9 4.32 -9 5 C-9.96938 5.47437 -10.93875 5.94875 -11.9375 6.4375 C-14.80477 7.70194 -14.80477 7.70194 -16 9 C-17.11375 9.10313 -18.2275 9.20625 -19.375 9.3125 C-23.44978 9.66333 -23.44978 9.66333 -26 14 C-28.93424 15.35816 -31.87929 16.09545 -35 17 C-28.42907 9.55294 -20.29746 5.87127 -11 3 C-9.9275 2.44312 -8.855 1.88625 -7.75 1.3125 C-5 0 -5 0 0 0 Z " fill="#D8D8D8" transform="translate(194,120)"/>
<path d="M0 0 C0.33 1.32 0.66 2.64 1 4 C-0.2622 6.04564 -1.60288 8.04403 -3 10 C-3.43313 11.20656 -3.43313 11.20656 -3.875 12.4375 C-6.37328 18.12804 -11.06265 22.36959 -16 26 C-16.66 25.67 -17.32 25.34 -18 25 C-17.01 24.01 -16.02 23.02 -15 22 C-14.67 21.01 -14.34 20.02 -14 19 C-12.91719 18.19563 -12.91719 18.19563 -11.8125 17.375 C-6.5939 12.96818 -3.45441 7.30361 -1 1 C-0.67 0.67 -0.34 0.34 0 0 Z " fill="#626262" transform="translate(403,356)"/>
<path d="M0 0 C1.55363 3.10725 0.18921 5.24356 -0.8125 8.5 C-2.54302 14.32193 -3.88619 20.03318 -5 26 C-5.64677 29.00478 -6.323 32.00184 -7 35 C-7.33 35 -7.66 35 -8 35 C-8.18301 28.65156 -7.60417 23.06164 -6.1875 16.875 C-5.85105 15.3668 -5.51461 13.85859 -5.16797 12.30469 C-2.51059 2.51059 -2.51059 2.51059 0 0 Z " fill="#636363" transform="translate(95,220)"/>
<path d="M0 0 C0.66 0.33 1.32 0.66 2 1 C-2.75 5 -2.75 5 -5 5 C-5.66 6.32 -6.32 7.64 -7 9 C-10.67452 13.6369 -14.61214 17.48369 -19.09766 21.28906 C-21.69686 23.62675 -23.85294 26.24908 -26 29 C-26.33 28.01 -26.66 27.02 -27 26 C-22.79346 20.56655 -18.61973 16.96687 -13 13 C-12.34 11.68 -11.68 10.36 -11 9 C-8.68971 6.97343 -6.35737 4.97162 -4 3 C-3.67 2.34 -3.34 1.68 -3 1 C-2.01 0.67 -1.02 0.34 0 0 Z " fill="#535353" transform="translate(148,141)"/>
</g></svg>
