<svg xmlns="http://www.w3.org/2000/svg" viewBox="0 0 24 24"><g transform="translate(0 0) scale(0.0469)"><path d="M152 140 C150.55754 141.10795 150.55754 141.10795 149.08594 142.23828 C114.48686 169.50873 93.17188 210.13344 87.53125 253.61328 C87.23779 257.0818 87.08443 260.51998 87 264 C86.96004 265.53141 86.92008 267.06281 86.87891 268.64062 C86.35899 308.15404 97.02073 348.98487 123.83203 379.05469 C126.75246 381.91578 128.61904 382.96511 132.71094 383.33984 C137.46501 382.96315 140.72019 381.75762 145.0625 379.8125 C165.43691 371.06555 187.08425 365.35935 209 362 C211.61422 361.58234 211.61422 361.58234 214.28125 361.15625 C266.66425 353.90322 326.95312 358.97656 375 383 C381.4207 383.60948 381.4207 383.60948 387.02344 380.85156 C391.907 376.17308 395.3146 370.63797 399 365 C399.68449 363.9868 400.36898 362.97359 401.07422 361.92969 C423.28069 327.81287 430.92438 281.704 423 242 C420.41481 229.83495 417.07568 218.35475 412 207 C411.36836 205.57559 410.73672 204.15117 410.08594 202.68359 C401.5963 184.08179 390.08828 168.77501 376 154 C375.26137 153.20852 374.52273 152.41703 373.76172 151.60156 C343.99955 120.58796 301.36223 105.90796 259.30859 103.81641 C220.37725 103.03502 182.48724 115.94421 152 140 Z" fill="#000000"/></g></svg>
