<svg xmlns="http://www.w3.org/2000/svg" viewBox="0 0 24 24"><g transform="translate(0 0) scale(0.0469)">
<path d="M0 0 C44.24063 -0.00773 44.24063 -0.00773 89.375 -0.01562 C172.16558 0.29576 172.16558 0.29576 185 9.25 C186.98 9.745 186.98 9.745 189 10.25 C189 11.24 189 12.23 189 13.25 C190.98 13.25 192.96 13.25 195 13.25 C195.33 13.91 195.66 14.57 196 15.25 C197.98 15.745 197.98 15.745 200 16.25 C200 17.24 200 18.23 200 19.25 C200.70125 19.3325 201.4025 19.415 202.125 19.5 C205.70841 20.4348 208.0805 21.99403 211 24.25 C211.33 25.24 211.66 26.23 212 27.25 C212.99 27.25 213.98 27.25 215 27.25 C216.38903 28.87054 217.71333 30.54705 219 32.25 C221.43495 34.80982 223.8137 37.10806 226.625 39.25 C229.14534 41.37239 230.38747 43.40888 232 46.25 C232.66 46.58 233.32 46.91 234 47.25 C236.39715 50.66134 237 51.95613 237 56.25 C237.99 56.25 238.98 56.25 240 56.25 C240.33 57.57 240.66 58.89 241 60.25 C241.66 60.58 242.32 60.91 243 61.25 C245.39715 64.66134 246 65.95613 246 70.25 C246.66 70.25 247.32 70.25 248 70.25 C272.51368 123.36298 256.25959 201.41565 256.25 256.25 C256.25516 285.74375 256.26031 315.2375 256.26562 345.625 C255.95424 428.41558 255.95424 428.41558 247 441.25 C246.67 442.57 246.34 443.89 246 445.25 C245.01 445.25 244.02 445.25 243 445.25 C243 447.23 243 449.21 243 451.25 C242.34 451.58 241.68 451.91 241 452.25 C240.67 453.57 240.34 454.89 240 456.25 C239.01 456.25 238.02 456.25 237 456.25 C236.9175 456.95125 236.835 457.6525 236.75 458.375 C235.8152 461.95841 234.25597 464.3305 232 467.25 C231.01 467.58 230.02 467.91 229 468.25 C229 469.24 229 470.23 229 471.25 C227.37946 472.63903 225.70295 473.96333 224 475.25 C221.44018 477.68495 219.14194 480.0637 217 482.875 C214.87761 485.39534 212.84112 486.63747 210 488.25 C209.67 488.91 209.34 489.57 209 490.25 C205.58866 492.64715 204.29387 493.25 200 493.25 C200 494.24 200 495.23 200 496.25 C198.68 496.58 197.36 496.91 196 497.25 C195.67 497.91 195.34 498.57 195 499.25 C191.58866 501.64715 190.29387 502.25 186 502.25 C186 502.91 186 503.57 186 504.25 C132.88702 528.76368 54.83435 512.50959 0 512.5 C-44.24063 512.50773 -44.24063 512.50773 -89.375 512.51562 C-172.16558 512.20424 -172.16558 512.20424 -185 503.25 C-186.32 502.92 -187.64 502.59 -189 502.25 C-189 501.26 -189 500.27 -189 499.25 C-190.98 499.25 -192.96 499.25 -195 499.25 C-195.33 498.59 -195.66 497.93 -196 497.25 C-197.32 496.92 -198.64 496.59 -200 496.25 C-200 495.26 -200 494.27 -200 493.25 C-200.70125 493.1675 -201.4025 493.085 -202.125 493 C-205.70841 492.0652 -208.0805 490.50597 -211 488.25 C-211.495 486.765 -211.495 486.765 -212 485.25 C-212.99 485.25 -213.98 485.25 -215 485.25 C-216.38903 483.62946 -217.71333 481.95295 -219 480.25 C-221.43495 477.69018 -223.8137 475.39194 -226.625 473.25 C-229.14534 471.12761 -230.38747 469.09112 -232 466.25 C-232.66 465.92 -233.32 465.59 -234 465.25 C-236.39715 461.83866 -237 460.54387 -237 456.25 C-237.99 456.25 -238.98 456.25 -240 456.25 C-240.33 454.93 -240.66 453.61 -241 452.25 C-241.66 451.92 -242.32 451.59 -243 451.25 C-245.39715 447.83866 -246 446.54387 -246 442.25 C-246.66 442.25 -247.32 442.25 -248 442.25 C-272.51368 389.13702 -256.25959 311.08435 -256.25 256.25 C-256.25516 226.75625 -256.26031 197.2625 -256.26562 166.875 C-255.95424 84.08442 -255.95424 84.08442 -247 71.25 C-246.67 69.93 -246.34 68.61 -246 67.25 C-245.01 67.25 -244.02 67.25 -243 67.25 C-243 65.27 -243 63.29 -243 61.25 C-242.01 60.755 -242.01 60.755 -241 60.25 C-240.67 58.93 -240.34 57.61 -240 56.25 C-239.01 56.25 -238.02 56.25 -237 56.25 C-236.9175 55.54875 -236.835 54.8475 -236.75 54.125 C-235.8152 50.54159 -234.25597 48.1695 -232 45.25 C-230.515 44.755 -230.515 44.755 -229 44.25 C-229 43.26 -229 42.27 -229 41.25 C-227.37946 39.86097 -225.70295 38.53667 -224 37.25 C-221.44018 34.81505 -219.14194 32.4363 -217 29.625 C-214.87761 27.10466 -212.84112 25.86253 -210 24.25 C-209.67 23.59 -209.34 22.93 -209 22.25 C-205.58866 19.85285 -204.29387 19.25 -200 19.25 C-200 18.26 -200 17.27 -200 16.25 C-198.68 15.92 -197.36 15.59 -196 15.25 C-195.67 14.59 -195.34 13.93 -195 13.25 C-191.58866 10.85285 -190.29387 10.25 -186 10.25 C-186 9.59 -186 8.93 -186 8.25 C-132.88702 -16.26368 -54.83435 -0.00959 0 0 Z " fill="#000000" transform="translate(256,-0.25)"/>
<path d="M0 0 C4.2059 1.33812 4.2059 1.33812 8.99219 1.72656 C13.13672 2.19141 13.13672 2.19141 16.13672 4.19141 C17.10609 4.45953 18.07547 4.72766 19.07422 5.00391 C23.62108 6.33299 27.84625 8.10548 32.19922 9.96094 C34.63068 10.97944 37.09881 11.90992 39.57422 12.81641 C43.13672 14.19141 43.13672 14.19141 45.82422 15.81641 C48.2911 17.2832 50.31364 17.78811 53.13672 18.19141 C53.13672 18.85141 53.13672 19.51141 53.13672 20.19141 C54.02359 20.43891 54.91047 20.68641 55.82422 20.94141 C59.27289 22.24279 61.33927 23.83566 64.13672 26.19141 C66.11672 27.18141 66.11672 27.18141 68.13672 28.19141 C68.59047 28.99578 69.04422 29.80016 69.51172 30.62891 C70.9523 33.40247 70.9523 33.40247 73.88672 34.50391 C78.40421 36.84952 80.96495 40.28218 84.13672 44.19141 C88.43337 49.47456 88.43337 49.47456 94.13672 53.19141 C94.79672 54.51141 95.45672 55.83141 96.13672 57.19141 C96.79672 57.78953 97.45672 58.38766 98.13672 59.00391 C100.13672 61.19141 100.13672 61.19141 101.01172 64.44141 C102.49134 69.37347 104.94065 72.14741 108.13672 76.19141 C109.89821 78.86627 111.20743 81.35976 112.44922 84.31641 C113.84931 87.53143 115.3781 90.36103 117.13672 93.37891 C120.32879 99.11354 121.81719 104.80259 123.13672 111.19141 C123.46672 112.51141 123.79672 113.83141 124.13672 115.19141 C124.79672 115.19141 125.45672 115.19141 126.13672 115.19141 C136.31148 145.25319 133.08357 178.26581 128.13672 209.19141 C127.47672 209.19141 126.81672 209.19141 126.13672 209.19141 C126.05422 210.47016 125.97172 211.74891 125.88672 213.06641 C125.38067 217.57864 124.09916 221.28936 122.30859 225.44141 C120.97467 228.57168 119.81229 231.7485 118.63672 234.94141 C116.40113 240.76353 114.46134 245.64166 109.13672 249.19141 C108.13121 251.52237 107.1321 253.8561 106.13672 256.19141 C103.57422 260.12891 103.57422 260.12891 101.13672 263.19141 C100.47672 263.19141 99.81672 263.19141 99.13672 263.19141 C98.80672 264.18141 98.47672 265.17141 98.13672 266.19141 C97.47672 266.19141 96.81672 266.19141 96.13672 266.19141 C95.80672 267.51141 95.47672 268.83141 95.13672 270.19141 C94.13672 272.94141 94.13672 272.94141 92.13672 275.19141 C85.18961 276.1246 81.17155 274.4483 75.13672 271.19141 C72.48826 270.45572 69.82444 269.76735 67.13672 269.19141 C67.13672 268.53141 67.13672 267.87141 67.13672 267.19141 C65.87859 267.04703 64.62047 266.90266 63.32422 266.75391 C59.13672 266.19141 59.13672 266.19141 56.13672 265.19141 C56.13672 264.53141 56.13672 263.87141 56.13672 263.19141 C54.60531 263.08699 53.07391 262.98258 51.49609 262.875 C44.63115 262.13706 38.11763 260.78672 31.38672 259.25391 C29.06125 258.72926 26.73578 258.20461 24.33984 257.66406 C11.58015 254.63484 11.58015 254.63484 10.13672 253.19141 C7.78685 252.95613 5.43116 252.77754 3.07422 252.62891 C1.78387 252.54512 0.49352 252.46133 -0.83594 252.375 C-1.83496 252.31441 -2.83398 252.25383 -3.86328 252.19141 C-3.86328 251.53141 -3.86328 250.87141 -3.86328 250.19141 C-12.69669 250.33281 -21.53 250.4797 -30.36328 250.62891 C-37.74187 250.75072 -37.74187 250.75072 -45.26953 250.875 C-70.76253 251.46837 -93.88279 254.27525 -118.26172 261.80078 C-122.86328 263.19141 -122.86328 263.19141 -124.86328 263.19141 C-124.86328 263.85141 -124.86328 264.51141 -124.86328 265.19141 C-131.78914 267.95753 -138.55518 270.60798 -145.86328 272.19141 C-147.32766 272.56266 -148.79203 272.93391 -150.30078 273.31641 C-156.64388 274.53289 -163.02097 275.45623 -168.86328 272.19141 C-170.34828 270.70641 -170.34828 270.70641 -171.86328 269.19141 C-171.86328 268.53141 -171.86328 267.87141 -171.86328 267.19141 C-172.52328 267.19141 -173.18328 267.19141 -173.86328 267.19141 C-176.81035 264.24433 -177.99428 262.15567 -179.73828 258.44141 C-181.45434 254.89065 -183.03061 251.97103 -185.42578 248.81641 C-189.08224 243.3786 -190.83538 237.38817 -192.86328 231.19141 C-193.37891 229.64453 -193.89453 228.09766 -194.42578 226.50391 C-194.90016 225.08078 -195.37453 223.65766 -195.86328 222.19141 C-196.15848 221.45922 -196.45367 220.72703 -196.75781 219.97266 C-197.90831 217.07579 -198.89775 214.15552 -199.86328 211.19141 C-200.31445 209.83273 -200.76562 208.47406 -201.23047 207.07422 C-207.82494 183.49061 -208.37376 153.18958 -201.98828 129.50391 C-200.57949 124.12718 -199.36919 118.78257 -198.36328 113.31641 C-196.52902 103.94789 -193.5139 96.96101 -187.86328 89.19141 C-186.88289 86.97761 -185.90337 84.76312 -184.96484 82.53125 C-182.34743 76.97156 -178.53541 72.08758 -174.86328 67.19141 C-174.54617 66.37414 -174.22906 65.55687 -173.90234 64.71484 C-171.39296 58.62062 -165.77259 53.85881 -160.80078 49.69141 C-157.87294 47.23156 -155.63014 44.70792 -153.36328 41.62891 C-150.03347 37.14853 -146.41647 34.40103 -141.86328 31.19141 C-140.78047 30.10859 -140.78047 30.10859 -139.67578 29.00391 C-136.47491 25.80304 -133.16525 24.30165 -128.92578 22.75391 C-124.91012 21.38706 -124.91012 21.38706 -121.92578 19.19141 C-119.18021 17.39838 -117.19427 16.56745 -114.11328 15.62891 C-109.70882 14.62104 -109.70882 14.62104 -107.86328 11.19141 C-101.90197 7.63633 -95.63992 4.73696 -88.86328 3.19141 C-87.93258 2.96969 -87.00187 2.74797 -86.04297 2.51953 C-57.95939 -4.11225 -28.21016 -8.49937 0 0 Z " fill="#FEFEFE" transform="translate(292.86328125,108.80859375)"/>
</g></svg>
