<svg xmlns="http://www.w3.org/2000/svg" viewBox="0 0 24 24"><g transform="scale(0.13333)">
<path fill-rule="evenodd" fill="currentColor" d="M 90.125 0 C 105.412 0.0019 105.412 0.0019 121.0078 0.0039 C 150.5117 0.5158 150.5117 0.5158 164 8.4375 C 164 9.0975 164 9.7575 164 10.4375 C 165.98 11.4275 165.98 11.4275 168 12.4375 C 170 14.6523 170 14.6523 172 17.375 C 172.99 18.6879 172.99 18.6879 174 20.0273 C 185.7792 40.1118 180.4794 68.505 180.4375 90.5625 C 180.4356 105.8495 180.4356 105.8495 180.4336 121.4453 C 179.9217 150.9492 179.9217 150.9492 172 164.4375 C 171.34 164.4375 170.68 164.4375 170 164.4375 C 169.34 165.7575 168.68 167.0775 168 168.4375 C 165.7852 170.4375 165.7852 170.4375 163.0625 172.4375 C 161.7496 173.4275 161.7496 173.4275 160.4102 174.4375 C 140.3257 186.2167 111.9325 180.9169 89.875 180.875 C 74.588 180.8731 74.588 180.8731 58.9922 180.8711 C 29.4883 180.3592 29.4883 180.3592 16 172.4375 C 16 171.7775 16 171.1175 16 170.4375 C 14.68 169.7775 13.36 169.1175 12 168.4375 C 10 166.2227 10 166.2227 8 163.5 C 7.34 162.6247 6.68 161.7494 6 160.8477 C -5.7792 140.7632 -0.4794 112.37 -0.4375 90.3125 C -0.4362 80.1212 -0.4349 69.9298 -0.4336 59.4297 C 0.0783 29.9259 0.0783 29.9259 8 16.4375 C 8.66 16.4375 9.32 16.4375 10 16.4375 C 10.66 15.1175 11.32 13.7975 12 12.4375 C 14.2148 10.4375 14.2148 10.4375 16.9375 8.4375 C 17.8128 7.7775 18.6881 7.1175 19.5898 6.4375 C 39.6743 -5.3417 68.0675 -0.0419 90.125 0 Z M 90.168 36.9258 C 110.6413 37.192 122.8641 44.7012 136.957 58.6914 C 148.0884 71.27 149.9685 87.2476 149.5156 103.4688 C 148.5027 114.3343 143.9088 126.0912 136 134 C 130.3653 134.5994 126.485 133.1906 121.4219 131.0195 C 111.6484 126.9052 101.8555 126.8384 91.375 126.8125 C 88.784 126.7983 86.193 126.7841 83.5234 126.7695 C 74.0612 127.0594 65.4389 128.1118 56.625 131.625 C 52.2391 133.3693 48.7477 134.6169 44 134 C 39 128.1304 39 128.1304 39 125 C 38.34 125 37.68 125 37 125 C 36.6507 123.9288 36.3013 122.8576 35.9414 121.7539 C 35.2588 119.6792 35.2588 119.6792 34.5625 117.5625 C 34.11 116.1819 33.6576 114.8013 33.1914 113.3789 C 32.3439 110.2 32.3439 110.2 31 109 C 29.8262 90.0998 30.793 73.4918 42.9414 58.2891 C 51.7934 48.446 64.738 38.7438 78.1875 37.1875 C 82.1805 36.9983 86.1707 36.9832 90.168 36.9258 Z"/>
</g></svg>
