<svg xmlns="http://www.w3.org/2000/svg" viewBox="0 0 24 24" fill="none"><defs><linearGradient id="dia-mono-a" x1="0" y1="0" x2="0" y2="1"><stop offset="0" stop-color="currentColor" stop-opacity="1"/><stop offset=".2" stop-color="currentColor" stop-opacity="0.7"/><stop offset=".4" stop-color="currentColor" stop-opacity="0.4"/><stop offset=".5" stop-color="currentColor" stop-opacity="0.3"/><stop offset=".62" stop-color="currentColor" stop-opacity="0.35"/><stop offset=".8" stop-color="currentColor" stop-opacity="0.5"/><stop offset="1" stop-color="currentColor" stop-opacity="0.7"/></linearGradient></defs><path fill="url(#dia-mono-a)" d="M11.91 2.30 C12.39 2.30 12.69 2.21 13.34 2.30 C14.00 2.40 15.20 2.69 15.84 2.88 C16.48 3.07 16.80 3.26 17.18 3.46 C17.57 3.65 17.84 3.84 18.14 4.03 C18.45 4.22 18.75 4.42 19.01 4.61 C19.26 4.80 19.47 4.99 19.68 5.18 C19.89 5.38 20.06 5.57 20.26 5.76 C20.45 5.95 20.66 6.14 20.83 6.34 C21.01 6.53 21.17 6.72 21.31 6.91 C21.46 7.10 21.57 7.30 21.70 7.49 C21.82 7.68 21.97 7.87 22.08 8.06 C22.19 8.26 22.27 8.45 22.37 8.64 C22.46 8.83 22.56 9.02 22.66 9.22 C22.75 9.41 22.86 9.60 22.94 9.79 C23.02 9.98 23.07 10.18 23.14 10.37 C23.20 10.56 23.28 10.75 23.33 10.94 C23.38 11.14 23.39 11.33 23.42 11.52 C23.46 11.71 23.49 11.90 23.52 12.10 C23.55 12.29 23.58 12.48 23.62 12.67 C23.65 12.86 23.70 13.06 23.71 13.25 C23.73 13.44 23.71 13.63 23.71 13.82 C23.71 14.02 23.73 14.21 23.71 14.40 C23.70 14.59 23.63 14.78 23.62 14.98 C23.60 15.17 23.63 15.36 23.62 15.55 C23.60 15.74 23.55 15.94 23.52 16.13 C23.49 16.32 23.47 16.51 23.42 16.70 C23.38 16.90 23.30 17.09 23.23 17.28 C23.17 17.47 23.10 17.66 23.04 17.86 C22.98 18.05 22.93 18.24 22.85 18.43 C22.77 18.62 22.64 18.82 22.56 19.01 C22.48 19.20 22.46 19.39 22.37 19.58 C22.27 19.78 22.10 19.97 21.98 20.16 C21.87 20.35 21.78 20.54 21.64 20.74 C21.40 21.06 21.10 21.28 20.60 21.40 C19.20 21.50 14.98 21.50 11.91 21.50 C8.84 21.50 4.62 21.50 3.22 21.40 C2.72 21.28 2.42 21.06 2.18 20.74 C2.04 20.54 1.95 20.35 1.84 20.16 C1.72 19.97 1.55 19.78 1.45 19.58 C1.36 19.39 1.34 19.20 1.26 19.01 C1.18 18.82 1.05 18.62 0.97 18.43 C0.89 18.24 0.84 18.05 0.78 17.86 C0.72 17.66 0.65 17.47 0.59 17.28 C0.52 17.09 0.44 16.90 0.40 16.70 C0.35 16.51 0.33 16.32 0.30 16.13 C0.27 15.94 0.22 15.74 0.20 15.55 C0.19 15.36 0.22 15.17 0.20 14.98 C0.19 14.78 0.12 14.59 0.11 14.40 C0.09 14.21 0.11 14.02 0.11 13.82 C0.11 13.63 0.09 13.44 0.11 13.25 C0.12 13.06 0.17 12.86 0.20 12.67 C0.24 12.48 0.27 12.29 0.30 12.10 C0.33 11.90 0.36 11.71 0.40 11.52 C0.43 11.33 0.44 11.14 0.49 10.94 C0.54 10.75 0.62 10.56 0.68 10.37 C0.75 10.18 0.80 9.98 0.88 9.79 C0.96 9.60 1.07 9.41 1.16 9.22 C1.26 9.02 1.36 8.83 1.45 8.64 C1.55 8.45 1.63 8.26 1.74 8.06 C1.85 7.87 2.00 7.68 2.12 7.49 C2.25 7.30 2.36 7.10 2.51 6.91 C2.65 6.72 2.81 6.53 2.99 6.34 C3.16 6.14 3.37 5.95 3.56 5.76 C3.76 5.57 3.93 5.38 4.14 5.18 C4.35 4.99 4.56 4.80 4.81 4.61 C5.07 4.42 5.37 4.22 5.68 4.03 C5.98 3.84 6.25 3.65 6.64 3.46 C7.02 3.26 7.34 3.07 7.98 2.88 C8.62 2.69 9.82 2.40 10.48 2.30 C11.13 2.21 11.43 2.30 11.91 2.30 Z"/></svg>
