<svg xmlns="http://www.w3.org/2000/svg" viewBox="0 0 24 24">
  <g transform="translate(3.2727 0) scale(0.27273)">
    <path fill="#56368A" d="M42 22l12.065 2.28L64 22 42 0l-3.035 10.43z"/>
    <path fill="#7248B9" d="M42 22V0H6C2.685 0 0 2.685 0 6v76c0 3.315 2.685 6 6 6h52c3.315 0 6-2.685 6-6V22H42z"/>
    <path fill="#FFFFFF" d="M17 63.5c-1.655 0-3-1.345-3-3s1.345-3 3-3 3 1.345 3 3-1.345 3-3 3zm0-12c-1.655 0-3-1.345-3-3s1.345-3 3-3 3 1.345 3 3-1.345 3-3 3zm0-12c-1.655 0-3-1.345-3-3s1.345-3 3-3 3 1.345 3 3-1.345 3-3 3zM50 63H25v-5h25v5zm0-12H25v-5h25v5zm0-12H25v-5h25v5z"/>
  </g>
</svg>
