<svg xmlns="http://www.w3.org/2000/svg" viewBox="0 0 24 24">
  <g transform="translate(3.2727 0) scale(0.27273)" fill="currentColor">
    <path fill-rule="evenodd" clip-rule="evenodd" d="M6 0C2.685 0 0 2.685 0 6v76c0 3.315 2.685 6 6 6h52c3.315 0 6-2.685 6-6V22L42 0H6zm11 39.5c1.655 0 3 1.345 3 3s-1.345 3-3 3-3-1.345-3-3 1.345-3 3-3zm0 12c1.655 0 3 1.345 3 3s-1.345 3-3 3-3-1.345-3-3 1.345-3 3-3zm8 2.5h25v5H25v-5zm0-12h25v5H25v-5zM17 33.5c1.655 0 3 1.345 3 3s-1.345 3-3 3-3-1.345-3-3 1.345-3 3-3zm8 2.5h25v5H25v-5z"/>
  </g>
</svg>
