<svg xmlns="http://www.w3.org/2000/svg" viewBox="0 0 24 24">
  <path fill="currentColor" d="M21.6035 10.1448H12.2093V13.9894H17.6073C17.5205 14.5336 17.3256 15.0688 17.0403 15.5569C16.7134 16.1161 16.3092 16.5418 15.895 16.866C14.6541 17.8372 13.2075 18.0358 12.2028 18.0358C9.66478 18.0358 7.49623 16.3604 6.65673 14.0838C6.62286 14.0012 6.60036 13.9159 6.57297 13.8315C6.38746 13.2521 6.2861 12.6384 6.2861 12.0006C6.2861 11.3369 6.39586 10.7014 6.59599 10.1013C7.38539 7.73451 9.60284 5.96672 12.2046 5.96672C12.7279 5.96672 13.2319 6.03034 13.7098 6.15724C14.802 6.44725 15.5745 7.01843 16.0479 7.47023L18.9043 4.61313C17.1668 2.98597 14.9017 2 12.1999 2C10.0399 1.99995 8.04571 2.68732 6.41155 3.84899C5.08629 4.79107 3.9994 6.0524 3.26587 7.5173C2.58359 8.87555 2.21 10.3808 2.21 11.9991C2.21 13.6176 2.58416 15.1384 3.26645 16.4841V16.4932C3.98711 17.9218 5.04096 19.1519 6.3218 20.0897C7.44075 20.9089 9.44715 22 12.1999 22C13.7829 22 15.1858 21.7085 16.4231 21.1622C17.3157 20.7681 18.1066 20.2541 18.8226 19.5935C19.7686 18.7206 20.5096 17.6409 21.0153 16.3987C21.521 15.1565 21.7915 13.7518 21.7915 12.2289C21.7915 11.5196 21.7218 10.7993 21.6035 10.1447V10.1448Z"/>
</svg>
