<svg xmlns="http://www.w3.org/2000/svg" viewBox="0 0 24 24">
  <g transform="scale(0.005356)">
    <path fill="#255FDB" d="M1545.47 2708.41C781.522 1697.707-2.797 2465.729 201.941 3172.126c514.98 1126.319 1845.516 1621.908 2971.834 1106.928 388.227-177.507 717.722-462.139 949.765-820.448-590.532 553.099-1662.86 460.662-2578.07-750.196z"/>
    <path fill="#4285F4" d="M2228.44 2012.453C1177.757 418.858.004 1268.113.004 2241.638-.421 2564.056 69.083 2882.732 203.723 3175.691 63.921 2515.895 822.012 2007.106 1527.9 2954.146c1024.964 1375.106 2030.828 1133.189 2593.604 507.516 180.738-277.449 297.472-591.64 341.739-919.793v4.329C4221.58 3295.886 3155.108 3417.863 2228.44 2012.453z"/>
    <path fill="#91BFFF" d="M2948.588 1299.435C2168.343 12.183 1179.03 128.048 509.302 817.893 179.168 1218.827-.925 1722.277.004 2241.638c70.029-942.202 1209.584-1597.924 2240.914 0 916.738 1422.217 2058.84 1051.702 2221.306 308.635v-7.13c14.218-101.209 20.265-203.399 18.08-305.579v-101.86c-396.998 284.188-919.03 174.434-1531.716-836.269z"/>
    <path fill="#C4E1FF" d="M2953.936 1528.62c714.546 1148.723 1330.543 854.858 1527.896 609.121-7.978-171.708-35.749-341.922-82.761-507.261-333.082 6.875-410.75-48.638-738.483-547.751C3159.692 315.216 2528.671-202.996 1426.04 153.513 1068.788 293.635 753.238 522.671 509.302 818.912 1266.884 121.682 2196.354 310.887 2953.936 1528.62z"/>
    <path fill="#F5F5F5" d="M3611.695 1181.533c326.715 499.877 525.596 525.342 787.376 448.947C4059.649 438.263 2818.011-253.065 1625.795 86.357c-67.6 19.245-134.258 41.656-199.755 67.157 984.983-310.673 1683.486 260.251 2185.655 1028.019z"/>
  </g>
</svg>
