<svg xmlns="http://www.w3.org/2000/svg" viewBox="0 0 24 24"><g fill="currentColor" stroke="currentColor" stroke-width="1.042" transform="translate(0 4.663)scale(.12435)"><path fill="none" d="M152.02 80.596c6.041-1.133 3.653-13.498 6.222-4.872"/><path d="M112.14 60.713c20.568-8.982 24.824-1.715 32.652-3.816 16.157-4.905 14.782-12.774 9.117-22.05 7.11 3.51 12.297 10.39 17.174 17.81L175 73h-55z"/><path d="M82.662 60.076c-7.703-10.931-25.972.513-34.56-1.696-13.442-3.457-14.061-16.256-8.057-23.322-7.11 3.51-12.296 10.389-17.173 17.809L25 103Z"/><path d="M80.734 60.881c-23.056-7.663-38.381 6.703-43.028 6.147-17.8-2.128-17.82-15.292-13.043-26.986-4.017 6.13-8.96 6.705-11.544 21.439-2.084-2.13-4.45-2.752-5.397-10.944-5.048 15.904-1.81 19.6.449 24.737-1.853-1.221-3.722-2.463-6.747-5.247.637 7.472 3.261 10.969 5.398 15.442L1.424 82.17c8.912 24.403 21.884 33.577 37.18 34.033 15.053-1.392 22.691-3.841 31.634-5.997"/><path d="M74.329 21.664c-7.049.767-11.604-5.287-15.934-9.432 5.496 3.392 11.86 6.59 19.715 4.872"/><path d="M69.233 78.528c2.432-7.157 11.177-18.968 22.938-29.235 3.264-3.548 3.193-7.096 3.148-10.645-.456-5.022-3.388-5.8-5.697-7.646-11.796-4.01-12.338-6.468-16.64-9.445 5.43-2.49 8.041-8.369 3.298-12.294 2.948-2.098 5.92-3.532 8.845-3.149 14.21 1.86 30.328 16.461 25.202 41.652-1.873 7.62-1.07 9.934-.315 10.821 1.684 1.981 3.464 4.88 4.648 4.198 3.73-2.15 9.595-2.95 14.393-2.848 8.118-.469 23.683 7.46 27.136 7.496 8.8.09 19.918-9.028 13.193-26.686 4.64 6.125 9.329 10.226 11.34 20.82 3.215-1.944 4.293-6.025 5.601-9.876 3.84 8.594 2.761 16.37-.15 23.838 1.845-1.034 3.746-2.264 6.147-5.247.353 6.588-3.346 10.34-5.547 15.142l4.648-2.549c-5.587 16.766-14.633 30.86-33.963 33.601-12.177-2.721-23.787-6.515-38.38-6.015"/><path stroke="none" d="m85.8 15.234 6.042 2.491L86 11.2Z"/><path stroke="none" d="M91.63 16.798c.221.556 1.566.246 1.67-.875l.689-.026c-2.409 5.734-4.884-3.162-7.607-3.26.083 1.591.287 3.262-2.252 3.154-1.22-.047-1.947-.698-2.067-2.094.222-1.998 1.024-1.953 1.722-2.287 3.935-1.09 5.926.557 7.845 5.388"/><ellipse cx="84.004" cy="13.731" rx=".946" ry=".975"/><path d="M87.71 93.52c3.71-10.926 21.93-19.108 5.171-33.905 19.869 4.365 19.679 26.14 23.599 44.147"/><path d="M68.572 93.683c-6.8-9.19-1.185-16.25 1.272-23.853 1.106 7.914 4.494 12.095 8.693 14.948 1.83-11.02 6.808-14.315 11.661-17.916-5.262 5.77-4.736 15.312 3.604 21.096 11.8 8.529 11.813 9.512 14.1 13.569 2.676-3.733 5.498-7.147 4.877-18.022 5.357-3.064 5.382-8.794 7.103-13.675 7.063 11.52 6.404 18.71 1.908 23.747l6.679-3.817c-1.042 4.59-3.595 8.802-6.891 12.827l4.028-1.06c-6.39 11.462-15.44 18.146-30.005 14.948-19.074 1.434-26.877-5.425-31.06-14.948 1.437-.188 3.495.289 4.664.636-4.517-3.1-5.293-7.864-7.527-11.979 2.23 1.563 4.392 3.542 6.89 3.499z"/><path fill="none" d="M78.643 84.566c-.61 4.347.297 9.223.954 13.569"/><path d="M86.329 112.553c-9.858-3-11.868-10.711-11.184-20.036 1.655 3.124 3.228 6.346 6.944 6.997-.513 9.422 2.123 9.929 4.24 13.039z"/><path fill="none" d="m82.067 99.513.424-3.02c1.37 6.363 4.267 6.106 6.838 7.26"/><path d="M90.093 84.513c4.802-2.376 2.469-6.791 2.81-10.442 4.361 5.552 5.617 11.021 4.61 16.432"/><path d="M63.642 14.78c-1.234-4.907-5.45-8.031-9.82-10.195 3.133.206 3.632-1.618 13.643 7.871 2.905 2.502 5.493 3.844 9.192 4.56-3.592 1.289-9.142.638-13.015-2.236z"/><path stroke-linejoin="bevel" d="m54.197 4.81-3.748-.15C51.579.258 61.174.57 62.593 1.737c4.467 3.1 12.099 9.816 13.692 7.456 2.618 1.773 3.203 4.264 1.825 7.236-3.635-.19-7.082-1.067-10.12-3.448-9.268-9.035-11.792-8.956-13.793-8.171z"/><path d="M155.47 89.367c9.402-3.011 10.572-12.025 8.696-21.964-1.93 6.235-3.668 6.838-5.697 7.72.68 5.744.484 11.277-2.999 14.244z"/><path fill="none" stroke-linecap="square" d="M151.84 80.431c2.609-.548 4.507-3.017 5.566-8.216l1.007 3.392"/><path fill="none" stroke-linejoin="bevel" d="M164.99 77.148c2.233-1.722 3.863-3.926 5.097-6.447l1.009 6.593"/><path d="M170.46 73.175c3.116-1.759 5.01-5.088 6.747-8.62.278 7.384 1.669 15.056-3.973 20.913 2.312-.862 4.285-1.948 6.371-4.123-1.547 4.228-2.68 9.124-6.521 12.969 1.092-.255 1.699.299 3.898-1.8-2.787 12.482-11.631 14.392-19.415 17.841 3.5-3.499 7.069-6.873 9.37-11.169-1.605.178-3.139.32-4.348.3 4.226-2.994 6.318-7.153 8.396-11.319-1.895 1.193-4.08 1.953-6.372 2.549 4.784-4.491 5.598-10.881 5.847-17.541z"/><path fill="none" stroke-linejoin="bevel" d="M143.42 95.326c5.228.723 6.464-2.547 8.799-4.717l-.477 3.55"/><path d="M151.74 94c5.166.184 6.358-2.352 9.117-3.816-4.63 14.378-12.186 15.144-17.916 14.471 4.078-2.792 7.94-5.622 8.799-10.654z"/><path d="M36.588 88.609c-9.402-3.01-10.572-12.025-8.696-21.964 1.93 6.235 3.668 6.838 5.697 7.721-.68 5.743-.484 11.276 2.999 14.243z"/><path fill="none" stroke-linecap="square" d="M40.161 79.674c-2.609-.548-4.507-3.017-5.566-8.216l-1.007 3.393"/><path fill="none" stroke-linejoin="bevel" d="M27.068 76.39c-2.232-1.722-3.863-3.926-5.097-6.447l-1.009 6.593"/><path d="M21.596 72.417c-3.116-1.759-5.01-5.088-6.746-8.62-.279 7.384-1.67 15.056 3.972 20.913-2.312-.862-4.285-1.947-6.371-4.122 1.547 4.227 2.68 9.123 6.521 12.968-1.092-.255-1.699.299-3.898-1.8 2.787 12.482 11.631 14.392 19.415 17.841-3.5-3.499-7.069-6.873-9.37-11.169 1.605.178 3.139.32 4.348.3-4.226-2.994-6.318-7.152-8.396-11.318 1.895 1.192 4.079 1.952 6.372 2.548-4.784-4.49-5.598-10.88-5.847-17.54z"/><path fill="none" stroke-linejoin="bevel" d="M48.617 94.456c-5.228.722-6.464-2.548-8.799-4.718l.477 3.552"/><path d="M40.32 93.243c-5.165.183-6.358-2.353-9.117-3.816 4.63 14.378 12.186 15.144 17.916 14.47-4.078-2.792-7.94-5.621-8.799-10.653z"/><path d="M40.404 44.315c1.662-3.902 4.503-4.66 6.822-5.772-3.74 5.092-1.136 7.182-2.024 9.145-1.767 3.901-6.238.007-4.798-3.373z"/><path d="M160.16 28.972c1.966-5.212 5.325-6.225 8.067-7.71-4.422 6.8-1.343 9.594-2.394 12.216-2.088 5.211-7.376.01-5.673-4.506z"/><path d="M32.26 30.44c-1.662-3.902-5.563-6.992-7.882-8.104 3.74 5.091 2.832 9.09 3.72 11.053 1.767 3.9 5.602.43 4.162-2.95z"/><path d="M30.776 34.151c-1.662-3.902-6.2-4.872-8.518-5.984 3.74 5.092 2.832 7.394 3.72 9.357 1.766 3.901 6.238.007 4.798-3.373z"/><path d="M148.61 47.091c.296 2.738 5.128 2.976 5.937-.053-.22-6.659-5.087-8.646-10.018-10.177 2.677 3.428 4.081 5.004 4.081 10.23z"/></g></svg>
