<svg xmlns="http://www.w3.org/2000/svg" viewBox="0 0 24 24">
  <defs>
    <clipPath id="ge13ma">
      <path d="M20389 250c11122 0 20139 9016 20139 20139 0 11122-9016 20139-20139 20139-11122 0-20139-9016-20139-20139 0-11122 9016-20139 20139-20139z"/>
    </clipPath>
    <clipPath id="ge13mb">
      <path d="M20389 2926c9644 0 17463 7818 17463 17463 0 9644-7818 17463-17463 17463-9644 0-17463-7818-17463-17463 0-9644 7818-17463 17463-17463z"/>
    </clipPath>
  </defs>
  <g transform="scale(0.0005886)" fill="currentColor" fill-rule="evenodd">
    <path d="M20389 250c11122 0 20139 9016 20139 20139 0 11122-9016 20139-20139 20139-11122 0-20139-9016-20139-20139 0-11122 9016-20139 20139-20139zm0 2676c-9644 0-17463 7819-17463 17463 0 9644 7819 17463 17463 17463 9644 0 17463-7819 17463-17463 0-9644-7819-17463-17463-17463z"/>
    <g clip-path="url(#ge13mb)">
      <path d="M20389 2926l5561-2998 5516 3639 3170 2839-3444 3384c-3574-1733-6326-3641-10803-6865z"/>
      <path d="M14072 26613c-3251-1220-6851-2099-10598-1867-9562 7212-2532 6371 3617 6981 517 78 1018 160 1518 255l5463-5368z"/>
      <path d="M8311 7776c3451 862 7260 2084 17742 7064l-5652 5554-12-6c-4852-2390-10504-3712-17034-3864-4437-3762-7419-12158-667-11444 993-1253 4631 3949 5624 2696z"/>
      <path d="M26053 14840l2 1c172 82 345 164 521 248 6098 2727 8247 3971 11194 3599 5448 2200 1750 4023-429 5909-5954 139-11542-1547-16937-4202l-3-2 5652-5554z"/>
    </g>
  </g>
</svg>
