<svg xmlns="http://www.w3.org/2000/svg" viewBox="0 0 24 24">
  <defs>
    <linearGradient id="atlassian-a" x1="8.4" y1="12.7" x2="3.7" y2="20.8" gradientUnits="userSpaceOnUse">
      <stop offset="0" stop-color="#0052CC"/>
      <stop offset="0.92" stop-color="#2684FF"/>
    </linearGradient>
  </defs>
  <path fill="url(#atlassian-a)" d="M7.12 11.084a.683.683 0 00-1.16.126L.075 22.974a.703.703 0 00.63 1.018h8.19a.678.678 0 00.63-.39c1.767-3.65.696-9.203-2.406-12.52z"/>
  <path fill="#2684FF" d="M11.434.386a15.515 15.515 0 00-.906 15.317l3.95 7.9a.703.703 0 00.628.388h8.19a.703.703 0 00.63-1.017L12.63.38a.664.664 0 00-1.196.006z"/>
</svg>
