<svg xmlns="http://www.w3.org/2000/svg" viewBox="0 0 24 24">
  <path fill="#0F8F82" d="M12 1.5a9.5 9.5 0 0 0-8.27 14.18L8.7 22.34a.85.85 0 0 0 1.47-.05l1.79-3.31q.02 0 .04 0a9.5 9.5 0 0 0 0-17.48z"/>
  <path fill="#FFFFFF" d="M14.93 8.5h-9a1.05 1.05 0 0 0-1.05 1.05v4.9a1.05 1.05 0 0 0 1.05 1.05h9a1.05 1.05 0 0 0 1.05-1.05v-4.9a1.05 1.05 0 0 0-1.05-1.05z"/>
  <path fill="#FFFFFF" d="M19.12 7.27L16 9.7v4.6l3.12 2.43a.5.5 0 0 0 .8-.39V7.66a.5.5 0 0 0-.8-.39z"/>
  <path fill="#E8EAED" d="M4.88 11.55h11.1v1.32H4.88z"/>
</svg>
