<svg xmlns="http://www.w3.org/2000/svg" viewBox="0 0 24 24">
  <path fill="#00897B" d="M21.5006 10.5c0-5.2457-4.2566-9.5006-9.5006-9.5006S2.4994 5.2543 2.4994 10.5c0 4.9697 4.5326 9 9.5006 9v3.5006c5.7703-2.928 9.5006-7.6389 9.5006-12.5006z"/>
  <path fill="#F5F5F5" d="M15.3754 9.5623v-1.5617c0-0.3206-0.1217-0.6394-0.3669-0.8846-0.2434-0.2434-0.564-0.3669-0.8846-0.3669H7.8754c-0.3206 0-0.6394 0.1217-0.8846 0.3669-0.2434 0.2434-0.3669 0.564-0.3669 0.8846v5.0006c0 0.3206 0.1217 0.6394 0.3669 0.8846s0.564 0.3669 0.8846 0.3669H14.1257c0.3206 0 0.6394-0.1217 0.8846-0.3669 0.2434-0.2434 0.3669-0.564 0.3669-0.8846v-1.5617l2.4994 2.4994V7.0629L15.3754 9.5623z"/>
  <path fill="#E0E0E0" d="M6.6257 8.0006v2.4994h11.2491V7.0629L15.3754 9.5623v-1.5617c0-0.3206-0.1217-0.6394-0.3669-0.8846-0.2434-0.2434-0.564-0.3669-0.8846-0.3669H7.8754c-0.3206 0-0.6394 0.1217-0.8846 0.3669-0.2434 0.2434-0.3651 0.564-0.3651 0.8846z"/>
</svg>
