<svg xmlns="http://www.w3.org/2000/svg" viewBox="0 0 24 24">
  <g transform="translate(1.1175 0) scale(0.0585)">
    <g transform="matrix(20.11494255065918, 0, 0, 20.11494255065918, -303.8345489501953, -287.5939904836782)">
      <path fill="#5FB364" fill-rule="evenodd" d="M33.61 16.59a2.26 2.26 0 0 0-4.52 0s0 0 0 0.07l-9.85 3.18a2.26 2.26 0 1 0-1.87 3.53 2.23 2.23 0 0 0 0.69-0.12l6.47 8.17a2.26 2.26 0 1 0 3.55-0.83l3.44-11.75A2.25 2.25 0 0 0 33.61 16.59ZM26.62 30a2.24 2.24 0 0 0-1 0.25l-6.32-8a2.24 2.24 0 0 0 0.32-0.94L29.68 18.1a2.26 2.26 0 0 0 0.35L26.63 30Z"/>
    </g>
  </g>
</svg>
