<svg xmlns="http://www.w3.org/2000/svg" viewBox="0 0 24 24">
  <defs>
    <linearGradient id="dz19-e" x1="90.71" x2="90.5" y1="62.45" y2="49.29" gradientTransform="matrix(2.4611 0 0 2.4611 0 -77.943)" gradientUnits="userSpaceOnUse">
      <stop stop-color="#358C7B" offset="0"/>
      <stop stop-color="#33A65E" offset=".5256"/>
    </linearGradient>
    <linearGradient id="dz19-a" x1="79.29" x2="101.91" y1="79.49" y2="67.97" gradientTransform="matrix(2.4611 0 0 2.4611 0 -77.943)" gradientUnits="userSpaceOnUse">
      <stop stop-color="#222B90" offset="0"/>
      <stop stop-color="#367B99" offset="1"/>
    </linearGradient>
    <linearGradient id="dz19-b" x2="21.95" y1="91.55" y2="91.55" gradientTransform="matrix(2.4611 0 0 2.4611 0 -77.943)" gradientUnits="userSpaceOnUse">
      <stop stop-color="#FF9900" offset="0"/>
      <stop stop-color="#FF8000" offset="1"/>
    </linearGradient>
    <linearGradient id="dz19-h" x1="26.55" x2="48.49" y1="91.55" y2="91.55" gradientTransform="matrix(2.4611 0 0 2.4611 0 -77.943)" gradientUnits="userSpaceOnUse">
      <stop stop-color="#FF8000" offset="0"/>
      <stop stop-color="#CC1953" offset="1"/>
    </linearGradient>
    <linearGradient id="dz19-g" x1="53.09" x2="75.03" y1="91.55" y2="91.55" gradientTransform="matrix(2.4611 0 0 2.4611 0 -77.943)" gradientUnits="userSpaceOnUse">
      <stop stop-color="#CC1953" offset="0"/>
      <stop stop-color="#241284" offset="1"/>
    </linearGradient>
    <linearGradient id="dz19-i" x1="79.6" x2="101.55" y1="91.55" y2="91.55" gradientTransform="matrix(2.4611 0 0 2.4611 0 -77.943)" gradientUnits="userSpaceOnUse">
      <stop stop-color="#222B90" offset="0"/>
      <stop stop-color="#3559A6" offset="1"/>
    </linearGradient>
    <linearGradient id="dz19-c" x1="52.22" x2="75.9" y1="77.19" y2="70.27" gradientTransform="matrix(2.4611 0 0 2.4611 0 -77.943)" gradientUnits="userSpaceOnUse">
      <stop stop-color="#CC1953" offset="0"/>
      <stop stop-color="#241284" offset="1"/>
    </linearGradient>
    <linearGradient id="dz19-f" x1="25.76" x2="49.27" y1="69.45" y2="78.01" gradientTransform="matrix(2.4611 0 0 2.4611 0 -77.943)" gradientUnits="userSpaceOnUse">
      <stop stop-color="#FFCC00" offset=".0026698"/>
      <stop stop-color="#CE1938" offset=".9999"/>
    </linearGradient>
    <linearGradient id="dz19-d" x1="28.39" x2="46.65" y1="47.49" y2="64.33" gradientTransform="matrix(2.4611 0 0 2.4611 0 -77.943)" gradientUnits="userSpaceOnUse">
      <stop stop-color="#FFD100" offset=".0026698"/>
      <stop stop-color="#FD5A22" offset="1"/>
    </linearGradient>
  </defs>
  <g transform="translate(0 4.168) scale(0.096)">
    <path d="m250 0v31.625h-54.046v-31.625h54.046z" fill="#40AB5D" stroke-width="2.4611"/>
    <path d="m250 43.832v31.625h-54.046v-31.625h54.046z" fill="url(#dz19-e)" stroke-width="2.4611"/>
    <path d="m250 87.69v31.625h-54.046v-31.625h54.046z" fill="url(#dz19-a)" stroke-width="2.4611"/>
    <path d="m54.046 131.55v31.625h-54.046v-31.625h54.046z" fill="url(#dz19-b)" stroke-width="2.4611"/>
    <path d="m119.34 131.55v31.625h-54.071v-31.625h54.071z" fill="url(#dz19-h)" stroke-width="2.4611"/>
    <path d="m184.73 131.55v31.625h-54.071v-31.625h54.071z" fill="url(#dz19-g)" stroke-width="2.4611"/>
    <path d="m250 131.55v31.625h-54.046v-31.625h54.046z" fill="url(#dz19-i)" stroke-width="2.4611"/>
    <path d="m184.73 87.69v31.625h-54.071v-31.625h54.071z" fill="url(#dz19-c)" stroke-width="2.4611"/>
    <path d="m119.34 87.69v31.625h-54.071v-31.625h54.071z" fill="url(#dz19-f)" stroke-width="2.4611"/>
    <path d="m119.34 43.832v31.625h-54.071v-31.625h54.071z" fill="url(#dz19-d)" stroke-width="2.4611"/>
  </g>
</svg>
