<svg xmlns="http://www.w3.org/2000/svg" viewBox="0 0 24 24">
  <g transform="translate(0 9.7056) scale(0.024)">
    <g transform="translate(0,86.843818)">
      <path d="M234.1,40.1c0,40.1,24.7,64.1,61.4,64.1c18.3,0,33.7-5.1,42.3-18.5v18.5h33.5V-86.8h-34.8v81.2c-7.9-13.4-22.5-19.4-40.8-19.4C259.9-25.1,234.1-0.6,234.1,40.1L234.1,40.1z M337.6,40.1c0,22.9-15.6,37.2-34.3,37.2c-19.4,0-34.3-14.3-34.3-37.2c0-23.3,15-37.9,34.3-37.9C322,2.2,337.6,17,337.6,40.1z" fill="currentColor" fill-rule="evenodd" clip-rule="evenodd"/>
      <path d="M479.6,54.9c-4,14.8-14.1,22.2-30,22.2c-18.5,0-33.7-11.2-34.1-31h87.7c1.1-4.9,1.6-10.1,1.6-15.8c0-35.5-24.2-55.5-59.9-55.5c-38.1,0-64.3,27.1-64.3,63.9c0,41,28.9,65.6,68.9,65.6c30.2,0,50.7-12.6,59.7-37.7L479.6,54.9z M415.5,22.9C418.8,8.6,430.7,0.2,445,0.2c15.6,0,26.2,8.4,26.2,21.6l-0.2,1.1H415.5z" fill="currentColor" fill-rule="evenodd" clip-rule="evenodd"/>
      <path d="M608.7,54.9c-4,14.8-14.1,22.2-30,22.2c-18.5,0-33.7-11.2-34.1-31h87.7c1.1-4.9,1.6-10.1,1.6-15.8c0-35.5-24.2-55.5-59.9-55.5c-38.1,0-64.3,27.1-64.3,63.9c0,41,28.9,65.6,68.9,65.6c30.2,0,50.7-12.6,59.7-37.7L608.7,54.9z M544.6,22.9c3.3-14.3,15.2-22.7,29.5-22.7c15.6,0,26.2,8.4,26.2,21.6l-0.2,1.1H544.6z" fill="currentColor" fill-rule="evenodd" clip-rule="evenodd"/>
      <path d="M756.7,104.4V72.9h-73.1l71.1-69.2v-28.8H642.2v30h68.7L640,74.4v30H756.7z" fill="currentColor" fill-rule="evenodd" clip-rule="evenodd"/>
      <path d="M858.4,54.9c-4,14.8-14.1,22.2-30,22.2c-18.5,0-33.7-11.2-34.1-31H882c1.1-4.9,1.6-10.1,1.6-15.8c0-35.5-24.2-55.5-59.9-55.5c-38.1,0-64.3,27.1-64.3,63.9c0,41,28.9,65.6,68.9,65.6c30.2,0,50.7-12.6,59.7-37.7L858.4,54.9z M794.3,22.9c3.3-14.3,15.2-22.7,29.5-22.7c15.6,0,26.2,8.4,26.2,21.6l-0.2,1.1H794.3z" fill="currentColor" fill-rule="evenodd" clip-rule="evenodd"/>
      <rect x="155.5" y="-25.1" fill="currentColor" fill-rule="evenodd" clip-rule="evenodd" width="42.9" height="25.1"/>
      <rect x="155.5" y="9.7" fill="currentColor" fill-rule="evenodd" clip-rule="evenodd" width="42.9" height="25.1"/>
      <rect x="155.5" y="44.5" fill="currentColor" fill-rule="evenodd" clip-rule="evenodd" width="42.9" height="25.1"/>
      <rect x="0" y="79.3" fill="currentColor" fill-rule="evenodd" clip-rule="evenodd" width="42.9" height="25.1"/>
      <rect x="51.8" y="79.3" fill="currentColor" fill-rule="evenodd" clip-rule="evenodd" width="42.9" height="25.1"/>
      <rect x="103.7" y="79.3" fill="currentColor" fill-rule="evenodd" clip-rule="evenodd" width="42.9" height="25.1"/>
      <rect x="155.5" y="79.3" fill="currentColor" fill-rule="evenodd" clip-rule="evenodd" width="42.9" height="25.1"/>
      <rect x="103.7" y="44.5" fill="currentColor" fill-rule="evenodd" clip-rule="evenodd" width="42.9" height="25.1"/>
      <rect x="51.8" y="44.5" fill="currentColor" fill-rule="evenodd" clip-rule="evenodd" width="42.9" height="25.1"/>
      <rect x="51.8" y="9.7" fill="currentColor" fill-rule="evenodd" clip-rule="evenodd" width="42.9" height="25.1"/>
      <path d="M966.1,19.6c0,1.3,0,3.7,0,3.7h33.9c0,0,0-6.4,0-9.9c0-22.2-13.9-38.3-37.2-38.3c-15,0-25.6,7.3-31.1,19.4v-19.4h-35v129.3h35V21.1c0-13.2,7.1-20.5,18-20.5C959.7,0.7,966.1,10.1,966.1,19.6z" fill="currentColor" fill-rule="evenodd" clip-rule="evenodd"/>
    </g>
  </g>
</svg>
