<svg xmlns="http://www.w3.org/2000/svg" viewBox="0 0 24 24">
  <g transform="translate(0 4.168) scale(0.096)">
    <path d="m250 0v31.625h-54.046v-31.625h54.046z" fill="currentColor"/>
    <path d="m250 43.832v31.625h-54.046v-31.625h54.046z" fill="currentColor"/>
    <path d="m250 87.69v31.625h-54.046v-31.625h54.046z" fill="currentColor"/>
    <path d="m54.046 131.55v31.625h-54.046v-31.625h54.046z" fill="currentColor"/>
    <path d="m119.34 131.55v31.625h-54.071v-31.625h54.071z" fill="currentColor"/>
    <path d="m184.73 131.55v31.625h-54.071v-31.625h54.071z" fill="currentColor"/>
    <path d="m250 131.55v31.625h-54.046v-31.625h54.046z" fill="currentColor"/>
    <path d="m184.73 87.69v31.625h-54.071v-31.625h54.071z" fill="currentColor"/>
    <path d="m119.34 87.69v31.625h-54.071v-31.625h54.071z" fill="currentColor"/>
    <path d="m119.34 43.832v31.625h-54.071v-31.625h54.071z" fill="currentColor"/>
  </g>
</svg>
