<svg xmlns="http://www.w3.org/2000/svg" viewBox="0 0 24 24">
  <g transform="translate(0,8.81) scale(0.07246)">
    <g transform="matrix(1.25,0,0,-1.25,-379.65304,470.97768)">
      <g transform="matrix(0.41144603,0,0,0.41144603,179.02789,270.89279)">
        <path fill="#CFD9DF" d="m 397.324,248.525 c -13.083,-1.768 -25.941,-7.207 -36.213,-15.317 l 0,0 c -11.421,-9.02 -18.782,-20.565 -21.282,-33.386 l 0,0 c -0.757,-3.87 -1.077,-8.101 -1.415,-12.582 l 0,0 c -1.318,-17.467 -3.149,-28.073 -17.423,-28.073 l 0,0 c -1.661,0 -3.185,-0.941 -3.926,-2.431 l 0,0 c -0.743,-1.49 -0.579,-3.272 0.423,-4.601 l 0,0 c 19.292,-25.597 52.399,-28.556 75.622,-28.556 l 0,0 c 0.591,0 1.177,0.001 1.758,0.004 l 0,0 c 0.425,0.003 0.867,0.004 1.322,0.004 l 0,0 c 0.664,0 1.354,-0.002 2.068,-0.005 l 0,0 c 0.771,-0.002 1.568,-0.003 2.387,-0.003 l 0,0 c 10.849,0 22.298,0.525 32.511,4.332 l 0,0 c 18.135,6.763 33.417,21.969 38.932,38.736 l 0,0 c 6.222,18.923 3.332,38.073 -8.139,53.925 l 0,0 c -12.764,17.633 -34.676,28.586 -57.186,28.586 l 0,0 c -3.15,0 -6.324,-0.213 -9.439,-0.633"/>
        <g transform="translate(445.53909,103.85249)">
          <path fill="#2B5860" d="m 0,0 c 0,-2.102 -8.416,-3.806 -18.798,-3.806 -10.383,0 -18.801,1.704 -18.801,3.806 0,2.102 8.418,3.807 18.801,3.807 C -8.416,3.807 0,2.102 0,0"/>
        </g>
        <g transform="translate(382.7505,103.85249)">
          <path fill="#2B5860" d="m 0,0 c 0,-2.102 -8.417,-3.806 -18.799,-3.806 -10.384,0 -18.799,1.704 -18.799,3.806 0,2.102 8.415,3.807 18.799,3.807 C -8.417,3.807 0,2.102 0,0"/>
        </g>
        <g transform="translate(406.7632,253.5488)">
          <path fill="#3D3D3D" d="m 0,0 c -3.345,0 -6.719,-0.228 -10.026,-0.674 -13.85,-1.87 -27.468,-7.632 -38.347,-16.221 -12.257,-9.68 -20.166,-22.126 -22.872,-35.992 -0.804,-4.122 -1.148,-8.682 -1.482,-13.091 -0.521,-6.902 -1.059,-14.039 -3.253,-18.704 -1.501,-3.187 -3.739,-5.309 -9.791,-5.309 -3.327,0 -6.371,-1.884 -7.856,-4.863 -1.486,-2.98 -1.159,-6.544 0.846,-9.203 20.474,-27.163 54.965,-30.304 79.128,-30.304 0.601,0 1.195,0.002 1.782,0.006 0.421,0.002 0.854,0.002 1.299,0.002 0.66,0 1.346,-0.002 2.054,-0.003 0.774,-0.003 1.576,-0.005 2.4,-0.005 11.262,0 23.179,0.559 34.044,4.609 9.051,3.376 17.67,8.841 24.922,15.803 7.844,7.527 13.598,16.404 16.647,25.675 3.433,10.435 4.295,20.925 2.56,31.175 -1.621,9.583 -5.428,18.565 -11.314,26.698 -6.647,9.182 -15.742,16.852 -26.299,22.175 C 23.772,-2.844 11.863,0 0,0 m 0,-8.782 c 39.565,0 74.78,-35.321 61.155,-76.749 -5.488,-16.687 -20.776,-30.204 -36.299,-35.994 -10.122,-3.775 -21.949,-4.055 -30.974,-4.055 -1.577,0 -3.072,0.009 -4.454,0.009 -0.462,0 -0.913,-0.001 -1.35,-0.004 -0.569,-0.004 -1.148,-0.005 -1.731,-0.005 -22.678,0 -53.994,2.767 -72.118,26.808 24.832,0 19.933,27.75 23.144,44.204 4.894,25.078 29.703,41.941 53.775,45.193 2.961,0.4 5.922,0.593 8.852,0.593"/>
        </g>
        <g transform="translate(381.5952,121.6973)">
          <path fill="#3D3D3D" d="m 0,0 c 0.833,-9.698 -6.353,-18.233 -16.049,-19.066 -9.699,-0.833 -18.234,6.35 -19.066,16.048 -0.835,9.697 6.352,18.233 16.049,19.066 C -9.372,16.883 -0.835,9.697 0,0"/>
        </g>
        <g transform="translate(442.02541,121.6973)">
          <path fill="#3D3D3D" d="m 0,0 c 0.834,-9.698 -6.352,-18.233 -16.047,-19.066 -9.698,-0.833 -18.234,6.35 -19.067,16.048 -0.835,9.697 6.35,18.233 16.049,19.066 C -9.369,16.883 -0.836,9.697 0,0"/>
        </g>
        <g transform="translate(391.9561,201.02831)">
          <path fill="#3D3D3D" d="m 0,0 c 0,-4.658 -3.774,-8.433 -8.43,-8.433 -4.656,0 -8.432,3.775 -8.432,8.433 0,4.656 3.776,8.431 8.432,8.431 C -3.774,8.431 0,4.656 0,0"/>
        </g>
        <g transform="translate(432.22659,202.3452)">
          <path fill="#3D3D3D" d="m 0,0 c 0,-4.658 -3.773,-8.433 -8.431,-8.433 -4.656,0 -8.432,3.775 -8.432,8.433 0,4.656 3.776,8.431 8.432,8.431 C -3.773,8.431 0,4.656 0,0"/>
        </g>
        <g transform="translate(403.78371,155.8149)">
          <path fill="#3D3D3D" d="m 0,0 c -7.187,0 -14.16,2.336 -19.726,6.625 -5.656,4.359 -9.305,10.375 -10.008,16.508 -0.276,2.41 1.454,4.588 3.861,4.864 2.403,0.274 4.586,-1.452 4.861,-3.861 1.073,-9.353 12.251,-15.598 21.654,-15.346 11.982,0.314 19.9,7.48 21.527,14.396 0.556,2.359 2.92,3.821 5.28,3.268 2.359,-0.556 3.822,-2.919 3.267,-5.279 C 29.39,15.53 25.753,10.299 20.476,6.444 14.985,2.429 8.203,0.204 0.873,0.01 0.581,0.004 0.292,0 0,0"/>
        </g>
        <g transform="translate(369.1758,120.37939)">
          <path fill="#515252" d="m 0,0 c 0,-3.151 -2.211,-5.706 -4.937,-5.706 -2.725,0 -4.936,2.555 -4.936,5.706 0,3.151 2.211,5.707 4.936,5.707 C -2.211,5.707 0,3.151 0,0"/>
        </g>
        <g transform="translate(429.60741,120.37939)">
          <path fill="#515252" d="m 0,0 c 0,-3.151 -2.211,-5.706 -4.937,-5.706 -2.728,0 -4.936,2.555 -4.936,5.706 0,3.151 2.208,5.707 4.936,5.707 C -2.211,5.707 0,3.151 0,0"/>
        </g>
        <g transform="translate(519.59959,148.91409)">
          <path fill="#373737" d="m 0,0 -23.148,66.791 c -0.534,1.591 -1.239,4.241 -1.239,6.538 0,6.183 4.95,12.192 12.897,12.192 6.717,0 11.135,-4.239 13.078,-10.423 L 16.078,27.035 30.922,74.921 C 32.863,81.282 37.813,85.7 44.701,85.7 l 1.59,0 c 6.893,0 11.842,-4.418 13.787,-10.779 L 75.094,26.857 89.938,75.271 c 1.765,5.655 5.83,10.25 12.898,10.25 7.424,0 12.545,-5.653 12.545,-12.37 0,-1.765 -0.529,-4.239 -0.883,-5.476 L 90.645,0 C 87.816,-8.306 82.338,-12.017 75.803,-12.017 l -0.885,0 c -6.537,0 -12.016,3.711 -14.49,11.486 L 45.408,47.177 30.213,-0.531 C 27.74,-8.306 22.262,-12.017 15.725,-12.017 l -0.883,0 C 8.303,-12.017 2.826,-8.306 0,0"/>
        </g>
        <g transform="translate(694.00391,172.061)">
          <path fill="#373737" d="m 0,0 0,4.771 c -4.596,2.121 -10.604,3.534 -17.139,3.534 -11.486,0 -18.554,-4.595 -18.554,-13.077 l 0,-0.353 c 0,-7.246 6.006,-11.487 14.664,-11.487 C -8.482,-16.612 0,-9.718 0,0 m -61.67,-6.184 0,0.352 c 0,20.675 15.727,30.217 38.168,30.217 9.543,0 16.432,-1.59 23.147,-3.888 l 0,1.59 c 0,11.132 -6.889,17.316 -20.319,17.316 -7.424,0 -13.43,-1.059 -18.555,-2.651 -1.589,-0.53 -2.65,-0.706 -3.888,-0.706 -6.184,0 -11.131,4.77 -11.131,10.956 0,4.77 3.002,8.834 7.246,10.424 8.481,3.182 17.67,4.949 30.213,4.949 14.666,0 25.268,-3.888 31.982,-10.603 7.069,-7.067 10.248,-17.492 10.248,-30.214 l 0,-43.117 c 0,-7.243 -5.83,-12.896 -13.074,-12.896 -7.773,0 -12.898,5.477 -12.898,11.13 l 0,0.178 c -6.539,-7.245 -15.551,-12.017 -28.623,-12.017 -17.848,0 -32.516,10.248 -32.516,28.98"/>
        </g>
        <g transform="translate(723.6895,149.44341)">
          <path fill="#373737" d="m 0,0 0,0.532 c 0,5.124 1.766,8.479 6.006,13.073 l 44,48.592 -37.461,0 c -6.01,0 -10.957,4.772 -10.957,10.779 0,6.01 4.947,10.955 10.957,10.955 l 58.842,0 c 7.595,0 13.074,-4.417 13.074,-10.779 l 0,-0.53 c 0,-5.123 -1.768,-8.48 -6.008,-13.074 l -44.176,-48.592 39.227,0 c 6.01,0 10.957,-4.949 10.957,-10.956 0,-6.008 -4.947,-10.777 -10.957,-10.777 l -60.43,0 C 5.477,-10.777 0,-6.36 0,0"/>
        </g>
        <g transform="translate(872.8203,193.4409)">
          <path fill="#373737" d="M 0,0 C -1.59,12.014 -8.658,20.144 -19.967,20.144 -31.098,20.144 -38.344,12.192 -40.463,0 L 0,0 Z m -17.316,-56.897 c -28.45,0 -49.477,19.967 -49.477,48.945 l 0,0.356 c 0,27.032 19.264,49.297 46.826,49.297 31.627,0 45.59,-25.973 45.59,-45.587 0,-7.776 -5.478,-12.9 -12.549,-12.9 l -53.185,0 c 2.65,-12.192 11.134,-18.552 23.148,-18.552 7.42,0 13.606,2.297 19.084,6.36 1.943,1.414 3.711,2.121 6.539,2.121 6.006,0 10.424,-4.595 10.424,-10.601 0,-3.536 -1.59,-6.187 -3.535,-7.952 -8.305,-7.069 -19.082,-11.487 -32.865,-11.487"/>
        </g>
        <g transform="translate(516.50591,111.002)">
          <path fill="#59899E" d="m 0,0 0,0.041 c 0,3.301 -2.408,6.001 -5.73,6.001 -3.323,0 -5.688,-2.658 -5.688,-5.959 l 0,-0.042 c 0,-3.301 2.408,-6 5.731,-6 C -2.365,-5.959 0,-3.301 0,0 m -13.121,0 0,0.041 c 0,4.007 3.012,7.515 7.434,7.515 4.421,0 7.39,-3.467 7.39,-7.473 l 0,-0.042 c 0,-4.007 -3.01,-7.516 -7.433,-7.516 -4.42,0 -7.391,3.468 -7.391,7.475"/>
        </g>
        <g transform="translate(521.6543,109.8589)">
          <path fill="#59899E" d="m 0,0 0,7.724 c 0,0.456 0.373,0.831 0.812,0.831 0.454,0 0.829,-0.375 0.829,-0.831 l 0,-7.62 c 0,-3.135 1.683,-4.898 4.445,-4.898 2.678,0 4.379,1.619 4.379,4.794 l 0,7.724 c 0,0.456 0.373,0.831 0.83,0.831 0.437,0 0.81,-0.375 0.81,-0.831 l 0,-7.599 c 0,-4.236 -2.429,-6.436 -6.06,-6.436 C 2.451,-6.311 0,-4.111 0,0"/>
        </g>
        <g transform="translate(541.6895,116.7944)">
          <path fill="#59899E" d="m 0,0 -4.213,0 c -0.416,0 -0.769,0.331 -0.769,0.747 0,0.415 0.353,0.767 0.769,0.767 l 10.09,0 C 6.291,1.514 6.645,1.162 6.645,0.747 6.645,0.331 6.291,0 5.877,0 l -4.217,0 0,-12.292 c 0,-0.457 -0.371,-0.83 -0.828,-0.83 -0.457,0 -0.832,0.373 -0.832,0.83 L 0,0 Z"/>
        </g>
        <g transform="translate(550.68159,105.5215)">
          <path fill="#59899E" d="m 0,0 c -0.187,0.123 -0.312,0.352 -0.312,0.621 0,0.459 0.351,0.811 0.789,0.811 0.209,0 0.394,-0.083 0.498,-0.187 1.373,-1.163 2.744,-1.722 4.587,-1.722 1.954,0 3.241,1.038 3.241,2.468 l 0,0.044 c 0,1.348 -0.729,2.116 -3.78,2.76 C 1.68,5.521 0.145,6.601 0.145,8.99 l 0,0.039 c 0,2.285 2.015,3.965 4.777,3.965 1.906,0 3.299,-0.476 4.627,-1.431 0.166,-0.125 0.353,-0.354 0.353,-0.663 0,-0.438 -0.353,-0.791 -0.789,-0.791 -0.185,0 -0.332,0.041 -0.478,0.145 -1.225,0.893 -2.406,1.267 -3.756,1.267 -1.893,0 -3.096,-1.038 -3.096,-2.345 l 0,-0.042 c 0,-1.37 0.75,-2.138 3.947,-2.823 3.237,-0.707 4.733,-1.89 4.733,-4.111 l 0,-0.042 c 0,-2.491 -2.076,-4.11 -4.963,-4.11 C 3.383,-1.952 1.619,-1.288 0,0"/>
        </g>
        <g transform="translate(564.6973,117.56149)">
          <path fill="#59899E" d="m 0,0 c 0,0.437 0.373,0.811 0.809,0.811 l 0.185,0 c 0.356,0 0.606,-0.187 0.77,-0.438 l 5.189,-7.804 5.192,7.804 c 0.166,0.271 0.435,0.438 0.765,0.438 l 0.188,0 c 0.437,0 0.81,-0.374 0.81,-0.811 l 0,-13.058 c 0,-0.458 -0.373,-0.831 -0.81,-0.831 -0.455,0 -0.832,0.395 -0.832,0.831 l 0,10.837 -4.649,-6.832 C 7.43,-9.32 7.223,-9.467 6.936,-9.467 c -0.293,0 -0.522,0.147 -0.711,0.414 l -4.625,6.811 0,-10.837 c 0,-0.456 -0.356,-0.81 -0.813,-0.81 -0.435,0 -0.787,0.354 -0.787,0.81 L 0,0 Z"/>
        </g>
        <g transform="translate(592.30859,109.11279)">
          <path fill="#59899E" d="M 0,0 -3.342,7.431 -6.686,0 0,0 Z m -10.277,-4.258 5.898,12.894 c 0.205,0.457 0.516,0.725 1.037,0.725 l 0.082,0 c 0.498,0 0.83,-0.268 1.018,-0.725 L 3.654,-4.235 c 0.063,-0.147 0.104,-0.291 0.104,-0.416 0,-0.437 -0.352,-0.789 -0.787,-0.789 -0.397,0 -0.666,0.27 -0.811,0.602 l -1.517,3.343 -7.973,0 -1.514,-3.384 c -0.144,-0.353 -0.414,-0.561 -0.787,-0.561 -0.418,0 -0.748,0.331 -0.748,0.748 0,0.125 0.02,0.27 0.102,0.434"/>
        </g>
        <g transform="translate(605.51559,110.89841)">
          <path fill="#59899E" d="m 0,0 c 2.18,0 3.736,1.12 3.736,2.988 l 0,0.043 c 0,1.785 -1.371,2.865 -3.716,2.865 l -4.485,0 L -4.465,0 0,0 Z m -6.105,6.579 c 0,0.457 0.373,0.831 0.81,0.831 l 5.44,0 C 1.928,7.41 3.361,6.872 4.275,5.958 4.98,5.253 5.396,4.234 5.396,3.093 l 0,-0.043 c 0,-2.387 -1.621,-3.779 -3.882,-4.213 l 3.611,-4.652 c 0.166,-0.186 0.271,-0.372 0.271,-0.601 0,-0.437 -0.416,-0.81 -0.83,-0.81 -0.334,0 -0.582,0.185 -0.769,0.435 l -4.09,5.317 -4.172,0 0,-4.922 c 0,-0.457 -0.375,-0.83 -0.83,-0.83 -0.437,0 -0.81,0.373 -0.81,0.83 l 0,12.975 z"/>
        </g>
        <g transform="translate(618.3242,116.7944)">
          <path fill="#59899E" d="m 0,0 -4.215,0 c -0.416,0 -0.767,0.331 -0.767,0.747 0,0.415 0.351,0.767 0.767,0.767 l 10.09,0 C 6.289,1.514 6.643,1.162 6.643,0.747 6.643,0.331 6.289,0 5.875,0 l -4.215,0 0,-12.292 c 0,-0.457 -0.375,-0.83 -0.828,-0.83 -0.457,0 -0.832,0.373 -0.832,0.83 L 0,0 Z"/>
        </g>
        <g transform="translate(628.291,117.58299)">
          <path fill="#59899E" d="m 0,0 c 0,0.456 0.373,0.829 0.809,0.829 0.457,0 0.83,-0.373 0.83,-0.829 l 0,-13.08 c 0,-0.457 -0.373,-0.831 -0.83,-0.831 C 0.373,-13.911 0,-13.537 0,-13.08 L 0,0 Z"/>
        </g>
        <g transform="translate(634.39259,117.56149)">
          <path fill="#59899E" d="m 0,0 c 0,0.437 0.375,0.811 0.812,0.811 l 0.229,0 c 0.375,0 0.6,-0.187 0.83,-0.479 l 8.82,-11.252 0,10.962 c 0,0.436 0.356,0.811 0.813,0.811 0.434,0 0.789,-0.375 0.789,-0.811 l 0,-13.121 c 0,-0.437 -0.313,-0.768 -0.746,-0.768 l -0.086,0 c -0.352,0 -0.602,0.207 -0.852,0.498 l -9.007,11.523 0,-11.253 c 0,-0.437 -0.354,-0.81 -0.813,-0.81 -0.434,0 -0.789,0.373 -0.789,0.81 L 0,0 Z"/>
        </g>
        <g transform="translate(650.3613,111.002)">
          <path fill="#59899E" d="M 0,0 0,0.041 C 0,4.026 2.928,7.556 7.287,7.556 9.488,7.556 10.92,6.976 12.246,6 12.434,5.854 12.58,5.624 12.58,5.336 12.58,4.88 12.207,4.505 11.77,4.505 11.584,4.505 11.42,4.588 11.252,4.713 10.215,5.502 9.051,6.042 7.225,6.042 4.008,6.042 1.701,3.321 1.701,0.083 l 0,-0.042 c 0,-3.468 2.223,-6.042 5.752,-6.042 1.66,0 3.195,0.644 4.192,1.454 l 0,3.611 -3.901,0 c -0.394,0 -0.726,0.332 -0.726,0.726 0,0.418 0.332,0.749 0.726,0.749 l 4.67,0 c 0.438,0 0.811,-0.375 0.811,-0.832 l 0,-4.422 c 0,-0.393 -0.188,-0.744 -0.563,-0.994 C 11.334,-6.685 9.547,-7.475 7.389,-7.475 2.82,-7.475 0,-4.152 0,0"/>
        </g>
        <g transform="translate(677.76759,116.7944)">
          <path fill="#59899E" d="m 0,0 -4.217,0 c -0.414,0 -0.765,0.331 -0.765,0.747 0,0.415 0.351,0.767 0.765,0.767 l 10.092,0 C 6.291,1.514 6.643,1.162 6.643,0.747 6.643,0.331 6.291,0 5.875,0 l -4.217,0 0,-12.292 c 0,-0.457 -0.373,-0.83 -0.83,-0.83 -0.455,0 -0.828,0.373 -0.828,0.83 L 0,0 Z"/>
        </g>
        <g transform="translate(693.69141,110.89841)">
          <path fill="#59899E" d="m 0,0 c 2.18,0 3.736,1.12 3.736,2.988 l 0,0.043 c 0,1.785 -1.369,2.865 -3.716,2.865 l -4.485,0 L -4.465,0 0,0 Z m -6.104,6.579 c 0,0.457 0.372,0.831 0.811,0.831 l 5.438,0 C 1.93,7.41 3.361,6.872 4.277,5.958 4.982,5.253 5.398,4.234 5.398,3.093 l 0,-0.043 c 0,-2.387 -1.621,-3.779 -3.882,-4.213 l 3.611,-4.652 c 0.168,-0.186 0.271,-0.372 0.271,-0.601 0,-0.437 -0.416,-0.81 -0.83,-0.81 -0.332,0 -0.584,0.185 -0.769,0.435 l -4.09,5.317 -4.174,0 0,-4.922 c 0,-0.457 -0.375,-0.83 -0.828,-0.83 -0.439,0 -0.811,0.373 -0.811,0.83 l 0,12.975 z"/>
        </g>
        <g transform="translate(712.1895,109.11279)">
          <path fill="#59899E" d="M 0,0 -3.344,7.431 -6.686,0 0,0 Z m -10.277,-4.258 5.896,12.894 c 0.207,0.457 0.52,0.725 1.037,0.725 l 0.084,0 c 0.498,0 0.832,-0.268 1.018,-0.725 L 3.654,-4.235 c 0.063,-0.147 0.102,-0.291 0.102,-0.416 0,-0.437 -0.35,-0.789 -0.785,-0.789 -0.397,0 -0.666,0.27 -0.809,0.602 l -1.519,3.343 -7.973,0 -1.516,-3.384 C -8.99,-5.232 -9.26,-5.44 -9.633,-5.44 c -0.414,0 -0.746,0.331 -0.746,0.748 0,0.125 0.018,0.27 0.102,0.434"/>
        </g>
        <g transform="translate(719.28909,117.47749)">
          <path fill="#59899E" d="m 0,0 c 0,0.458 0.377,0.833 0.812,0.833 l 8.991,0 c 0.416,0 0.746,-0.333 0.746,-0.749 0,-0.415 -0.33,-0.767 -0.746,-0.767 l -8.16,0 0,-5.192 7.222,0 c 0.42,0 0.752,-0.332 0.752,-0.746 0,-0.416 -0.332,-0.749 -0.752,-0.749 l -7.222,0 0,-5.604 c 0,-0.456 -0.372,-0.831 -0.831,-0.831 C 0.377,-13.805 0,-13.43 0,-12.974 L 0,0 Z"/>
        </g>
        <g transform="translate(733.11909,117.47749)">
          <path fill="#59899E" d="m 0,0 c 0,0.458 0.373,0.833 0.811,0.833 l 8.988,0 c 0.416,0 0.746,-0.333 0.746,-0.749 0,-0.415 -0.33,-0.767 -0.746,-0.767 l -8.16,0 0,-5.192 7.226,0 c 0.414,0 0.746,-0.332 0.746,-0.746 0,-0.416 -0.332,-0.749 -0.746,-0.749 l -7.226,0 0,-5.604 c 0,-0.456 -0.373,-0.831 -0.828,-0.831 C 0.373,-13.805 0,-13.43 0,-12.974 L 0,0 Z"/>
        </g>
        <g transform="translate(747.0937,117.58299)">
          <path fill="#59899E" d="M 0,0 C 0,0.456 0.373,0.829 0.807,0.829 1.266,0.829 1.639,0.456 1.639,0 l 0,-13.08 c 0,-0.457 -0.373,-0.831 -0.832,-0.831 C 0.373,-13.911 0,-13.537 0,-13.08 L 0,0 Z"/>
        </g>
        <g transform="translate(752.5527,111.002)">
          <path fill="#59899E" d="m 0,0 0,0.041 c 0,4.11 3.07,7.515 7.348,7.515 2.345,0 3.84,-0.769 5.193,-1.889 0.164,-0.144 0.33,-0.374 0.33,-0.665 0,-0.434 -0.394,-0.809 -0.83,-0.809 -0.23,0 -0.416,0.105 -0.541,0.186 C 10.379,5.376 9.113,6.042 7.328,6.042 4.107,6.042 1.701,3.425 1.701,0.083 l 0,-0.042 c 0,-3.364 2.43,-6 5.627,-6 1.807,0 3.072,0.623 4.318,1.764 0.124,0.126 0.311,0.229 0.52,0.229 0.412,0 0.787,-0.373 0.787,-0.788 0,-0.248 -0.123,-0.457 -0.267,-0.582 C 11.252,-6.644 9.674,-7.475 7.287,-7.475 3.094,-7.475 0,-4.174 0,0"/>
        </g>
        <g transform="translate(767.875,102.0742)">
          <path fill="#59899E" d="M 0,0 C 0.85,0.372 1.203,0.893 1.162,1.702 0.727,1.807 0.352,2.138 0.352,2.697 l 0,0.333 c 0,0.54 0.392,0.954 0.953,0.954 0.603,0 1.019,-0.455 1.019,-1.14 l 0,-0.394 c 0,-1.245 -0.269,-2.013 -0.748,-2.49 -0.435,-0.435 -1.078,-0.747 -1.41,-0.747 -0.271,0 -0.437,0.163 -0.437,0.413 0,0.166 0.103,0.312 0.271,0.374"/>
        </g>
        <g transform="translate(784.29691,116.7944)">
          <path fill="#59899E" d="m 0,0 -4.215,0 c -0.416,0 -0.767,0.331 -0.767,0.747 0,0.415 0.351,0.767 0.767,0.767 l 10.092,0 C 6.289,1.514 6.645,1.162 6.645,0.747 6.645,0.331 6.289,0 5.877,0 l -4.217,0 0,-12.292 c 0,-0.457 -0.373,-0.83 -0.828,-0.83 -0.457,0 -0.832,0.373 -0.832,0.83 L 0,0 Z"/>
        </g>
        <g transform="translate(805.59959,111.002)">
          <path fill="#59899E" d="m 0,0 0,0.041 c 0,3.301 -2.41,6.001 -5.73,6.001 -3.323,0 -5.688,-2.658 -5.688,-5.959 l 0,-0.042 c 0,-3.301 2.406,-6 5.727,-6 C -2.367,-5.959 0,-3.301 0,0 m -13.121,0 0,0.041 c 0,4.007 3.008,7.515 7.43,7.515 4.425,0 7.39,-3.467 7.39,-7.473 l 0,-0.042 c 0,-4.007 -3.01,-7.516 -7.429,-7.516 -4.422,0 -7.391,3.468 -7.391,7.475"/>
        </g>
        <g transform="translate(810.332,111.002)">
          <path fill="#59899E" d="m 0,0 0,0.041 c 0,3.985 2.93,7.515 7.287,7.515 2.205,0 3.635,-0.58 4.963,-1.556 0.186,-0.146 0.332,-0.376 0.332,-0.664 0,-0.456 -0.373,-0.831 -0.809,-0.831 -0.187,0 -0.353,0.083 -0.519,0.208 C 10.215,5.502 9.055,6.042 7.225,6.042 4.008,6.042 1.703,3.321 1.703,0.083 l 0,-0.042 c 0,-3.468 2.223,-6.042 5.75,-6.042 1.66,0 3.199,0.644 4.195,1.454 l 0,3.611 -3.904,0 c -0.392,0 -0.724,0.332 -0.724,0.726 0,0.418 0.332,0.749 0.724,0.749 l 4.674,0 c 0.436,0 0.809,-0.375 0.809,-0.832 l 0,-4.422 c 0,-0.393 -0.186,-0.744 -0.563,-0.994 C 11.336,-6.685 9.551,-7.475 7.395,-7.475 2.824,-7.475 0,-4.152 0,0"/>
        </g>
        <g transform="translate(827.46091,104.60741)">
          <path fill="#59899E" d="m 0,0 0,12.87 c 0,0.457 0.375,0.833 0.811,0.833 l 9.029,0 c 0.416,0 0.748,-0.333 0.748,-0.749 0,-0.415 -0.332,-0.747 -0.748,-0.747 l -8.197,0 0,-4.962 7.265,0 C 9.32,7.245 9.656,6.892 9.656,6.499 9.656,6.083 9.32,5.75 8.908,5.75 l -7.265,0 0,-5.086 8.3,0 c 0.416,0 0.75,-0.333 0.75,-0.747 0,-0.417 -0.334,-0.748 -0.75,-0.748 l -9.132,0 C 0.375,-0.831 0,-0.459 0,0"/>
        </g>
        <g transform="translate(845.42191,116.7944)">
          <path fill="#59899E" d="m 0,0 -4.217,0 c -0.414,0 -0.765,0.331 -0.765,0.747 0,0.415 0.351,0.767 0.765,0.767 l 10.09,0 c 0.418,0 0.77,-0.352 0.77,-0.767 C 6.643,0.331 6.291,0 5.873,0 l -4.215,0 0,-12.292 c 0,-0.457 -0.373,-0.83 -0.826,-0.83 -0.459,0 -0.832,0.373 -0.832,0.83 L 0,0 Z"/>
        </g>
        <g transform="translate(855.2422,117.58299)">
          <path fill="#59899E" d="m 0,0 c 0,0.456 0.373,0.829 0.809,0.829 0.455,0 0.83,-0.373 0.83,-0.829 l 0,-5.73 8.386,0 0,5.73 c 0,0.456 0.377,0.829 0.832,0.829 0.436,0 0.807,-0.373 0.807,-0.829 l 0,-13.08 c 0,-0.457 -0.371,-0.831 -0.807,-0.831 -0.455,0 -0.832,0.374 -0.832,0.831 l 0,5.813 -8.386,0 0,-5.813 c 0,-0.457 -0.375,-0.831 -0.83,-0.831 C 0.373,-13.911 0,-13.537 0,-13.08 L 0,0 Z"/>
        </g>
        <g transform="translate(871.22659,104.60741)">
          <path fill="#59899E" d="m 0,0 0,12.87 c 0,0.457 0.379,0.833 0.812,0.833 l 9.03,0 c 0.416,0 0.75,-0.333 0.75,-0.749 0,-0.415 -0.334,-0.747 -0.75,-0.747 l -8.197,0 0,-4.962 7.265,0 C 9.324,7.245 9.656,6.892 9.656,6.499 9.656,6.083 9.324,5.75 8.91,5.75 l -7.265,0 0,-5.086 8.302,0 c 0.416,0 0.748,-0.333 0.748,-0.747 0,-0.417 -0.332,-0.748 -0.748,-0.748 l -9.135,0 C 0.379,-0.831 0,-0.459 0,0"/>
        </g>
        <g transform="translate(891.4512,110.89841)">
          <path fill="#59899E" d="m 0,0 c 2.18,0 3.736,1.12 3.736,2.988 l 0,0.043 c 0,1.785 -1.369,2.865 -3.716,2.865 l -4.485,0 L -4.465,0 0,0 Z m -6.102,6.579 c 0,0.457 0.37,0.831 0.807,0.831 l 5.44,0 C 1.93,7.41 3.363,6.872 4.275,5.958 4.982,5.253 5.398,4.234 5.398,3.093 l 0,-0.043 c 0,-2.387 -1.619,-3.779 -3.882,-4.213 l 3.611,-4.652 c 0.166,-0.186 0.271,-0.372 0.271,-0.601 0,-0.437 -0.416,-0.81 -0.832,-0.81 -0.332,0 -0.58,0.185 -0.767,0.435 l -4.092,5.317 -4.172,0 0,-4.922 c 0,-0.457 -0.375,-0.83 -0.83,-0.83 -0.437,0 -0.807,0.373 -0.807,0.83 l 0,12.975 z"/>
        </g>
      </g>
    </g>
  </g>
</svg>
