<svg xmlns="http://www.w3.org/2000/svg" viewBox="0 0 24 24"><g transform="translate(0 0.6974) scale(0.0205)">
<path d="M0 0 C2.7341 0.64002 2.7341 0.64002 5.52344 1.29297 C54.57267 13.36064 101.99216 33.58893 145 60 C147.50594 61.52561 147.50594 61.52561 150.0625 63.08203 C165.72323 72.78101 180.51578 83.63363 195 95 C195.82242 95.63938 196.64484 96.27875 197.49219 96.9375 C218.39858 113.38843 238.75307 131.7095 256 152 C258.15795 154.37928 260.32372 156.75107 262.49609 159.11719 C277.11777 175.9515 290.21274 194.0956 302 213 C302.77473 214.23492 303.54945 215.46984 304.34766 216.74219 C363.2373 312.71841 380.32521 424.99165 356.3125 534.8125 C337.50025 613.18884 298.48095 683.49514 241 740 C238.1863 742.79945 235.39482 745.61776 232.61719 748.45312 C226.24783 754.91557 219.90985 761.16741 212.77734 766.78125 C209.59646 769.32238 206.55841 772.00034 203.5 774.6875 C175.0178 799.10521 142.29399 818.90064 109 836 C109.43313 837.485 109.86625 838.97 110.3125 840.5 C119.27211 873.62085 117.17792 906.76147 100 937 C99.4573 937.96938 98.91461 938.93875 98.35547 939.9375 C83.18335 965.3351 57.51679 984.54486 29.0625 992.4375 C-2.97357 1000.34151 -34.70106 996.14298 -63.41797 980.17578 C-90.92266 963.46901 -109.69241 937.7319 -118.07031 906.82031 C-119.8763 899.39906 -121 892.70457 -121 885 C-134.5893 885.0174 -134.5893 885.0174 -148.45312 885.03516 C-166.17258 885.04869 -166.17258 885.04869 -184.25 885.0625 C-201.86117 885.0799 -201.86117 885.0799 -219.82812 885.09766 C-269.58215 884.94179 -269.58215 884.94179 -289 883 C-288.97422 884.14984 -288.94844 885.29969 -288.92188 886.48438 C-289.39972 914.10409 -303.13718 941.35123 -322 961 C-322.66 961 -323.32 961 -324 961 C-324 961.66 -324 962.32 -324 963 C-327.4684 966.2336 -331.26706 969.07939 -335 972 C-335.82887 972.67805 -336.65773 973.35609 -337.51172 974.05469 C-361.19116 992.56703 -390.76293 997.37748 -420 996 C-443.35386 993.11762 -464.84525 983.94949 -483 969 C-483.92426 968.24074 -484.84852 967.48148 -485.80078 966.69922 C-509.6992 946.04584 -522.9154 916.75186 -525.875 885.625 C-526.47203 872.49023 -524.95287 859.09942 -521.58594 846.39844 C-520.88134 843.92578 -520.88134 843.92578 -521 841 C-523.31064 840.14342 -523.31064 840.14342 -525.66797 839.26953 C-581.38342 818.27192 -632.8618 789.91433 -678 751 C-678.70512 750.39672 -679.41023 749.79344 -680.13672 749.17188 C-693.43561 737.6852 -706.76101 725.66175 -718.11719 712.22266 C-719.68133 710.37619 -721.27808 708.5574 -722.88281 706.74609 C-740.30844 686.99293 -754.8247 669.566 -754.28125 642.37109 C-753.18528 625.33792 -745.02981 610.95848 -732.3125 599.75 C-717.52139 589.64518 -703.75798 587.16832 -686.125 586.125 C-668.74609 584.99099 -653.30702 581.85703 -640.8125 569 C-607.5397 528.52941 -611.05383 456.55077 -607.15625 408.625 C-597.33264 289.03328 -550.3329 187.61201 -458.70312 109.11328 C-332.60835 3.10322 -160.33411 -38.63593 0 0 Z " fill="#E5E5E5" transform="translate(791,90)"/>
<path d="M0 0 C2.7341 0.64002 2.7341 0.64002 5.52344 1.29297 C54.57267 13.36064 101.99216 33.58893 145 60 C147.50594 61.52561 147.50594 61.52561 150.0625 63.08203 C165.72323 72.78101 180.51578 83.63363 195 95 C195.82242 95.63938 196.64484 96.27875 197.49219 96.9375 C218.39858 113.38843 238.75307 131.7095 256 152 C258.15795 154.37928 260.32372 156.75107 262.49609 159.11719 C277.11777 175.9515 290.21274 194.0956 302 213 C302.77473 214.23492 303.54945 215.46984 304.34766 216.74219 C363.2373 312.71841 380.32521 424.99165 356.3125 534.8125 C337.50025 613.18884 298.48095 683.49514 241 740 C238.1863 742.79945 235.39482 745.61776 232.61719 748.45312 C226.24783 754.91557 219.90985 761.16741 212.77734 766.78125 C209.59646 769.32238 206.55841 772.00034 203.5 774.6875 C175.0178 799.10521 142.29399 818.90064 109 836 C109.43313 837.485 109.86625 838.97 110.3125 840.5 C119.27211 873.62085 117.17792 906.76147 100 937 C99.4573 937.96938 98.91461 938.93875 98.35547 939.9375 C83.18335 965.3351 57.51679 984.54486 29.0625 992.4375 C-2.97357 1000.34151 -34.70106 996.14298 -63.41797 980.17578 C-90.92266 963.46901 -109.69241 937.7319 -118.07031 906.82031 C-119.8763 899.39906 -121 892.70457 -121 885 C-134.5893 885.0174 -134.5893 885.0174 -148.45312 885.03516 C-166.17258 885.04869 -166.17258 885.04869 -184.25 885.0625 C-201.86117 885.0799 -201.86117 885.0799 -219.82812 885.09766 C-269.58215 884.94179 -269.58215 884.94179 -289 883 C-288.97422 884.14984 -288.94844 885.29969 -288.92188 886.48438 C-289.39972 914.10409 -303.13718 941.35123 -322 961 C-322.66 961 -323.32 961 -324 961 C-324 961.66 -324 962.32 -324 963 C-327.4684 966.2336 -331.26706 969.07939 -335 972 C-335.82887 972.67805 -336.65773 973.35609 -337.51172 974.05469 C-361.19116 992.56703 -390.76293 997.37748 -420 996 C-443.35386 993.11762 -464.84525 983.94949 -483 969 C-483.92426 968.24074 -484.84852 967.48148 -485.80078 966.69922 C-509.6992 946.04584 -522.9154 916.75186 -525.875 885.625 C-526.47203 872.49023 -524.95287 859.09942 -521.58594 846.39844 C-520.88134 843.92578 -520.88134 843.92578 -521 841 C-523.31064 840.14342 -523.31064 840.14342 -525.66797 839.26953 C-581.38342 818.27192 -632.8618 789.91433 -678 751 C-678.70512 750.39672 -679.41023 749.79344 -680.13672 749.17188 C-693.43561 737.6852 -706.76101 725.66175 -718.11719 712.22266 C-719.68133 710.37619 -721.27808 708.5574 -722.88281 706.74609 C-740.30844 686.99293 -754.8247 669.566 -754.28125 642.37109 C-753.18528 625.33792 -745.02981 610.95848 -732.3125 599.75 C-717.52139 589.64518 -703.75798 587.16832 -686.125 586.125 C-668.74609 584.99099 -653.30702 581.85703 -640.8125 569 C-607.5397 528.52941 -611.05383 456.55077 -607.15625 408.625 C-597.33264 289.03328 -550.3329 187.61201 -458.70312 109.11328 C-332.60835 3.10322 -160.33411 -38.63593 0 0 Z M-191.3125 49.94531 C-195.03287 50.63522 -198.76238 51.27788 -202.5 51.86719 C-242.47393 58.21137 -283.9078 71.37032 -320 90 C-322.56158 91.27268 -325.12415 92.54339 -327.6875 93.8125 C-362.12013 111.07786 -393.81524 131.83938 -423 157 C-423.70512 157.60328 -424.41023 158.20656 -425.13672 158.82812 C-438.15919 170.07605 -450.88296 181.84249 -462 195 C-462.79664 195.9191 -463.59328 196.8382 -464.41406 197.78516 C-509.17997 249.84004 -535.63171 310.19139 -545 378 C-545.26684 379.92844 -545.53367 381.85688 -545.80859 383.84375 C-548.08097 401.83436 -549.09611 419.89801 -550.25781 437.98828 C-554.70474 503.96657 -554.70474 503.96657 -561 526 C-561.26813 527.42313 -561.53625 528.84625 -561.8125 530.3125 C-567.10519 557.2645 -577.2256 584.76661 -595 606 C-595.53496 606.69609 -596.06992 607.39219 -596.62109 608.10938 C-616.15487 632.4657 -648.73797 642.27243 -678.42969 645.75391 C-683.61784 646.23132 -688.80138 646.65718 -694 647 C-655.68117 706.00422 -585.74676 754.61722 -520.16406 777.83594 C-517 779 -517 779 -512.8125 781.125 C-508.33977 783.3247 -503.83453 784.6555 -499.05859 786.04688 C-496 787 -496 787 -492 788.8125 C-488.56764 790.17114 -487.46397 790.06018 -484 789 C-481.84603 787.50466 -481.84603 787.50466 -479.75 785.5625 C-466.59787 774.75412 -452.26013 768.66798 -436 764 C-434.85789 763.63906 -433.71578 763.27813 -432.53906 762.90625 C-415.84692 758.36531 -395.56944 759.21627 -379 764 C-377.71738 764.34031 -376.43477 764.68062 -375.11328 765.03125 C-354.41397 770.93964 -337.2354 781.97387 -322 797 C-321.12344 797.86367 -320.24687 798.72734 -319.34375 799.61719 C-314.32956 804.83257 -311.29629 809.48826 -308.25 816.0625 C-305.30534 821.18839 -304.00534 822.7117 -298.24609 824.36328 C-292.45645 824.89627 -286.81528 824.99296 -281 825 C-274.4 825.33 -267.8 825.66 -261 826 C-238.0835 826.09706 -215.1667 826.12979 -192.25 826.125 C-173.72617 826.12887 -173.72617 826.12887 -154.82812 826.13281 C-130.69513 827.98048 -130.69513 827.98048 -104.78516 822.00781 C-104.21668 820.72648 -103.6482 819.44516 -103.0625 818.125 C-95.78571 803.57142 -84.43435 791.23612 -71 782 C-70.23945 781.46117 -69.47891 780.92234 -68.69531 780.36719 C-49.24831 767.18578 -26.99292 760.88308 -3.6875 760.8125 C-1.56699 760.79832 0.55352 760.78414 2.73828 760.76953 C8.71262 760.98942 14.15926 761.76871 20 763 C21.53527 763.31711 21.53527 763.31711 23.10156 763.64062 C40.43637 767.82674 58.11518 774.11518 71 787 C99.48193 785.66491 137.0818 751.1669 159 734 C159.88559 733.31035 160.77117 732.6207 161.68359 731.91016 C166.84394 727.84467 171.77257 723.58409 176.625 719.15625 C178.76387 717.21439 180.93419 715.32022 183.125 713.4375 C186.62823 710.39336 189.87709 707.1448 193.12891 703.83594 C195 702 195 702 198.0625 699.5 C200.93595 697.05451 203.32313 694.42194 205.76172 691.55078 C208.68768 688.21631 211.75617 685.02778 214.8125 681.8125 C221.02583 675.17837 226.57705 668.28173 232 661 C232.78504 660.01129 233.57008 659.02258 234.37891 658.00391 C258.03619 628.19497 278.65432 591.89864 288.85156 555.11328 C289.98945 551.03778 291.25895 547.02521 292.5625 543 C294.76759 536.0172 296.50511 528.98358 298.10547 521.83984 C298.95399 518.19749 299.97258 514.59599 301 511 C312.76519 445.81283 310.45253 378.42595 287 316 C286.41863 314.44539 285.83727 312.89078 285.23828 311.28906 C282.18724 303.28091 278.91387 295.61619 275 288 C274.41348 286.48922 273.82695 284.97844 273.22266 283.42188 C260.75599 253.01109 240.59686 224.6112 219 200 C218.08541 198.93652 218.08541 198.93652 217.15234 197.85156 C215.45352 195.88366 213.73198 193.93878 212 192 C210.89205 190.75283 210.89205 190.75283 209.76172 189.48047 C198.83643 177.36152 187.38416 165.63132 175 155 C173.55367 153.73156 173.55367 153.73156 172.07812 152.4375 C138.18209 123.22323 99.56873 100.58675 59 82 C58.04609 81.54238 57.09219 81.08477 56.10938 80.61328 C49.39668 77.42777 42.48996 74.96429 35.46875 72.54297 C32.52351 71.52604 29.58566 70.48743 26.65625 69.42578 C18.78852 66.57588 10.9539 64.0538 2.84375 61.99219 C-1.27555 60.92887 -5.35114 59.74578 -9.4375 58.5625 C-67.31116 42.47273 -132.44916 38.98841 -191.3125 49.94531 Z " fill="#3E3F3E" transform="translate(791,90)"/>
<path d="M0 0 C1.01063 0.5775 2.02125 1.155 3.0625 1.75 C4.0525 2.30687 5.0425 2.86375 6.0625 3.4375 C14.16097 9.68007 18.53017 16.81391 20.875 26.75 C25.17105 43.34836 33.08109 56.7457 44.0625 69.75 C44.72766 70.56211 45.39281 71.37422 46.07812 72.21094 C64.21302 93.50265 95.08088 111.61704 123.0625 114.75 C123.3925 115.08 123.7225 115.41 124.0625 115.75 C125.82333 116.13266 127.5974 116.45489 129.375 116.75 C130.34051 116.915 131.30602 117.08 132.30078 117.25 C161.13506 121.08259 194.05665 120.25478 221.125 108.375 C222.12016 107.94059 223.11531 107.50617 224.14062 107.05859 C225.10484 106.62676 226.06906 106.19492 227.0625 105.75 C227.94422 105.36973 228.82594 104.98945 229.73438 104.59766 C244.12254 98.27623 256.80194 90.6126 269.0625 80.75 C270.05121 79.9598 271.03992 79.16961 272.05859 78.35547 C285.01032 67.32112 294.26146 53.22068 301.0625 37.75 C301.68898 36.32881 301.68898 36.32881 302.32812 34.87891 C304.02499 30.82035 305.37685 26.72818 306.5625 22.5 C309.36783 13.61645 314.99567 7.68715 322.4375 2.3125 C330.47037 -0.40131 339.39231 -1.10933 347.39844 2.07812 C355.32478 6.89908 360.887 12.96961 364.0625 21.75 C365.11571 32.85962 364.43357 43.83418 359.0625 53.75 C358.54688 55.13188 358.03125 56.51375 357.5 57.9375 C347.22246 83.90595 328.96914 109.2485 307.0625 126.75 C306.14469 127.49379 305.22688 128.23758 304.28125 129.00391 C279.17625 148.85798 249.58537 163.63458 218.5 171.375 C216.25059 171.94477 214.00117 172.51453 211.68359 173.10156 C194.10587 176.90361 177.29625 178.18197 159.3125 178.1875 C155.13078 178.20684 150.94906 178.22617 146.64062 178.24609 C120.7438 177.2247 94.54987 172.02819 71.0625 160.75 C69.5427 160.05906 68.02289 159.36812 66.45703 158.65625 C56.90426 154.26002 47.79766 149.61016 39.0625 143.75 C37.38994 142.62852 37.38994 142.62852 35.68359 141.48438 C0.6966 117.24758 -24.43246 84.5436 -36.9375 43.75 C-37.48857 42.06391 -37.48857 42.06391 -38.05078 40.34375 C-40.07415 32.14333 -40.11113 23.09035 -37.3125 15.125 C-36.52875 14.01125 -35.745 12.8975 -34.9375 11.75 C-34.1125 10.55375 -33.2875 9.3575 -32.4375 8.125 C-23.22248 -0.76091 -12.34051 -3.91762 0 0 Z " fill="#3E3F3E" transform="translate(508.9375,551.25)"/>
<path d="M0 0 C13.68803 10.77824 21.10567 22.79785 24 40 C25.32614 57.34181 19.66651 72.4124 8.42578 85.52344 C-2.92846 97.11537 -18.2691 103.0467 -34.3125 103.25 C-40.77765 103.18649 -46.04686 102.49861 -52 100 C-52.96551 99.59781 -53.93102 99.19563 -54.92578 98.78125 C-68.74473 92.46 -78.86078 81.81838 -85 68 C-85.39574 67.22527 -85.79148 66.45055 -86.19922 65.65234 C-91.56993 53.76141 -90.76899 37.94274 -86.32812 25.85547 C-78.35688 8.71728 -66.05742 -1.70134 -48.6875 -8.75 C-32.01268 -13.40763 -14.10504 -9.61617 0 0 Z " fill="#3E3F3E" transform="translate(834,381)"/>
<path d="M0 0 C10.25721 8.52651 18.10833 20.78321 20.21094 34.03516 C21.75136 52.96452 18.39068 67.81554 6.18359 82.46875 C0.64758 88.4052 -5.53041 92.46138 -12.78906 96.03516 C-13.65531 96.47086 -14.52156 96.90656 -15.41406 97.35547 C-26.99776 102.17078 -42.71307 102.08001 -54.60156 98.41016 C-70.55953 91.80926 -81.93001 80.95795 -88.78906 65.03516 C-94.18047 51.92846 -93.32188 36.18703 -88.78906 23.03516 C-81.90306 7.0498 -69.5784 -3.25247 -53.78906 -9.96484 C-35.94791 -16.58334 -14.97391 -10.54885 0 0 Z " fill="#3E3F3E" transform="translate(573.7890625,382.96484375)"/>
<path d="M0 0 C9.21179 5.03927 15.2387 11.53781 18.96094 21.42578 C21.79975 33.54932 21.24869 46.26741 14.8125 57.0625 C14.36648 57.81789 13.92047 58.57328 13.46094 59.35156 C9.01171 65.98812 2.79192 69.57279 -4.1875 73.0625 C-13.92053 74.02366 -23.22326 74.30043 -31.1875 68.0625 C-39.22269 60.68639 -44.66047 51.50888 -45.55859 40.52344 C-45.75121 25.77127 -44.02775 15.98892 -33.66797 5.19531 C-23.73887 -3.34215 -11.91925 -5.5495 0 0 Z " fill="#505151" transform="translate(802.1875,930.9375)"/>
<path d="M0 0 C9.16131 5.87862 14.52735 14.26954 17.9375 24.5 C18.03444 27.24861 18.06729 29.99969 18.0625 32.75 C18.06637 34.9543 18.06637 34.9543 18.07031 37.20312 C17.72754 48.29271 13.99639 57.62427 5.9375 65.5 C-4.39444 72.44254 -11.95252 73.65857 -24.4375 71.875 C-33.48077 68.44479 -39.76114 61.66733 -44.375 53.3125 C-48.87684 43.14167 -48.96552 29.73988 -45.74609 19.18359 C-41.20811 9.7726 -35.56262 3.16044 -26.0625 -1.5 C-17.50781 -3.63867 -7.99431 -4.09709 0 0 Z " fill="#505151" transform="translate(400.0625,931.5)"/>
<path d="M0 0 C0.66 0.33 1.32 0.66 2 1 C1.14664 1.78117 0.29328 2.56234 -0.58594 3.36719 C-14.09363 15.87224 -27.03032 28.94135 -40 42 C-40.66 41.67 -41.32 41.34 -42 41 C-20.31758 17.69863 -20.31758 17.69863 -11.02734 9.73828 C-8.65926 7.70784 -6.32923 5.63737 -4 3.5625 C-3.23687 2.88316 -2.47375 2.20383 -1.6875 1.50391 C-1.13063 1.00762 -0.57375 0.51133 0 0 Z " fill="#D2D2D2" transform="translate(372,243)"/>
<path d="M0 0 C0.33 0.66 0.66 1.32 1 2 C-3.7885 7.58659 -8.75107 12.84316 -14 18 C-14.99 17.67 -15.98 17.34 -17 17 C-16.10797 16.19176 -15.21594 15.38352 -14.29688 14.55078 C-13.12641 13.48215 -11.95594 12.41352 -10.75 11.3125 C-9.58984 10.25676 -8.42969 9.20102 -7.23438 8.11328 C-4.54651 5.52605 -2.23181 2.97759 0 0 Z " fill="#CECECE" transform="translate(835,658)"/>
<path d="M0 0 C-1.82875 3.6575 -2.76898 4.93598 -5.75 7.4375 C-6.45641 8.03563 -7.16281 8.63375 -7.89062 9.25 C-8.58672 9.8275 -9.28281 10.405 -10 11 C-11.155 11.96938 -12.31 12.93875 -13.5 13.9375 C-14.325 14.61812 -15.15 15.29875 -16 16 C-13.83021 11.66041 -11.42781 9.16133 -8 5.75 C-6.9275 4.67234 -5.855 3.59469 -4.75 2.48438 C-2 0 -2 0 0 0 Z " fill="#ADAEAD" transform="translate(312,219)"/>
<path d="M0 0 C0.66 0 1.32 0 2 0 C0.21844 3.56311 -1.16763 5.35645 -4 8 C-4.66 7.67 -5.32 7.34 -6 7 C-4.04933 4.62527 -2.04679 2.2924 0 0 Z " fill="#565757" transform="translate(763,385)"/>
<path d="M0 0 C0.33 0.66 0.66 1.32 1 2 C-0.32 3.65 -1.64 5.3 -3 7 C-3.66 6.67 -4.32 6.34 -5 6 C-3.35 4.02 -1.7 2.04 0 0 Z " fill="#C5C5C5" transform="translate(835,658)"/>
<path d="M0 0 C0.33 0.66 0.66 1.32 1 2 C-0.32 3.32 -1.64 4.64 -3 6 C-3 5.01 -3 4.02 -3 3 C-2.01 2.01 -1.02 1.02 0 0 Z " fill="#838383" transform="translate(278,254)"/>
<path d="M0 0 C0.33 0.66 0.66 1.32 1 2 C0.01 3.485 0.01 3.485 -1 5 C-1.66 5 -2.32 5 -3 5 C-1 1 -1 1 0 0 Z " fill="#8B8C8B" transform="translate(289,241)"/>
<path d="M0 0 C0.66 0 1.32 0 2 0 C1.67 0.99 1.34 1.98 1 3 C0.01 3.33 -0.98 3.66 -2 4 C-1.34 2.68 -0.68 1.36 0 0 Z " fill="#8C8D8C" transform="translate(55,693)"/>
<path d="M0 0 C0.66 0 1.32 0 2 0 C1.34 1.32 0.68 2.64 0 4 C-0.33 3.01 -0.66 2.02 -1 1 C-0.67 0.67 -0.34 0.34 0 0 Z " fill="#7D7D7D" transform="translate(310,219)"/>
</g></svg>
