<svg xmlns="http://www.w3.org/2000/svg" viewBox="0 0 24 24"><g transform="translate(0 0.6974) scale(0.0205)">
<path d="M0 0 C2.88714 2.49064 5.83255 4.88917 8.80469 7.27734 C13.14062 10.80382 17.01689 14.54072 20.92969 18.52734 C22.15172 19.58824 23.37375 20.64914 24.63281 21.74219 C28.91363 25.5132 32.96261 29.42745 36.99219 33.46484 C38.32379 34.79387 39.65539 36.12289 41.02734 37.49219 C44.80336 41.39672 48.37973 45.41754 51.92969 49.52734 C53.34292 51.07216 54.75909 52.6143 56.17969 54.15234 C61.76725 60.34704 66.83351 66.92761 71.92969 73.52734 C72.76629 74.59082 73.60289 75.6543 74.46484 76.75 C120.39871 135.49585 149.44248 205.84798 159.92969 279.52734 C160.25066 281.77289 160.57164 284.01844 160.90234 286.33203 C174.19809 396.28477 142.01295 508.7726 74.30469 595.83984 C64.51922 608.13549 54.37576 620.23122 43.17969 631.27734 C40.8481 633.60893 38.7353 635.896 36.61719 638.40234 C33.2608 642.28712 29.5809 645.65412 25.73047 649.04297 C22.60061 651.81924 19.54853 654.67041 16.49219 657.52734 C10.81478 662.77414 4.96958 667.70673 -1.07031 672.52734 C-2.19953 673.4516 -3.32875 674.37586 -4.49219 675.32812 C-13.72626 682.83811 -23.26168 689.78852 -33.07031 696.52734 C-34.81828 697.73971 -34.81828 697.73971 -36.60156 698.97656 C-85.84635 732.52734 -85.84635 732.52734 -96.07031 732.52734 C-95.74418 733.38973 -95.41805 734.25211 -95.08203 735.14062 C-84.48376 764.74701 -85.84497 796.51011 -98.82031 825.15234 C-113.28038 854.7116 -137.52345 876.44994 -168.63281 887.33984 C-171.10403 888.09551 -173.58318 888.82584 -176.07031 889.52734 C-177.1325 889.84703 -178.19469 890.16672 -179.28906 890.49609 C-209.46018 898.10937 -242.14959 891.48119 -268.50781 875.77734 C-276.12483 870.78132 -282.61271 864.92243 -289.07031 858.52734 C-289.80637 857.85187 -290.54242 857.17641 -291.30078 856.48047 C-309.27619 839.68907 -319.88186 814.63518 -323.07031 790.52734 C-323.07031 787.55734 -323.07031 784.58734 -323.07031 781.52734 C-333.21008 781.53895 -343.34984 781.55055 -353.79688 781.5625 C-366.96336 781.57152 -380.12984 781.58055 -393.69531 781.58984 C-413.35996 781.60725 -413.35996 781.60725 -433.42188 781.625 C-486.23719 781.47172 -486.23719 781.47172 -492.07031 779.52734 C-492.21727 781.21537 -492.21727 781.21537 -492.36719 782.9375 C-495.41815 814.2625 -508.25367 843.19076 -532.15234 864.24219 C-560.07801 886.99761 -589.32157 894.44142 -625.07031 892.52734 C-636.26397 891.09068 -646.79467 888.17556 -657.07031 883.52734 C-658.35551 882.95113 -659.6407 882.37492 -660.96484 881.78125 C-670.28673 877.37309 -678.22075 872.19599 -686.07031 865.52734 C-687.10027 864.66109 -688.13023 863.79484 -689.19141 862.90234 C-711.18041 843.63045 -724.77412 815.75802 -727.82031 786.71484 C-727.92653 784.98693 -728.01011 783.25747 -728.07031 781.52734 C-728.11027 780.62371 -728.15023 779.72008 -728.19141 778.78906 C-728.51699 764.6356 -726.1236 751.04486 -722.07031 737.52734 C-723.72031 737.19734 -725.37031 736.86734 -727.07031 736.52734 C-777.87943 719.20699 -826.3261 692.19695 -868.07031 658.52734 C-869.04742 657.74488 -870.02453 656.96242 -871.03125 656.15625 C-877.23332 651.14421 -883.18916 645.91025 -889.07031 640.52734 C-890.4567 639.28018 -890.4567 639.28018 -891.87109 638.00781 C-901.73837 629.08152 -911.5902 619.92095 -920.19141 609.74609 C-921.74339 607.9134 -923.32667 606.10726 -924.91797 604.30859 C-956.39389 568.59337 -956.39389 568.59337 -956.32031 544.58984 C-956.32547 542.9102 -956.33063 541.23055 -956.33594 539.5 C-955.53016 524.41529 -948.63878 511.18244 -938.07031 500.52734 C-934.90326 497.86115 -931.63117 495.63299 -928.07031 493.52734 C-926.88309 492.81965 -926.88309 492.81965 -925.67188 492.09766 C-914.36649 485.91445 -902.81629 485.32175 -890.14844 484.82422 C-872.98889 483.82105 -856.44868 479.86742 -843.95312 467.41797 C-814.95095 433.78899 -815.34113 377.1993 -812.07031 336.52734 C-806.81874 272.94104 -801.07936 212.17268 -774.07031 153.52734 C-773.45027 152.12742 -772.83023 150.7275 -772.19141 149.28516 C-754.76895 110.80299 -729.44179 76.58516 -701.07031 45.52734 C-700.19117 44.54379 -699.31203 43.56023 -698.40625 42.54688 C-690.41336 33.70299 -681.85776 25.57566 -673.07031 17.52734 C-672.12801 16.65852 -671.1857 15.78969 -670.21484 14.89453 C-596.77436 -52.12429 -499.69072 -95.0941 -402.07031 -110.47266 C-399.30527 -110.91545 -399.30527 -110.91545 -396.48438 -111.36719 C-258.50472 -132.30132 -106.02021 -91.85721 0 0 Z M-633.51953 61.16016 C-635.62225 63.11153 -637.75646 64.98738 -639.94531 66.83984 C-648.97995 74.68123 -657.36117 83.38627 -665.07031 92.52734 C-666.35229 93.97561 -666.35229 93.97561 -667.66016 95.45312 C-719.63617 154.6689 -743.94985 225.53165 -750.57031 303.27734 C-750.99184 308.14742 -751.41336 313.0175 -751.84766 318.03516 C-752.61527 327.13373 -753.3789 336.23264 -754.13672 345.33203 C-763.86171 460.73526 -763.86171 460.73526 -798.07031 503.52734 C-798.60914 504.23246 -799.14797 504.93758 -799.70312 505.66406 C-817.73783 528.00354 -847.06366 538.20513 -874.51172 542.15625 C-882.00864 542.93804 -889.54121 543.22523 -897.07031 543.52734 C-894.85085 549.94549 -890.40672 554.4136 -886.07031 559.52734 C-885.27238 560.51219 -884.47445 561.49703 -883.65234 562.51172 C-852.34171 600.43597 -812.85358 629.84542 -770.07031 653.52734 C-768.41387 654.44516 -766.75742 655.36297 -765.05078 656.30859 C-741.73007 668.88119 -714.35009 683.14738 -688.07031 687.52734 C-685.78233 686.26519 -685.78233 686.26519 -683.75781 684.21484 C-659.97182 663.85232 -629.62118 657.33791 -599.07031 658.52734 C-567.51359 661.75132 -539.64881 677.16256 -519.01953 700.99219 C-514.98248 706.24279 -511.55514 711.90246 -508.07031 717.52734 C-507.41031 718.51734 -506.75031 719.50734 -506.07031 720.52734 C-466.69366 725.44943 -426.15865 723.76826 -386.57031 723.71484 C-370.68391 723.70518 -370.68391 723.70518 -354.47656 723.69531 C-340.00287 723.60325 -325.51932 723.37729 -311.07031 722.52734 C-307.53994 717.94741 -305.45814 714.58629 -303.07031 709.52734 C-284.87084 682.74871 -257.41652 666.15282 -225.94531 659.71484 C-209.87805 657.13524 -193.88537 657.84831 -178.07031 661.52734 C-176.88309 661.79418 -175.69586 662.06102 -174.47266 662.33594 C-159.92185 666.02695 -142.80057 673.79708 -132.07031 684.52734 C-109.58808 680.0309 -86.71924 662.4774 -68.07031 649.52734 C-66.95012 648.75262 -65.82992 647.97789 -64.67578 647.17969 C-51.21373 637.71779 -38.1244 627.73832 -26.07031 616.52734 C-24.85344 615.47547 -23.63656 614.42359 -22.38281 613.33984 C-12.09583 604.37547 -1.56425 595.10886 7.30469 584.71484 C9.87718 581.72504 12.50959 578.80524 15.17969 575.90234 C79.27921 504.65659 108.67323 408.98183 104.65625 314.06641 C101.68299 268.90644 90.7711 225.63307 71.92969 184.52734 C70.98029 182.36752 70.98029 182.36752 70.01172 180.16406 C51.523 139.04736 22.61039 101.8887 -9.13281 70.21484 C-11.49566 67.84684 -13.85852 65.47883 -16.29297 63.03906 C-22.03083 57.52609 -27.84327 52.46721 -34.07031 47.52734 C-36.09625 45.78326 -38.11801 44.03428 -40.13281 42.27734 C-207.30378 -99.40301 -474.71122 -87.11824 -633.51953 61.16016 Z " fill="currentColor" transform="translate(994.0703125,192.47265625)"/>
<path d="M0 0 C11.46669 9.82428 19.65324 21.84663 22 37 C23.01304 54.78663 19.71814 69.67452 7.8125 83.3125 C-3.59275 95.13502 -16.877 101.07886 -33.3125 101.375 C-47.79455 101.28976 -58.75426 98.13972 -70 89 C-70.83273 88.37352 -71.66547 87.74703 -72.52344 87.10156 C-81.62058 79.38191 -87.31769 67.45863 -90 56 C-91.35973 36.48951 -88.43826 21.78304 -75.8125 6.8125 C-56.17728 -14.20873 -23.11202 -17.30998 0 0 Z " fill="currentColor" transform="translate(572,382)"/>
<path d="M0 0 C13.35681 10.15602 20.66979 22.86006 23.375 39.3125 C25.17903 55.33746 20.52266 69.20072 11 82 C10.2575 83.03125 9.515 84.0625 8.75 85.125 C-0.62361 94.92468 -13.62188 101.28956 -27.11328 102.43359 C-44.92102 102.44697 -59.53953 99.3043 -72.8125 86.75 C-84.52839 74.20636 -89.3756 59.87401 -89.21094 42.91406 C-88.27919 25.62497 -79.66101 13.49759 -67.6875 1.75 C-47.22005 -13.51386 -21.20793 -14.00673 0 0 Z " fill="currentColor" transform="translate(834,381)"/>
<path d="M0 0 C9.40665 7.56622 11.68771 14.90357 14.875 26.3125 C19.41897 40.61758 26.21116 52.82959 35.875 64.3125 C36.73094 65.33344 37.58687 66.35438 38.46875 67.40625 C64.10582 96.66267 101.76394 111.81091 139.875 115.3125 C184.57615 116.8799 228.18257 106.5947 262.875 77.3125 C263.69742 76.62543 264.51984 75.93836 265.36719 75.23047 C282.40218 60.50395 294.49453 41.46977 300.5 19.75 C303.37779 10.46258 308.62148 4.35954 317 -0.5 C325.52987 -4.02321 333.8358 -3.33293 342.29688 0.05859 C350.68089 4.13627 353.89393 10.35037 357.875 18.3125 C358.88801 29.91871 356.96557 39.49118 352.875 50.3125 C352.50246 51.32699 352.12992 52.34148 351.74609 53.38672 C341.52758 79.48487 323.75818 104.6318 301.875 122.3125 C300.88242 123.13105 299.88984 123.94961 298.86719 124.79297 C248.92184 165.12469 186.63266 179.32187 123.22266 173.625 C96.46715 169.59404 70.70045 161.12025 46.875 148.3125 C45.1251 147.39211 45.1251 147.39211 43.33984 146.45312 C1.33119 123.5307 -28.36894 85.85859 -43.28516 40.80859 C-46.10665 30.95306 -46.94431 20.04363 -42.51562 10.5625 C-32.96695 -4.88704 -15.7334 -8.49604 0 0 Z " fill="currentColor" transform="translate(515.125,554.6875)"/>
</g></svg>
