<svg xmlns="http://www.w3.org/2000/svg" viewBox="0 0 24 24">
  <path fill="#107F74" d="M12 1.5a10.5 10.5 0 0 0-10.5 10.5 10.5 10.5 0 0 0 10.5 10.5h.13l3.27 1.78a.75.75 0 0 0 1.1-.66v-1.99A10.5 10.5 0 0 0 22.5 12 10.5 10.5 0 0 0 12 1.5z"/>
  <path fill="#FFFFFF" d="M12 5.85a6.15 6.15 0 0 0-6.15 6.15 6.15 6.15 0 0 0 6.15 6.15c1.05 0 2.03-.27 2.89-.74a.6.6 0 1 0-.58-1.05 4.95 4.95 0 0 1-2.31.59 4.95 4.95 0 0 1-4.95-4.95 4.95 4.95 0 0 1 4.95-4.95 4.95 4.95 0 0 1 4.95 4.95v.6a.9.9 0 0 1-1.8 0V12a3.15 3.15 0 1 0-.92 2.23.9.9 0 0 0 1.5.45c.21-.21.42-.51.42-1.08V12A6.15 6.15 0 0 0 12 5.85zm0 4.2a1.95 1.95 0 1 1 0 3.9 1.95 1.95 0 0 1 0-3.9z"/>
</svg>
