<svg xmlns="http://www.w3.org/2000/svg" viewBox="0 0 24 24">
  <path fill="currentColor" fill-rule="evenodd" clip-rule="evenodd" d="M12 1.5a10.5 10.5 0 0 0-10.5 10.5 10.5 10.5 0 0 0 10.5 10.5h.13l3.27 1.78a.75.75 0 0 0 1.1-.66v-1.99A10.5 10.5 0 0 0 22.5 12 10.5 10.5 0 0 0 12 1.5zm0 4.35a6.15 6.15 0 0 1 6.15 6.15v1.6c0 .57-.21.87-.42 1.08a.9.9 0 0 1-1.5-.45 3.15 3.15 0 1 1 .92-2.23v.6a.9.9 0 0 0 1.8 0V12a4.95 4.95 0 0 0-4.95-4.95A4.95 4.95 0 0 0 7.05 12a4.95 4.95 0 0 0 4.95 4.95c.84 0 1.62-.21 2.31-.59a.6.6 0 1 1 .58 1.05 6.12 6.12 0 0 1-2.89.74A6.15 6.15 0 0 1 5.85 12 6.15 6.15 0 0 1 12 5.85zm0 4.2a1.95 1.95 0 1 0 0 3.9 1.95 1.95 0 0 0 0-3.9z"/>
</svg>
