<svg xmlns="http://www.w3.org/2000/svg" viewBox="0 0 24 24">
  <mask id="a">
    <path fill="#fff" d="M22.364 10.364c0-5.727-4.636-10.364-10.364-10.364-5.727 0-10.364 4.636-10.364 10.364 0 5.427 4.95 9.818 10.364 9.818v3.818c6.3-3.191 10.364-8.332 10.364-13.637z"/>
    <path fill="#000" d="M12.027 4.227c0.873 0 1.664 0.15 2.4 0.464 0.736 0.314 1.364 0.723 1.896 1.255s0.941 1.145 1.241 1.855c0.3 0.709 0.45 1.459 0.45 2.25 0 0.45-0.055 0.859-0.15 1.241-0.095 0.382-0.245 0.723-0.45 1.009-0.205 0.286-0.45 0.518-0.75 0.682s-0.641 0.245-1.036 0.245c-0.382 0-0.736-0.095-1.036-0.286s-0.545-0.464-0.723-0.832c-0.232 0.355-0.532 0.627-0.886 0.832-0.355 0.191-0.764 0.286-1.241 0.286-0.423 0-0.805-0.082-1.159-0.232-0.355-0.15-0.668-0.368-0.941-0.641s-0.477-0.6-0.641-0.982c-0.15-0.382-0.232-0.791-0.232-1.255 0-0.45 0.082-0.873 0.232-1.255 0.164-0.382 0.368-0.709 0.641-0.982 0.259-0.273 0.573-0.491 0.927-0.641 0.355-0.15 0.723-0.232 1.105-0.232s0.736 0.082 1.036 0.232c0.3 0.15 0.559 0.355 0.764 0.6h0.095v-0.614h1.295v3.832c0 0.245 0.068 0.464 0.205 0.668 0.136 0.205 0.355 0.314 0.641 0.314 0.191 0 0.355-0.055 0.491-0.177 0.136-0.123 0.232-0.286 0.314-0.477s0.136-0.423 0.164-0.655c0.027-0.245 0.041-0.491 0.041-0.723 0-0.614-0.123-1.2-0.355-1.759-0.245-0.559-0.573-1.036-0.982-1.459-0.423-0.423-0.914-0.75-1.486-0.995s-1.186-0.368-1.868-0.368c-0.655 0-1.268 0.123-1.841 0.355s-1.064 0.559-1.486 0.968-0.75 0.9-0.995 1.459c-0.245 0.573-0.368 1.186-0.368 1.855 0 0.668 0.123 1.282 0.368 1.855s0.586 1.05 1.023 1.459c0.423 0.409 0.927 0.736 1.486 0.968 0.559 0.232 1.159 0.355 1.8 0.355 0.75 0 1.405-0.164 1.991-0.477l0.477 1.2c-0.75 0.341-1.568 0.518-2.455 0.518-0.873 0-1.664-0.15-2.414-0.464-0.736-0.314-1.377-0.723-1.909-1.255s-0.955-1.145-1.255-1.855c-0.3-0.709-0.45-1.473-0.45-2.277 0-0.805 0.15-1.555 0.45-2.277 0.3-0.709 0.723-1.336 1.255-1.868s1.173-0.955 1.909-1.255c0.723-0.314 1.527-0.464 2.414-0.464zm-0.191 7.691c0.218 0 0.436-0.041 0.641-0.123s0.382-0.191 0.545-0.341c0.164-0.15 0.286-0.327 0.368-0.545 0.095-0.218 0.136-0.464 0.136-0.75s-0.041-0.532-0.136-0.75-0.218-0.395-0.368-0.545c-0.164-0.15-0.341-0.259-0.545-0.341s-0.423-0.123-0.641-0.123c-0.218 0-0.436 0.041-0.641 0.123s-0.382 0.191-0.545 0.341c-0.164 0.15-0.286 0.341-0.368 0.559-0.095 0.218-0.136 0.464-0.136 0.736s0.041 0.518 0.136 0.736 0.218 0.409 0.368 0.559c0.164 0.15 0.341 0.273 0.545 0.341 0.205 0.082 0.423 0.123 0.641 0.123z"/>
  </mask>
  <rect width="24" height="24" fill="currentColor" mask="url(#a)"/>
</svg>
