<svg xmlns="http://www.w3.org/2000/svg" viewBox="0 0 24 24">
  <path fill="currentColor" d="M12.48 4.8V10.56C12.48 10.91 12.77 11.2 13.12 11.2H18.88C18.88 9.43 18.48 7.51 17.32 6.35C16.16 5.19 14.24 4.8 12.48 4.8Z"/>
  <path fill="currentColor" d="M18.76 23.88C16.07 24.32 12.82 23.52 9.7 21.66L10.74 19.33L13.11 18.23L16.83 20.36L18.76 23.88Z"/>
  <path fill="currentColor" d="M0.12 5.24C-0.32 7.93 0.48 11.18 2.34 14.3L4.74 13.18L5.76 10.88L3.74 7.58L0.12 5.24Z"/>
  <path fill="currentColor" d="M13.44 0C12.91 0 12.48 0.43 12.48 0.96V4.8C16.01 4.8 18.88 7.67 18.88 11.2H22.72C23.25 11.2 23.68 10.77 23.68 10.24C23.68 4.59 19.09 0 13.44 0Z"/>
  <path fill="currentColor" d="M22.77 21.68C23.28 21.2 23.3 20.4 22.82 19.88L18.19 14.95C17.68 14.46 16.89 14.47 16.4 14.97L13.12 18.24L18.76 23.88C20.29 23.65 21.43 23 22.47 21.97L22.77 21.68Z"/>
  <path fill="currentColor" d="M2.34 14.3C3.19 15.7 4.31 17.11 5.59 18.39C6.87 19.66 8.31 20.81 9.71 21.66L13.13 18.24L5.76 10.88Z"/>
  <path fill="currentColor" d="M8.23 8.48L8.76 7.97C9.39 7.34 9.39 6.32 8.76 5.69L4.41 1.35C3.78 0.73 2.76 0.73 2.13 1.35L1.98 1.46C0.96 2.47 0.36 3.78 0.12 5.24L5.76 10.88L8.23 8.48Z"/>
</svg>
