<svg xmlns="http://www.w3.org/2000/svg" viewBox="0 0 24 24">
  <g transform="scale(0.003639)" fill="currentColor" fill-rule="evenodd">
    <path d="M4686.673 6592.51V5204.613c-.079-287.364 232.936-520.382 520.455-520.461h1388.931L4686.673 6592.51z"/>
    <path d="M4686.673 6592.51H520.742C233.493 6591.67.841 6359.143 0 6072.048V520.461C.841 233.367 233.493.84 520.742 0h5554.576c287.249.84 519.901 233.367 520.742 520.461v4163.69l-1128.273 780.692-781.114 1127.667zM3298.03 1040.923c-862.688-.105-1562.119 698.781-1562.224 1561.005-.068 557.867 297.704 1073.377 781.112 1352.277v1250.408h347.161v346.975h954.693v-346.975h347.161V3900.424c717.367-479.021 910.376-1448.572 431.097-2165.553-289.867-433.629-777.216-693.979-1299-693.948zm520.741 3816.716h-954.693v-346.974h954.693v346.974zm0-1158.46v464.512h-954.693v-427.212c-627.01-239.395-941.129-941.48-701.605-1568.153 239.523-626.672 941.987-940.622 1568.997-701.228s941.129 941.48 701.605 1568.153c-111.638 292.082-331.671 529.889-614.304 663.928z"/>
  </g>
</svg>
