<svg xmlns="http://www.w3.org/2000/svg" viewBox="0 0 24 24"><g fill="currentColor"><path d="M22.44 7.798c-.49-1.178-1.482-2.45-2.26-2.851.633 1.242 1 2.489 1.14 3.419l.003.018c-1.274-3.175-3.434-4.455-5.198-7.242Q15.99.932 15.86.71a4 4 0 0 1-.124-.233 2 2 0 0 1-.169-.445.03.03 0 0 0-.025-.03.04.04 0 0 0-.022 0l-.005.003q-.005.001-.008.004l.004-.006c-2.83 1.657-3.79 4.723-3.878 6.257a5.64 5.64 0 0 0-3.1 1.195 3 3 0 0 0-.292-.22 5.2 5.2 0 0 1-.032-2.754c-1.157.527-2.057 1.36-2.711 2.096h-.006c-.446-.566-.415-2.432-.39-2.821-.004-.025-.332.17-.375.199a8 8 0 0 0-1.101.943A10 10 0 0 0 2.574 6.16v.001-.001a9.5 9.5 0 0 0-1.512 3.412l-.015.075c-.021.099-.097.595-.11.703l-.003.024A11 11 0 0 0 .75 11.93l-.001.057c0 6.221 5.044 11.264 11.265 11.264 5.572 0 10.198-4.045 11.104-9.358.02-.144.034-.289.051-.434.224-1.932-.025-3.962-.73-5.66M9.455 16.615l.157.077.007.004zm11.868-8.228-.001-.01z"/><path d="M22.44 7.798c-.49-1.178-1.482-2.45-2.26-2.851.633 1.242 1 2.489 1.14 3.419l.002.01.002.012c1.063 2.882.484 5.812-.35 7.602-1.292 2.77-4.417 5.61-9.309 5.471-5.285-.15-9.942-4.07-10.81-9.207-.16-.81 0-1.222.079-1.88-.097.508-.134.654-.183 1.555l-.001.057c0 6.221 5.044 11.264 11.265 11.264 5.572 0 10.198-4.045 11.104-9.358.02-.144.034-.289.051-.434.224-1.932-.025-3.962-.73-5.66"/><path d="M22.44 7.798c-.49-1.178-1.482-2.45-2.26-2.851.633 1.242 1 2.489 1.14 3.419l.002.01.002.012c1.063 2.882.484 5.812-.35 7.602-1.292 2.77-4.417 5.61-9.309 5.471-5.285-.15-9.942-4.07-10.81-9.207-.16-.81 0-1.222.079-1.88-.097.508-.134.654-.183 1.555l-.001.057c0 6.221 5.044 11.264 11.265 11.264 5.572 0 10.198-4.045 11.104-9.358.02-.144.034-.289.051-.434.224-1.932-.025-3.962-.73-5.66"/><path d="m16.965 9.122.07.051A6.1 6.1 0 0 0 15.99 7.81c-3.502-3.502-.918-7.592-.482-7.8l.004-.006c-2.83 1.657-3.79 4.723-3.878 6.257.132-.01.263-.02.396-.02 2.112 0 3.951 1.16 4.936 2.882"/><path d="M12.036 9.821c-.018.28-1.008 1.247-1.354 1.247-3.204 0-3.724 1.937-3.724 1.937.142 1.632 1.278 2.975 2.654 3.686q.094.049.19.091a6 6 0 0 0 .33.135 5 5 0 0 0 1.466.283c5.615.264 6.703-6.712 2.65-8.738 1.039-.18 2.116.237 2.717.66C15.98 7.4 14.141 6.24 12.03 6.24c-.133 0-.264.01-.396.02a5.64 5.64 0 0 0-3.1 1.194c.172.146.366.34.774.742.764.754 2.725 1.533 2.73 1.625"/><path d="M12.036 9.821c-.018.28-1.008 1.247-1.354 1.247-3.204 0-3.724 1.937-3.724 1.937.142 1.632 1.278 2.975 2.654 3.686q.094.049.19.091a6 6 0 0 0 .33.135 5 5 0 0 0 1.466.283c5.615.264 6.703-6.712 2.65-8.738 1.039-.18 2.116.237 2.717.66C15.98 7.4 14.141 6.24 12.03 6.24c-.133 0-.264.01-.396.02a5.64 5.64 0 0 0-3.1 1.194c.172.146.366.34.774.742.764.754 2.725 1.533 2.73 1.625"/><path d="m8.008 7.08.233.154a5.2 5.2 0 0 1-.031-2.753c-1.158.527-2.058 1.36-2.712 2.096.054-.002 1.688-.031 2.51.503"/><path d="M.854 12.254c.87 5.136 5.526 9.058 10.811 9.207 4.892.139 8.017-2.7 9.308-5.47.835-1.791 1.414-4.72.35-7.603l-.001-.012-.002-.01.003.018c.4 2.61-.928 5.137-3.003 6.846l-.006.015c-4.043 3.292-7.911 1.986-8.695 1.451l-.164-.081c-2.357-1.127-3.33-3.274-3.122-5.115-1.99 0-2.668-1.679-2.668-1.679s1.786-1.274 4.141-.166c2.182 1.026 4.23.166 4.23.166-.004-.091-1.965-.871-2.73-1.624-.408-.403-.601-.597-.773-.742a3 3 0 0 0-.292-.22l-.233-.155c-.822-.534-2.456-.505-2.51-.504h-.006c-.446-.565-.415-2.431-.39-2.82-.004-.025-.332.17-.375.199a8 8 0 0 0-1.101.943A10 10 0 0 0 2.574 6.16v.001-.001a9.5 9.5 0 0 0-1.512 3.412c-.005.025-.405 1.774-.208 2.682"/><path d="M15.99 7.809a6.1 6.1 0 0 1 1.045 1.364q.094.07.17.139c2.553 2.353 1.215 5.681 1.115 5.918 2.075-1.709 3.402-4.237 3.003-6.846-1.274-3.175-3.434-4.455-5.198-7.242Q15.99.932 15.86.71a4 4 0 0 1-.124-.233 2 2 0 0 1-.169-.445.03.03 0 0 0-.025-.03.04.04 0 0 0-.022 0l-.005.003q-.005.001-.008.004c-.436.208-3.02 4.298.482 7.8"/><path d="M17.204 9.312a2 2 0 0 0-.169-.139l-.07-.051c-.601-.423-1.679-.84-2.716-.66 4.052 2.026 2.964 9.002-2.65 8.738a5 5 0 0 1-1.467-.282 6 6 0 0 1-.33-.136 4 4 0 0 1-.19-.09l.007.004c.784.535 4.652 1.84 8.695-1.451l.006-.015c.1-.237 1.438-3.565-1.116-5.918"/><path d="M6.958 13.005s.52-1.937 3.723-1.937c.347 0 1.337-.967 1.355-1.247s-2.048.86-4.23-.166c-2.354-1.108-4.141.166-4.141.166S4.343 11.5 6.333 11.5c-.208 1.841.765 3.989 3.122 5.115l.157.077c-1.376-.711-2.512-2.055-2.654-3.687"/><path d="M22.44 7.798c-.49-1.178-1.482-2.45-2.26-2.851.633 1.242 1 2.489 1.14 3.419l.003.018c-1.274-3.175-3.434-4.455-5.198-7.242Q15.99.932 15.86.71a4 4 0 0 1-.124-.233 2 2 0 0 1-.169-.445.03.03 0 0 0-.025-.03.04.04 0 0 0-.022 0l-.005.003q-.005.001-.008.004l.004-.006c-2.83 1.657-3.79 4.723-3.878 6.257.131-.01.262-.02.396-.02 2.112 0 3.951 1.161 4.936 2.882-.602-.423-1.679-.84-2.716-.66 4.052 2.026 2.964 9.002-2.651 8.738a5 5 0 0 1-1.466-.282 6 6 0 0 1-.33-.136 4 4 0 0 1-.19-.09l.007.004-.164-.081c.053.025.102.052.156.077-1.375-.711-2.511-2.055-2.653-3.687 0 0 .52-1.937 3.723-1.937.346 0 1.336-.967 1.355-1.247-.004-.091-1.965-.871-2.73-1.624-.408-.403-.602-.597-.774-.742a3 3 0 0 0-.291-.22 5.2 5.2 0 0 1-.032-2.754c-1.157.527-2.057 1.36-2.712 2.096h-.005c-.446-.566-.415-2.432-.39-2.822-.005-.024-.333.17-.376.2a8 8 0 0 0-1.1.943A10 10 0 0 0 2.574 6.16v.001-.001a9.5 9.5 0 0 0-1.512 3.412l-.015.075c-.021.099-.116.602-.13.71 0 .008.001-.008 0 0a13 13 0 0 0-.166 1.572l-.001.057c0 6.221 5.044 11.264 11.265 11.264 5.572 0 10.198-4.045 11.104-9.358.02-.144.034-.289.051-.434.224-1.932-.025-3.962-.73-5.66m-1.118.578.002.012z"/></g></svg>
