<svg xmlns="http://www.w3.org/2000/svg" viewBox="0 0 24 24"><path fill="#1B4EED" d="M5.802 8.767c.02-.039-.58-.435-1.408-.576-.726-.125-1.634-.145-2.407.263-.194.103-.34.201-.474.303-.367.278-.555.55-.707.767-.161.23-.283.574-.333.731-.061.191-.074.375-.101.572a2.3 2.3 0 0 0-.008.413c.014.325.085.679.24 1.003.116.245.268.475.415.683.24.341.634.562.865.68.18.094.405.195.788.258.434.071 1.074.07 2.099-.09.283-.045.594-.138.94-.21.03-.006.047-.015.07-.021.022-.006.04-.002.04-.018a16 16 0 0 1-.005-1.192c.001-.034.01-.142.01-.187 0-.04.022-.036.043-.055l.212-.209-1.66-.024-.582.327 1.154-.048v1.282s-.468.195-1.094.181a2.6 2.6 0 0 1-1.548-.518c-.84-.63-1.134-1.505-1.14-2.136-.002-.318-.01-.561.015-.664.022-.09.058-.31.154-.548.13-.323.35-.658.755-.934.249-.17.583-.327.976-.36.453-.04.773.011 1.04.115.66.256.792.472.888.546.004.004.026.02.018.031-.01.014-.01.028-.015.037-.042.075-.16.273-.16.273l.25-.027z"/><path fill="#EE2B34" d="M8.315 9.896c-.093.002-.149.01-.149.01.079-.018-1.9.22-1.709 2.17.054.545.311.88.601 1.12.605.498 1.436.489 1.436.489.292.014 1.057-.232 1.499-.877.223-.326.412-.717.319-1.302-.089-.558-.333-.929-.614-1.169-.481-.411-1.102-.448-1.383-.441m-.1.264c.378.001 1.03.181 1.236 1.334.29 1.62-.449 1.768-.618 1.854-.225.115-1.239.219-1.6-1.442-.357-1.637.755-1.716.691-1.709 0 0 .118-.037.29-.037"/><path fill="#1B4EED" d="M16.918 9.989c-.07 0-.237.003-.434.04-.468.084-1.114.392-1.297 1.035-.283.995.445 1.39.445 1.39s.256.15.36.179c.318.088.654.047.654.047s-.134.445.135.76c.065.074.018.077.018.077s-1.177-.03-1.734.56c-.557.592-.255 1.137-.255 1.137s.292.712 1.552.748c1.265.036 2.048-.714 2.116-1.28.035-.284-.004-.55-.147-.784-.138-.226-.376-.421-.609-.611-.144-.119-.245-.18-.31-.247a.28.28 0 0 1-.069-.21c.003-.086.049-.192.2-.368.278-.321.348-.281.516-.521a1.4 1.4 0 0 0 .138-.334c.031-.094.026-.192.026-.283 0-.196-.047-.384-.125-.542-.146-.293-.397-.483-.402-.498h.44l.497-.29-1.678-.005zm-.36.272c.256.002.64.135.87.826.396 1.186-.432 1.367-.432 1.367s-.949.146-1.123-.909c-.178-1.074.255-1.132.424-1.239 0 0 .107-.046.26-.045m.525 3.494s.755.463.826.803c.08.38.085.657-.492.96-.17.09-.469.1-.657.1a2.1 2.1 0 0 1-.984-.265c-.09-.046-.588-.606-.22-1.106.093-.126.196-.182.292-.246.203-.136.403-.2.779-.233.125-.01.292-.002.456-.013"/><path fill="#00B817" d="m18.547 8.247.59-.285 1.118.006s-.298.146-.322.37 0 4.639 0 4.639c.006.115-.045.252.267.282.39.038.456.046.456.046l-.274.207-1.459-.012.159-.17s.085-.068.079-.347c-.007-.28-.01-4.733-.01-4.733z"/><path fill="#EE2B34" d="M22.7 9.89c-.027 0-.154-.014-.184-.012-1.065.082-1.557.685-1.721 1.237s-.03 1.356.2 1.714c.232.357.716.804 1.483.819s1.178-.351 1.431-.604c.017-.017.03-.052.03-.052s-.484.274-.976.268c-.533-.006-1.366-.523-1.572-1.609.2-.016.368-.026.588-.022l1.87-.767s-.044-.244-.234-.484a1.4 1.4 0 0 0-.529-.39c-.145-.064-.197-.062-.385-.098m-.478.253.073.001c.148.005.27.035.378.105.073.047.132.115.218.191.168.146.164.336.164.336-.003.042.035.098-.061.158-.244.15-.76.347-1.19.525-.143.058-.293.108-.399.162 0 0-.088-.502.06-.917a.83.83 0 0 1 .757-.56"/><path fill="#FCB110" d="M12.662 9.887c-.093.002-.149.01-.149.01.079-.018-1.9.22-1.709 2.17.054.544.311.88.601 1.12.605.498 1.436.489 1.436.489.292.014 1.057-.232 1.499-.877.223-.326.412-.717.319-1.302-.089-.558-.333-.929-.614-1.17-.481-.41-1.102-.447-1.383-.44m-.1.264c.378.001 1.03.18 1.236 1.334.29 1.62-.449 1.768-.618 1.854-.225.115-1.239.218-1.6-1.442-.356-1.637.755-1.716.691-1.709 0 0 .118-.037.29-.037"/></svg>