<svg xmlns="http://www.w3.org/2000/svg" viewBox="0 0 24 24">
  <path fill="currentColor" fill-rule="evenodd" d="M6 3C4.34315 3 3 4.34315 3 6C3 7.65685 4.34315 9 6 9C7.65685 9 9 7.65685 9 6C9 4.34315 7.65685 3 6 3ZM6 4.59961C5.2268 4.59961 4.59961 5.2268 4.59961 6C4.59982 6.77302 5.22693 7.39941 6 7.39941C6.77289 7.3992 7.3992 6.77289 7.39941 6C7.39941 5.22693 6.77302 4.59982 6 4.59961ZM12 3C10.3431 3 9 4.34315 9 6C9 7.65685 10.3431 9 12 9H18C19.6569 9 21 7.65685 21 6C21 4.34315 19.6569 3 18 3H12ZM12 5.2002C11.5582 5.2002 11.2002 5.55817 11.2002 6C11.2002 6.44183 11.5582 6.7998 12 6.7998H18C18.4418 6.7998 18.7998 6.44183 18.7998 6C18.7998 5.55817 18.4418 5.2002 18 5.2002H12Z"/>
  <circle cx="6" cy="12" r="3" fill="currentColor"/>
  <circle cx="6" cy="18" r="3" fill="currentColor" opacity="0.5"/>
  <rect x="9" y="9" width="12" height="6" rx="3" fill="currentColor"/>
  <rect x="9" y="15" width="12" height="6" rx="3" fill="currentColor" opacity="0.5"/>
</svg>
