<svg xmlns="http://www.w3.org/2000/svg" viewBox="0 0 24 24"><g transform="translate(-1.6 3.7714) scale(0.0761905)"><g transform="translate(0 216) scale(0.1 -0.1)"><path fill="#CD201F" d="M1200 2141 c-160 -18 -184 -79 -178 -444 4 -247 16 -292 91 -330 86 -44 904 -44 979 0 79 45 113 239 90 513 -22 269 -12 264 -532 266 -212 1 -414 -1 -450 -5z m160 -161 l0 -40 -45 0 -45 0 0 -231 0 -230 -37 3 -38 3 -3 228 -2 227 -40 0 c-40 0 -40 0 -40 40 l0 40 125 0 125 0 0 -40z m330 -41 l0 -80 22 15 c31 22 71 20 94 -5 17 -19 19 -38 19 -184 0 -146 -2 -165 -19 -184 -23 -25 -58 -27 -90 -6 -21 14 -24 14 -30 0 -4 -11 -16 -15 -38 -13 l-33 3 -3 268 -2 267 40 0 40 0 0 -81z m-270 -213 c0 -172 5 -193 41 -160 17 15 19 31 19 171 l0 154 38 -3 37 -3 0 -200 0 -200 -37 -3 c-33 -3 -38 0 -38 18 l0 21 -29 -20 c-87 -62 -111 -16 -111 212 0 180 -1 177 47 177 l33 0 0 -164z m619 150 c38 -20 51 -55 51 -136 l0 -70 -70 0 -70 0 0 -43 c0 -50 19 -83 44 -74 11 4 16 18 16 42 0 34 1 35 40 35 39 0 40 -1 40 -35 0 -130 -173 -161 -211 -37 -18 60 -8 251 14 286 30 45 93 59 146 32z"/><path fill="#CD201F" d="M1697 1813 c-4 -3 -7 -62 -7 -129 0 -116 1 -123 21 -129 14 -5 25 -2 30 6 10 16 12 219 3 243 -6 16 -35 22 -47 9z"/><path fill="#CD201F" d="M1956 1805 c-16 -42 -7 -65 25 -65 29 0 30 2 27 38 -3 41 -39 59 -52 27z"/><path fill="#333333" d="M224 2003 c3 -10 26 -84 51 -165 41 -133 45 -156 45 -247 l0 -101 35 0 35 0 0 113 c0 105 3 122 45 257 54 173 53 160 10 160 -32 0 -35 -3 -45 -42 -30 -115 -43 -158 -49 -158 -3 0 -17 44 -31 98 l-25 97 -39 3 c-33 3 -37 1 -32 -15z"/><path fill="#333333" d="M506 1849 c-33 -39 -40 -274 -10 -318 41 -57 127 -57 168 0 22 32 23 266 1 308 -27 54 -118 60 -159 10z m96 -36 c29 -26 27 -232 -3 -259 -39 -36 -59 8 -59 130 0 127 19 168 62 129z"/><path fill="#333333" d="M750 1697 c0 -129 4 -187 12 -195 18 -18 57 -14 89 9 l29 20 0 -20 c0 -17 6 -21 35 -21 l35 0 0 195 0 195 -35 0 -35 0 0 -154 c0 -148 -1 -156 -22 -170 -42 -30 -48 -8 -48 165 l0 159 -30 0 -30 0 0 -183z"/><path fill="#333333" d="M2860 1007 c-165 -38 -260 -149 -260 -302 0 -179 84 -265 304 -311 82 -17 121 -41 121 -75 0 -68 -147 -64 -291 9 l-62 31 -20 -47 c-42 -98 -66 -193 -51 -203 118 -76 405 -102 541 -50 167 64 248 235 188 395 -36 95 -132 160 -284 192 -144 30 -177 53 -135 95 28 28 161 22 258 -11 73 -26 66 -31 112 79 48 115 48 133 4 154 -95 45 -319 68 -425 44z"/><path fill="#333333" d="M241 1003 l-24 -5 6 -436 c4 -241 10 -461 13 -489 l7 -53 82 0 c45 0 110 3 144 6 l61 7 0 112 0 112 36 46 c20 26 39 47 43 47 3 0 44 -75 91 -166 47 -92 91 -169 98 -172 24 -9 205 39 264 70 20 10 -39 137 -169 366 l-64 114 115 172 c64 94 116 177 116 183 0 13 -45 31 -165 67 l-80 25 -35 -38 c-19 -21 -84 -106 -144 -189 -59 -84 -110 -152 -111 -152 -2 0 -1 83 2 183 l6 184 -24 6 c-26 7 -230 7 -268 0z"/><path fill="#333333" d="M1709 1003 l-46 -4 -6 -166 c-4 -91 -7 -307 -7 -479 l0 -314 28 -7 c64 -16 444 -9 507 10 237 74 345 234 333 497 -11 221 -117 365 -322 438 -71 25 -337 39 -487 25z m362 -285 c89 -30 139 -109 139 -217 -1 -142 -79 -218 -215 -209 l-50 3 -3 205 c-1 112 0 210 2 217 7 16 81 17 127 1z"/><path fill="#333333" d="M1186 963 c-3 -21 -6 -239 -6 -485 l0 -447 34 -6 c37 -7 262 -3 269 5 7 7 14 697 10 848 l-4 122 -148 0 -148 0 -7 -37z"/></g></g></svg>
