<svg xmlns="http://www.w3.org/2000/svg" viewBox="0 0 24 24">
  <g transform="translate(0 0.42) scale(0.0046388)" fill-rule="nonzero">
    <path fill="#FFC107" d="M2669.618,2495.4l-1282.9-1282.9h-8.7l-1186.2,1186.2c-7.19,7.19-14.374,14.386-16.764,26.321c-0.533,2.726-0.832,5.634-0.834,8.836c0.029,35.072,26.418,61.443,61.499,61.443h1151v0.1H2669.618z"/>
    <polygon fill="#FF9800" points="2669.618,2495.4 2669.618,1212.5 1386.718,1212.5"/>
    <path fill="#DB4437" d="M3961.218,1203.8l-1195-1186.2c-8.8-8.8-26.4-17.6-35.1-17.6c-35.1,0-61.5,26.4-61.5,61.5v1151v1282.9L3961.218,1203.8z"/>
    <path fill="#AD1457" d="M2669.618,2495.4h1291.6V1203.8L2669.618,2495.4z"/>
    <path fill="#4285F4" d="M5103.518,2495.4c35.1,0,61.5,26.4,61.5,61.5c0,17.6-8.8,26.4-17.6,43.9L3961.218,3787l-1291.6-1291.6H5103.518z"/>
    <path fill="#3367D6" d="M2669.618,2495.4V3787h1291.6L2669.618,2495.4z"/>
    <path fill="#8BC34A" d="M2612.734,4990.627c32.77-2.207,56.884-27.786,56.884-61.327V2495.4l-1282.9,1282.9v8.7l1186.2,1186.2C2581.033,4981.315,2596.632,4989.412,2612.734,4990.627z"/>
    <polygon fill="#0F9D58" points="1386.718,2495.4 1386.718,3778.3 2669.618,2495.4"/>
    <path fill="#F5F5F5" d="M2555.418,2381.2l114.2-351.5l114.2,351.5l351.5,114.2l-351.5,114.2l-114.2,351.5l-114.2-351.5l-351.5-114.2L2555.418,2381.2z"/>
  </g>
</svg>
