<svg xmlns="http://www.w3.org/2000/svg" viewBox="0 0 24 24">
  <g fill="currentColor" transform="translate(0 4.345) scale(0.04697)">
    <path d="M 125.156 306.184 C 130.910 306.078 134.973 309.930 134.973 315.840 C 134.973 321.594 130.910 325.445 125.156 325.551 C 119.480 325.551 115.422 321.695 115.422 315.945 C 115.422 310.035 119.480 306.184 125.156 306.184 Z M 125.184 322.582 C 129.012 322.582 131.535 319.668 131.535 315.734 C 131.535 312.066 129.012 309.148 125.184 309.148 C 121.383 309.148 118.859 312.066 118.859 315.734 C 118.855 319.664 121.383 322.582 125.184 322.582 Z"/>
    <path d="M 166.074 306.652 L 172.480 306.652 C 176.020 306.652 179.352 307.797 179.352 311.934 C 179.352 314.590 177.816 316.543 175.082 316.934 L 179.977 325.082 L 176.020 325.082 L 171.750 317.273 L 169.355 317.273 L 169.355 325.082 L 166.074 325.082 Z M 171.906 314.461 C 173.754 314.461 175.918 314.305 175.918 311.910 C 175.918 309.723 173.887 309.461 172.195 309.461 L 169.355 309.461 L 169.355 314.461 Z"/>
    <path d="M 210.156 306.652 L 213.438 306.652 L 213.438 325.082 L 210.156 325.082 Z"/>
    <path d="M 262.051 323.727 C 259.812 324.926 257.262 325.551 254.426 325.551 C 248.750 325.551 244.688 321.695 244.688 315.945 C 244.688 310.035 248.750 306.184 254.426 306.184 C 257.234 306.184 259.762 306.781 261.688 308.500 L 259.266 310.945 C 258.094 309.801 256.297 309.148 254.449 309.148 C 250.648 309.148 248.125 312.066 248.125 315.734 C 248.125 319.664 250.648 322.582 254.449 322.582 C 256.117 322.582 257.625 322.270 258.773 321.617 L 258.773 317.270 L 254.996 317.270 L 254.996 314.305 L 262.051 314.305 Z"/>
    <path d="M 293.836 306.652 L 297.113 306.652 L 297.113 325.082 L 293.836 325.082 Z"/>
    <path d="M 329.336 306.652 L 333.688 306.652 L 342.613 320.344 L 342.668 320.344 L 342.668 306.652 L 345.945 306.652 L 345.945 325.082 L 341.781 325.082 L 332.672 310.945 L 332.617 310.945 L 332.617 325.082 L 329.340 325.082 Z"/>
    <path d="M 383.797 306.652 L 386.633 306.652 L 394.574 325.082 L 390.824 325.082 L 389.109 320.863 L 381.117 320.863 L 379.449 325.082 L 375.777 325.082 Z M 387.961 318.051 L 385.125 310.555 L 382.234 318.051 Z"/>
    <path d="M 424.359 306.652 L 427.637 306.652 L 427.637 322.113 L 435.473 322.113 L 435.473 325.082 L 424.359 325.082 Z"/>
    <path d="M 361.223 179.570 C 354.152 181.191 335.547 182.125 335.547 182.125 L 333.191 189.488 C 333.191 189.488 342.469 188.703 349.246 189.387 C 349.246 189.387 351.453 189.145 351.699 191.891 C 351.797 194.445 351.504 197.195 351.504 197.195 C 351.504 197.195 351.355 198.863 349.000 199.254 C 346.445 199.695 328.969 200.336 328.969 200.336 L 326.121 209.906 C 326.121 209.906 325.090 212.117 327.449 211.477 C 329.656 210.891 347.969 207.453 350.375 207.945 C 352.926 208.582 355.773 211.969 354.938 215.109 C 353.957 218.941 335.695 230.621 324.551 229.789 C 324.551 229.789 318.711 230.180 313.750 222.277 C 309.137 214.766 315.520 200.480 315.520 200.480 C 315.520 200.480 312.621 193.805 314.734 191.598 C 314.734 191.598 316.008 190.469 319.641 190.176 L 324.109 180.895 C 324.109 180.895 319.004 181.238 315.961 177.508 C 313.113 173.926 312.918 172.305 315.078 171.324 C 317.383 170.195 338.641 166.316 353.270 166.809 C 353.270 166.809 358.375 166.316 362.746 175.152 C 362.695 175.152 364.855 178.738 361.223 179.570 Z M 306.191 215.211 C 304.324 219.625 299.367 224.340 293.230 221.395 C 287.145 218.449 277.473 198.668 277.473 198.668 C 277.473 198.668 273.793 191.301 273.105 191.449 C 273.105 191.449 272.320 190.027 271.828 198.078 C 271.336 206.129 271.926 221.785 268.734 224.242 C 265.691 226.695 262.008 225.715 260.094 222.816 C 258.375 219.973 257.641 213.195 258.574 201.316 C 259.703 189.438 262.449 176.773 265.984 172.797 C 269.520 168.871 272.367 171.715 273.449 172.746 C 273.449 172.746 278.160 177.020 285.965 189.586 L 287.340 191.891 C 287.340 191.891 294.410 203.770 295.145 203.723 C 295.145 203.723 295.734 204.262 296.227 203.871 C 296.961 203.672 296.668 199.844 296.668 199.844 C 296.668 199.844 295.195 186.934 288.766 165.039 C 288.766 165.039 287.781 162.293 288.469 159.738 C 289.109 157.137 291.711 158.363 291.711 158.363 C 291.711 158.363 301.723 163.371 306.535 179.668 C 311.297 196.113 308.059 210.793 306.191 215.211 Z M 257.000 173.336 C 256.168 175.004 255.676 177.410 251.453 178.051 C 251.453 178.051 211.051 180.797 209.137 183.645 C 209.137 183.645 207.715 185.313 209.922 185.805 C 212.133 186.246 221.262 187.473 225.680 187.719 C 230.395 187.770 246.301 187.914 251.996 195.035 C 251.996 195.035 255.383 198.422 255.234 206.078 C 255.086 213.934 253.715 216.684 250.668 219.527 C 247.477 222.180 220.086 234.453 202.414 215.602 C 202.414 215.602 194.262 206.520 205.211 199.648 C 205.211 199.648 213.113 194.887 233.191 200.480 C 233.191 200.480 239.281 202.691 238.984 204.898 C 238.641 207.258 233.977 209.762 227.203 209.613 C 220.625 209.418 215.813 206.273 216.746 206.766 C 217.629 207.109 209.680 202.938 207.223 205.785 C 204.770 208.387 205.359 210.004 207.762 211.625 C 213.898 215.109 237.609 213.883 244.680 206.031 C 244.680 206.031 247.477 202.840 243.207 200.238 C 238.938 197.781 226.711 196.309 221.949 196.066 C 217.387 195.820 200.398 196.113 197.945 191.598 C 197.945 191.598 195.492 188.555 198.191 179.914 C 201.039 170.883 220.820 167.398 229.363 166.613 C 229.363 166.613 252.879 165.777 257.199 170.586 C 257.148 170.586 257.738 171.715 257.000 173.336 Z M 190.238 226.305 C 187.391 228.414 181.352 227.480 179.633 225.125 C 177.914 223.016 177.328 214.621 177.672 201.465 C 178.016 188.160 178.309 171.668 181.156 169.066 C 184.199 166.414 186.066 168.723 187.242 170.539 C 188.520 172.305 190.043 174.270 190.387 178.441 C 190.680 182.613 191.660 204.508 191.660 204.508 C 191.660 204.508 192.938 224.242 190.238 226.305 Z M 196.375 155.715 C 188.078 158.461 182.383 157.531 177.574 155.469 C 175.461 159.148 174.234 160.277 172.613 160.523 C 170.258 160.770 168.148 156.988 167.754 155.762 C 167.359 154.828 166.230 153.258 167.605 149.527 C 162.895 145.309 162.551 139.613 163.336 135.785 C 164.516 131.367 172.465 114.578 196.668 112.613 C 196.668 112.613 208.500 111.730 210.512 118.063 L 210.855 118.063 C 210.855 118.063 222.344 118.113 222.098 128.324 C 221.949 138.582 209.336 151.344 196.375 155.715 Z M 173.793 132.984 C 171.336 136.914 171.238 139.270 172.367 140.891 C 175.168 136.617 180.273 129.895 187.785 124.789 C 181.992 125.277 177.129 127.781 173.793 132.984 Z M 207.223 126.406 C 199.613 127.535 187.832 137.746 182.234 146.094 C 190.828 147.664 205.996 147.074 212.723 133.379 C 212.672 133.379 215.914 124.887 207.223 126.406 Z M 413.801 205.488 C 409.234 213.441 396.422 230.035 379.336 226.156 C 373.691 239.852 368.980 253.645 366.277 274.359 C 366.277 274.359 365.691 278.387 362.352 276.961 C 359.063 275.785 353.566 270.285 352.484 262.680 C 351.305 252.664 355.773 235.727 364.855 216.336 C 362.203 212.020 360.387 205.832 361.961 197.047 C 361.961 197.047 364.266 180.750 380.613 166.023 C 380.613 166.023 382.578 164.305 383.707 164.844 C 384.984 165.383 384.395 170.684 383.363 173.238 C 382.332 175.789 375.016 188.457 375.016 188.457 C 375.016 188.457 370.453 196.996 371.727 203.723 C 380.320 190.516 399.859 163.863 411.984 172.258 C 416.059 175.152 417.922 181.484 417.922 188.309 C 417.875 194.348 416.449 200.727 413.801 205.488 Z M 410.266 184.578 C 410.266 184.578 409.578 179.324 404.473 185.117 C 400.055 189.977 392.102 199.156 385.672 211.578 C 392.395 210.840 398.875 207.160 400.840 205.293 C 404.031 202.445 411.441 194.789 410.266 184.578 Z M 171.926 191.254 C 170.992 203.133 166.430 223.113 134.078 232.980 C 112.723 239.410 92.547 236.316 81.551 233.520 C 81.305 237.887 80.813 239.754 80.125 240.488 C 79.191 241.422 72.223 245.449 68.395 239.754 C 66.676 237.055 65.793 232.145 65.301 227.777 C 40.559 216.387 29.168 199.992 28.727 199.254 C 28.188 198.715 22.543 192.824 28.188 185.609 C 33.488 179.078 50.820 172.551 66.430 169.898 C 66.969 156.547 68.539 146.484 70.406 141.871 C 72.664 136.520 75.512 141.332 77.965 144.965 C 80.027 147.664 81.254 159.297 81.355 168.574 C 91.566 168.086 97.602 168.820 108.992 170.883 C 123.816 173.582 133.734 181.141 132.852 189.730 C 132.211 198.176 124.457 201.660 121.512 201.906 C 118.418 202.152 113.605 199.941 113.605 199.941 C 110.316 198.371 113.359 196.996 117.336 195.277 C 121.656 193.168 120.676 191.008 120.676 191.008 C 119.055 186.297 99.813 183.008 80.668 183.008 C 80.566 193.563 81.109 211.086 81.355 221.297 C 94.754 223.848 104.770 223.359 104.770 223.359 C 104.770 223.359 153.664 221.984 155.137 190.762 C 156.660 159.492 106.391 129.500 69.227 119.977 C 32.113 110.258 11.105 117.031 9.289 117.965 C 7.324 118.945 9.141 119.242 9.141 119.242 C 9.141 119.242 11.152 119.535 14.637 120.715 C 18.320 121.891 15.473 123.805 15.473 123.805 C 9.141 125.820 2.023 124.543 0.648 121.645 C -0.727 118.750 1.578 116.148 4.230 112.418 C 6.883 108.492 9.777 108.637 9.777 108.637 C 55.680 92.734 111.594 121.500 111.594 121.500 C 163.973 148.055 172.910 179.180 171.926 191.254 Z M 33.391 189.633 C 28.188 192.188 31.770 195.867 31.770 195.867 C 41.539 206.371 53.566 212.949 65.008 217.023 C 66.332 198.910 66.137 192.531 66.281 183.398 C 48.414 184.625 38.105 187.473 33.391 189.633 Z"/>
    <path d="M 511 185.902 L 511 192.383 C 511 193.805 509.871 194.934 508.445 194.934 L 477.570 194.934 C 477.570 196.555 477.617 197.980 477.617 199.305 C 477.617 208.875 477.227 216.684 476.293 225.469 C 476.145 226.793 475.066 227.773 473.789 227.773 L 467.113 227.773 C 466.426 227.773 465.789 227.480 465.344 226.988 C 464.902 226.500 464.656 225.813 464.758 225.125 C 465.688 216.387 466.129 208.680 466.129 199.305 C 466.129 197.930 466.129 196.508 466.082 194.934 L 435.547 194.934 C 434.125 194.934 432.992 193.805 432.992 192.383 L 432.992 185.902 C 432.992 184.480 434.125 183.352 435.547 183.352 L 465.641 183.352 C 465.000 172.797 463.727 162.637 461.664 152.328 C 461.566 151.688 461.711 151.051 462.105 150.559 C 462.496 150.066 463.086 149.773 463.727 149.773 L 470.941 149.773 C 472.070 149.773 473.004 150.559 473.250 151.688 C 475.262 162.340 476.539 172.699 477.176 183.352 L 508.445 183.352 C 509.820 183.352 511 184.527 511 185.902 Z"/>
    <path d="M 468.977 134.508 C 453.023 95.285 426.074 61.855 391.020 37.805 C 355.137 13.211 313.063 0.203 269.375 0.203 C 197.109 0.203 130.051 36.086 90.043 96.219 C 89.602 96.855 89.504 97.691 89.746 98.426 C 89.992 99.211 90.582 99.754 91.320 100 L 96.914 101.914 C 97.258 102.012 97.602 102.059 97.898 102.059 C 98.930 102.059 99.910 101.520 100.500 100.684 C 118.859 73.688 143.699 51.254 172.367 35.742 C 201.973 19.738 235.500 11.246 269.324 11.246 C 310.219 11.246 349.637 23.320 383.410 46.098 C 416.352 68.336 441.930 99.410 457.391 135.883 C 457.836 136.961 458.914 137.699 460.094 137.699 L 466.770 137.699 C 467.555 137.699 468.289 137.305 468.684 136.668 C 469.176 136.031 469.273 135.242 468.977 134.508 Z"/>
  </g>
</svg>
