<svg xmlns="http://www.w3.org/2000/svg" viewBox="0 0 24 24">
  <defs>
    <linearGradient id="a" x1="12" x2="12" y1="0" y2="24" gradientUnits="userSpaceOnUse">
      <stop offset="0" stop-color="#1A1A1A"/>
      <stop offset="1" stop-color="#1A1A1A" stop-opacity="0"/>
    </linearGradient>
  </defs>
  <path fill="url(#a)" d="M21.146 8.182c-0.139 0.108-2.597 1.493-2.597 4.572 0 3.562 3.127 4.822 3.221 4.853-0.014 0.077-0.497 1.726-1.649 3.406-1.027 1.478-2.1 2.954-3.732 2.954s-2.052-0.948-3.936-0.948c-1.836 0-2.489 0.979-3.982 0.979s-2.534-1.368-3.732-3.048C3.353 18.977 2.232 15.912 2.232 13.003c0-4.666 3.034-7.14 6.019-7.14 1.586 0 2.909 1.042 3.905 1.042 0.948 0 2.426-1.104 4.231-1.104 0.684 0 3.142 0.062 4.759 2.381zm-5.616-4.356c0.746-0.886 1.274-2.114 1.274-3.343 0-0.17-0.014-0.343-0.046-0.482-1.214 0.046-2.659 0.809-3.53 1.819-0.684 0.778-1.322 2.006-1.322 3.252 0 0.187 0.031 0.374 0.046 0.434 0.077 0.014 0.202 0.031 0.326 0.031 1.09 0 2.46-0.73 3.252-1.711z"/>
</svg>
