<svg xmlns="http://www.w3.org/2000/svg" viewBox="0 0 24 24">
  <path fill="currentColor" fill-rule="evenodd" d="M7.5 5.5C3.91015 5.5 1 8.41015 1 12C1 15.0734 3.13362 17.6458 6 18.3232V21.1211C6 21.7154 6.65822 22.0738 7.15723 21.751L12.1816 18.5H16.5C20.0899 18.5 23 15.5899 23 12C23 8.41015 20.0898 5.5 16.5 5.5H7.5ZM7.15405 11.05C7.40194 10.7195 7.87053 10.6526 8.20105 10.9005C9.20137 11.6507 10.205 12 11.1953 12C12.1898 12 13.2152 11.6481 14.2632 10.8896C14.5985 10.6469 15.0673 10.7216 15.31 11.0569C15.5528 11.3922 15.4781 11.861 15.1428 12.1037C13.8884 13.0114 12.5762 13.5 11.1953 13.5C9.8104 13.5 8.49989 13.0102 7.30371 12.1133C6.97324 11.8654 6.90615 11.3805 7.15405 11.05Z"/>
</svg>
