<svg xmlns="http://www.w3.org/2000/svg" viewBox="0 0 24 24">
  <g transform="scale(0.222222)" fill-rule="evenodd" clip-rule="evenodd">
    <path fill="#0F9D58" d="M13.5 20.25h81v67.5h-81z"/>
    <path fill="#57BB8A" d="M36 56.25a5.063 5.063 0 100-10.126 5.063 5.063 0 000 10.126zm41.063-5.063a5.063 5.063 0 11-10.126 0 5.063 5.063 0 0110.126 0zM60.75 66.055c0-3.555 5.828-6.429 11.25-6.429s11.25 2.874 11.25 6.43v3.695h-22.5zm-36 0c0-3.555 5.828-6.429 11.25-6.429 5.423 0 11.25 2.874 11.25 6.43v3.695h-22.5z"/>
    <path fill="#F7F7F7" d="M60.75 45.001c0 3.73-3.02 6.75-6.744 6.75a6.753 6.753 0 01-6.756-6.75 6.756 6.756 0 016.756-6.75c3.723 0 6.744 3.026 6.744 6.75zm-22.5 20.25c0-4.973 8.156-9 15.75-9 7.594 0 15.75 4.027 15.75 9v4.5h-31.5z"/>
    <path fill="#F1F1F1" d="M63 83.251h20.25v4.5H63z"/>
    <path fill="#F4B400" d="M11.25 11.25h85.5c3.729 0 6.75 3.02 6.75 6.75v72c0 3.729-3.021 6.75-6.75 6.75h-85.5c-3.73 0-6.75-3.021-6.75-6.75V18c0-3.73 3.02-6.75 6.75-6.75zm2.25 76.5h81v-67.5h-81z"/>
    <path fill="#BF360C" fill-opacity=".2" d="M83.216 87.75h-20.25l8.995 9h20.238z"/>
  </g>
</svg>
