<svg xmlns="http://www.w3.org/2000/svg" viewBox="0 0 24 24">
  <g transform="scale(0.222222)" fill="currentColor" fill-rule="evenodd" clip-rule="evenodd">
    <path d="M11.25 11.25h85.5c3.729 0 6.75 3.02 6.75 6.75v72c0 3.729-3.021 6.75-6.75 6.75h-85.5c-3.73 0-6.75-3.021-6.75-6.75V18c0-3.73 3.02-6.75 6.75-6.75zm49.5 33.751c0 3.73-3.02 6.75-6.744 6.75a6.753 6.753 0 01-6.756-6.75 6.756 6.756 0 016.756-6.75c3.723 0 6.744 3.026 6.744 6.75zM36 56.25a5.063 5.063 0 100-10.126 5.063 5.063 0 000 10.126zm41.063-5.063a5.063 5.063 0 11-10.126 0 5.063 5.063 0 0110.126 0zM38.25 65.251c0-4.973 8.156-9 15.75-9 7.594 0 15.75 4.027 15.75 9v4.5h-31.5zM60.75 66.055c0-3.555 5.828-6.429 11.25-6.429s11.25 2.874 11.25 6.43v3.695h-22.5zm-36 0c0-3.555 5.828-6.429 11.25-6.429 5.423 0 11.25 2.874 11.25 6.43v3.695h-22.5zM63 83.251h20.25v4.5H63z"/>
  </g>
</svg>
