<svg xmlns="http://www.w3.org/2000/svg" viewBox="0 0 24 24"><g transform="translate(0 0) scale(0.0938)">
<path d="M0 0 C84.48 0 168.96 0 256 0 C256 84.48 256 168.96 256 256 C171.52 256 87.04 256 0 256 C0 171.52 0 87.04 0 0 Z " fill="currentColor" fill-opacity="0.6" transform="translate(0,0)"/>
<path d="M0 0 C21.72289 5.17212 38.41782 19.02545 51 37 C48.55468 32.48642 46.05294 28.63766 42.5625 24.875 C41.77875 24.0268 40.995 23.17859 40.1875 22.30469 C37.83366 19.82474 35.45474 17.38035 33 15 C32.01 14.01 32.01 14.01 31 13 C31 11.68 31 10.36 31 9 C36.84334 10.89049 40.72456 14.72456 45 19 C46.98 19.99 46.98 19.99 49 21 C64.32888 39.61952 67.10746 59.34999 66 83 C65.07557 90.29474 63.38958 97.05984 61 104 C64.52382 101.45395 64.52382 101.45395 67 98 C66.9909 92.53771 66.86688 87.0819 66.74219 81.62109 C66.99334 76.14516 68.00073 72.07144 70 67 C76.63008 76.94512 73.90069 95.82879 71.875 107.125 C70.72267 112.11285 68.96367 116.48702 66.8125 121.125 C64.06314 127.08869 63.65397 131.54278 63.96875 138.03516 C64.0718 147.81234 57.63041 157.85833 51.22656 164.88281 C45.79141 170.05097 39.69577 174.84672 33.21094 178.625 C30.7829 179.91864 30.7829 179.91864 29.25 182.6875 C23.31719 191.42191 15.74067 195.49009 6 199 C5.23301 199.34031 4.46602 199.68062 3.67578 200.03125 C-9.46085 204.78729 -24.24815 204.39125 -38 204 C-38 204.66 -38 205.32 -38 206 C-37.34 206.33 -36.68 206.66 -36 207 C-43.17853 207.32143 -49.25655 206.44766 -56.21484 204.65625 C-60.03278 203.75665 -62.14029 204.03507 -66 205 C-83.01508 200.12201 -98.31672 192.14861 -112 181 C-113.16596 180.08154 -113.16596 180.08154 -114.35547 179.14453 C-135.61024 161.50119 -147.66148 134.89894 -151 108 C-151.33 109.98 -151.66 111.96 -152 114 C-152.33 114 -152.66 114 -153 114 C-153.02708 110.14587 -153.04643 106.29169 -153.0625 102.4375 C-153.0741 100.29121 -153.0857 98.14492 -153.09766 95.93359 C-153.02405 91.46155 -152.79829 87.38114 -152 83 C-152.99 83.99 -152.99 83.99 -154 85 C-152.86706 74.24908 -150.59921 63.32601 -144.3125 54.375 C-139.5962 47.06676 -139.91736 38.96255 -139.58203 30.48828 C-138.63899 21.5958 -134.35637 14.62364 -130 7 C-129.34 7 -128.68 7 -128 7 C-127.87625 7.68965 -127.7525 8.3793 -127.625 9.08984 C-127.41875 10.02957 -127.2125 10.9693 -127 11.9375 C-126.81437 12.85402 -126.62875 13.77055 -126.4375 14.71484 C-124.09361 20.07141 -121.41299 23.14406 -117 27 C-110.13628 28.16243 -110.13628 28.16243 -102.75 27.6875 C-100.26984 27.62949 -97.78969 27.57148 -95.23438 27.51172 C-89.18963 27.40527 -89.18963 27.40527 -85 25 C-84.505 23.515 -84.505 23.515 -84 22 C-76.57664 16.30498 -69.16429 15.02914 -60 15 C-60.33 15.66 -60.66 16.32 -61 17 C-61.66 17 -62.32 17 -63 17 C-63.66 18.32 -64.32 19.64 -65 21 C-66.14855 22.61718 -67.3167 24.22056 -68.5 25.8125 C-71.28888 29.77994 -73.42108 33.07921 -74 38 C-72.47601 41.60944 -71.28375 42.81083 -68 45 C-64.52594 45.25162 -61.04434 45.40441 -57.5625 45.5 C-47.44364 45.77818 -47.44364 45.77818 -43 48 C-42.66264 51.54225 -42.85545 53.69118 -44.375 56.9375 C-48.02636 61.19742 -52.32659 63.95034 -57 67 C-57.85207 67.58652 -58.70414 68.17305 -59.58203 68.77734 C-65.73221 73 -65.73221 73 -68 73 C-67.89301 73.74766 -67.78602 74.49531 -67.67578 75.26562 C-67.5559 76.25047 -67.43602 77.23531 -67.3125 78.25 C-67.18488 79.22453 -67.05727 80.19906 -66.92578 81.20312 C-67 84 -67 84 -70 88 C-70.72187 87.64938 -71.44375 87.29875 -72.1875 86.9375 C-75.36324 85.87892 -76.86523 85.89859 -80 87 C-82.62758 90.94137 -82.35403 93.3268 -82 98 C-79.55434 103.84241 -74.60526 106.95799 -69.4375 110.3125 C-62.59584 112.91426 -55.8854 113.42317 -48.91797 110.87109 C-46.93686 109.95973 -44.95638 109.04698 -42.97656 108.13281 C-37.11514 105.90209 -31.17161 105.74428 -25.31641 108.0625 C-22.21836 109.72801 -19.49265 111.50735 -17 114 C-16.8125 117.0625 -16.8125 117.0625 -17 120 C-18 121 -18 121 -22.375 121.625 C-27.8996 122.66381 -31.65548 125.11737 -36.25 128.25 C-43.86622 133.09669 -51.77174 135.09325 -60.6875 135.5625 C-62.23824 135.64629 -63.78898 135.73008 -65.38672 135.81641 C-66.5791 135.87699 -67.77148 135.93758 -69 136 C-62.37622 143.02121 -56.43874 144.60805 -47 146 C-47 146.33 -47 146.66 -47 147 C-48.65 147.33 -50.3 147.66 -52 148 C-38.71571 153.83467 -24.62194 153.67038 -11 149 C-11 149.66 -11 150.32 -11 151 C-10.27812 150.0925 -9.55625 149.185 -8.8125 148.25 C-6.34865 145.40288 -4.0696 143.15702 -1 141 C-0.34 141 0.32 141 1 141 C1 142.32 1 143.64 1 145 C6.6856 143.1048 8.77126 139.9533 11.55078 134.94141 C15.86687 126.18125 18.58415 117.65354 20 108 C20.99 108.99 21.98 109.98 23 111 C27.07009 104.89487 25.17042 95.33046 25.125 88.3125 C25.10695 84.71988 25.08891 81.12727 25.07031 77.42578 C25.04711 74.64527 25.02391 71.86477 25 69 C29.62192 72.69754 31.36433 74.9239 34 80 C34.83547 61.09354 29.20402 44.64482 17 30 C16.05125 28.845 15.1025 27.69 14.125 26.5 C13.42375 25.675 12.7225 24.85 12 24 C19.34866 24.38677 25.07024 29.04682 31 33 C22.96006 20.67076 14.90823 11.49904 2.8125 3 C1.42031 2.01 1.42031 2.01 0 1 C0 0.67 0 0.34 0 0 Z " fill="currentColor" fill-opacity="0.15" transform="translate(168,31)"/>
<path d="M0 0 C3.31998 -0.02127 3.31998 -0.02127 6.70703 -0.04297 C28.56232 0.73428 50.13222 9.68277 67.1875 23.1875 C68.1775 23.8475 69.1675 24.5075 70.1875 25.1875 C70.1875 24.5275 70.1875 23.8675 70.1875 23.1875 C70.8475 23.5175 71.5075 23.8475 72.1875 24.1875 C72.29063 24.95063 72.39375 25.71375 72.5 26.5 C73.42728 30.1248 75.27741 30.88765 78.1875 33.1875 C83.26026 38.85961 87.87234 44.92355 92.1875 51.1875 C91.8575 51.8475 91.5275 52.5075 91.1875 53.1875 C90.22264 51.86299 90.22264 51.86299 89.23828 50.51172 C77.40174 34.79157 62.70975 22.10629 43.1875 17.1875 C44.1659 17.96674 44.1659 17.96674 45.16406 18.76172 C46.97705 20.20837 48.7868 21.65909 50.59375 23.11328 C52.48 24.62171 54.38959 26.10109 56.3125 27.5625 C62.72511 33.41749 67.98901 40.60313 72.1875 48.1875 C71.8575 48.8475 71.5275 49.5075 71.1875 50.1875 C70.21812 49.28 69.24875 48.3725 68.25 47.4375 C64.23092 43.96199 60.10176 42.1532 55.1875 40.1875 C54.8575 40.5175 54.5275 40.8475 54.1875 41.1875 C55.1775 42.05375 56.1675 42.92 57.1875 43.8125 C67.71329 54.40221 74.90818 71.12642 75.28516 86.05469 C75.26775 88.03855 75.26775 88.03855 75.25 90.0625 C75.24098 91.40055 75.23195 92.73859 75.22266 94.11719 C75.20525 95.63699 75.20525 95.63699 75.1875 97.1875 C72.1875 93.1875 69.1875 89.1875 66.1875 85.1875 C66.2107 87.86102 66.23391 90.53453 66.25781 93.28906 C66.27586 96.7618 66.29391 100.23453 66.3125 103.8125 C66.3357 107.26977 66.35891 110.72703 66.38281 114.28906 C66.1875 123.1875 66.1875 123.1875 64.1875 129.1875 C62.1875 126.1875 62.1875 126.1875 61.1875 124.1875 C61.02895 124.90293 60.87039 125.61836 60.70703 126.35547 C54.37554 153.39547 54.37554 153.39547 44.1875 160.1875 C43.1975 160.1875 42.2075 160.1875 41.1875 160.1875 C41.1875 158.8675 41.1875 157.5475 41.1875 156.1875 C40.01188 157.1775 40.01188 157.1775 38.8125 158.1875 C36.1875 160.1875 36.1875 160.1875 34.1875 160.1875 C33.5275 161.5075 32.8675 162.8275 32.1875 164.1875 C31.1975 165.1775 30.2075 166.1675 29.1875 167.1875 C28.5275 166.8575 27.8675 166.5275 27.1875 166.1875 C24.96642 166.08681 24.96642 166.08681 22.10547 167.16406 C11.1739 170.01957 -1.65474 169.38979 -11.8125 164.1875 C-12.1425 163.5275 -12.4725 162.8675 -12.8125 162.1875 C-11.8225 161.8575 -10.8325 161.5275 -9.8125 161.1875 C-11.44187 161.0225 -13.07125 160.8575 -14.75 160.6875 C-21.41454 159.52207 -25.38563 156.1609 -29.8125 151.1875 C-29.8125 150.8575 -29.8125 150.5275 -29.8125 150.1875 C-28.07227 150.14883 -28.07227 150.14883 -26.29688 150.10938 C-12.8089 149.61971 -2.80263 148.0433 8.03125 139.77344 C12.63002 136.39101 16.62501 135.74375 22.1875 135.1875 C22.85762 132.40158 22.85762 132.40158 22.1875 129.1875 C14.58707 123.67106 9.44371 122.17223 0.1875 123.1875 C-2.83986 124.26536 -2.83986 124.26536 -5.75 125.6875 C-12.80861 128.92116 -19.98092 129.95956 -27.42188 127.23047 C-33.52987 124.00225 -40.07026 119.73841 -42.8125 113.1875 C-43.29721 108.7559 -43.28592 106.11541 -41.25 102.125 C-38.8125 100.1875 -38.8125 100.1875 -35.25 100.375 C-34.11562 100.64312 -32.98125 100.91125 -31.8125 101.1875 C-30.8225 101.1875 -29.8325 101.1875 -28.8125 101.1875 C-28.00266 96.22334 -28.00266 96.22334 -28.1875 91.22656 C-27.8125 88.1875 -27.8125 88.1875 -25.03125 85.84375 C-23.80406 85.13219 -22.57688 84.42063 -21.3125 83.6875 C-20.03891 82.92051 -18.76531 82.15352 -17.45312 81.36328 C-16.25172 80.64527 -15.05031 79.92727 -13.8125 79.1875 C-9.40535 76.23419 -6.24583 74.05415 -3.8125 69.1875 C-3.64525 66.02054 -3.64525 66.02054 -3.8125 63.1875 C-9.78555 61.19648 -16.58156 61.94588 -22.83594 61.85938 C-27.8125 61.1875 -27.8125 61.1875 -30.85156 58.95312 C-32.73307 56.29952 -34.08967 54.35799 -34.8125 51.1875 C-32.85738 44.11628 -27.67273 37.56191 -22.8125 32.1875 C-22.1525 31.8575 -21.4925 31.5275 -20.8125 31.1875 C-29.77505 31.21878 -36.46457 32.94063 -43.8125 38.1875 C-44.45316 39.06664 -45.09383 39.94578 -45.75391 40.85156 C-50.94175 44.81367 -56.45765 43.84532 -62.8125 43.8125 C-65.30813 43.82539 -67.80375 43.83828 -70.375 43.85156 C-76.8125 43.1875 -76.8125 43.1875 -80.25 40.89844 C-81.8125 38.1875 -81.8125 38.1875 -80.8125 34.1875 C-60.44606 11.02567 -30.2101 0.08767 0 0 Z " fill="currentColor" fill-opacity="0.6" transform="translate(127.8125,15.8125)"/>
<path d="M0 0 C3.31998 -0.02127 3.31998 -0.02127 6.70703 -0.04297 C22.22694 0.50897 36.34456 5.42432 50.1875 12.1875 C50.1875 12.5175 50.1875 12.8475 50.1875 13.1875 C46.5575 13.1875 42.9275 13.1875 39.1875 13.1875 C38.6925 11.7025 38.6925 11.7025 38.1875 10.1875 C36.5375 10.1875 34.8875 10.1875 33.1875 10.1875 C31.8675 9.8575 30.5475 9.5275 29.1875 9.1875 C29.1875 8.5275 29.1875 7.8675 29.1875 7.1875 C28.46047 7.36023 27.73344 7.53297 26.98438 7.71094 C23.42686 8.31711 20.12351 7.88408 16.55469 7.51172 C3.95532 6.29855 -8.63381 5.18655 -21.10156 7.68359 C-23.6093 8.14973 -26.15012 8.42726 -28.6875 8.6875 C-32.31984 9.12778 -34.53291 9.74768 -37.8125 11.1875 C-39.2975 11.57937 -40.7825 11.97125 -42.3125 12.375 C-56.78549 16.66729 -67.87826 26.23553 -78.8125 36.1875 C-76.95721 40.10481 -76.95721 40.10481 -74.8125 43.1875 C-78.8125 41.1875 -78.8125 41.1875 -81.8125 38.1875 C-79.01888 27.013 -64.04336 19.4037 -54.86719 13.76172 C-37.53072 3.975 -19.74604 0.0573 0 0 Z " fill="currentColor" fill-opacity="0.6" transform="translate(127.8125,15.8125)"/>
<path d="M0 0 C4.10402 -0.05444 8.20825 -0.09299 12.3125 -0.125 C15.74076 -0.1598 15.74076 -0.1598 19.23828 -0.19531 C34.87447 0.25634 49.05994 5.18937 63 12 C63 12.33 63 12.66 63 13 C59.37 13 55.74 13 52 13 C51.505 11.515 51.505 11.515 51 10 C49.35 10 47.7 10 46 10 C44.68 9.67 43.36 9.34 42 9 C42 8.34 42 7.68 42 7 C41.27297 7.17273 40.54594 7.34547 39.79688 7.52344 C36.24058 8.1294 32.93864 7.69695 29.37109 7.32422 C25.35499 6.93797 21.3398 6.68019 17.3125 6.4375 C15.92676 6.35371 14.54102 6.26992 13.11328 6.18359 C9.06921 6.00309 5.04748 5.9682 1 6 C1.33 5.01 1.66 4.02 2 3 C5.99996 2.97289 9.99998 2.95356 14 2.9375 C17.34125 2.9201 17.34125 2.9201 20.75 2.90234 C25.6261 2.97853 30.19387 3.25199 35 4 C27.24049 2.21604 19.82649 1.6261 11.875 1.375 C9.64492 1.30023 7.41484 1.22547 5.11719 1.14844 C3.42852 1.09945 1.73984 1.05047 0 1 C0 0.67 0 0.34 0 0 Z " fill="currentColor" fill-opacity="0.6" transform="translate(115,16)"/>
<path d="M0 0 C6.41856 3.416 12.19367 7.64525 18 12 C18 11.34 18 10.68 18 10 C18.66 10.33 19.32 10.66 20 11 C20.15469 12.14469 20.15469 12.14469 20.3125 13.3125 C21.23978 16.9373 23.08991 17.70015 26 20 C31.07276 25.67211 35.68484 31.73605 40 38 C39.505 38.99 39.505 38.99 39 40 C38.35676 39.11699 37.71352 38.23398 37.05078 37.32422 C25.40813 21.86158 11.05648 9.41392 -8 4.125 C-9.32 3.75375 -10.64 3.3825 -12 3 C-12.33 2.01 -12.66 1.02 -13 0 C-8.85802 -2.07099 -4.3031 -1.10257 0 0 Z " fill="currentColor" fill-opacity="0.6" transform="translate(180,29)"/>
<path d="M0 0 C0.33 0 0.66 0 1 0 C1.41172 5.33025 1.72609 10.66093 2 16 C2.09152 17.66547 2.18305 19.33094 2.27734 21.04688 C2.3302 22.70203 2.38305 24.35719 2.4375 26.0625 C2.49809 27.60035 2.55867 29.1382 2.62109 30.72266 C1.84565 36.06296 -0.22207 38.26179 -4 42 C-4.66 41.67 -5.32 41.34 -6 41 C-5.72285 40.07059 -5.4457 39.14117 -5.16016 38.18359 C-4.79793 36.94738 -4.4357 35.71117 -4.0625 34.4375 C-3.70285 33.21934 -3.3432 32.00117 -2.97266 30.74609 C-1.14705 23.71494 -0.76897 16.80752 -0.4375 9.5625 C-0.35371 7.76941 -0.26992 5.97633 -0.18359 4.12891 C-0.12301 2.76637 -0.06242 1.40383 0 0 Z " fill="currentColor" fill-opacity="0.6" transform="translate(234,94)"/>
<path d="M0 0 C3.93913 1.97927 7.53866 4.26842 11 7 C11 7.33 11 7.66 11 8 C3.82286 8.59809 -0.88471 7.12339 -7.39844 4.09375 C-9.99057 2.80622 -9.99057 2.80622 -13 3 C-13 2.01 -13 1.02 -13 0 C-8.95293 -2.02353 -4.25129 -0.98271 0 0 Z " fill="currentColor" fill-opacity="0.6" transform="translate(180,29)"/>
<path d="M0 0 C0.33 0.66 0.66 1.32 1 2 C-0.27531 4.83859 -1.67198 7.62314 -3.125 10.375 C-4.30449 12.64504 -4.30449 12.64504 -5.50781 14.96094 C-8.85806 20.39065 -12.00704 22.94527 -18 25 C-13.78077 17.98604 -9.20028 11.56763 -3.91797 5.3125 C-1.89413 2.95409 -1.89413 2.95409 0 0 Z " fill="currentColor" fill-opacity="0.6" transform="translate(228,165)"/>
<path d="M0 0 C0.66 0.33 1.32 0.66 2 1 C-1.33466 4.54308 -4.87271 7.44036 -8.79688 10.30859 C-12.7195 13.32011 -16.3481 16.66933 -20 20 C-18.14471 23.91731 -18.14471 23.91731 -16 27 C-20 25 -20 25 -23 22 C-20.45758 11.83033 -8.14292 5.58111 0 0 Z " fill="currentColor" fill-opacity="0.6" transform="translate(69,32)"/>
<path d="M0 0 C-4 1 -4 1 -11 0 C-16.97879 -0.07001 -22.95834 -0.0844 -28.9375 -0.0625 C-32.12277 -0.05348 -35.30805 -0.04445 -38.58984 -0.03516 C-42.25787 -0.01775 -42.25787 -0.01775 -46 0 C-33.0594 -6.4703 -13.50395 -4.51027 0 0 Z " fill="currentColor" fill-opacity="0.6" transform="translate(153,20)"/>
<path d="M0 0 C-1.98 0.99 -1.98 0.99 -4 2 C-1.03 2.495 -1.03 2.495 2 3 C-0.44357 5.44357 -1.7576 5.50439 -5.125 6.0625 C-6.1034 6.22621 -7.0818 6.38992 -8.08984 6.55859 C-11.71927 7.1091 -15.35241 7.58706 -19 8 C-19 7.34 -19 6.68 -19 6 C-18.01 5.67 -17.02 5.34 -16 5 C-16.99 4.34 -17.98 3.68 -19 3 C-12.52212 0.99948 -6.8589 -0.38824 0 0 Z " fill="currentColor" fill-opacity="0.6" transform="translate(115,17)"/>
<path d="M0 0 C4.89097 0.59444 8.88044 2.06963 13.375 4.0625 C14.62023 4.61035 15.86547 5.1582 17.14844 5.72266 C18.08945 6.14418 19.03047 6.5657 20 7 C20 7.33 20 7.66 20 8 C16.37 8 12.74 8 9 8 C8.67 7.01 8.34 6.02 8 5 C6.35 5 4.7 5 3 5 C1.68 4.67 0.36 4.34 -1 4 C-0.67 2.68 -0.34 1.36 0 0 Z " fill="currentColor" fill-opacity="0.6" transform="translate(158,21)"/>
<path d="M0 0 C0.66 0.33 1.32 0.66 2 1 C-0.03079 2.34984 -2.07515 3.67929 -4.125 5 C-5.83043 6.11375 -5.83043 6.11375 -7.57031 7.25 C-11.12242 9.06247 -13.08486 9.3808 -17 9 C-13.74079 5.74079 -11.15077 4.54511 -6.9375 2.75 C-5.6884 2.20859 -4.4393 1.66719 -3.15234 1.10938 C-2.11207 0.74328 -1.0718 0.37719 0 0 Z " fill="currentColor" fill-opacity="0.6" transform="translate(189,214)"/>
<path d="M0 0 C4.43737 -0.05379 8.87492 -0.09269 13.3125 -0.125 C15.78363 -0.1482 18.25477 -0.17141 20.80078 -0.19531 C27 0 27 0 30 2 C23.08751 3.01988 16.92201 2.80241 10 2 C8.10442 1.80994 6.2086 1.62229 4.3125 1.4375 C2.88938 1.29312 1.46625 1.14875 0 1 C0 0.67 0 0.34 0 0 Z " fill="currentColor" fill-opacity="0.6" transform="translate(131,21)"/>
<path d="M0 0 C0.33 0 0.66 0 1 0 C1.16989 2.49978 1.33576 4.99984 1.5 7.5 C1.59281 8.89219 1.68562 10.28437 1.78125 11.71875 C2.22222 20.34921 2.22222 20.34921 2 24 C1.01 24.66 0.02 25.32 -1 26 C-0.67 17.42 -0.34 8.84 0 0 Z " fill="currentColor" fill-opacity="0.35" transform="translate(234,94)"/>
<path d="M0 0 C1.89492 0.01354 1.89492 0.01354 3.82812 0.02734 C4.79234 0.03895 5.75656 0.05055 6.75 0.0625 C2.70817 4.10433 -5.34943 3.11713 -10.875 3.125 C-12.31875 3.10438 -13.7625 3.08375 -15.25 3.0625 C-9.89933 0.38716 -5.88961 -0.05453 0 0 Z " fill="currentColor" fill-opacity="0.6" transform="translate(122.25,16.9375)"/>
<path d="M0 0 C4.10811 1.44992 7.46856 3.45408 11 6 C11 6.33 11 6.66 11 7 C2.25 7.125 2.25 7.125 0 6 C0 5.34 0 4.68 0 4 C0.99 4 1.98 4 3 4 C3 3.34 3 2.68 3 2 C2.01 1.67 1.02 1.34 0 1 C0 0.67 0 0.34 0 0 Z " fill="currentColor" fill-opacity="0.6" transform="translate(180,30)"/>
<path d="M0 0 C0.66 0.66 1.32 1.32 2 2 C-0.62652 5.59931 -2.93964 8.07667 -7 10 C-7.66 9.67 -8.32 9.34 -9 9 C-4.5 2.25 -4.5 2.25 0 0 Z " fill="currentColor" fill-opacity="0.6" transform="translate(219,180)"/>
<path d="M0 0 C0.33 0 0.66 0 1 0 C1.33 2.64 1.66 5.28 2 8 C2.66 7.67 3.32 7.34 4 7 C4 10.63 4 14.26 4 18 C3.67 17.34 3.34 16.68 3 16 C2.01 16 1.02 16 0 16 C0 10.72 0 5.44 0 0 Z " fill="currentColor" fill-opacity="0.6" transform="translate(14,131)"/>
<path d="M0 0 C0.66 0.33 1.32 0.66 2 1 C-1.61766 4.94653 -5.18357 7.63722 -10 10 C-10.66 9.67 -11.32 9.34 -12 9 C-10.3768 7.68527 -8.75139 6.37328 -7.125 5.0625 C-6.22008 4.3316 -5.31516 3.6007 -4.38281 2.84766 C-2 1 -2 1 0 0 Z " fill="currentColor" fill-opacity="0.6" transform="translate(69,32)"/>
<path d="M0 0 C-1.32 0.99 -2.64 1.98 -4 3 C-4 3.33 -4 3.66 -4 4 C-8.455 4.495 -8.455 4.495 -13 5 C-12.67 3.68 -12.34 2.36 -12 1 C-7.83532 -0.04117 -4.27315 -0.07122 0 0 Z " fill="currentColor" fill-opacity="0.6" transform="translate(115,17)"/>
<path d="M0 0 C4.99163 0.47996 6.85036 0.88777 11 4 C7.37 4 3.74 4 0 4 C0 2.68 0 1.36 0 0 Z " fill="currentColor" fill-opacity="0.6" transform="translate(167,25)"/>
<path d="M0 0 C4.90796 0.43306 7.42553 2.75804 11 6 C10.01 6.66 9.02 7.32 8 8 C6.66372 6.8576 5.33105 5.71099 4 4.5625 C3.2575 3.92441 2.515 3.28633 1.75 2.62891 C1.1725 2.09137 0.595 1.55383 0 1 C0 0.67 0 0.34 0 0 Z " fill="currentColor" fill-opacity="0.6" transform="translate(195,43)"/>
<path d="M0 0 C1.44754 4.34263 0.07504 7.63659 -1 12 C-1.33 11.34 -1.66 10.68 -2 10 C-2.66 10 -3.32 10 -4 10 C-3.06588 6.26352 -1.77257 3.391 0 0 Z " fill="currentColor" fill-opacity="0.6" transform="translate(17,109)"/>
<path d="M0 0 C0.99 0 1.98 0 3 0 C3 0.66 3 1.32 3 2 C2.34 2 1.68 2 1 2 C0.34 4.31 -0.32 6.62 -1 9 C-1.33 9 -1.66 9 -2 9 C-1.125 1.125 -1.125 1.125 0 0 Z " fill="currentColor" fill-opacity="0.15" transform="translate(16,107)"/>
<path d="M0 0 C0.66 0.33 1.32 0.66 2 1 C0.02 2.32 -1.96 3.64 -4 5 C-5.32 4.34 -6.64 3.68 -8 3 C-5.35865 1.93494 -2.68938 0.93721 0 0 Z " fill="currentColor" fill-opacity="0.6" transform="translate(189,214)"/>
<path d="M0 0 C0.66 1.32 1.32 2.64 2 4 C0.68 4.99 -0.64 5.98 -2 7 C-2.66 6.67 -3.32 6.34 -4 6 C-2.68 4.02 -1.36 2.04 0 0 Z " fill="currentColor" fill-opacity="0.6" transform="translate(214,183)"/>
<path d="M0 0 C0.66 0.66 1.32 1.32 2 2 C1.34 2 0.68 2 0 2 C0 2.66 0 3.32 0 4 C-1.98 3.34 -3.96 2.68 -6 2 C-6 1.67 -6 1.34 -6 1 C-3.125 0.375 -3.125 0.375 0 0 Z " fill="currentColor" fill-opacity="0.6" transform="translate(121,177)"/>
<path d="M0 0 C0.33 0.66 0.66 1.32 1 2 C1.66 2 2.32 2 3 2 C2.34 3.32 1.68 4.64 1 6 C0.01 6 -0.98 6 -2 6 C-1.34 4.02 -0.68 2.04 0 0 Z " fill="currentColor" fill-opacity="0.6" transform="translate(230,129)"/>
<path d="M0 0 C0.99 0.99 1.98 1.98 3 3 C-1 5 -1 5 -3 5 C-1 1 -1 1 0 0 Z " fill="currentColor" fill-opacity="0.6" transform="translate(219,177)"/>
<path d="M0 0 C0.66 0 1.32 0 2 0 C3.6875 2.375 3.6875 2.375 5 5 C4.67 5.66 4.34 6.32 4 7 C2 5.1875 2 5.1875 0 3 C0 2.01 0 1.02 0 0 Z " fill="currentColor" fill-opacity="0.6" transform="translate(195,59)"/>
<path d="M0 0 C0.99 0.33 1.98 0.66 3 1 C3.33 1.99 3.66 2.98 4 4 C2.68 4.33 1.36 4.66 0 5 C0 3.35 0 1.7 0 0 Z " fill="currentColor" fill-opacity="0.6" transform="translate(172,28)"/>
<path d="M0 0 C1.66028 0.00396 2.99621 1.33988 3.00017 3.00017 C2.99621 4.66045 1.66028 5.99637 0 6.00033 C-1.66028 5.99637 -2.99621 4.66045 -3.00017 3.00017 C-2.99621 1.33988 -1.66028 0.00396 0 0 Z " fill="currentColor" fill-opacity="0.6" transform="translate(192,37.99983443)"/>
<path d="M0 0 C1.32 0.33 2.64 0.66 4 1 C3.67 1.66 3.34 2.32 3 3 C0.03 2.505 0.03 2.505 -3 2 C-2.01 1.34 -1.02 0.68 0 0 Z " fill="currentColor" fill-opacity="0.6" transform="translate(99,19)"/>
<path d="M0 0 C1.32 1.32 2.64 2.64 4 4 C3.01 4.33 2.02 4.66 1 5 C0.505 2.525 0.505 2.525 0 0 Z " fill="currentColor" fill-opacity="0.35" transform="translate(202,46)"/>
<path d="M0 0 C0.66 0.33 1.32 0.66 2 1 C2 1.66 2 2.32 2 3 C0.35 3 -1.3 3 -3 3 C-2.01 2.01 -1.02 1.02 0 0 Z " fill="currentColor" fill-opacity="0.6" transform="translate(175,220)"/>
<path d="M0 0 C0.99 0.33 1.98 0.66 3 1 C2.01 1.99 1.02 2.98 0 4 C0 2.68 0 1.36 0 0 Z " fill="currentColor" fill-opacity="0.6" transform="translate(233,128)"/>
<path d="M0 0 C1.32 0 2.64 0 4 0 C3.67 0.99 3.34 1.98 3 3 C2.34 3 1.68 3 1 3 C0.67 2.01 0.34 1.02 0 0 Z " fill="currentColor" fill-opacity="0.6" transform="translate(179,218)"/>
<path d="M0 0 C0.99 0.33 1.98 0.66 3 1 C2.67 1.66 2.34 2.32 2 3 C1.34 3 0.68 3 0 3 C0 2.01 0 1.02 0 0 Z " fill="currentColor" fill-opacity="0.15" transform="translate(213,50)"/>
</g></svg>
