<svg xmlns="http://www.w3.org/2000/svg" viewBox="0 0 24 24">
  <g fill="currentColor" transform="translate(2.35 1.5)">
    <path d="M16.9 0H2.4C1.1 0 0 1.1 0 2.4c0 1.3 1.1 2.4 2.4 2.4h14.5c1.3 0 2.4-1.1 2.4-2.4 0-1.3-1.1-2.4-2.4-2.4z"/>
    <circle cx="16.9" cy="2.4" r="2.4"/>
    <path d="M11.4 6.3H2.2C1 6.3 0 7.3 0 8.5c0 1.2 1 2.2 2.2 2.2h9.1c1.2 0 2.2-1 2.2-2.2.1-1.2-.9-2.2-2.1-2.2z"/>
    <circle cx="2.2" cy="8.5" r="2.2"/>
    <path d="M6.4 12.1H2.1c-1.1 0-2.1.9-2.1 2s.9 2.1 2.1 2.1h4.3c1.1 0 2.1-.9 2.1-2.1-.1-1.1-1-2-2.1-2z"/>
    <circle cx="6.4" cy="14.1" r="2.1"/>
    <circle cx="1.9" cy="19.1" r="1.9"/>
  </g>
</svg>
