<svg xmlns="http://www.w3.org/2000/svg" viewBox="0 0 24 24"><defs><radialGradient cy="0" cx="0.5" id="r"><stop offset="0" stop-color="#f06b59"/><stop offset="1" stop-color="#df2227"/></radialGradient><radialGradient r="0.76" cy="0.3" cx="0.65" id="g"><stop offset="0.65" stop-color="#4cb749"/><stop offset="1" stop-color="#388b41"/></radialGradient><radialGradient r="0.8" cy="0.25" cx="0.36" id="y"><stop offset="0.6" stop-color="#FCD209"/><stop offset="0.7" stop-color="#f7c616"/><stop offset="1" stop-color="#bc821e"/></radialGradient><radialGradient r="1" cy="0" cx="0.5" spreadMethod="pad" id="cf"><stop offset="0.1" stop-color="#7FB3DF"/><stop offset="0.9" stop-color="#0F5B94"/></radialGradient><radialGradient id="cb" r="1" cy="0" cx="0.5"><stop offset="0" stop-color="#F6F0EE"/><stop offset="1" stop-color="#ddd"/></radialGradient></defs><g transform="translate(-1.65718 -1.65718) scale(.10691)"><path d="M198 148a70 70 0 0 0-140 0h20a50 50 0 0 1 100 0" fill-opacity="0.1"/><circle r="45" cx="127.5" cy="127.6" fill="url(#cf)" stroke="url(#cb)" stroke-width="9"/><path d="M228 78A112 112 0 0 0 35 65l45 78a50 50 0 0 1 47-65" fill="url(#r)"/><path d="M35 65a112 112 0 0 0 84 174l47-80a50 50 0 0 1-86-16" fill="url(#g)"/><path d="M119 239A112 112 0 0 0 228 78H127a50 50 0 0 1 39 81" fill="url(#y)"/><path d="m35 65 45 78a50 50 0 0 1 2-34l-45-47" opacity="0.075"/><path d="m119 239 47-80a50 50 0 0 1-29 17l-20 63" opacity="0.05"/><path d="M228 78H127a50 50 0 0 1 39 19l64-16" opacity="0.05"/></g></svg>
