<svg xmlns="http://www.w3.org/2000/svg" viewBox="0 0 24 24">
  <path fill="#7C94A6" d="M5.092 12.985V9.648h.345c.316 0 .348.011.38.142l.036.141.166-.165c.2-.202.614-.27 1.266-.208.516.048.894.22 1.039.473.156.273.22.882.22 2.105 0 2.27-.135 2.498-1.498 2.538-.457.013-.755-.003-.835-.046-.124-.066-.124-.065-.124.814v.88h-.995zm2.326.72c.092-.141.104-.32.104-1.604 0-1.329-.01-1.456-.11-1.566-.13-.145-.518-.214-.886-.159-.432.065-.448.132-.427 1.815.021 1.742-.009 1.672.728 1.672.465 0 .492-.007.59-.158m-6.353.87c-.817-.29-.949-.76-.949-3.376 0-3.191.186-3.5 2.107-3.503 1.283-.002 1.738.21 1.971.915.148.446.19 4.247.054 4.896-.115.551-.297.83-.66 1.007-.256.126-.369.14-1.248.155-.823.013-1.012 0-1.275-.094m1.8-.822c.08-.023.198-.132.263-.243.113-.191.12-.317.138-2.12.02-2.038-.017-2.463-.232-2.658-.097-.087-.236-.113-.704-.13-.621-.02-.851.033-.974.23-.128.205-.183.92-.183 2.367 0 2.003.068 2.4.435 2.55.141.058 1.054.06 1.257.004m7.116.844a1.03 1.03 0 0 1-.617-.658c-.097-.322-.142-2.517-.065-3.144.083-.67.201-.904.544-1.076.347-.174 1.235-.236 1.865-.13.377.064.468.104.65.286.28.28.345.6.345 1.708v.875h-2.459l.001.395c.002.496.08.839.212.935.062.046.28.075.555.075.568 0 .632-.05.709-.556.016-.106.062-.117.485-.117h.468l-.01.366c-.014.477-.193.818-.517.98-.197.099-.37.12-1.083.132-.625.01-.911-.009-1.083-.071m1.737-3.412c-.034-.721-.12-.818-.742-.828-.55-.01-.722.207-.729.915l-.003.366h1.495zm1.746.953v-2.49h.345c.316 0 .348.011.38.142l.036.141.166-.165c.126-.127.245-.176.498-.208.482-.06 1.16.018 1.454.168.509.257.571.597.574 3.127l.001 1.771h-.988l-.018-1.989c-.018-1.98-.019-1.99-.152-2.122-.116-.117-.192-.134-.598-.134-.718 0-.668-.158-.703 2.213l-.029 2.003-.483.017-.483.017zm4.335-.134c.002-2.872.042-3.352.312-3.76.086-.13.255-.274.41-.349.47-.227 1.757-.285 2.466-.111.36.088.642.302.775.585.214.456.25.98.25 3.676v2.58h-1.054v-2.577H18.85v2.576h-1.053zm3.147-1.844c-.037-1.49-.088-1.566-1.042-1.566-.951 0-1.001.075-1.041 1.566l-.027 1.01h2.135zm1.944 1.04V7.773h.995v6.85h-.995z"/>
</svg>
