<svg xmlns="http://www.w3.org/2000/svg" viewBox="0 0 24 24">
  <g transform="translate(3.325 0) scale(0.36923)">
    <path fill="#0F9D58" d="M29.5833 0H4.4375C1.9969 0 0 1.9969 0 4.4375V60.6458C0 63.0865 1.9969 65.0833 4.4375 65.0833H42.8958C45.3365 65.0833 47.3333 63.0865 47.3333 60.6458V17.75L36.9792 10.3542 29.5833 0Z"/>
    <path fill="#87CEAC" d="M29.5833 0V13.3125C29.5833 15.7642 31.5691 17.75 34.0208 17.75H47.3333L29.5833 0Z"/>
    <path fill="#F1F1F1" d="M11.8333 31.8021V53.25H35.5V31.8021H11.8333ZM22.1875 50.2917H14.7917V46.5938H22.1875V50.2917ZM22.1875 44.375H14.7917V40.6771H22.1875V44.375ZM22.1875 38.4583H14.7917V34.7604H22.1875V38.4583ZM32.5417 50.2917H25.1458V46.5938H32.5417V50.2917ZM32.5417 44.375H25.1458V40.6771H32.5417V44.375ZM32.5417 38.4583H25.1458V34.7604H32.5417V38.4583Z"/>
  </g>
</svg>
