<svg xmlns="http://www.w3.org/2000/svg" viewBox="0 0 24 24">
  <g transform="translate(3.325 0) scale(0.36923)">
    <path fill="currentColor" fill-rule="evenodd" d="M29.5833 0H4.4375C1.9969 0 0 1.9969 0 4.4375V60.6458C0 63.0865 1.9969 65.0833 4.4375 65.0833H42.8958C45.3365 65.0833 47.3333 63.0865 47.3333 60.6458V17.75L29.5833 0ZM29.5833 4.4375V13.3125C29.5833 15.7642 31.5691 17.75 34.0208 17.75H42.8958L29.5833 4.4375ZM14.7917 34.7604H22.1875V38.4583H14.7917V34.7604ZM14.7917 40.6771H22.1875V44.375H14.7917V40.6771ZM14.7917 46.5938H22.1875V50.2917H14.7917V46.5938ZM25.1458 34.7604H32.5417V38.4583H25.1458V34.7604ZM25.1458 40.6771H32.5417V44.375H25.1458V40.6771ZM25.1458 46.5938H32.5417V50.2917H25.1458V46.5938Z"/>
  </g>
</svg>
