<svg xmlns="http://www.w3.org/2000/svg" viewBox="0 0 24 24">
  <g transform="scale(0.046875)">
    <path fill="#000000" d="m512,133.82L342.5,0,0,67.88v310.26l169.56,133.86,342.44-67.88V133.82Zm-203.39-84.81v89.67l51.84-10.27v-56.25l74.87,59.09-249.93,49.53-108.71-85.8,231.93-45.96ZM51.84,133.32l99.71,78.7v93.92l51.84-10.27v-76.15l256.78-50.89v210.06l-99.71-78.7v-93.92l-51.84,10.27v76.16l-256.78,50.89v-210.06Zm151.55,329.67v-89.67l-51.84,10.27v56.25l-74.87-59.09,249.93-49.53,108.71,85.8-231.93,45.96Z"/>
  </g>
</svg>
