<svg xmlns="http://www.w3.org/2000/svg" viewBox="0 0 24 24"><defs><linearGradient x1="0%" y1="50.7055163%" x2="100%" y2="50.7055163%" id="brave-2017-a"><stop stop-color="#FF5500" offset="0%"/><stop stop-color="#FF5500" offset="40.9877232%"/><stop stop-color="#FF2000" offset="58.1981215%"/><stop stop-color="#FF2000" offset="100%"/></linearGradient><linearGradient x1="2.1484375%" y1="50.7055163%" x2="100%" y2="50.7055163%" id="brave-2017-b"><stop stop-color="#FF452A" offset="0%"/><stop stop-color="#FF2000" offset="100%"/></linearGradient></defs><g transform="translate(1.79 0) scale(0.09375)"><path fill="url(#brave-2017-a)" d="M209.984 61.285l5.984-14.706s-7.616-8.171-16.864-17.43c-9.248-9.26-28.832-3.813-28.832-3.813L147.968 0H69.632L47.328 25.336s-19.584-5.447-28.832 3.813C9.248 38.408 1.632 46.579 1.632 46.579l5.984 14.706L0 83.072s22.4 84.946 25.024 95.319c5.168 20.426 8.704 28.323 23.392 38.672 14.688 10.35 41.344 28.324 45.696 31.047 4.352 2.724 9.792 7.363 14.688 7.363s10.336-4.639 14.688-7.363c4.352-2.723 31.008-20.697 45.696-31.047 14.688-10.349 18.224-18.246 23.392-38.672 2.624-10.374 25.024-95.32 25.024-95.32z"/><path fill="#FFFFFF" d="M164.016 41.404s28.688 34.723 28.688 42.145c0 7.421-3.609 9.38-7.237 13.238-3.628 3.858-19.476 20.706-21.51 22.87-2.036 2.164-6.272 5.445-3.78 11.35 2.492 5.905 6.168 13.419 2.08 21.04-4.089 7.621-11.093 12.708-15.581 11.867-4.488-.841-15.028-6.356-18.904-8.875-3.876-2.52-16.16-12.664-16.16-16.545 0-3.881 12.698-10.85 15.044-12.433 2.347-1.583 13.047-7.711 13.266-10.116.219-2.406.136-3.111-3.022-9.055-3.158-5.944-8.845-13.875-7.898-19.153.946-5.277 10.118-8.02 16.664-10.496 6.544-2.474 19.146-7.148 20.72-7.875 1.575-.727 1.168-1.42-3.601-1.872-4.769-.452-18.301-2.251-24.402-.548-6.101 1.702-16.524 4.293-17.368 5.666-.844 1.374-1.589 1.42-.722 6.16.866 4.738 5.33 27.477 5.764 31.516.433 4.039 1.281 6.71-3.069 7.705-4.35.996-11.672 2.725-14.188 2.725-2.516 0-9.838-1.729-14.187-2.725-4.35-.995-3.503-3.666-3.069-7.705.434-4.04 4.897-26.778 5.764-31.516.867-4.739.122-4.785-.721-6.16-.844-1.373-11.268-3.964-17.369-5.666-6.1-1.703-19.633.096-24.402.548-4.769.453-5.176 1.145-3.601 1.872 1.574.727 14.176 5.4 20.72 7.875 6.545 2.475 15.717 5.22 16.664 10.496.946 5.278-4.741 13.21-7.9 19.153-3.157 5.944-3.241 6.65-3.022 9.055.22 2.405 10.921 8.533 13.267 10.116 2.346 1.583 15.044 8.552 15.044 12.433s-12.284 14.025-16.16 16.544c-3.876 2.52-14.416 8.035-18.904 8.876-4.488.84-11.492-4.246-15.58-11.867-4.089-7.621-.413-15.135 2.078-21.04 2.493-5.905-1.744-9.185-3.78-11.35-2.034-2.163-17.882-19.011-21.51-22.869-3.629-3.858-7.237-5.816-7.237-13.238 0-7.421 28.688-42.145 28.688-42.145s24.208 4.63 27.472 4.63c3.264 0 10.336-2.724 16.864-4.902 6.528-2.179 10.88-2.195 10.88-2.195s4.352.016 10.88 2.195c6.528 2.178 13.6 4.901 16.864 4.901 3.264 0 27.472-4.63 27.472-4.63zm-21.506 132.824c1.775 1.113.692 3.212-.925 4.357-1.618 1.145-23.357 18-25.466 19.862C113.997 199.61 110.908 202.687 108.8 202.687c-2.108 0-5.208-3.076-7.318-4.94-2.11-1.862-23.848-18.717-25.466-19.862-1.617-1.145-2.7-3.244-.925-4.357 1.776-1.113 7.332-3.922 14.998-7.894 7.666-3.972 17.22-7.349 18.71-7.349 1.492 0 11.046 3.377 18.712 7.35 7.666 3.971 13.222 6.78 14.998 7.893z"/><path fill="url(#brave-2017-b)" d="M170.272 25.336L147.968 0h-78.336L47.328 25.336s-19.584-5.447-28.832 3.813c0 0 26.112-2.36 35.088 12.255 0 0 24.208 4.63 27.472 4.63 3.264 0 10.336-2.723 16.864-4.902 6.528-2.179 10.88-2.195 10.88-2.195s4.352.016 10.88 2.195c6.528 2.179 13.6 4.902 16.864 4.902 3.264 0 27.472-4.63 27.472-4.63 8.976-14.616 35.088-12.255 35.088-12.255-9.248-9.26-28.832-3.813-28.832-3.813z"/></g></svg>
