<svg xmlns="http://www.w3.org/2000/svg" viewBox="0 0 24 24">
  <g transform="translate(1.1679 -2.3839) scale(0.0372)">
    <path fill="currentColor" d="M306,64c0,0-197.877-6.5-238.688,213v149.5c0,0,1.688,16,46.688,48.5s161.5,124,192,124s147-91.5,192-124
      s46.688-48.5,46.688-48.5V277C503.877,57.5,306,64,306,64z M441.5,358.5H306H170.5V277C198,168,306,166.5,306,166.5
      S414,168,441.5,277V358.5z"/>
    <path fill="currentColor" d="M306,632.667c0,0-30.667-3.001-54.667-19.667S67.312,482,67.312,482v226.334c0,0,1.355,26.333,30.355,26.333
      s208.333,0,208.333,0s179.333,0,208.333,0s30.355-26.333,30.355-26.333V482c0,0-160.022,114.334-184.022,131
      S306,632.667,306,632.667z"/>
  </g>
</svg>
