<svg xmlns="http://www.w3.org/2000/svg" viewBox="0 0 24 24">
  <g transform="scale(0.1125)">
    <g transform="scale(7.6786)">
      <rect x=".86822" y="1.0853" width="26.047" height="26.047" ry="1.3023" fill="currentColor"/>
      <path fill="currentColor" fill-opacity=".78" fill-rule="evenodd" stroke="none" d="m13.248 2.2002c-4.9566 0.17832-9.6934 5.2406-4.5005 11.832-9.0386-4.9642-9.5209 9.8433 3.1833 9.795 0.1187 0.7622 0.10334 2.0991-0.13736 3.3041h3.6166c-0.15257-1.0627-0.12475-2.2488-0.12209-3.1736 13.573-0.18434 12.619-8.752 6.454-7.6232 3.4458-1.8875 5.4273-10.677-1.1213-6.5676-0.48682-5.5249-3.9813-7.6892-7.3726-7.5672z M9.7674 8.2481v10.202l2e-7 2.6047h8.6822v-3.6899h-5.4264v-2.1705h3.2558v-1.0853h-3.2558v-2.1705h5.4264v-3.6899z"/>
    </g>
  </g>
</svg>
