<svg xmlns="http://www.w3.org/2000/svg" viewBox="0 0 24 24">
  <g transform="scale(0.068571)" fill="currentColor">
    <path d="M79.6,262.5c0-48.3,39.2-87.5,87.5-87.5h7.9v167.1c0,4.4-3.6,7.9-7.9,7.9-48.3,0-87.5-39.2-87.5-87.5Z"/>
    <path d="M87.5,79.6c48.3,0,87.5,39.2,87.5,87.5h0v7.9H7.9c-4.4,0-7.9-3.6-7.9-7.9,0-48.3,39.2-87.5,87.5-87.5Z"/>
    <path d="M270.4,87.5c0,48.3-39.2,87.5-87.5,87.5h-7.9V7.9c0-4.4,3.6-7.9,7.9-7.9,48.3,0,87.5,39.2,87.5,87.5Z"/>
    <path d="M262.5,270.4c-48.3,0-87.5-39.2-87.5-87.5h0v-7.9h167.1c4.4,0,7.9,3.6,7.9,7.9,0,48.3-39.2,87.5-87.5,87.5Z"/>
  </g>
</svg>
