<svg xmlns="http://www.w3.org/2000/svg" viewBox="0 0 24 24">
  <defs>
    <linearGradient id="jira-2023-a" x1="18.04" y1="5.61" x2="13.27" y2="10.68" gradientUnits="userSpaceOnUse">
      <stop offset="0.176" stop-color="#0052CC"/>
      <stop offset="1" stop-color="#2684FF"/>
    </linearGradient>
    <linearGradient id="jira-2023-b" x1="12.62" y1="11.35" x2="7.09" y2="16.89" gradientUnits="userSpaceOnUse">
      <stop offset="0.176" stop-color="#0052CC"/>
      <stop offset="1" stop-color="#2684FF"/>
    </linearGradient>
  </defs>
  <path fill="#2684FF" d="M23.013 0H11.455a5.215 5.215 0 0 0 5.215 5.215h2.129v2.057A5.215 5.215 0 0 0 24 12.483V1.005A1.001 1.001 0 0 0 23.013 0Z"/>
  <path fill="url(#jira-2023-a)" d="M17.294 5.757H5.736a5.215 5.215 0 0 0 5.215 5.214h2.129v2.058a5.218 5.218 0 0 0 5.215 5.214V6.758a1.001 1.001 0 0 0-1.001-1.001Z"/>
  <path fill="url(#jira-2023-b)" d="M11.571 11.513H0a5.218 5.218 0 0 0 5.232 5.215h2.13v2.057A5.215 5.215 0 0 0 12.575 24V12.518a1.005 1.005 0 0 0-1.005-1.005Z"/>
</svg>
