<svg xmlns="http://www.w3.org/2000/svg" viewBox="0 0 24 24">
  <g transform="matrix(0.12 0 0 0.12 0.45 0.45)" fill="currentColor" fill-rule="evenodd" clip-rule="evenodd">
    <path d="M12.039,-3.75H180.461C189.184,-3.75,196.25,3.316,196.25,12.039V148.882L148.882,196.25H12.039C3.316,196.25,-3.75,189.184,-3.75,180.461V12.039C-3.75,3.316,3.316,-3.75,12.039,-3.75ZM43.618,43.618V148.882H148.882V43.618H43.618Z"/>
    <path d="M65.211,125.276c-3.934-2.658-6.658-6.539-8.145-11.671l9.132-3.763c0.829,3.158,2.276,5.605,4.342,7.342c2.053,1.737,4.553,2.592,7.474,2.592c2.987,0,5.553-0.908,7.697-2.724s3.224-4.132,3.224-6.934c0-2.868-1.132-5.211-3.395-7.026s-5.105-2.724-8.5-2.724h-5.276v-9.039H76.5c2.921,0,5.382-0.789,7.382-2.368c2-1.579,3-3.737,3-6.487c0-2.447-0.895-4.395-2.684-5.855s-4.053-2.197-6.803-2.197c-2.684,0-4.816,0.711-6.395,2.145s-2.724,3.197-3.447,5.276l-9.039-3.763c1.197-3.395,3.395-6.395,6.618-8.987c3.224-2.592,7.342-3.895,12.342-3.895c3.697,0,7.026,0.711,9.974,2.145c2.947,1.434,5.263,3.421,6.934,5.947c1.671,2.539,2.5,5.382,2.5,8.539c0,3.224-0.776,5.947-2.329,8.184c-1.553,2.237-3.461,3.947-5.724,5.145v0.539c2.987,1.25,5.421,3.158,7.342,5.724c1.908,2.566,2.868,5.632,2.868,9.211s-0.908,6.776-2.724,9.579c-1.816,2.803-4.329,5.013-7.513,6.618c-3.197,1.605-6.789,2.421-10.776,2.421C73.408,129.263,69.145,127.934,65.211,125.276z"/>
    <path d="M121.25,79.961l-9.974,7.25l-5.013-7.605l17.987-12.974h6.895v61.197h-9.895L121.25,79.961z"/>
  </g>
</svg>
