<svg xmlns="http://www.w3.org/2000/svg" viewBox="0 0 24 24">
  <g transform="scale(0.25)">
    <defs>
      <clipPath id="gm14card">
        <path d="M83 96H13c-3.85 0-7-3.15-7-7V19c0-3.85 3.15-7 7-7h70c3.85 0 7 3.15 7 7v70c0 3.85-3.15 7-7 7"/>
      </clipPath>
    </defs>
    <g clip-path="url(#gm14card)">
      <path fill="#0F9D58" d="M6 87.5V12h84z"/>
      <path fill="#F1F1F1" d="M22.46 34.57c-.2.49-.37.95-.37 1.54 0 1.29.53 1.92 1.17 2.64-1.89.12-5.41.48-8 2.07-2.47 1.47-3.24 3.6-3.24 5.11 0 3.1 2.94 6.07 9.01 6.07 7.21 0 11.03-4.06 11.03-7.99 0-2.9-1.69-4.32-3.53-5.87l-1.51-1.17c-.46-.38-1.09-.88-1.09-1.8 0-.93.67-1.63 1.21-2.05 1.8-1.4 3.54-2.89 3.54-5.98 0-2.93-1.76-4.44-2.8-5.35h2.16L31.88 20h-8.46c-6.01 0-9.1 3.75-9.1 7.9 0 3.21 2.52 6.68 6.92 6.68.35-.01 1.22-.01 1.22-.01m.69-1.24c-3.44 0-5.31-4.28-5.31-7.55 0-3.1 1.83-4.45 3.75-4.45 3.68 0 5.59 4.79 5.59 7.71-.01 3.6-2.89 4.29-4.03 4.29m-.03 16.92c-4.48 0-7.39-2.19-7.39-5.17 0-2.97 2.7-3.98 3.62-4.32 1.76-.59 4.02-.67 4.4-.67.41 0 .62 0 .95.03 3.19 2.28 4.48 3.39 4.48 5.53.01 2.3-2.05 4.6-6.06 4.6"/>
      <path fill="#4285F4" d="M48 54 14.49 96h67.02z"/>
      <path fill="#E1E1E1" d="M90 12 48 54l42 33.5z"/>
      <path fill="#C2C2C2" d="M90 30H74v50l16 7.5z"/>
      <path fill="#F1F1F1" d="M43.76 58.24 81.51 96H90v-8.5L52.24 49.76z"/>
      <path fill="#FFEB3B" d="M96 14.48 87.51 6 6 87.5V96h8.49z"/>
    </g>
    <path fill="#DB4437" d="M75 72c-.65 0-1.18-.49-1.24-1.12C71.35 45.83 54 37 54 21 54 9.4 63.4 0 75 0s21 9.4 21 21c0 16-17.35 24.83-19.76 49.88A1.24 1.24 0 0 1 75 72"/>
    <circle fill="#7B231E" cx="75" cy="21" r="7"/>
  </g>
</svg>
