<svg xmlns="http://www.w3.org/2000/svg" viewBox="0 0 24 24">
    <path fill="#B4131D" d="M.012 17.559h23.976V6.44H.012z"/>
    <path fill="#211C1D" d="M4.146 9.19v.409l-.37-.41H2.763v5.04l.585.462.61-.076.004-.447.474.39.999-.102V9.708l-.542-.517zm6.147 0H8.558v.67l.522.41v3.46l.574.462.695-.018V10.27l.513-.004v-.489l-.526-.588zm7.013 0h-.683v4.632l.582.54.69.058V9.721l-.55-.531zm3.395 2.832.414-2.264-.555-.568h-.724l-.06.38-.351-.38h-.745l.431 2.258-.407 2.534.79.6.471.057v-.422l.65.506.623.086zm-5.269 1.003v-3.32l-.543-.515h-.73v4.52l.58.506 1.32.066-.03-.586zM7.51 10.191h.567v-.485l-.541-.518H6.235v4.702l.57.45 1.272-.08v-.52l-.567-.628v-.84h.575v-.524l-.575-.575zm5.296 0h.567v-.485l-.541-.518H11.53v4.489l.579.48.696.005v-1.89h.575v-.524l-.575-.575z"/>
    <path fill="#FFF" d="M16.774 13.736s.176.009.478.03V9.325h-.478zM8.71 9.768h.521v3.865s.112-.01.478-.018L9.71 9.77h.528v-.444H8.71zm-4.398 3.375-.034.004-.583-3.822h-.777v4.797s.155-.023.483-.06l-.034-3.646.034-.003.554 3.592s.19-.022.835-.086V9.325h-.496zm16.184-3.82h-.54l-.27 1.715h-.033l-.281-1.714h-.53l.414 2.12-.4 2.478.515.05.265-2.044h.032l.257 2.1.565.063-.403-2.586zm-5.704 0-.481.001v4.293s.326.01 1.112.044v-.435s-.088-.01-.631-.028zM6.387 13.79s.284-.02 1.105-.072v-.439l-.621.043v-1.537h.62v-.448H6.87V9.769h.625v-.444H6.387zm5.296-.207h.484v-1.798h.62v-.448h-.623V9.769h.626v-.444h-1.107z"/>
</svg>
