<svg xmlns="http://www.w3.org/2000/svg" viewBox="0 0 24 24">
    <path fill="currentColor" fill-rule="evenodd" d="M.012 17.559h23.976V6.44H.012zM4.146 9.19v.409l-.37-.41H2.763v5.04l.585.462.61-.076.004-.447.474.39.999-.102V9.708l-.542-.517zm6.147 0H8.558v.67l.522.41v3.46l.574.462.695-.018V10.27l.513-.004v-.489l-.526-.588zm7.013 0h-.683v4.632l.582.54.69.058V9.721l-.55-.531zm3.395 2.832.414-2.264-.555-.568h-.724l-.06.38-.351-.38h-.745l.431 2.258-.407 2.534.79.6.471.057v-.422l.65.506.623.086zm-5.269 1.003v-3.32l-.543-.515h-.73v4.52l.58.506 1.32.066-.03-.586zM7.51 10.191h.567v-.485l-.541-.518H6.235v4.702l.57.45 1.272-.08v-.52l-.567-.628v-.84h.575v-.524l-.575-.575zm5.296 0h.567v-.485l-.541-.518H11.53v4.489l.579.48.696.005v-1.89h.575v-.524l-.575-.575z"/>
</svg>
