<svg xmlns="http://www.w3.org/2000/svg" viewBox="0 0 24 24" fill="none">
  <rect x="1" y="5.5" width="13" height="13" rx="2.5" fill="#029853"/>
  <path d="M3 6.5C3 5.11929 4.11929 4 5.5 4H20.75C22.1307 4 23.25 5.11929 23.25 6.5V17.5C23.25 18.8807 22.1307 20 20.75 20H5.5C4.11929 20 3 18.8807 3 17.5V6.5Z" fill="url(#gs-l0)"/>
  <path d="M3 6.5C3 5.11929 4.11929 4 5.5 4H20.75C22.1307 4 23.25 5.11929 23.25 6.5V17.5C23.25 18.8807 22.1307 20 20.75 20H5.5C4.11929 20 3 18.8807 3 17.5V6.5Z" fill="url(#gs-l1)"/>
  <path d="M18.125 9.5V17.5M20.75 15.125H10" fill="none" stroke="white" stroke-width="1.5" stroke-linecap="round"/>
  <defs>
    <linearGradient id="gs-l0" x1="3" y1="12" x2="23.25" y2="12" gradientUnits="userSpaceOnUse">
      <stop stop-color="#7BC8FE"/>
      <stop offset="0.676754" stop-color="#11BC5C"/>
    </linearGradient>
    <linearGradient id="gs-l1" x1="13.1968" y1="20" x2="13.1968" y2="4" gradientUnits="userSpaceOnUse">
      <stop stop-color="#14BA61"/>
      <stop offset="0.19" stop-color="#14BA61" stop-opacity="0"/>
      <stop offset="0.81" stop-color="#14BA61" stop-opacity="0"/>
      <stop offset="1" stop-color="#14BA61"/>
    </linearGradient>
  </defs>
</svg>
