<svg xmlns="http://www.w3.org/2000/svg" viewBox="0 0 24 24">
  <path fill="currentColor" fill-rule="evenodd" d="M5.5 4C4.11929 4 3 5.11929 3 6.5V17.5C3 18.8807 4.11929 20 5.5 20H20.75C22.1307 20 23.25 18.8807 23.25 17.5V6.5C23.25 5.11929 22.1307 4 20.75 4H5.5ZM18.875 9.5C18.875 9.08579 18.5392 8.75 18.125 8.75C17.7108 8.75 17.375 9.08579 17.375 9.5V14.375H10C9.58579 14.375 9.25 14.7108 9.25 15.125C9.25 15.5392 9.58579 15.875 10 15.875H17.375V17.5C17.375 17.9142 17.7108 18.25 18.125 18.25C18.5392 18.25 18.875 17.9142 18.875 17.5V15.875H20.75C21.1642 15.875 21.5 15.5392 21.5 15.125C21.5 14.7108 21.1642 14.375 20.75 14.375H18.875V9.5Z"/>
</svg>
