<svg xmlns="http://www.w3.org/2000/svg" viewBox="0 0 24 24" fill="none">
  <g transform="scale(0.5)">
    <g clip-path="url(#pd-a)">
      <mask id="pd-b" width="48" height="48" x="0" y="0" maskUnits="userSpaceOnUse" style="mask-type:luminance">
        <path fill="#fff" d="M48 0H0v48h48z" />
      </mask>
      <g mask="url(#pd-b)">
        <path fill="url(#pd-c)" d="M40 0H8a8 8 0 0 0-8 8v32a8 8 0 0 0 8 8h32a8 8 0 0 0 8-8V8a8 8 0 0 0-8-8" />
        <path fill="#85D4F5" d="M36 0H24v12h12z" />
        <path fill="#D6F1FC" d="M36 0h4a8 8 0 0 1 8 8v4H36z" />
        <path fill="#85D4F5" d="M48 12H36v12h12z" />
        <path fill="#fff" fill-rule="evenodd" d="M26 38a2 2 0 0 1-2 2H10a2 2 0 1 1 0-4h14a2 2 0 0 1 2 2M20 30a2 2 0 0 1-2 2h-8a2 2 0 1 1 0-4h8a2 2 0 0 1 2 2" clip-rule="evenodd" />
      </g>
    </g>
    <defs>
      <radialGradient id="pd-c" cx="0" cy="0" r="1" gradientTransform="rotate(-53.15 55.901 32.11)scale(56.6412)" gradientUnits="userSpaceOnUse">
        <stop stop-color="#6D4AFF" />
        <stop offset="1" stop-color="#34B8EE" />
      </radialGradient>
      <clipPath id="pd-a">
        <path fill="#fff" d="M0 0h48v48H0z" />
      </clipPath>
    </defs>
  </g>
</svg>
