<svg xmlns="http://www.w3.org/2000/svg" viewBox="0 0 24 24" fill="none">
  <g transform="scale(0.5)">
    <defs>
      <mask id="pdm-holes" maskUnits="userSpaceOnUse" x="0" y="0" width="48" height="48">
        <rect width="48" height="48" fill="#fff" />
        <path fill="#000" fill-rule="evenodd" d="M26 38a2 2 0 0 1-2 2H10a2 2 0 1 1 0-4h14a2 2 0 0 1 2 2M20 30a2 2 0 0 1-2 2h-8a2 2 0 1 1 0-4h8a2 2 0 0 1 2 2" clip-rule="evenodd" />
      </mask>
    </defs>
    <g mask="url(#pdm-holes)">
      <path fill="currentColor" d="M40 0H8a8 8 0 0 0-8 8v32a8 8 0 0 0 8 8h32a8 8 0 0 0 8-8V8a8 8 0 0 0-8-8" />
      <path fill="currentColor" d="M36 0H24v12h12z" />
      <path fill="currentColor" d="M36 0h4a8 8 0 0 1 8 8v4H36z" />
      <path fill="currentColor" d="M48 12H36v12h12z" />
    </g>
  </g>
</svg>
