<svg xmlns="http://www.w3.org/2000/svg" viewBox="0 0 24 24" fill="currentColor">
  <g transform="translate(0.235 0) scale(0.0848)">
    <path d="M24.5,196l-0.3-2.6l24.2-52.5l0.9,0.4h0.2l0.1,0.3l0,1.4l-24.2,52.9L24.5,196z M99.1,141.5l1,0.3l23.8-53.6l-0.2-1.3l-0.7,0.3l-24.2,53.6L99.1,141.5z M227.4,141.2l-39.9,87.7l-39.7-87.6L123,196.2l27.2,60.1c7.6,16.8,21.5,26.8,37.3,26.8c15.7,0,29.7-10,37.2-26.8l27.6-60.4L227.4,141.2z"/>
    <path d="M224.9,26.7C217.3,10,203.5,0,187.8,0c-15.6,0-29.5,10-37.1,26.7L74.2,196.6l-24.8-55.3L24.5,196l16.3,36.1c6.7,14.9,19.2,23.8,33.4,23.8s26.7-8.9,33.4-23.8l80.2-177.9l64.5,142.1l25.2-55.2C277.5,141,224.9,26.7,224.9,26.7z"/>
    <path d="M107.6,51.1c-6.7-14.9-19.2-23.8-33.4-23.8s-26.7,8.9-33.4,23.8L0,141l24.5,55L74.2,86.6l24.8,55l24.7-54.8L107.6,51.1z"/>
  </g>
</svg>
