<svg xmlns="http://www.w3.org/2000/svg" viewBox="0 0 24 24"><path fill="currentColor" d="M3.723 11.884h1.03v1.448c-.321.103-.727.16-1.15.16-1.71 0-2.716-1.465-2.716-2.896 0-1.403.91-2.387 2.179-2.387.803 0 1.27.272 1.688.65v.473l.783-.784c-.495-.335-1.213-.654-2.239-.654-2.252 0-3.282 1.611-3.282 2.936 0 1.884 1.373 3.02 3.098 3.02.837 0 1.58-.128 2.437-.367v-1.495c0-.077.034-.13.084-.175l.271-.271H4.068z"/><path fill="currentColor" d="M8.34 9.917c-1.296 0-2.1.947-2.1 1.953 0 .867.647 1.898 1.958 1.898 1.262 0 2.035-.95 2.035-1.972A1.88 1.88 0 0 0 8.34 9.917m-.215.276c.914 0 1.32 1.19 1.32 2.04 0 1.263-.947 1.288-1.06 1.288-.434 0-.737-.262-.963-.606-.2-.316-.395-.905-.395-1.48 0-.573.187-.852.482-1.058a1.13 1.13 0 0 1 .616-.184"/><path fill="currentColor" d="M16.814 9.917c-1.132 0-1.745.716-1.745 1.517 0 .61.437 1.296 1.337 1.296h.228s-.062.151-.062.297c0 .214.077.335.24.52-1.549.095-2.172.72-2.172 1.392 0 .588.564 1.167 1.747 1.167 1.402 0 2.127-.778 2.127-1.542 0-.538-.268-.833-.947-1.342-.2-.155-.238-.254-.238-.37 0-.166.1-.276.136-.318.064-.068.175-.145.217-.182.228-.194.55-.48.55-1.05 0-.392-.162-.73-.534-1.045h.453l.34-.34zm-.312.254c.205 0 .376.073.558.224.2.18.522.668.522 1.27 0 .65-.505.828-.779.828a.8.8 0 0 1-.43-.13c-.3-.196-.6-.716-.6-1.336 0-.558.333-.856.729-.856m.448 3.623c.086 0 .148.007.148.007s.204.146.347.255c.331.262.538.462.538.82 0 .49-.455.874-1.192.874-.81 0-1.427-.376-1.427-.991 0-.51.423-.948 1.586-.965"/><path fill="currentColor" d="M18.737 13.656h1.554l.237-.237-.446-.056a.22.22 0 0 1-.191-.219V8.45a.22.22 0 0 1 .074-.17l.28-.28H18.92l-.345.345h.515v4.863c0 .07-.021.116-.068.165z"/><path fill="currentColor" d="M22.397 9.917c-.868 0-1.79.661-1.79 1.849 0 .98.662 2.002 1.898 2.002.308 0 .562-.04.8-.149.254-.117.5-.308.68-.548-.34.17-.615.283-.981.283-.697 0-1.368-.503-1.603-1.426l2.46-.994c-.142-.507-.543-1.017-1.463-1.017zm-.16.272c.465 0 .802.383.802.683 0 .096-.061.148-.181.195l-1.512.612s-.041-.19-.041-.397c0-.863.624-1.093.932-1.093"/><path fill="currentColor" d="M12.739 9.917c-1.297 0-2.1.947-2.1 1.953 0 .867.647 1.898 1.958 1.898 1.261 0 2.035-.95 2.035-1.972a1.88 1.88 0 0 0-1.893-1.879m-.215.276c.914 0 1.32 1.19 1.32 2.04 0 1.263-.947 1.288-1.06 1.288-.434 0-.737-.262-.964-.606-.2-.316-.395-.905-.395-1.48 0-.573.188-.852.483-1.058a1.13 1.13 0 0 1 .615-.184z"/></svg>