<svg xmlns="http://www.w3.org/2000/svg" viewBox="0 0 24 24" fill="currentColor">
  <g transform="translate(0.027 0) scale(0.046875)" fill-rule="evenodd">
    <path d="M175.034 21.925C175.034 9.816 184.85 0 196.96 0h118.41c12.11 0 21.926 9.815 21.926 21.925v118.41c0 12.11-9.815 21.926-21.926 21.926H196.96c-12.11 0-21.926-9.815-21.926-21.925zm39.47 15.351v82.227h82.226V37.276z"/>
    <path d="M173.39 512c-22.707 0-41.114-18.407-41.114-41.113 0-22.707 18.407-41.114 41.114-41.114 22.706 0 41.113 18.407 41.113 41.114 0 22.706-18.407 41.113-41.113 41.113z"/>
    <path d="M337.844 512c-22.707 0-41.114-18.407-41.114-41.113 0-22.707 18.407-41.114 41.114-41.114s41.113 18.407 41.113 41.114c0 22.706-18.407 41.113-41.113 41.113z"/>
    <path d="M95 134.852c0-21.794 17.675-39.469 39.469-39.469h243.392c21.794 0 39.469 17.675 39.469 39.469v294.921c0 21.794-17.675 39.469-39.469 39.469H134.469C112.675 469.242 95 451.567 95 429.773zm255.714 130.775h-58.359v36.987h51.78c-3.984 22.285-23.338 38.527-51.78 38.527-31.348 0-56.82-26.5-56.82-57.79 0-31.298 25.472-57.733 56.82-57.733 14.131 0 26.777 4.859 36.75 14.344v.061l26.783-26.733c-16.45-15.293-37.88-24.716-63.532-24.716-52.487 0-95 42.439-95 94.835 0 52.395 42.513 94.835 95 94.835 54.863 0 91.196-38.526 91.196-92.702a107.857 107.857 0 0 0-1.838-19.915z"/>
  </g>
</svg>
