<svg xmlns="http://www.w3.org/2000/svg" viewBox="0 0 24 24" fill-rule="evenodd" clip-rule="evenodd" stroke-linejoin="round">
  <path fill="#2B5860" d="M18.916 22.479c0 .298-1.194.54-2.667.54s-2.667-.242-2.667-.54 1.194-.54 2.667-.54 2.667.241 2.667.54m-8.908 0c0 .298-1.194.54-2.667.54-1.474 0-2.668-.242-2.668-.54s1.194-.54 2.668-.54c1.473 0 2.667.241 2.667.54"/>
  <path fill="#FFFFFF" d="M12.075 1.953a10.7 10.7 0 0 0-5.138 2.173c-1.62 1.28-2.664 2.918-3.019 4.737-.107.549-.153 1.149-.2 1.785-.188 2.478-.448 3.983-2.473 3.983a.622.622 0 0 0-.497.997c2.737 3.632 7.435 4.052 10.73 4.052l.436-.001h.632c1.54 0 3.164-.074 4.613-.614 2.573-.96 4.741-3.117 5.524-5.496.882-2.684.472-5.401-1.155-7.65-1.811-2.502-4.92-4.056-8.114-4.056-.446 0-.897.03-1.339.09"/>
  <path fill="#3D3D3D" d="M13.415 1.24c-.475 0-.954.032-1.423.096a11.36 11.36 0 0 0-5.44 2.301C4.811 5.01 3.69 6.777 3.305 8.744c-.114.584-.162 1.231-.21 1.857-.074.98-.15 1.992-.461 2.654-.213.452-.53.753-1.39.753a1.246 1.246 0 0 0-.994 1.995c2.905 3.854 7.798 4.3 11.227 4.3l.252-.001h.816c1.598 0 3.29-.078 4.83-.653a10.4 10.4 0 0 0 3.537-2.242c1.112-1.068 1.929-2.328 2.361-3.643.487-1.48.61-2.969.364-4.423a9 9 0 0 0-1.606-3.788c-.943-1.302-2.233-2.39-3.73-3.146a10.9 10.9 0 0 0-4.887-1.167m0 1.246c5.613 0 10.61 5.011 8.676 10.889-.779 2.367-2.948 4.285-5.15 5.107-1.436.535-3.114.575-4.394.575l-.632-.001-.437.001c-3.218 0-7.661-.393-10.232-3.803 3.523 0 2.828-3.938 3.283-6.272.695-3.558 4.214-5.95 7.63-6.412q.631-.085 1.256-.084"/>
  <path fill="#3D3D3D" d="M9.844 19.947a2.5 2.5 0 1 1-4.982.428 2.5 2.5 0 0 1 4.982-.428"/>
  <path fill="#515252" d="M8.082 20.134c0 .447-.314.81-.7.81-.387 0-.701-.363-.701-.81s.314-.81.7-.81c.387 0 .7.363.7.81"/>
  <path fill="#3D3D3D" d="M18.417 19.947a2.5 2.5 0 1 1-4.981.428 2.5 2.5 0 0 1 4.981-.428"/>
  <path fill="#515252" d="M16.656 20.134c0 .447-.314.81-.7.81-.388 0-.701-.363-.701-.81s.313-.81.7-.81.7.363.7.81"/>
  <path fill="#3D3D3D" d="M11.314 8.692a1.196 1.196 0 1 1-2.393 0 1.196 1.196 0 0 1 2.393 0m5.713-.187a1.196 1.196 0 1 1-2.392 0 1.196 1.196 0 0 1 2.392 0m-4.035 6.601a4.6 4.6 0 0 1-2.799-.94c-.802-.618-1.32-1.472-1.42-2.342a.623.623 0 0 1 1.238-.142c.152 1.327 1.738 2.213 3.072 2.177 1.7-.044 2.823-1.061 3.054-2.042a.623.623 0 0 1 1.213.285c-.188.8-.704 1.543-1.453 2.09-.78.57-1.741.885-2.781.913z"/>
</svg>
