<svg xmlns="http://www.w3.org/2000/svg" viewBox="0 0 24 24" fill="currentColor" fill-rule="evenodd" clip-rule="evenodd">
  <path d="M13.415 1.24c-.475 0-.954.032-1.423.096a11.36 11.36 0 0 0-5.44 2.301C4.811 5.01 3.69 6.777 3.305 8.744c-.114.584-.162 1.231-.21 1.857-.074.98-.15 1.992-.461 2.654-.213.452-.53.753-1.39.753a1.246 1.246 0 0 0-.994 1.995c2.905 3.854 7.798 4.3 11.227 4.3l.252-.001h.816c1.598 0 3.29-.078 4.83-.653a10.4 10.4 0 0 0 3.537-2.242c1.112-1.068 1.929-2.328 2.361-3.643.487-1.48.61-2.969.364-4.423a9 9 0 0 0-1.606-3.788c-.943-1.302-2.233-2.39-3.73-3.146a10.9 10.9 0 0 0-4.887-1.167m-3.57 18.707a2.5 2.5 0 1 1-4.982.428 2.5 2.5 0 0 1 4.982-.428m8.573 0a2.5 2.5 0 1 1-4.981.428 2.5 2.5 0 0 1 4.981-.428M11.314 8.692a1.196 1.196 0 1 1-2.393 0 1.196 1.196 0 0 1 2.393 0m5.713-.187a1.196 1.196 0 1 1-2.392 0 1.196 1.196 0 0 1 2.392 0m-4.035 6.601a4.6 4.6 0 0 1-2.799-.94c-.802-.618-1.32-1.472-1.42-2.342a.623.623 0 0 1 1.238-.142c.152 1.327 1.738 2.213 3.072 2.177 1.7-.044 2.823-1.061 3.054-2.042a.623.623 0 0 1 1.213.285c-.188.8-.704 1.543-1.453 2.09-.78.57-1.741.885-2.781.913z"/>
</svg>
