<svg xmlns="http://www.w3.org/2000/svg" viewBox="0 0 24 24">
  <path fill="#00897B" d="M22.364 10.364c0 -5.724 -4.640 -10.364 -10.364 -10.364S1.636 4.640 1.636 10.364c0 5.427 4.950 9.818 10.364 9.818v3.818C18.301 20.809 22.364 15.668 22.364 10.364z"/>
  <path fill="#FFFFFF" d="M8.220 10.599l2.451 -2.451c0.145 -0.112 0.213 -0.296 0.177 -0.475c-0.191 -1.002 -0.304 -1.637 -0.398 -2.370c0.008 -0.211 -0.157 -0.388 -0.367 -0.396c-0.021 -0.001 -0.041 0 -0.062 0.003H7.273c-0.250 0.004 -0.452 0.205 -0.459 0.455c0.010 1.351 0.272 2.688 0.773 3.943C7.770 9.751 7.981 10.183 8.220 10.599zM9.539 9.279l-1.320 1.320c0.926 1.590 2.252 2.911 3.845 3.832l1.323 -1.323C11.749 12.248 10.405 10.913 9.539 9.279zM17.331 12.185c-0.727 -0.098 -1.467 -0.218 -2.234 -0.368c-0.222 -0.079 -0.469 -0.003 -0.609 0.187L12.064 14.431c1.577 0.906 3.364 1.383 5.184 1.381c0.248 0.016 0.462 -0.172 0.477 -0.420c0.001 -0.010 0.001 -0.021 0.001 -0.032V12.566C17.727 12.378 17.589 12.223 17.331 12.185z"/>
</svg>
