<svg xmlns="http://www.w3.org/2000/svg" viewBox="0 0 24 24">
  <path fill="currentColor" fill-rule="evenodd" d="M24 10.364c0 -5.724 -5.373 -10.364 -12 -10.364S0 4.64 0 10.364c0 5.427 5.732 9.818 12 9.818v3.818C19.295 20.809 24 15.668 24 10.364zM7.624 10.599l2.838 -2.451c0.168 -0.112 0.247 -0.296 0.205 -0.475c-0.221 -1.002 -0.352 -1.637 -0.461 -2.37c0.009 -0.211 -0.181 -0.388 -0.425 -0.396c-0.024 -0.001 -0.048 0 -0.071 0.003H6.529c-0.289 0.004 -0.524 0.205 -0.531 0.455c0.012 1.351 0.315 2.688 0.895 3.943C7.103 9.751 7.347 10.183 7.624 10.599zM9.153 9.279l-1.528 1.32c1.073 1.59 2.607 2.911 4.451 3.832l1.532 -1.323C11.71 12.248 10.157 10.913 9.153 9.279zM18.177 12.185c-0.842 -0.098 -1.698 -0.218 -2.586 -0.368c-0.257 -0.079 -0.544 -0.003 -0.705 0.187L12.076 14.431c1.826 0.906 3.896 1.383 6.002 1.381c0.287 0.016 0.534 -0.172 0.553 -0.42c0.001 -0.01 0.001 -0.021 0.001 -0.032V12.566C18.632 12.378 18.496 12.223 18.177 12.185z"/>
</svg>
