<svg xmlns="http://www.w3.org/2000/svg" viewBox="0 0 24 24">
  <path fill="currentColor" fill-rule="evenodd" clip-rule="evenodd" d="M22 11.36C22 5.64 17.36 1 11.64 1S1.27 5.64 1.27 11.36C1.27 16.78 6.22 21.16 11.64 21.16V23C18.94 19.18 22 14.05 22 11.36ZM17.16 12.18C16.43 12.08 15.69 11.96 14.92 11.81C14.7 11.73 14.45 11.81 14.31 12L13.21 13.1C11.57 12.24 10.23 10.9 9.36 9.27L10.49 8.13C10.64 8.02 10.71 7.83 10.67 7.65C10.48 6.65 10.37 6.02 10.27 5.29C10.28 5.08 10.12 4.9 9.91 4.89H6.93C6.68 4.9 6.48 5.1 6.47 5.35C6.48 6.71 6.74 8.04 7.24 9.3C7.42 9.74 7.63 10.18 7.87 10.59C8.79 12.18 10.12 13.5 11.71 14.42C13.28 15.32 15.07 15.8 16.89 15.8C17.14 15.81 17.35 15.63 17.36 15.38C17.36 15.37 17.36 15.36 17.36 15.35V12.55C17.36 12.36 17.43 12.21 17.16 12.18Z"/>
</svg>
