<svg xmlns="http://www.w3.org/2000/svg" viewBox="0 0 24 24" fill="none">
  <g transform="translate(3.2727 0) scale(0.36364)" fill="currentColor" fill-rule="evenodd">
    <path d="M29.5833 0H4.4375C1.9969 0 0 1.9969 0 4.4375v56.2083c0 2.4406 1.9969 4.4375 4.4375 4.4375h38.4583c2.4407 0 4.4375-1.9969 4.4375-4.4375V17.75L29.5833 0Zm0 4.4375 13.3125 13.3125H34.0208c-2.4517 0-4.4375-1.9858-4.4375-4.4375V4.4375Zm3.6979 25.1458H14.0521c-1.2203 0-2.2188.9985-2.2188 2.2188V51.0313c0 1.2203.9985 2.2187 2.2188 2.2187h19.2292c1.2203 0 2.2187-.9984 2.2187-2.2187V31.8021c0-1.2203-.9984-2.2188-2.2187-2.2188Zm-.7396 17.0104h-17.75V36.2396h17.75v10.3541Z"/>
  </g>
</svg>
