<svg xmlns="http://www.w3.org/2000/svg" viewBox="0 0 24 24">
  <defs>
    <linearGradient id="gtv2016a" gradientUnits="userSpaceOnUse" x1="46.088" y1="281.107" x2="375.889" y2="281.107" gradientTransform="translate(1.515 0) scale(0.0514)">
      <stop offset="0" stop-color="#DD2231"/>
      <stop offset="1" stop-color="#C7223E"/>
    </linearGradient>
    <linearGradient id="gtv2016b" gradientUnits="userSpaceOnUse" x1="46.088" y1="139.933" x2="375.889" y2="139.933" gradientTransform="translate(1.515 0) scale(0.0514)">
      <stop offset="0" stop-color="#C81F44"/>
      <stop offset="1" stop-color="#BC1F45"/>
    </linearGradient>
  </defs>
  <g transform="translate(1.515 0) scale(0.0514)">
    <path fill="#811E56" d="M0 10c0-3.6 1.9-6.8 5-8.6 3.1-1.8 6.9-1.8 10 0l388 221.7c3.1 1.8 5 5.1 5 8.6 0 3.6-1.9 6.8-5 8.6L17 465.5c-3.1 1.8-6.9 1.8-10 0-3.1-1.8-5-5.1-5-8.6L0 10Z"/>
    <path fill="url(#gtv2016a)" d="M375.9 210.8H46.1v140.7h166.5L376 256.2v-45.4zM133.7 321.6H94.5v-20.5h39.1v20.5zm0-59.6H94.5v-20.5h39.1V262zm171.4 0v-20.5h39.1V262h-39.1z"/>
    <path fill="url(#gtv2016b)" d="M375.9 69.6H46.1v140.7h329.8V69.6zM133.7 175.3H94.5v-20.5h39.1v20.5zm0-59.6H94.5V95.2h39.1v20.5zm210.5 59.6h-39.1v-20.5h39.1v20.5zm0-59.6h-39.1V95.2h39.1v20.5z"/>
    <path fill="#FBFCFE" d="M94.5 95.2h39.1v20.5H94.5zM94.5 154.8h39.1v20.5H94.5zM305.1 95.2h39.1v20.5h-39.1zM305.1 154.8h39.1v20.5h-39.1zM94.5 241.5h39.1V262H94.5zM94.5 301.1h39.1v20.5H94.5zM305.1 241.5h39.1V262h-39.1z"/>
  </g>
</svg>
