<svg xmlns="http://www.w3.org/2000/svg" viewBox="0 0 24 24">
  <g transform="translate(1.515 0) scale(0.0514)" fill="currentColor" fill-rule="evenodd">
    <path d="M0 10c0-3.6 1.9-6.8 5-8.6 3.1-1.8 6.9-1.8 10 0l388 221.7c3.1 1.8 5 5.1 5 8.6 0 3.6-1.9 6.8-5 8.6L17 465.5c-3.1 1.8-6.9 1.8-10 0-3.1-1.8-5-5.1-5-8.6L0 10Zm94.5 85.2v20.5h39.1V95.2H94.5Zm0 59.6v20.5h39.1v-20.5H94.5Zm210.6-59.6v20.5h39.1V95.2h-39.1Zm0 59.6v20.5h39.1v-20.5h-39.1ZM94.5 241.5V262h39.1v-20.5H94.5Zm0 59.6v20.5h39.1v-20.5H94.5Zm210.6-59.6V262h39.1v-20.5h-39.1Z"/>
  </g>
</svg>
