<svg xmlns="http://www.w3.org/2000/svg" viewBox="0 0 24 24">
  <g transform="scale(0.034458)">
    <path fill="#4285F4" d="M89.299,0h517.932c29.603,0,53.579,23.977,53.579,53.579v571.512c0,29.603-23.977,53.579-53.579,53.579H89.299c-29.603,0-53.579-23.977-53.579-53.579V53.579C35.719,23.977,59.696,0,89.299,0Z"/>
    <path fill="#3367D6" d="M35.719,53.579C35.719,23.977,59.696,0,89.299,0h517.932c29.603,0,53.579,23.977,53.579,53.579V160.738H35.719V53.579Z"/>
    <circle fill="#EEEEEE" cx="178.597" cy="53.579" r="26.79"/>
    <circle fill="#EEEEEE" cx="517.933" cy="53.579" r="26.79"/>
    <path fill="#FFFFFF" d="M295.847,389.075c20.315-8.394,46.48-30.719,46.48-64.34c0-51.793-33.264-83.628-89.299-83.628c-49.918,0-90.147,32.683-90.861,80.369h36.255c0.536-27.861,19.378-50.766,54.562-50.766c33.889,0,52.999,17.636,52.999,53.222s-27.236,52.017-60.455,52.017c-13.038,0-25.316,0-25.316,0v28.397c0,0,14.02,0,25.316,0c48.846,0,64.92,25.361,64.92,54.785c0,38.488-23.396,56.258-57.285,56.258c-29.513,0-56.392-15.761-57.196-50.99h-36.523c1.563,56.749,49.338,80.369,93.719,80.369c51.257,0,93.54-29.87,93.54-86.441C346.792,412.694,314.287,394.477,295.847,389.075z M503.109,241.107l-105.73,37.952v34.112l75.904-25.361v256.912h35.72V241.107H503.109z"/>
  </g>
</svg>
