<svg xmlns="http://www.w3.org/2000/svg" viewBox="0 0 24 24">
  <g transform="scale(0.034458)" fill="currentColor" fill-rule="evenodd" clip-rule="evenodd">
    <path d="M89.299,0h517.932c29.603,0,53.579,23.977,53.579,53.579v571.512c0,29.603-23.977,53.579-53.579,53.579H89.299c-29.603,0-53.579-23.977-53.579-53.579V53.579C35.719,23.977,59.696,0,89.299,0ZM89.299,53.579v107.159H607.231V53.579H89.299ZM152.674,55.812c1.116,13.752,12.636,24.557,26.656,24.557c14.02,0,25.539-10.805,26.656-24.557C206.075,55.053,206.12,54.339,206.12,53.579c0-14.779-12.011-26.79-26.79-26.79c-14.779,0-26.79,12.011-26.79,26.79C152.54,54.339,152.585,55.053,152.674,55.812ZM491.41,55.812c1.116,13.752,12.636,24.557,26.656,24.557c14.02,0,25.539-10.805,26.656-24.557c0.089-0.759,0.134-1.473,0.134-2.232c0-14.779-12.011-26.79-26.79-26.79c-14.779,0-26.79,12.011-26.79,26.79C491.276,54.339,491.32,55.053,491.41,55.812Z"/>
    <path d="M295.847,389.075c20.315-8.394,46.48-30.719,46.48-64.34c0-51.793-33.264-83.628-89.299-83.628c-49.918,0-90.147,32.683-90.861,80.369h36.255c0.536-27.861,19.378-50.766,54.562-50.766c33.889,0,52.999,17.636,52.999,53.222s-27.236,52.017-60.455,52.017c-13.038,0-25.316,0-25.316,0v28.397c0,0,14.02,0,25.316,0c48.846,0,64.92,25.361,64.92,54.785c0,38.488-23.396,56.258-57.285,56.258c-29.513,0-56.392-15.761-57.196-50.99h-36.523c1.563,56.749,49.338,80.369,93.719,80.369c51.257,0,93.54-29.87,93.54-86.441C346.792,412.694,314.287,394.477,295.847,389.075z M503.109,241.107l-105.73,37.952v34.112l75.904-25.361v256.912h35.72V241.107H503.109z"/>
  </g>
</svg>
