<svg xmlns="http://www.w3.org/2000/svg" viewBox="0 0 24 24">
  <g transform="translate(0.3695 0) scale(0.02439)">
    <path fill="currentColor" d="M810.67 803.64a246.8 246.8 0 01-30.12 18.18 705.31 705.31 0 0038.3-63c9.46-10.47 18.13-20.65 25.2-31.65 3.44-5.4 7.3-12.08 11.42-19.82 24.92-44.9 52.4-117.56 53.18-192.2v-5.66a257.25 257.25 0 00-5.71-55.75l.56 4.3-.64-3.3c.37 2 .66 4 1 6 5.1 43.22 1.47 85.37-16.68 116.45l-.87 1.32c9.4-47.23 12.56-99.4 2.1-151.6 0 0-4.2-25.38-35.38-102.44-18-44.35-49.83-80.72-78-107.2-24.7-30.55-47.1-51-59.47-64.06-25.82-27.18-36.64-47.57-41.1-60.87-3.85-1.93-53.14-49.8-57.05-51.63-21.5 33.35-89.16 137.67-57 235.15 14.58 44.17 51.47 90 90.07 115.74 1.7 1.94 23 25 33.1 77.16 10.45 53.85 5 95.86-16.54 158-25.3 54.5-90.02 108.4-150.72 113.9-129.67 11.78-177.15-65.1-177.15-65.1 46.33 18.44 97.55 14.6 128.7-4.56 31.4-19.43 50.4-33.83 65.8-28.15C548.86 648.43 561 632 550.1 615a78.5 78.5 0 00-79.4-34.57c-31.43 5.1-60.23 30-101.4 5.9a86.29 86.29 0 01-7.73-5.06c-2.7-1.8 8.83 2.72 6.13.7-8-4.35-22.2-13.84-25.88-17.22-.6-.56 6.22 2.18 5.6 1.62-38.5-31.7-33.7-53.13-32.5-66.57 1-10.75 8-24.52 19.75-30.1a134.5 134.5 0 019.24 5.48l-3.74-7.58c.46-.2.9-.15 1.36-.34a237.9 237.9 0 0120.41 11.67c7.07 5 9.33 9.44 9.33 9.44s1.86-1 .48-5.37c-.5-1.78-2.65-7.45-9.65-13.17h.44a81.61 81.61 0 0111.87 8.2c2-7.18 5.53-14.68 4.75-28.1-.48-9.43-.26-11.87-1.92-15.5-1.5-3.13.83-4.35 3.42-1.1a32.5 32.5 0 00-2.21-7.4v-.24c3.23-11.24 68.25-40.46 73-43.88A67.2 67.2 0 00470.59 361c3.62-5.76 6.34-13.85 7-26.1.36-8.84-3.76-14.73-69.5-21.62-18-1.77-28.53-14.8-34.53-26.82a162.7 162.7 0 00-3.33-7.28 57.68 57.68 0 01-2.56-8.43c10.75-30.87 28.8-57 55.37-76.7 1.45-1.32-5.78.34-4.34-1 1.7-1.54 12.7-6 14.8-7 2.54-1.2-10.88-6.9-22.73-5.5-12.07 1.36-14.63 2.8-21.07 5.53 2.67-2.66 11.17-6.15 9.18-6.13-13 2-29.18 9.56-43 18.12a10.66 10.66 0 01.83-4.35c-6.44 2.73-22.26 13.8-26.87 23.14a44.29 44.29 0 00.27-5.4 84.17 84.17 0 00-13.19 13.82l-.24.22c-37.36-15-70.23-16-98.05-9.28-6.1-6.1-9.06-1.64-22.9-32.07-.94-1.83.72 1.8 0 0-2.28-5.9 1.4 7.87 0 0-23.28 18.37-53.92 39.2-68.63 53.9-.18.6 17.16-4.9 0 0-6 1.72-5.6 5.28-6.5 37.5-.22 2.44 0 5.18-.22 7.38-11.75 15-19.75 27.64-22.78 34.2-15.2 26.18-31.93 67-48.15 131.55a334.82 334.82 0 0125.79-50.3c-13.5 34.27-26.53 88.08-29.13 170.94a482.08 482.08 0 0112.53-50.66 473 473 0 0034.73 201.07c9.33 22.82 24.76 57.46 51 95.4C226.9 902 343.3 956 472.2 956c134.58 0 255.43-58.87 338.46-152.36z"/>
    <path fill="currentColor" fill-opacity=".25" d="M813.74 801.65c104.16-102.27 156.86-226.58 134.58-366 0 0 8.9 71.5-24.85 144.63 16.2-71.4 18.1-160.1-25-252C841 205.64 746.45 141.1 710.35 114.2c-54.7-40.8-77.35-82.32-77.78-90.9-16.34 33.48-65.77 148.2-5.3 247 56.64 92.56 145.86 120 208.33 205 115.08 156.37-21.85 326.35-21.85 326.35z"/>
  </g>
</svg>
