<svg xmlns="http://www.w3.org/2000/svg" viewBox="0 0 24 24">
  <g transform="translate(0.3695 0) scale(0.02439)">
    <path fill="currentColor" fill-opacity=".5" d="M476.92 972.83c245.24 0 443.9-199.74 443.9-446s-198.66-446-443.66-446S33.5 280.5 33.5 526.8C33 773.33 231.92 972.83 476.92 972.83z"/>
    <path fill="currentColor" d="M896.18 698.54q1.58-2.6 3.1-5.23l.13-.23 3.13-5.44 6-11.03q1.37-2.6 2.68-5.2l2.97-5.98 2.47-5.15 2.82-6.13q1.14-2.53 2.26-5.1l.26-.6 2.42-5.72 4.23-10.7.3-.77q.95-2.47 1.84-5l.3-.84q.88-2.46 1.74-4.93l.3-.88q.84-2.45 1.65-4.9l.3-1 1.55-4.87 2.05-6.9 1.36-4.8 1.88-7.17 1.47-6 1.06-4.6 1.6-7.45 1.17-6.08.8-4.5 1.24-7.74.87-6.2.55-4.3.88-8.13.4-4.14.48-6.18.48-8.42.25-6.34.1-3.92-.06-15.24-.08-3.63-.23-6.35c0-.95-.1-1.9-.15-2.84l-.2-3.53-.45-6.4-1.2-12.86-.77-6.46-1.88-13c-.53-3.26.2 1.7.44 4.82l-.72-4.1s-6.1 7.07-15.24 20.13a370.21 370.21 0 00-22.26-99.56c-44.4-128.07-140.2-229.95-140.2-265.4-9.32 10.86-16.7 27-20.8 46.44-83-78.4-107-115.33-107-138 0 0-116.1 129.4-65.74 264.38C606.24 343.47 653.86 374.52 702 415l-28-23 .4.55c25.15 36.37 39 81.16 39 129.33 0 121.24-98.34 219.53-219.65 219.53a220.14 220.14 0 01-49.13-5.52 203.82 203.82 0 01-51.36-16.81q2 1.32 4.1 2.65c-37.47-23.93-59.62-45.18-72.17-64.2 49.42 17.17 107 14.15 141.43-4.9 23.1-12.85 52.7-33.43 70.92-28.35l-1.24-.48a24.22 24.22 0 013.38.85c16.82 5.6 30.2-10.67 18.2-27.54-11.77-16.85-42.4-41-87.88-34.3-34.8 5.07-66.66 29.76-112.24 5.84a97.34 97.34 0 01-8.55-5c-3-1.77 9.77 2.7 6.8.68-8.87-4.32-24.57-13.73-28.64-17.07-.68-.56 6.88 2.16 6.2 1.6-14.15-10.44-23-19.75-28.5-28a83.1 83.1 0 001.66 2.5c-16-22.77-9.3-43.58-5.44-53.34 2.63-5.64 8.4-11 13.26-14.42l-1.12.8a32.52 32.52 0 016-3.38 152.3 152.3 0 0110.23 5.43l-4.14-7.5c.5-.2 1-.15 1.5-.34a266.4 266.4 0 0122.59 11.57c7.83 4.95 10.32 9.36 10.32 9.36s2.06-1 .54-5.33c-.56-1.77-2.93-7.4-10.68-13.07h.48a91.65 91.65 0 0113.13 8.17c2.2-7.12 6.12-14.56 5.25-27.86-.53-9.35-.28-11.78-2.12-15.4-1.65-3.1.92-4.3 3.78-1.1a29.73 29.73 0 00-2.44-7.34v-.24s1.64-2.13 2.4-2.9c13.86-14.43 71.94-36.42 77.4-39.54 6-3.8 28.9-20.52 29.9-47.6.4-8.77-4.16-14.66-76.68-21.46-29.87-2.76-41.26-30.33-44.75-41.9l-.1.27a2.59 2.59 0 00-.12-.48 158.47 158.47 0 0161.28-76.06c1.6-1.3-6.4.33-4.8-1 1.87-1.52 14.06-5.93 16.37-6.92 2.8-1.2-12-6.84-25.16-5.47-13.36 1.35-16.2 2.78-23.32 5.5 3-2.64 12.37-6.1 10.16-6.08-14.4 2-32.3 9.48-47.6 18a9.72 9.72 0 01.92-4.31c-7.13 2.7-24.64 13.67-29.73 23a39.79 39.79 0 00.29-5.35 88.55 88.55 0 00-14.6 13.7l-.27.22c-41.3-15-77.7-16-108.44-9.24l-.3-.28.36-.08c-6.15-4.53-19.53-17.63-32.7-44.9-1-1.82-1.6 3.75-2.4 2-6-13.8-9.58-36.2-8.72-52 0 0-12.32 5.6-22.5 29.06a148.81 148.81 0 01-4.32 8.86c-.56.68 1.27-7.7 1-7.24-1.77 3-6.36 7.2-8.35 12.38-1.65 4.24-3.35 6.52-4.6 11.77-.4 1.43.4-6.32 0-5.38C86.62 198 81 260 82.23 267.4v.48C69.2 282.72 60.34 295.28 57 301.8c-16.8 26-35.33 66.44-53.3 130.46a319.35 319.35 0 0128.54-50C17.32 416.25 2.9 469.62 0 551.8a436.92 436.92 0 0113.87-50.24C11.3 556.36 17.68 624.3 52.32 701c20.57 45 67.92 136.6 183.62 208 0 0 39.36 29.3 107 51.26l15.23 5.33q-2.43-1-4.7-2A484.9 484.9 0 00492.27 984c166.45.14 221.4-63.35 226.45-69.68 8.42-7.94 14.83-16.3 18.84-24.6 71.7-33.1 149.14-86.8 156.44-166.1a25.59 25.59 0 01-.53 2.88 55.55 55.55 0 00-.56-22.57l3.18-5.2zm-705.53-497.1zm-.28.07zm492.15 203.64l.5.82zm-8.1-12.62c4.3 6.06 5.7 8.64 8 12.46-2.32-3.8-3.72-6.37-8-12.43zM407 727.74l4.5 2.72-4.5-2.72zm-5.44-3.36l-3.63-2.3zm4.4 2.7l-3.5-2.1zm-91.5-194.36l-.1-.1zm-6-7a59 59 0 01-1.73-2.36l1.72 2.32zm4.38 5.2c-.77-.83-1.5-1.67-2.2-2.5q1 1.22 2.2 2.46zm-2.5-2.86a83.2 83.2 0 01-1.75-2.17 64.4 64.4 0 001.74 2.1zm4.24-72.48a39.7 39.7 0 013-1.9 30.1 30.1 0 00-3 1.87zm3.16-2l.62-.33zm1.1-.57l.47-.22zm1-.46l.33-.13z"/>
    <path fill="currentColor" d="M813.74 801.65c104.16-102.27 156.86-226.58 134.58-366 0 0 8.9 71.5-24.85 144.63 16.2-71.4 18.1-160.1-25-252C841 205.64 746.45 141.1 710.35 114.2c-54.7-40.8-77.35-82.32-77.78-90.9-16.34 33.48-65.77 148.2-5.3 247 56.64 92.56 145.86 120 208.33 205 115.08 156.37-21.85 326.35-21.85 326.35z"/>
  </g>
</svg>
