<svg xmlns="http://www.w3.org/2000/svg" viewBox="0 0 24 24" fill="currentColor">
  <path fill-rule="evenodd" d="M17.019 23.836a2.16 2.16 0 0 0 1.19-.046l4.942-2.378A2.16 2.16 0 0 0 24 19.461V4.539a2.16 2.16 0 0 0-1.85-2.139L17.21.298a2.16 2.16 0 0 0-2.464.348l-9.46 8.63L1.17 6.275a1.44 1.44 0 0 0-1.795.054L.054 7.535a1.44 1.44 0 0 0 0 2.137L3.628 12 .054 14.328a1.44 1.44 0 0 0 0 2.137l1.321 1.206a1.44 1.44 0 0 0 1.795.054l4.116-3.127 9.46 8.63a2.16 2.16 0 0 0 .273.218zM18 6.552 10.825 12 18 17.448z" clip-rule="evenodd"/>
</svg>
