<svg xmlns="http://www.w3.org/2000/svg" viewBox="0 0 24 24">
  <path fill="#000000" d="M13.498 21.9q-.99 0-1.882-.377a5.2 5.2 0 0 1-1.584-1.049 4.8 4.8 0 0 1-1.565.257 4.8 4.8 0 0 1-2.455-.653 5.1 5.1 0 0 1-1.822-1.782 4.8 4.8 0 0 1-.672-2.514q0-.576.158-1.248a5.3 5.3 0 0 1-1.228-1.682 4.88 4.88 0 0 1 .02-4.08A5 5 0 0 1 3.736 7.07a4.56 4.56 0 0 1 1.92-1.01 4.7 4.7 0 0 1 .912-2.02q.711-.91 1.74-1.425a4.85 4.85 0 0 1 2.2-.515q.99 0 1.88.376t1.584 1.05a4.8 4.8 0 0 1 1.564-.258q1.328 0 2.456.654a4.97 4.97 0 0 1 1.8 1.782q.694 1.129.694 2.514 0 .576-.158 1.248.792.732 1.228 1.702.435.95.435 2 0 1.07-.456 2.06a5.2 5.2 0 0 1-1.286 1.722 4.56 4.56 0 0 1-1.901.99 4.56 4.56 0 0 1-.93 2.02 4.9 4.9 0 0 1-1.723 1.425 4.85 4.85 0 0 1-2.199.515m-4.89-2.474q.99 0 1.721-.417l3.724-2.138a.43.43 0 0 0 .197-.376v-1.704l-4.79 2.753a.8.8 0 0 1-.872 0l-3.742-2.158a.6.6 0 0 1-.02.138v.238q0 1.01.475 1.861.496.832 1.367 1.307a3.84 3.84 0 0 0 1.94.494m.198-3.228a.5.5 0 0 0 .218.06q.1 0 .198-.06l1.485-.852-4.772-2.772a.84.84 0 0 1-.436-.771V7.505q-.99.434-1.584 1.346a3.5 3.5 0 0 0-.594 1.98q0 .971.496 1.86.494.892 1.286 1.348zm4.692 4.396q1.05 0 1.902-.475a3.55 3.55 0 0 0 1.841-3.168v-4.277a.38.38 0 0 0-.198-.356l-1.505-.872v5.525a.84.84 0 0 1-.435.772L11.358 19.9a3.6 3.6 0 0 0 2.14.692m.752-7.247v-2.691l-2.238-1.268-2.257 1.268v2.692l2.257 1.268zM8.468 7.031a.84.84 0 0 1 .436-.773L12.647 4.1a3.6 3.6 0 0 0-2.139-.693q-1.048 0-1.9.475A3.55 3.55 0 0 0 7.26 5.189a3.7 3.7 0 0 0-.475 1.861v4.256q0 .24.198.377l1.484.871zm10.06 9.464q.99-.437 1.564-1.347.594-.91.594-1.98a3.8 3.8 0 0 0-.495-1.86q-.495-.892-1.287-1.348L15.2 7.822q-.118-.078-.217-.06a.36.36 0 0 0-.198.06l-1.485.831 4.791 2.793a.72.72 0 0 1 .317.316.77.77 0 0 1 .12.436zm-3.98-10.058a.76.76 0 0 1 .87 0l3.763 2.197v-.356q0-.95-.475-1.802A3.43 3.43 0 0 0 17.38 5.09q-.852-.516-1.98-.516-.99 0-1.724.417L9.953 7.129a.43.43 0 0 0-.198.377v1.702z"/>
</svg>
