<svg xmlns="http://www.w3.org/2000/svg" viewBox="0 0 24 24">
  <g transform="scale(0.3)" fill="currentColor">
    <path d="M75.91 26.82c-1.69-4.05-5.1-8.43-7.78-9.81 2.18 4.27 3.44 8.56 3.93 11.76v.06C67.68 17.91 60.24 13.51 54.17 3.92c-.31-.49-.61-.97-.92-1.49-.17-.29-.3-.55-.42-.8-.25-.49-.45-1-.58-1.53 0-.03-.01-.05-.02-.07-.02-.02-.04-.03-.06-.03-.02-.01-.05-.01-.07 0l-.02.01c-.01 0-.02.01-.03.01l.01-.02c-9.74 5.7-13.04 16.25-13.34 21.53-3.89.27-7.61 1.7-10.67 4.11-.32-.27-.66-.52-1-.76-.88-3.09-.92-6.36-.11-9.47-3.98 1.81-7.08 4.68-9.33 7.21h.01c-1.54-1.95-1.43-8.37-1.34-9.71-.02-.08-1.15.59-1.29.69-1.36.97-2.62 2.05-3.79 3.25-1.33 1.34-2.54 2.8-3.62 4.34-2.5 3.53-4.27 7.52-5.21 11.74-.02.08-.03.17-.05.26-.07.34-.34 2.05-.38 2.42v.08c-.34 1.76-.55 3.55-.63 5.35v.2C1.31 62.65 18.66 80 40.07 80c19.17 0 35.09-13.92 38.21-32.2.07-.49.12-.99.18-1.49.74-6.66-.13-13.65-2.55-19.49z"/>
    <path d="m57.08 31.38.24.18c-.97-1.73-2.18-3.31-3.6-4.7C41.67 14.81 50.56.73 52.06.02l.01-.02c-9.74 5.7-13.04 16.25-13.34 21.53.45-.03.9-.07 1.36-.07 7.27 0 13.6 3.99 16.99 9.92z"/>
    <path d="M40.2 33.78c-.06.96-3.47 4.29-4.66 4.29-11.02 0-12.81 6.67-12.81 6.67.49 5.62 4.4 10.24 9.13 12.69.22.11.43.21.65.31.38.17.76.32 1.14.47 1.62.57 3.32.9 5.04.97 19.32.91 23.06-23.1 9.12-30.07 3.57-.62 7.28.82 9.35 2.27-3.39-5.92-9.72-9.92-16.98-9.92-.46 0-.92.04-1.36.07-3.89.27-7.61 1.7-10.67 4.11.59.5 1.26 1.17 2.66 2.55 2.62 2.59 9.37 5.27 9.39 5.59z"/>
    <path d="M26.25 24.35c.31.2.57.37.8.53-.88-3.09-.92-6.36-.11-9.47-3.98 1.81-7.08 4.68-9.33 7.21.19 0 5.82-.11 8.64 1.73z"/>
    <path d="M1.64 42.15c2.99 17.67 19.01 31.17 37.2 31.68 16.83.48 27.59-9.29 32.02-18.83 2.87-6.16 4.86-16.24 1.21-26.16v-.08.06c1.37 8.98-3.19 17.67-10.33 23.55l-.02.05C47.81 63.75 34.5 59.25 31.8 57.41c-.18-.09-.37-.18-.56-.28-8.11-3.88-11.46-11.27-10.74-17.6-6.85 0-9.18-5.78-9.18-5.78s6.15-4.38 14.25-.57c7.51 3.53 14.55.57 14.55.57-.01-.32-6.76-3-9.39-5.59-1.41-1.38-2.07-2.05-2.66-2.55-.32-.27-.66-.52-1-.76-.23-.16-.49-.33-.8-.53-2.83-1.84-8.45-1.74-8.63-1.73h-.01c-1.54-1.95-1.43-8.37-1.34-9.71-.02-.08-1.15.59-1.29.69-1.36.97-2.62 2.05-3.79 3.25-1.33 1.34-2.54 2.8-3.62 4.34-2.5 3.53-4.27 7.52-5.21 11.74-.05.11-1.42 6.13-.74 9.25z"/>
    <path d="M53.72 26.86c1.41 1.39 2.62 2.97 3.6 4.7.21.16.41.32.58.47 8.79 8.1 4.18 19.55 3.84 20.37 7.14-5.89 11.71-14.58 10.33-23.55-4.38-10.94-11.81-15.34-17.88-24.93-.31-.49-.61-.97-.92-1.49-.17-.29-.31-.55-.43-.8-.25-.49-.45-1-.58-1.53 0-.03-.01-.05-.02-.07-.02-.02-.04-.03-.06-.03-.02-.01-.05-.01-.07 0l-.02.01c-.01 0-.02.01-.03.01-1.5.71-10.39 14.79 1.66 26.84z"/>
    <path d="M57.9 32.03c-.17-.15-.37-.31-.58-.47l-.24-.18c-2.07-1.45-5.77-2.89-9.35-2.27 13.94 6.97 10.2 30.97-9.12 30.07-1.72-.07-3.42-.4-5.04-.97-.38-.14-.76-.3-1.14-.47-.22-.1-.44-.2-.65-.31l.03.02c2.7 1.84 16.01 6.33 29.92-4.99l.02-.05c.33-.83 4.93-12.28-3.85-20.38z"/>
    <path d="M22.64 44.74s1.79-6.67 12.81-6.67c1.19 0 4.6-3.32 4.66-4.29 0 0-7.05 2.96-14.55-.57-8.1-3.81-14.25.57-14.25.57s2.34 5.78 9.18 5.78c-.72 6.34 2.63 13.72 10.74 17.6.18.09.35.18.54.26-4.73-2.44-8.64-7.07-9.13-12.68z"/>
    <path d="M75.91 26.82c-1.69-4.05-5.1-8.43-7.78-9.81 2.18 4.27 3.44 8.56 3.93 11.76v.06C67.68 17.91 60.24 13.51 54.17 3.92c-.31-.49-.61-.97-.92-1.49-.17-.29-.3-.55-.42-.8-.25-.49-.45-1-.58-1.53 0-.03-.01-.05-.02-.07-.02-.02-.04-.03-.06-.03-.02-.01-.05-.01-.07 0l-.02.01c-.01 0-.02.01-.03.01l.01-.02c-9.74 5.7-13.04 16.25-13.34 21.53.45-.03.9-.07 1.36-.07 7.27 0 13.6 4 16.98 9.92-2.07-1.45-5.77-2.89-9.35-2.27 13.94 6.97 10.2 30.97-9.12 30.07-1.72-.07-3.42-.4-5.04-.97-.38-.14-.76-.3-1.14-.47-.22-.1-.44-.2-.65-.31l.03.02c-.18-.09-.37-.18-.56-.28.18.09.35.18.54.26-4.73-2.45-8.65-7.07-9.13-12.68 0 0 1.79-6.67 12.81-6.67 1.19 0 4.6-3.32 4.66-4.29-.01-.32-6.76-3-9.39-5.59-1.41-1.38-2.07-2.05-2.66-2.55-.32-.27-.66-.52-1-.76-.88-3.09-.92-6.36-.11-9.47-3.98 1.81-7.08 4.68-9.33 7.21-1.54-1.95-1.43-8.37-1.34-9.71-.02-.08-1.15.59-1.29.69-1.36.97-2.62 2.05-3.79 3.25-1.33 1.34-2.54 2.8-3.62 4.34-2.5 3.53-4.27 7.52-5.21 11.74-.02.08-.03.17-.05.26-.07.34-.4 2.07-.45 2.44-.3 1.79-.49 3.6-.57 5.41v.2c0 21.41 17.35 38.76 38.76 38.76 19.17 0 35.09-13.92 38.21-32.2.07-.49.12-.99.18-1.49.75-6.67-.12-13.66-2.54-19.5zm-3.84 1.99v.04-.04z"/>
  </g>
</svg>
