<svg xmlns="http://www.w3.org/2000/svg" viewBox="0 0 24 24" fill="currentColor" fill-rule="evenodd" clip-rule="evenodd">
  <path d="M2.06 17.784c1.657 1.019 3.653.645 5.448.275.291-.06.475-.089.77-.065-.035 2.39 3.11 2.35 3.117.019l4.282.061c.025 2.222 3.004 2.33 3.12-.026.002-.553-.128-1-.297-1.418 1.126-.682 3.032-2.608 3.165-4.227.13-2.262-.763-4.48-1.804-5.546-1.215-1.26-2.581-2.237-4.46-2.756-1.407-.242-3.717-.551-6.363.751-1.234.86-2.467 1.588-3.314 2.883-.578.99-.972 2.287-.825 4.486.071 2.483.152 2.448-.17 3.215-.293.762-1.235 1.51-2.787 2.03-.172.093-.108.181.118.318m-.867-3.432c-.24-.259-.643-1.03-.876-1.676-.462-1.278-.416-2.905.121-4.328.227-.6.666-1.45.807-1.56.293-.23.75-.037.75.318 0 .09-.122.404-.272.702C1.14 8.97.972 9.618.975 10.697c.001.606.025.85.112 1.17.152.564.351 1.047.651 1.582.156.277.256.52.256.622 0 .396-.524.58-.8.28m1.047-.976c-.171-.172-.586-1.005-.73-1.464-.109-.348-.123-.499-.121-1.24.002-.768.015-.888.147-1.32.188-.615.575-1.412.754-1.552a.56.56 0 0 1 .295-.11c.195 0 .464.254.464.44 0 .072-.119.377-.264.677-.337.697-.475 1.236-.475 1.86 0 .704.14 1.155.653 2.116.12.223.107.362-.05.55a.46.46 0 0 1-.673.043m1.092-.754c-.186-.186-.525-.935-.602-1.331-.094-.483-.039-1.272.121-1.728.18-.514.442-1.015.564-1.08.18-.096.464-.065.584.063.19.204.186.333-.024.782-.252.535-.344.89-.345 1.317 0 .436.062.662.328 1.194.158.317.205.465.18.566a.484.484 0 0 1-.806.217m6.077 7.952c-.464-.126-.951-.49-1.217-.909-.15-.236-.287-.69-.287-.948s-.142-.297-.561-.153c-.627.216-1.31.32-2.114.32-.9 0-1.05-.018-1.911-.225-.782-.188-1.722-.54-1.89-.71a.48.48 0 0 1-.03-.597c.053-.064.38-.223.753-.366 1.49-.572 1.872-.868 2.239-1.74.24-.57.25-.727.18-2.837-.07-2.166-.046-2.597.196-3.432C5.257 7.29 6.594 5.71 8.42 4.66c2.31-1.328 5.463-1.56 8.194-.602 1.965.688 3.844 2.343 4.702 4.14a9 9 0 0 1 .825 3.397c.035.845-.046 1.347-.339 2.084-.516 1.302-1.25 2.23-2.302 2.916l-.402.263c-.013.01.018.131.069.271.07.197.093.444.098 1.094.006.755-.005.87-.112 1.143-.165.422-.559.838-.998 1.054-.322.159-.392.173-.854.173-.463 0-.533-.014-.856-.173a1.99 1.99 0 0 1-1.102-1.497c-.03-.185-.072-.354-.094-.376s-.787-.034-1.7-.026l-1.658.014-.038.337a2 2 0 0 1-1.122 1.56c-.244.115-.407.152-.738.165-.234.01-.496 0-.583-.025m.731-1.527c.282-.254.365-.904.166-1.3-.345-.689-1.03-.343-1.03.52 0 .72.465 1.14.864.78m7.486-.06c.334-.363.332-1.062-.005-1.438-.375-.42-.91.01-.91.733 0 .52.314.953.641.885a.66.66 0 0 0 .274-.18M6.322 17.843c.217-.041.577-.135.8-.21.228-.075.49-.127.6-.118.192.015.197.011.259-.225.144-.558.64-1.112 1.18-1.321.417-.16 1.032-.16 1.45 0 .56.217 1.098.843 1.191 1.389l.039.226 1.746.013 1.747.014.033-.198c.092-.556.556-1.128 1.137-1.403.295-.14.396-.16.794-.16.382 0 .506.023.763.141a2 2 0 0 0 .368.141c.125 0 .958-.606 1.36-.99 1.217-1.163 1.64-2.61 1.315-4.509-.321-1.875-1.276-3.445-2.787-4.58-1.39-1.042-2.89-1.556-4.743-1.622-2.093-.074-3.764.37-5.246 1.396-1.703 1.178-2.67 2.686-2.845 4.432-.036.36-.03 1.039.02 2.253.045 1.139.053 1.857.021 2.082-.198 1.399-.76 2.209-1.943 2.803-.314.158-.423.236-.37.266.115.063.922.219 1.37.265.481.05 1.208.014 1.74-.086m5.886-2.997c-.599-.146-1.277-.683-1.647-1.305-.285-.479-.332-.773-.332-2.064v-1.15h1.048l.017 1.043c.02 1.206.055 1.322.55 1.856.462.5 1.055.712 1.767.633.66-.073 1.286-.543 1.594-1.195.164-.347.17-.382.188-1.189l.02-.831h-.618l.54-.54.541-.541.541.54.54.54h-.658v1.023c0 .562-.024 1.148-.054 1.302-.083.442-.286.821-.632 1.18-.602.628-1.038.773-2.294.767-.468-.003-.965-.034-1.11-.069m-1.162-5.673c-.273-.124-.54-.429-.584-.669-.142-.752.353-1.334 1.088-1.28.377.027.645.212.829.57.434.85-.46 1.776-1.333 1.38m3.695-.002c-.676-.312-.808-1.19-.258-1.705.194-.18.39-.254.68-.254s.487.074.68.254c.343.325.44.788.251 1.198a1.01 1.01 0 0 1-1.352.507z"/>
</svg>
