<svg xmlns="http://www.w3.org/2000/svg" viewBox="0 0 24 24">
  <g transform="scale(0.092548)">
    <path fill="currentColor" d="M255.8 95.6l.2-.9c-21.1-4.2-42.7-4.3-55.8-3.7 2.1-7.7 2.8-16.7 2.8-26.6 0-14.3-5.4-25.7-14-34.3 1.5-4.9 3.5-15.8-2-29.7 0 0-9.8-3.1-32.1 11.8-8.7-2.2-18-3.3-27.3-3.3-10.2 0-20.5 1.3-30.2 3.9C74.4-2.9 64.3.3 64.3.3c-6.6 16.5-2.5 28.8-1.3 31.8-7.8 8.4-12.5 19.1-12.5 32.2 0 9.9 1.1 18.8 3.9 26.5-13.2-.5-34-.3-54.4 3.8l.2.9c20.4-4.1 41.4-4.2 54.5-3.7.6 1.6 1.3 3.2 2 4.7-13 .4-35.1 2.1-56.3 8.1l.3.9c21.4-6 43.7-7.6 56.6-8 7.8 14.4 23 23.8 50.2 26.7-3.9 2.6-7.8 7-9.4 14.5-5.3 2.5-21.9 8.7-31.9-8.5 0 0-5.6-10.2-16.3-11 0 0-10.4-.2-.7 6.5 0 0 6.9 3.3 11.7 15.6 0 0 6.3 21 36.4 14.2V177s-.6 7.7-7.7 10.2c0 0-4.2 2.9.3 4.5 0 0 19.5 1.6 19.5-14.4v-23.6s-.8-9.4 3.8-12.6v38.8s-.3 9.3-5.1 12.8c0 0-3.2 5.7 3.8 4.2 0 0 13.4-1.9 14-17.6l.3-39.3h3.2l.3 39.3c.6 15.6 14 17.6 14 17.6 7 1.6 3.8-4.2 3.8-4.2-4.8-3.5-5.1-12.8-5.1-12.8v-38.5c4.6 3.6 3.8 12.3 3.8 12.3v23.6c0 16 19.5 14.4 19.5 14.4 4.5-1.6.3-4.5.3-4.5-7-2.6-7.7-10.2-7.7-10.2v-31c0-12.1-5.1-18.5-10.1-21.8 29-2.9 42.9-12.2 49.3-26.8 12.7.3 35.6 1.9 57.4 8.1l.3-.9c-21.7-6.1-44.4-7.7-57.3-8.1.6-1.5 1.1-3 1.6-4.6 13.4-.5 35.1-.5 56.3 3.7zm0 0"/>
  </g>
</svg>
