<svg xmlns="http://www.w3.org/2000/svg" viewBox="0 0 24 24">
  <path fill="currentColor" fill-rule="evenodd" d="M11.55 5.7 6.4 1.55a.7.7 0 1 0-.88 1.1l5.16 4.15a.7.7 0 1 0 .87-1.1Zm.9 0L17.6 1.55a.7.7 0 1 1 .88 1.1l-5.16 4.15a.7.7 0 1 1-.87-1.1ZM3 5.5h18a2 2 0 0 1 2 2v12a2 2 0 0 1-2 2H3a2 2 0 0 1-2-2v-12a2 2 0 0 1 2-2Zm0 2a1 1 0 0 0-1 1V18.5a1 1 0 0 0 1 1h18a1 1 0 0 0 1-1V8.5a1 1 0 0 0-1-1H3Zm1.5 1.5h4v2.6h-4V9Zm5.5 0h4v2.6h-4V9Zm5.5 0h4v2.6h-4V9Zm-11 3.2h4v2.6h-4v-2.6Zm5.5 0h4v2.6h-4v-2.6Zm5.5 0h4v2.6h-4v-2.6Zm-11 3.2h4v2.6h-4v-2.6Zm5.5 0h4v2.6h-4v-2.6Zm5.5 0h4v2.6h-4v-2.6Z"/>
</svg>
