<svg xmlns="http://www.w3.org/2000/svg" viewBox="0 0 24 24">
    <path fill="#E50914" d="M3.3 14.825c-.36.064-.728.083-1.108.133l-1.16-3.395v3.54c-.36.039-.69.09-1.032.14V8.757h.963l1.317 3.68v-3.68H3.3zm1.995-3.693c.393 0 .995-.019 1.356-.019v1.014c-.45 0-.975 0-1.356.019v1.507c.596-.038 1.191-.088 1.793-.107v.975l-2.806.222V8.757h2.806V9.77H5.295zm5.562-1.361H9.805v4.662c-.342 0-.684 0-1.013.012V9.771H7.741V8.757h3.116zm1.647 1.292h1.387v1.013h-1.387v2.3h-.995V8.757h2.832V9.77h-1.837zm3.484 2.426c.576.012 1.159.057 1.723.088v1.001a64 64 0 0 0-2.737-.133V8.757h1.014zm2.578 1.159c.323.019.665.038.994.076V8.757h-.994zM24 8.757l-1.286 3.085L24 15.243c-.38-.05-.76-.12-1.14-.183l-.73-1.875-.74 1.723c-.368-.064-.722-.083-1.09-.133l1.305-2.971-1.178-3.047h1.09l.665 1.704.709-1.704z"/>
</svg>
