<svg xmlns="http://www.w3.org/2000/svg" viewBox="0 0 24 24" fill="currentColor">
  <path d="m10.875 11.161-5.513-4.667a2 2 0 1 0-1.929 3.427h.02l.052.016 6.955 2.119a.471.471 0 0 0 .157.028.497.497 0 0 0 .258-.921z"/>
  <path d="M11.98 3.457a1.452 1.452 0 0 0-2.247-1.224l-6.733 4.088a2 2 0 1 0 2.387 3.2l6.036-4.919.048-.04a1.457 1.457 0 0 0 .509-1.105z"/>
  <path d="M21.772 12.267 11.556 2.428a1.455 1.455 0 1 0-1.975 2.133l.019.016 10.853 9.144a.981.981 0 0 0 1.612-.753.985.985 0 0 0-.293-.701z"/>
  <path d="M22.067 12.972a.98.98 0 0 0-1.556-.8l-12.361 6.04a2 2 0 1 0 2.064 3.412l11.43-7.845a.98.98 0 0 0 .423-.807z"/>
  <path d="M8 8h8v8H8z"/>
</svg>
