<svg xmlns="http://www.w3.org/2000/svg" viewBox="0 0 24 24">
  <defs>
    <clipPath id="gm26-pin">
      <path d="M12 1c4.764 0 8.625 3.861 8.625 8.625 0 1.769-.532 3.414-1.446 4.783-1.808 2.707-4.634 4.742-6.09 7.654l-.192.384C12.711 22.815 12.356 23 12 23s-.711-.185-.897-.555l-.192-.383C9.456 19.149 6.63 17.114 4.821 14.407 3.907 13.039 3.375 11.394 3.375 9.625 3.375 4.861 7.236 1 12 1zm0 4c-2.554 0-4.625 2.071-4.625 4.625S9.446 14.25 12 14.25s4.625-2.071 4.625-4.625S14.554 5 12 5z"/>
    </clipPath>
    <radialGradient id="gm26-red" cx="4" cy="7" r="8" gradientUnits="userSpaceOnUse">
      <stop offset="0" stop-color="#EA4335"/>
      <stop offset="0.45" stop-color="#EA4335" stop-opacity="0.95"/>
      <stop offset="1" stop-color="#EA4335" stop-opacity="0"/>
    </radialGradient>
    <radialGradient id="gm26-yellow" cx="4" cy="16" r="10" gradientUnits="userSpaceOnUse">
      <stop offset="0" stop-color="#FBBC04"/>
      <stop offset="0.45" stop-color="#FBBC04" stop-opacity="0.95"/>
      <stop offset="1" stop-color="#FBBC04" stop-opacity="0"/>
    </radialGradient>
    <radialGradient id="gm26-green" cx="17" cy="22" r="14" gradientUnits="userSpaceOnUse">
      <stop offset="0" stop-color="#34A853"/>
      <stop offset="0.55" stop-color="#34A853" stop-opacity="0.95"/>
      <stop offset="1" stop-color="#34A853" stop-opacity="0"/>
    </radialGradient>
    <radialGradient id="gm26-blue" cx="18" cy="2" r="10" gradientUnits="userSpaceOnUse">
      <stop offset="0" stop-color="#4285F4"/>
      <stop offset="0.5" stop-color="#4285F4" stop-opacity="0.95"/>
      <stop offset="1" stop-color="#4285F4" stop-opacity="0"/>
    </radialGradient>
    <radialGradient id="gm26-magenta" cx="22" cy="12" r="5" gradientUnits="userSpaceOnUse">
      <stop offset="0" stop-color="#A142F4"/>
      <stop offset="0.5" stop-color="#A142F4" stop-opacity="0.55"/>
      <stop offset="1" stop-color="#A142F4" stop-opacity="0"/>
    </radialGradient>
  </defs>
  <g clip-path="url(#gm26-pin)">
    <rect x="0" y="0" width="24" height="24" fill="#FBBC04"/>
    <rect x="0" y="0" width="24" height="24" fill="url(#gm26-yellow)"/>
    <rect x="0" y="0" width="24" height="24" fill="url(#gm26-green)"/>
    <rect x="0" y="0" width="24" height="24" fill="url(#gm26-blue)"/>
    <rect x="0" y="0" width="24" height="24" fill="url(#gm26-red)"/>
    <rect x="0" y="0" width="24" height="24" fill="url(#gm26-magenta)"/>
  </g>
</svg>
