<svg xmlns="http://www.w3.org/2000/svg" viewBox="0 0 24 24"><g transform="translate(0 0) scale(0.0938)">
<path d="M0 0 C6.94072 4.47029 9.41296 9.47446 11.8125 17.25 C13.6229 23.03349 15.55162 28.70456 17.6875 34.375 C43.6875 108.60688 43.6875 108.60688 43.6875 114.375 C46.35528 113.60801 49.02167 112.83623 51.6875 112.0625 C53.1725 111.63324 54.6575 111.20398 56.1875 110.76172 C59.14557 109.85016 62.07568 108.84128 64.96484 107.73047 C70.73834 105.62826 75.54357 105.68458 81.375 107.5625 C86.24096 110.22501 89.6802 112.69616 92.5625 117.5 C94.58974 124.48273 94.69671 130.02018 91.8125 136.75 C83.86744 145.96627 69.90121 148.77208 58.6875 152.375 C58.0275 152.375 57.3675 152.375 56.6875 152.375 C57.24437 153.83937 57.80125 155.30375 58.375 156.8125 C67.47719 182.12182 67.47719 182.12182 63.4375 192.625 C60.49262 197.25267 57.59482 199.92134 52.6875 202.375 C46.59734 203.00603 40.75149 203.31647 35.125 200.75 C28.83729 194.62351 26.19616 189.08722 23.375 180.6875 C22.32893 177.61889 22.32893 177.61889 21.26172 174.48828 C19.6875 169.375 19.6875 169.375 19.6875 166.375 C7.59025 170.01865 -4.30643 174.15863 -16.23047 178.32812 C-22.3125 180.375 -22.3125 180.375 -24.3125 180.375 C-23.735 182.06367 -23.1575 183.75234 -22.5625 185.49219 C-21.82 187.72227 -21.0775 189.95234 -20.3125 192.25 C-19.57 194.4543 -18.8275 196.65859 -18.0625 198.92969 C-16.00687 206.50065 -15.14955 212.28872 -17.9375 219.6875 C-21.30116 224.91002 -24.79615 227.61683 -30.3125 230.375 C-37.55795 231.34256 -43.09238 230.41262 -49.3125 226.375 C-52.90641 222.53919 -54.58594 218.66396 -56.375 213.75 C-56.86098 212.43773 -57.34695 211.12547 -57.84766 209.77344 C-59.54089 204.68923 -60.94237 199.55466 -62.3125 194.375 C-63.90578 194.9525 -65.49906 195.53 -67.14062 196.125 C-69.25984 196.8675 -71.37906 197.61 -73.5625 198.375 C-75.65078 199.1175 -77.73906 199.86 -79.89062 200.625 C-86.41817 202.4038 -91.585 202.89213 -98.3125 202.375 C-104.43054 198.68741 -109.32239 194.41692 -111.3125 187.375 C-112.01632 179.63302 -111.33357 175.65134 -106.3125 169.375 C-99.0144 162.0769 -89.08675 159.95826 -79.3125 157.375 C-78.3225 157.375 -77.3325 157.375 -76.3125 157.375 C-76.58062 156.07563 -76.84875 154.77625 -77.125 153.4375 C-77.27582 152.7066 -77.42664 151.9757 -77.58203 151.22266 C-81.69793 135.17724 -88.08826 119.47483 -93.42969 103.80469 C-95.35168 98.14699 -95.35168 98.14699 -97.3125 92.375 C-98.30508 89.46945 -99.29766 86.56391 -100.32031 83.57031 C-102.3125 77.375 -102.3125 77.375 -102.3125 74.375 C-100.19328 73.67633 -98.07406 72.97766 -95.89062 72.25781 C-91.7682 70.8927 -91.7682 70.8927 -87.5625 69.5 C-84.82453 68.59508 -82.08656 67.69016 -79.26562 66.75781 C-72.70308 64.68121 -72.70308 64.68121 -68.3125 62.375 C-66.9925 62.375 -65.6725 62.375 -64.3125 62.375 C-59.99561 73.61116 -56.06179 84.9381 -52.3125 96.375 C-50.34687 102.27188 -48.37446 108.1665 -46.39453 114.05859 C-44.77611 118.88678 -44.77611 118.88678 -43.125 123.8125 C-42.03832 127.04934 -40.95164 130.28617 -39.83203 133.62109 C-37.3125 141.375 -37.3125 141.375 -37.3125 143.375 C-34.97479 142.51262 -34.97479 142.51262 -32.58984 141.63281 C-24.30117 138.65157 -15.93525 135.92612 -7.56641 133.17969 C-2.43569 131.54692 -2.43569 131.54692 1.6875 129.375 C3.0075 129.375 4.3275 129.375 5.6875 129.375 C2.58612 117.54806 2.58612 117.54806 -1.75 106.13281 C-3.41076 102.1387 -4.63045 98.15992 -5.8125 94 C-7.50415 88.06839 -9.33875 82.21885 -11.3125 76.375 C-11.95188 74.43367 -12.59125 72.49234 -13.25 70.49219 C-13.93063 68.43227 -14.61125 66.37234 -15.3125 64.25 C-15.99313 62.18492 -16.67375 60.11984 -17.375 57.99219 C-18.45815 54.85192 -19.59187 51.72428 -20.90234 48.67188 C-22.57156 44.76932 -23.71836 40.83268 -24.875 36.75 C-26.44182 31.12744 -26.44182 31.12744 -28.44531 25.65625 C-30.42843 20.43939 -29.73525 14.93389 -28.3125 9.6875 C-21.89698 -0.93821 -11.69269 -4.40594 0 0 Z " fill="#DE1561" transform="translate(150.3125,13.625)"/>
<path d="M0 0 C4.31689 11.23616 8.25071 22.5631 12 34 C13.95091 39.85274 15.90516 45.70436 17.86328 51.55469 C25.32247 73.87312 32.68149 96.22141 39.94141 118.60547 C41.87666 124.54963 43.84749 130.48243 45.86719 136.39844 C48.41005 144.26919 49.3068 149.53194 46.375 157.3125 C43.01134 162.53502 39.51635 165.24183 34 168 C26.75455 168.96756 21.22012 168.03762 15 164 C11.40609 160.16419 9.72656 156.28896 7.9375 151.375 C7.45152 150.06273 6.96555 148.75047 6.46484 147.39844 C4.77161 142.31423 3.37013 137.17966 2 132 C0.40672 132.5775 -1.18656 133.155 -2.82812 133.75 C-4.94734 134.4925 -7.06656 135.235 -9.25 136 C-11.33828 136.7425 -13.42656 137.485 -15.57812 138.25 C-22.10567 140.0288 -27.2725 140.51713 -34 140 C-40.11804 136.31241 -45.00989 132.04192 -47 125 C-47.70382 117.25802 -47.02107 113.27634 -42 107 C-34.7019 99.7019 -24.77425 97.58326 -15 95 C-14.01 95 -13.02 95 -12 95 C-12.26812 93.70063 -12.53625 92.40125 -12.8125 91.0625 C-12.96332 90.3316 -13.11414 89.6007 -13.26953 88.84766 C-17.38543 72.80224 -23.77576 57.09983 -29.11719 41.42969 C-30.39852 37.65789 -31.67984 33.88609 -33 30 C-33.99258 27.09445 -34.98516 24.18891 -36.00781 21.19531 C-38 15 -38 15 -38 12 C-34.82117 10.95199 -34.82117 10.95199 -31.57812 9.88281 C-28.82984 8.97273 -26.08156 8.06266 -23.25 7.125 C-20.51203 6.22008 -17.77406 5.31516 -14.95312 4.38281 C-2.16393 0 -2.16393 0 0 0 Z " fill="#351038" transform="translate(86,76)"/>
<path d="M0 0 C1.13051 -0.01418 2.26102 -0.02836 3.42578 -0.04297 C9.5783 0.39176 12.64586 2.6277 16.6875 7.1875 C19.84724 11.49794 21.72764 15.54779 23.375 20.625 C23.79137 21.88184 24.20773 23.13867 24.63672 24.43359 C25.6875 28.1875 25.6875 28.1875 26.6875 35.1875 C29.68457 34.17687 32.68164 33.16625 35.76953 32.125 C39.64059 30.82563 43.51164 29.52625 47.5 28.1875 C51.36332 26.88813 55.22664 25.58875 59.20703 24.25 C68.6875 21.1875 68.6875 21.1875 71.6875 21.1875 C73.29225 25.83313 74.89627 30.47901 76.5 35.125 C77.39332 37.71215 78.28664 40.2993 79.20703 42.96484 C82.01815 51.15028 84.75873 59.30038 87.125 67.625 C88.98544 74.01083 91.13192 80.0541 93.6875 86.1875 C95.78451 91.93486 97.0072 97.12199 97.6875 103.1875 C58.07048 117.1875 58.07048 117.1875 54.6875 117.1875 C52.41626 110.5418 50.14552 103.89594 47.875 97.25 C45.97814 91.69865 45.97814 91.69865 44.04297 86.03516 C41.90457 79.75935 39.78413 73.47738 37.6875 67.1875 C35.05373 59.59311 32.4133 52.00107 29.76953 44.41016 C27.6875 38.1875 27.6875 38.1875 27.6875 36.1875 C26.41777 36.6348 25.14805 37.08211 23.83984 37.54297 C15.61193 40.43352 7.38214 43.31886 -0.875 46.125 C-2.05191 46.5259 -3.22883 46.9268 -4.44141 47.33984 C-7.3125 48.1875 -7.3125 48.1875 -10.3125 48.1875 C-9.44625 50.76305 -8.58 53.33859 -7.6875 55.99219 C-6.57375 59.31539 -5.46 62.63859 -4.3125 66.0625 C-3.19875 69.38055 -2.085 72.69859 -0.9375 76.11719 C1.6875 84.1875 1.6875 84.1875 1.6875 86.1875 C-21.95179 96.41443 -21.95179 96.41443 -32.3125 95.1875 C-39.39793 91.64479 -43.74247 87.67083 -46.3125 80.1875 C-47.18317 74.11794 -47.34139 68.77962 -43.625 63.6875 C-37.72128 57.44961 -32.97466 55.11965 -24.6875 52.4375 C-21.88379 51.51711 -21.88379 51.51711 -19.02344 50.57812 C-14.3125 49.1875 -14.3125 49.1875 -11.3125 49.1875 C-11.89 47.58262 -12.4675 45.97773 -13.0625 44.32422 C-13.805 42.19598 -14.5475 40.06773 -15.3125 37.875 C-16.055 35.77512 -16.7975 33.67523 -17.5625 31.51172 C-19.61207 24.10491 -20.7196 17.62084 -17.75 10.375 C-12.59193 3.62983 -8.38926 0.0475 0 0 Z " fill="#3DB991" transform="translate(58.3125,39.8125)"/>
<path d="M0 0 C6.94072 4.47029 9.41296 9.47446 11.8125 17.25 C13.6229 23.03349 15.55162 28.70456 17.6875 34.375 C43.6875 108.60688 43.6875 108.60688 43.6875 114.375 C45.6675 114.87 45.6675 114.87 47.6875 115.375 C41.62612 117.35758 35.56336 119.33597 29.5 121.3125 C26.12395 122.41465 22.74789 123.5168 19.26953 124.65234 C10.6875 127.375 10.6875 127.375 5.6875 128.375 C5.03781 126.17844 5.03781 126.17844 4.375 123.9375 C1.68155 114.90091 1.68155 114.90091 -1.75 106.12891 C-3.41186 102.13628 -4.63071 98.159 -5.8125 94 C-7.50415 88.06839 -9.33875 82.21885 -11.3125 76.375 C-11.95188 74.43367 -12.59125 72.49234 -13.25 70.49219 C-13.93062 68.43227 -14.61125 66.37234 -15.3125 64.25 C-16.33344 61.15238 -16.33344 61.15238 -17.375 57.99219 C-18.45815 54.85192 -19.59187 51.72428 -20.90234 48.67188 C-22.57156 44.76932 -23.71836 40.83268 -24.875 36.75 C-26.44182 31.12744 -26.44182 31.12744 -28.44531 25.65625 C-30.42843 20.43939 -29.73525 14.93389 -28.3125 9.6875 C-21.89698 -0.93821 -11.69269 -4.40594 0 0 Z " fill="#E7A720" transform="translate(150.3125,13.625)"/>
<path d="M0 0 C4.31689 11.23616 8.25071 22.5631 12 34 C13.96329 39.88988 15.94689 45.77304 17.95312 51.64844 C19.04109 54.8582 20.12906 58.06797 21.25 61.375 C22.34828 64.60023 23.44656 67.82547 24.57812 71.14844 C27 79 27 79 26 82 C22.75391 83.24609 22.75391 83.24609 18.5625 84.4375 C13.81028 85.84042 9.14367 87.23309 4.5625 89.125 C-7.3 94 -7.3 94 -12 94 C-13.99314 88.02059 -15.88372 82.00597 -17.66797 75.96094 C-22.55605 59.88126 -28.13075 44.04895 -33.61328 28.16406 C-37 18 -37 18 -38 12 C-34.82117 10.95199 -34.82117 10.95199 -31.57812 9.88281 C-28.82984 8.97273 -26.08156 8.06266 -23.25 7.125 C-20.51203 6.22008 -17.77406 5.31516 -14.95312 4.38281 C-2.16393 0 -2.16393 0 0 0 Z " fill="#3DB890" transform="translate(86,76)"/>
<path d="M0 0 C14 35.58333 14 35.58333 14 43 C15.32 43.33 16.64 43.66 18 44 C11.93862 45.98258 5.87586 47.96097 -0.1875 49.9375 C-5.25158 51.59072 -5.25158 51.59072 -10.41797 53.27734 C-19 56 -19 56 -24 57 C-24.43312 55.53563 -24.86625 54.07125 -25.3125 52.5625 C-27.98803 43.55393 -27.98803 43.55393 -31.42578 34.82031 C-33.21956 30.46718 -34.46021 26.10681 -35.6875 21.5625 C-36.12449 19.95504 -36.56148 18.34758 -37.01172 16.69141 C-37.50092 14.86416 -37.50092 14.86416 -38 13 C-8.75 0 -8.75 0 0 0 Z " fill="#E7A720" transform="translate(180,85)"/>
<path d="M0 0 C1.65556 4.66322 3.29911 9.33071 4.9375 14 C5.85402 16.59875 6.77055 19.1975 7.71484 21.875 C9.40923 27.158 10.67161 31.5221 11 37 C4.6693 39.60676 -1.67695 41.93517 -8.18359 44.0625 C-11.82743 45.27543 -15.40684 46.6452 -19 48 C-27.3945 51 -27.3945 51 -31 51 C-31.33 51.99 -31.66 52.98 -32 54 C-32.27973 53.00484 -32.55945 52.00969 -32.84766 50.98438 C-35.75001 40.86813 -39.05837 30.96474 -42.64453 21.07031 C-44 17 -44 17 -44 14 C-37.23107 11.66115 -30.4598 9.32906 -23.6875 7 C-19.91699 5.70063 -16.14648 4.40125 -12.26172 3.0625 C-3 0 -3 0 0 0 Z " fill="#6EC8DA" transform="translate(130,61)"/>
<path d="M0 0 C1.16123 3.2654 2.30327 6.53762 3.4375 9.8125 C4.07559 11.63395 4.71367 13.45539 5.37109 15.33203 C7.55552 22.93299 8.90644 29.28069 6.375 36.875 C3.2268 42.34292 0.63352 45.18324 -5 48 C-11.09016 48.63103 -16.93601 48.94147 -22.5625 46.375 C-28.80201 40.29548 -31.52082 34.75069 -34.375 26.4375 C-35.08398 24.41496 -35.79297 22.39242 -36.52344 20.30859 C-38 15 -38 15 -37 10 C-35.52789 9.54109 -34.05578 9.08219 -32.53906 8.60938 C-30.58742 7.99578 -28.63578 7.38219 -26.625 6.75 C-24.69914 6.14672 -22.77328 5.54344 -20.78906 4.92188 C-15.00562 3.08821 -15.00562 3.08821 -9.58594 0.70312 C-5 -1 -5 -1 0 0 Z " fill="#E8A61F" transform="translate(208,168)"/>
<path d="M0 0 C2.30458 4.60917 3.94099 9.25314 5.625 14.125 C6.25664 15.92195 6.88828 17.71891 7.53906 19.57031 C9.45095 26.67597 9.98786 32.37838 7.375 39.3125 C4.01134 44.53502 0.51635 47.24183 -5 50 C-12.24545 50.96756 -17.77988 50.03762 -24 46 C-27.5832 42.17609 -29.23544 38.34278 -31 33.4375 C-31.47437 32.13684 -31.94875 30.83617 -32.4375 29.49609 C-34.34239 24.01476 -36.16496 18.50511 -38 13 C-25.46 8.71 -12.92 4.42 0 0 Z " fill="#3CB790" transform="translate(125,194)"/>
<path d="M0 0 C3.2795 8.53599 6.44717 17.10816 9.4375 25.75 C9.95184 27.22984 10.46617 28.70969 10.99609 30.23438 C12 34 12 34 11 38 C5.04095 40.25399 -0.99551 42.30518 -7.0625 44.25 C-10.39473 45.32766 -13.72695 46.40531 -17.16016 47.51562 C-19.7473 48.33547 -22.33445 49.15531 -25 50 C-29.42436 45.57564 -30.72519 37.29875 -32.625 31.5625 C-33.62789 28.55254 -34.63078 25.54258 -35.66406 22.44141 C-38 15 -38 15 -38 12 C-34.82117 10.95199 -34.82117 10.95199 -31.57812 9.88281 C-28.82984 8.97273 -26.08156 8.06266 -23.25 7.125 C-20.51203 6.22008 -17.77406 5.31516 -14.95312 4.38281 C-2.16393 0 -2.16393 0 0 0 Z " fill="#1B937C" transform="translate(86,76)"/>
<path d="M0 0 C4.86596 2.66251 8.3052 5.13366 11.1875 9.9375 C13.21474 16.92023 13.32171 22.45768 10.4375 29.1875 C2.60764 38.27014 -11.52165 41.55874 -22.6875 44.8125 C-23.6775 44.4825 -24.6675 44.1525 -25.6875 43.8125 C-27.71268 38.21176 -29.58325 32.55472 -31.375 26.875 C-32.36887 23.7516 -33.36273 20.6282 -34.38672 17.41016 C-36.6875 9.8125 -36.6875 9.8125 -36.6875 7.8125 C-31.35417 5.8125 -26.02083 3.8125 -20.6875 1.8125 C-19.28629 1.25949 -17.88508 0.70648 -16.44141 0.13672 C-10.64544 -1.90785 -5.83857 -1.88022 0 0 Z " fill="#DF1762" transform="translate(231.6875,121.1875)"/>
<path d="M0 0 C3.29604 6.59208 5.30052 13.63955 7.625 20.625 C8.62789 23.62852 9.63078 26.63203 10.66406 29.72656 C13 37 13 37 13 39 C-10.63929 49.22693 -10.63929 49.22693 -21 48 C-28.08543 44.45729 -32.42997 40.48333 -35 33 C-35.87067 26.93044 -36.02889 21.59212 -32.3125 16.5 C-26.40878 10.26211 -21.66216 7.93215 -13.375 5.25 C-11.50586 4.63641 -9.63672 4.02281 -7.71094 3.39062 C-3 2 -3 2 0 2 C0 1.34 0 0.68 0 0 Z " fill="#6EC9DB" transform="translate(47,87)"/>
<path d="M0 0 C3.80031 5.70047 5.42245 12.62274 7.625 19.0625 C8.62789 21.98223 9.63078 24.90195 10.66406 27.91016 C13 35 13 35 13 37 C10.99937 37.68707 8.99875 38.37414 6.9375 39.08203 C4.31813 39.98309 1.69875 40.88414 -1 41.8125 C-3.59875 42.70582 -6.1975 43.59914 -8.875 44.51953 C-12.86981 45.91027 -16.85715 47.32491 -20.8125 48.82422 C-24 50 -24 50 -26 50 C-26.45439 48.42025 -26.45439 48.42025 -26.91797 46.80859 C-30.11642 30.90293 -30.11642 30.90293 -37 17 C-37 15.35 -37 13.7 -37 12 C-24.79 8.04 -12.58 4.08 0 0 Z " fill="#64851C" transform="translate(167,48)"/>
<path d="M0 0 C1.9604 5.4073 3.81806 10.852 5.625 16.3125 C7.12934 20.82357 7.12934 20.82357 8.66406 25.42578 C11 33 11 33 11 37 C7.42559 38.35707 3.83995 39.6846 0.25 41 C-1.74547 41.7425 -3.74094 42.485 -5.79688 43.25 C-12.24523 45.06918 -17.33664 45.5093 -24 45 C-30.11804 41.31241 -35.00989 37.04192 -37 30 C-37.70382 22.25802 -37.02107 18.27634 -32 12 C-25.93591 6.7876 -20.24468 4.38706 -12.625 2.0625 C-10.67852 1.45535 -8.73203 0.8482 -6.72656 0.22266 C-2 -1 -2 -1 0 0 Z " fill="#DE1662" transform="translate(76,171)"/>
<path d="M0 0 C2.0919 5.58328 3.97547 11.24539 5.75 16.9375 C6.73484 20.0609 7.71969 23.1843 8.73438 26.40234 C11 34 11 34 11 36 C10.15438 36.25395 9.30875 36.50789 8.4375 36.76953 C2.20285 38.66118 -3.90586 40.69161 -10 43 C-24.45783 48 -24.45783 48 -27 48 C-29.00368 42.20961 -31.00285 36.41765 -33 30.625 C-34.11375 27.39977 -35.2275 24.17453 -36.375 20.85156 C-39 13 -39 13 -39 11 C-7.53362 -1.8834 -7.53362 -1.8834 0 0 Z " fill="#CD0E0A" transform="translate(196,131)"/>
<path d="M0 0 C5.42839 3.8094 8.92739 7.06268 10.14062 13.62891 C10.42245 19.15654 10.18884 23.46073 6.9375 28.0625 C1.8604 33.23362 -2.85923 35.89438 -9.75 38.0625 C-11.05711 38.48016 -12.36422 38.89781 -13.71094 39.32812 C-14.9407 39.71484 -16.17047 40.10156 -17.4375 40.5 C-19.25142 41.09988 -21.06423 41.70316 -22.875 42.3125 C-24.63844 42.90031 -24.63844 42.90031 -26.4375 43.5 C-29.80595 35.41882 -32.5367 27.21721 -35.1875 18.875 C-35.98672 16.36648 -36.78594 13.85797 -37.60938 11.27344 C-38.21266 9.3682 -38.81594 7.46297 -39.4375 5.5 C-37.55934 5.05012 -35.68117 4.60023 -33.74609 4.13672 C-27.55942 2.71397 -27.55942 2.71397 -22.5 0.3125 C-15.05523 -2.79248 -7.56218 -2.55623 0 0 Z " fill="#6EC9DB" transform="translate(206.4375,41.5)"/>
</g></svg>
