<svg xmlns="http://www.w3.org/2000/svg" viewBox="0 0 24 24">
  <rect x="1" y="1" width="22" height="22" rx="3.3" fill="#194FC8"/>
  <path fill="#FFFFFF" d="M12.17 4.5C7.37 4.5 3.48 7.65 3.48 11.55C3.48 13.97 4.97 16.11 7.27 17.41L5.5 20.65L10.85 19.4C11.28 19.45 11.72 19.48 12.17 19.48C16.97 19.48 20.86 16.33 20.86 12.43C20.86 8.54 16.97 4.5 12.17 4.5Z"/>
  <path fill="#194FC8" d="M9.2 8.6C8.95 8.6 8.74 8.81 8.74 9.08V9.9C8.74 13.07 11.28 15.64 14.41 15.64H15.22C15.47 15.64 15.68 15.43 15.68 15.16V13.72C15.68 13.45 15.47 13.24 15.22 13.24H14.57C14.32 13.24 14.11 13.45 14.11 13.72V14.09C12.61 13.79 11.45 12.62 11.16 11.1H11.53C11.78 11.1 11.99 10.89 11.99 10.62V9.95C11.99 9.68 11.78 9.47 11.53 9.47H10.11C10.11 8.97 10.44 8.6 10.88 8.6H9.2Z"/>
</svg>
