<svg xmlns="http://www.w3.org/2000/svg" viewBox="0 0 24 24">
  <path fill="currentColor" fill-rule="evenodd" d="M3.33 0 H20.67 A3.33 3.33 0 0 1 24 3.33 V20.67 A3.33 3.33 0 0 1 20.67 24 H3.33 A3.33 3.33 0 0 1 0 20.67 V3.33 A3.33 3.33 0 0 1 3.33 0 Z M3.981 13.903 A8.689 7.008 0 1 1 7.567 17.507 L3.340 17.655 Z M10.077 7.138 L11.483 8.812 C11.563 9.035 11.740 9.258 11.483 9.482 L10.445 10.286 C10.449 10.401 10.344 10.475 10.366 10.823 C10.439 11.994 10.866 13.026 12.347 13.583 C12.546 13.661 12.829 13.841 12.965 13.667 L13.980 12.650 C14.126 12.407 14.584 12.577 14.817 12.774 L16.236 14.170 C16.399 14.438 16.454 14.623 16.265 14.891 L14.954 15.850 C14.652 15.992 14.393 16.019 14.019 15.856 C10.052 14.310 8.241 11.576 8.203 8.780 C8.040 8.312 8.295 8.157 8.471 7.943 L9.542 7.039 C9.721 6.999 9.899 6.922 10.078 7.139 Z"/>
</svg>
