<svg xmlns="http://www.w3.org/2000/svg" viewBox="0 0 24 24">
  <path fill="currentColor" fill-rule="evenodd" clip-rule="evenodd" d="M4.3 1C2.48 1 1 2.48 1 4.3V19.7C1 21.52 2.48 23 4.3 23H19.7C21.52 23 23 21.52 23 19.7V4.3C23 2.48 21.52 1 19.7 1H4.3ZM3.48 11.55C3.48 7.65 7.37 4.5 12.17 4.5C16.97 4.5 20.86 7.56 20.86 11.45C20.86 15.34 16.97 18.42 12.17 18.42C11.76 18.42 11.36 18.39 10.96 18.33L6.06 20.48C5.79 20.6 5.5 20.31 5.65 20.05L7.21 17.37C4.96 16.07 3.48 13.95 3.48 11.55ZM9.2 8.6C8.95 8.6 8.74 8.81 8.74 9.08V9.9C8.74 13.07 11.28 15.64 14.41 15.64H15.22C15.47 15.64 15.68 15.43 15.68 15.16V13.72C15.68 13.45 15.47 13.24 15.22 13.24H14.57C14.32 13.24 14.11 13.45 14.11 13.72V14.09C12.61 13.79 11.45 12.62 11.16 11.1H11.53C11.78 11.1 11.99 10.89 11.99 10.62V9.95C11.99 9.68 11.78 9.47 11.53 9.47H10.11C10.11 8.97 10.44 8.6 10.88 8.6H9.2Z"/>
</svg>
