<svg xmlns="http://www.w3.org/2000/svg" viewBox="0 0 24 24">
  <path fill="#171d27" d="M1.174 12.243q-.349 0-.614-.153a1.1 1.1 0 0 1-.413-.432A1.36 1.36 0 0 1 0 11.015q0-.437.216-.766.22-.33.624-.506.408-.177.952-.177.25 0 .408.035v-.104q0-.372-.137-.554-.138-.187-.418-.187-.451 0-.58.476-.04.138-.161.118l-.668-.118Q.16 9.218.133 9.168.108 9.12.128 9.036q.128-.501.54-.776.417-.28 1.046-.28.747 0 1.134.403.393.403.393 1.173v2.47a.13.13 0 0 1-.04.094.12.12 0 0 1-.088.034h-.638q-.118 0-.147-.127l-.098-.462h-.04a1.07 1.07 0 0 1-.398.5q-.26.178-.618.178m-.103-1.346q0 .261.132.417a.47.47 0 0 0 .368.153q.305 0 .467-.27.162-.276.162-.786v-.26a1.5 1.5 0 0 0-.26-.025q-.403 0-.639.211-.23.207-.23.56m2.78-2.7a.12.12 0 0 1 .034-.09.13.13 0 0 1 .093-.039h.648a.12.12 0 0 1 .088.035.15.15 0 0 1 .05.093l.098.481h.04q.132-.338.377-.515a.98.98 0 0 1 .59-.182q.363 0 .623.192.265.19.408.545h.04q.215-.374.485-.555c.27-.181.382-.182.604-.182q.364 0 .629.196.27.197.412.56.143.364.143.86v2.43a.13.13 0 0 1-.04.094.12.12 0 0 1-.088.034H8.3a.14.14 0 0 1-.093-.034.14.14 0 0 1-.034-.093V9.674q0-.358-.138-.55a.46.46 0 0 0-.398-.191.5.5 0 0 0-.437.226q-.147.225-.147.653v2.215a.13.13 0 0 1-.04.093.12.12 0 0 1-.088.034H6.14a.14.14 0 0 1-.094-.034.14.14 0 0 1-.034-.093V9.674q0-.358-.138-.55a.46.46 0 0 0-.397-.191.5.5 0 0 0-.437.226q-.148.225-.148.653v2.214a.13.13 0 0 1-.039.094.12.12 0 0 1-.088.034h-.786a.14.14 0 0 1-.093-.034.14.14 0 0 1-.035-.094zm5.873 2.818q0-.437.216-.766.22-.33.623-.506.408-.177.953-.177.25 0 .408.035v-.104q0-.372-.138-.554-.136-.187-.417-.187-.452 0-.58.476-.039.138-.162.118l-.668-.118q-.073-.014-.103-.064-.024-.049-.005-.132.127-.501.54-.776.418-.28 1.046-.28.747 0 1.135.403.393.403.393 1.173v2.47a.13.13 0 0 1-.04.094.12.12 0 0 1-.088.034H12.2q-.118 0-.148-.127l-.098-.462h-.04a1.07 1.07 0 0 1-.397.5q-.26.178-.619.178c-.359 0-.437-.051-.614-.153a1.1 1.1 0 0 1-.412-.432 1.36 1.36 0 0 1-.147-.643m1.07-.118q0 .261.133.417a.47.47 0 0 0 .368.153q.305 0 .467-.27.162-.276.162-.786v-.26a1.5 1.5 0 0 0-.26-.025q-.404 0-.639.211-.23.207-.23.56m2.701.535q0-.108.06-.186l1.679-2.353h-1.572a.14.14 0 0 1-.093-.034.14.14 0 0 1-.035-.093v-.57a.12.12 0 0 1 .035-.088.13.13 0 0 1 .093-.04h2.583q.054 0 .089.04.039.034.039.088v.594q0 .108-.059.187l-1.522 2.092q.137-.024.28-.025a3.1 3.1 0 0 1 1.267.26q.113.05.113.168v.564q0 .08-.05.108-.048.025-.122-.004a4 4 0 0 0-.653-.192q-.28-.06-.614-.059c-.334.001-.436.02-.649.059q-.315.06-.697.192-.074.024-.123 0-.049-.03-.049-.104zm3.173-1.32q0-.6.23-1.086.23-.491.634-.766.408-.28.904-.28c.496 0 .635.093.903.28q.408.275.639.766.235.486.235 1.085 0 .6-.235 1.09-.231.487-.639.767-.403.275-.903.275c-.334 0-.632-.092-.904-.275a1.9 1.9 0 0 1-.634-.766 2.5 2.5 0 0 1-.23-1.09m1.08 0q0 .623.177.962.177.334.51.334c.334 0 .395-.112.516-.334q.182-.339.182-.963t-.182-.957q-.181-.34-.515-.34c-.334 0-.393.114-.511.34q-.177.334-.177.957m2.996-1.916a.12.12 0 0 1 .034-.088.13.13 0 0 1 .093-.04h.649a.12.12 0 0 1 .088.035.15.15 0 0 1 .05.093l.097.481h.04a1.1 1.1 0 0 1 .388-.515q.26-.182.609-.182.373 0 .643.196.275.197.422.56t.147.86v2.43a.13.13 0 0 1-.039.094.12.12 0 0 1-.088.034h-.786a.14.14 0 0 1-.093-.034.14.14 0 0 1-.035-.093V9.674q0-.358-.147-.55a.5.5 0 0 0-.417-.191q-.3 0-.457.226-.157.225-.157.653v2.215a.13.13 0 0 1-.04.093.12.12 0 0 1-.088.034h-.786a.14.14 0 0 1-.093-.034.14.14 0 0 1-.034-.093z"/>
  <path fill="#ff6201" d="M2.73 12.719q-.093.073-.039.245.05.153.231.379.732.903 1.743 1.502c1.011.6 1.397.694 2.166.884q1.16.29 2.367.29 1.548 0 2.947-.452 1.4-.447 2.337-1.257.33-.29.33-.462a.2.2 0 0 0-.055-.127.18.18 0 0 0-.176-.05 1.4 1.4 0 0 0-.29.123q-.9.472-2.19.752-1.287.285-2.687.285-1.733 0-3.349-.472a8.2 8.2 0 0 1-2.863-1.473 1.1 1.1 0 0 0-.295-.182q-.107-.039-.176.015"/>
  <path fill="#ff6201" d="M13.642 12.965q-.104.098-.054.206.034.079.133.088.098.015.28-.02.293-.063.614-.088.318-.02.555.01.236.034.294.118.09.132-.064.56a4 4 0 0 1-.402.83 1 1 0 0 0-.118.255.16.16 0 0 0 .049.157q.045.045.098.045.143 0 .413-.25.486-.423.682-1.003.108-.3.133-.628.024-.33-.074-.472-.093-.137-.412-.226a2.2 2.2 0 0 0-.614-.088q-.623 0-1.184.295a1.5 1.5 0 0 0-.31.21z"/>
</svg>
