<svg xmlns="http://www.w3.org/2000/svg" viewBox="0 0 24 24">
  <path fill="#f90" d="M9.66 13.323c-.906.667-2.217 1.023-3.346 1.023a6.05 6.05 0 0 1-4.087-1.56c-.085-.076-.009-.18.093-.12a8.2 8.2 0 0 0 4.089 1.084 8.1 8.1 0 0 0 3.119-.638c.153-.065.28.1.131.211"/>
  <path fill="#f90" d="M10.035 12.893c-.115-.148-.764-.07-1.056-.035-.088.01-.102-.067-.022-.122.517-.364 1.366-.26 1.465-.137.098.122-.026.973-.512 1.379-.075.062-.146.03-.113-.054.11-.272.354-.883.238-1.031"/>
  <path fill="#000000" d="M9 10.166v-.353c0-.054.04-.09.09-.09h1.583c.05 0 .091.037.091.09v.303c0 .05-.043.117-.119.222l-.82 1.172c.304-.008.626.038.903.193.062.036.08.087.084.138v.378c0 .051-.057.111-.117.08a1.83 1.83 0 0 0-1.673.003c-.055.03-.112-.03-.112-.081v-.359c0-.058 0-.156.058-.243l.95-1.364h-.827c-.05 0-.091-.036-.091-.089M3.222 12.374H2.74a.09.09 0 0 1-.086-.082V9.819a.09.09 0 0 1 .093-.09h.45a.09.09 0 0 1 .087.084v.323h.008c.118-.313.338-.458.635-.458.301 0 .49.145.625.458a.68.68 0 0 1 .666-.458c.202 0 .423.083.558.27.152.208.121.51.121.775v1.561c0 .05-.042.09-.094.09h-.48a.09.09 0 0 1-.087-.09v-1.31c0-.105.009-.365-.014-.464-.036-.166-.144-.213-.283-.213a.32.32 0 0 0-.288.203c-.05.125-.045.333-.045.474v1.31c0 .05-.041.09-.093.09h-.481a.09.09 0 0 1-.087-.09v-1.31c0-.276.045-.682-.297-.682-.347 0-.333.396-.333.682v1.31c0 .05-.042.09-.093.09M12.128 9.678c.715 0 1.102.614 1.102 1.395 0 .754-.428 1.352-1.102 1.352-.702 0-1.084-.614-1.084-1.379 0-.77.387-1.368 1.084-1.368m.004.505c-.355 0-.377.484-.377.785s-.005.948.373.948c.374 0 .391-.52.391-.838 0-.209-.009-.458-.072-.656-.054-.172-.162-.24-.315-.24M14.157 12.374h-.48a.09.09 0 0 1-.086-.09l-.001-2.473a.09.09 0 0 1 .093-.081h.446c.042.002.077.03.087.069v.378h.008c.135-.338.324-.5.657-.5.216 0 .427.079.563.292.126.198.126.53.126.77v1.557a.093.093 0 0 1-.093.078h-.483a.09.09 0 0 1-.086-.078v-1.343c0-.27.031-.667-.301-.667-.118 0-.225.079-.279.198a1.1 1.1 0 0 0-.077.469v1.331c0 .05-.042.09-.094.09M15.871 12.177c0-.124.107-.225.237-.225.131 0 .238.1.238.225a.23.23 0 0 1-.238.226.23.23 0 0 1-.237-.226M20.977 12.374a.09.09 0 0 1-.09-.089V9.812a.09.09 0 0 1 .086-.081h.177a.09.09 0 0 1 .092.08v.361c.126-.286.36-.51.657-.51h.036c.314 0 .544.233.63.57.133-.333.384-.57.715-.57h.036000000000000004c.234 0 .459.151.576.38.112.22.108.51.108.755v1.488a.09.09 0 0 1-.087.09h-.211a.09.09 0 0 1-.09-.078v-1.5c0-.177.01-.364-.063-.526-.073-.164-.213-.267-.364-.275-.168.008-.322.131-.423.296-.13.214-.125.406-.125.656v1.35a.09.09 0 0 1-.086.076h-.21a.09.09 0 0 1-.09-.089l-.002-1.587c0-.145-.008-.317-.076-.448a.45.45 0 0 0-.363-.254c-.152.01-.305.125-.396.26-.118.172-.14.385-.14.604v1.425a.09.09 0 0 1-.087.09zM19.525 12.426c-.684 0-.99-.697-.99-1.395 0-.733.36-1.368 1.048-1.368h.037c.67 0 1.003.676 1.003 1.374 0 .738-.37 1.389-1.062 1.389h-.036m.05-.338c.225-.008.403-.147.508-.38.094-.209.112-.448.112-.677 0-.25-.027-.51-.144-.723a.58.58 0 0 0-.477-.312c-.212.008-.403.152-.498.374-.087.193-.113.448-.113.661 0 .24.031.516.13.724a.57.57 0 0 0 .482.333M17.388 12.077c.307-.01.468-.256.535-.574.013-.04.044-.07.089-.07l.202-.001c.048.002.092.038.088.083-.093.543-.42.911-.887.911h-.036000000000000004c-.68 0-.972-.682-.972-1.374 0-.686.296-1.39.976-1.39h.036c.472 0 .808.364.881.907 0 .04-.038.076-.082.08l-.213-.002c-.044-.006-.073-.044-.08-.087-.051-.303-.225-.544-.515-.554-.462.015-.593.583-.593 1.02 0 .421.11 1.036.571 1.05M7.737 11.192c0 .188.005.345-.09.511-.077.136-.199.22-.334.22-.185 0-.293-.142-.293-.35 0-.41.368-.485.717-.485zm.486 1.175a.1.1 0 0 1-.114.012c-.16-.133-.189-.195-.276-.322-.265.27-.452.35-.795.35-.406 0-.72-.25-.72-.75 0-.391.21-.658.513-.788.262-.115.627-.135.906-.167v-.063c0-.114.009-.25-.059-.349-.058-.088-.17-.125-.27-.125-.184 0-.347.094-.387.29-.008.043-.04.085-.084.088l-.922-.105c-.036-.008-.077-.038-.067-.094.1-.526.576-.684 1-.684.219 0 .503.058.675.223.217.203.197.474.197.77v.696c0 .21.087.302.168.415.03.04.036.089-.001.119-.091.076-.254.218-.343.297l-.001-.001M1.42 11.192c0 .188.005.345-.09.511-.077.136-.198.22-.334.22-.185 0-.293-.142-.293-.35 0-.41.369-.485.717-.485zm.486 1.175a.1.1 0 0 1-.114.012c-.16-.133-.188-.195-.277-.322-.264.27-.451.35-.794.35-.405 0-.721-.25-.721-.75 0-.391.212-.658.514-.788.261-.115.627-.135.906-.167v-.063c0-.114.009-.25-.058-.349-.06-.088-.172-.125-.27-.125-.185 0-.349.094-.389.29-.008.043-.04.085-.083.088l-.468-.05c-.039-.01-.082-.041-.071-.102.107-.566.62-.737 1.077-.737.235 0 .541.062.726.24.235.219.212.51.212.829v.75c0 .226.094.325.182.447.031.044.038.096-.001.128a21 21 0 0 0-.37.32z"/>
</svg>
