<svg xmlns="http://www.w3.org/2000/svg" viewBox="0 0 24 24">
  <path fill="currentColor" d="M14.89 14.04c-1.394 1.026-3.414 1.574-5.152 1.574a9.32 9.32 0 0 1-6.294-2.401c-.13-.118-.014-.279.143-.187 1.792 1.043 4.008 1.67 6.297 1.67 1.543 0 3.241-.32 4.803-.982.236-.1.433.154.202.325"/>
  <path fill="currentColor" d="M15.468 13.377c-.177-.228-1.177-.108-1.626-.055-.136.017-.157-.102-.034-.188.796-.56 2.103-.398 2.255-.21.153.189-.04 1.498-.788 2.124-.114.096-.224.044-.173-.083.168-.42.545-1.36.366-1.588"/>
  <path fill="currentColor" d="M13.874 9.178v-.545c0-.082.062-.138.137-.138h2.44c.078 0 .14.057.14.138V9.1c0 .078-.066.18-.183.342l-1.264 1.804c.47-.011.965.059 1.391.299.096.054.122.134.13.212v.581c0 .08-.088.172-.18.124a2.81 2.81 0 0 0-2.577.005c-.084.045-.173-.046-.173-.126v-.552c0-.089 0-.24.09-.375l1.464-2.1h-1.274c-.079 0-.141-.055-.141-.136M4.976 12.577h-.742a.14.14 0 0 1-.132-.126V8.642a.14.14 0 0 1 .143-.136h.692a.14.14 0 0 1 .134.127v.498h.014c.18-.481.52-.706.977-.706.464 0 .754.225.963.706.18-.481.588-.706 1.025-.706.31 0 .651.129.859.417.235.32.187.786.187 1.194l-.001 2.403a.14.14 0 0 1-.143.138H8.21a.14.14 0 0 1-.134-.138v-2.018c0-.16.015-.562-.02-.714-.056-.256-.222-.328-.437-.328-.18 0-.368.12-.444.312s-.069.514-.069.73v2.018a.14.14 0 0 1-.143.138h-.74a.14.14 0 0 1-.134-.138l-.001-2.018c0-.425.07-1.05-.457-1.05-.534 0-.513.61-.513 1.05v2.018a.14.14 0 0 1-.143.138M18.691 8.425c1.101 0 1.697.946 1.697 2.148 0 1.162-.658 2.083-1.697 2.083-1.08 0-1.67-.945-1.67-2.123 0-1.186.596-2.108 1.67-2.108m.007.778c-.547 0-.582.745-.582 1.21s-.007 1.459.575 1.459c.575 0 .603-.802.603-1.29 0-.322-.014-.706-.111-1.01-.084-.266-.25-.37-.485-.37M21.816 12.577h-.739a.14.14 0 0 1-.133-.138l-.001-3.81a.14.14 0 0 1 .143-.123h.687a.14.14 0 0 1 .133.106v.583h.014c.207-.521.498-.77 1.01-.77.334 0 .658.12.867.45.194.304.194.816.194 1.185v2.397a.14.14 0 0 1-.143.12h-.744a.14.14 0 0 1-.131-.12V10.39c0-.417.048-1.026-.465-1.026-.18 0-.346.12-.429.304-.104.233-.118.465-.118.722v2.05a.143.143 0 0 1-.145.138M2.201 10.758v-.16c-.536 0-1.103.114-1.103.747 0 .32.166.537.45.537.21 0 .396-.128.514-.337.146-.257.139-.498.139-.787m.748 1.809a.155.155 0 0 1-.175.017c-.246-.204-.29-.3-.426-.494-.407.415-.695.54-1.223.54-.624 0-1.11-.386-1.11-1.157 0-.602.326-1.012.79-1.213.403-.177.966-.209 1.396-.258v-.096c0-.176.014-.385-.09-.537-.09-.137-.264-.193-.416-.193-.283 0-.536.145-.597.445-.013.067-.062.133-.129.136L.25 9.68c-.06-.014-.127-.063-.11-.156.166-.872.954-1.135 1.66-1.135.36 0 .832.096 1.117.37.361.336.327.786.327 1.276v1.156c0 .348.144.5.28.688.047.067.058.147-.003.197-.151.126-.42.361-.569.493zM11.918 10.758v-.16c-.537 0-1.103.114-1.103.747 0 .32.165.537.45.537.21 0 .396-.128.514-.337.146-.257.139-.498.139-.787m.748 1.809a.155.155 0 0 1-.175.017c-.247-.204-.29-.3-.426-.494-.407.415-.695.54-1.223.54-.624 0-1.11-.386-1.11-1.157 0-.602.326-1.012.79-1.213.403-.177.966-.209 1.396-.258v-.096c0-.176.013-.385-.09-.537-.09-.137-.264-.193-.416-.193-.283 0-.536.145-.597.445-.013.067-.062.133-.129.136l-.708-.077c-.061-.014-.128-.063-.111-.156.166-.872.954-1.135 1.66-1.135.36 0 .832.096 1.117.37.361.336.327.786.327 1.276v1.156c0 .348.144.5.28.688.048.067.058.147-.002.197-.152.126-.421.361-.57.493l-.001-.002"/>
</svg>
