<svg xmlns="http://www.w3.org/2000/svg" viewBox="0 0 24 24">
  <g transform="translate(0 7.49) scale(0.09023)">
    <rect fill="#3B5998" width="265.999" height="100"/>
    <path fill="#FFFFFF" d="M143.88 42.839c-3.287-.351-6.131.645-8.535 3.536v-.899V29.87v-.172v-1.054l-8.705 1.054v41.04h8.705v-2.436c1.174.838 2.316 1.847 3.652 2.325 5.072 1.818 11.76.336 14.1-6.448 1.502-4.352 1.463-8.814.332-13.215-1.254-4.89-4.508-7.589-9.549-8.126Zm1.301 17.774c-.383 2.706-2.537 4.124-5.094 3.925-.639-.05-1.217-.181-1.736-.384-2.061-1.183-2.684-3.164-2.865-4.408-.002.001-.004.001-.004.002-.141-1.925-.293-5.95.646-7.852.797-1.458 2.188-2.252 4.033-2.313 2.621-.086 4.604 1.214 4.994 3.874.346 2.344.362 4.814.026 7.156Z"/>
    <path fill="#FFFFFF" d="M174.731 43.346c-3.025-.809-6.08-.799-9.098.005-4.52 1.203-7.549 4.063-8.525 8.612-.533 2.482-.639 5.121-.498 7.666.322 5.822 3.922 9.969 9.51 11.257.078.019.16.033.24.051h-.002s.016.003.041.008c.215.043.43.083.646.116.072.006.146.012.217.019h.006c.271.05.596.087.938.114 1.094.116 2.486.199 3.648.062.008 0 .012-.002.018-.003.059-.001.119-.001.178-.005 5.77-.3 10.148-3.938 11.426-9.519.701-3.061.701-6.137.023-9.2-1.099-4.808-4.015-7.901-8.806-9.183Zm.368 16.826c-.029.181-.059.36-.1.538-.578 2.568-2.443 3.958-4.93 3.842-2.674-.122-4.508-1.685-4.766-4.357-.186-1.952-.201-3.945-.039-5.898.254-3.083 2.182-4.769 5.074-4.712 2.377.046 4.07 1.393 4.674 3.678.548 2.299.141 6.386.087 6.909Z"/>
    <path fill="#FFFFFF" d="M44.054 43.202h-6.213V39.07c.454-3.906 6.906-3.164 6.906-3.164l.002-.267-.002-.03v-6.416h-.001v-.001h-.005c-.222-.053-12.834-3.046-15.339 6.553 0 .002 0 .005-.003.007-.005.021-.011.042-.016.063-.394 1.2-.367 6.696-.362 7.387h-5.385v7.349h5.719v19.99h8.328v-19.99h6.37l.717-7.349Z"/>
    <path fill="#FFFFFF" d="M63.915 46.718c-.102-.113-.203-.222-.29-.313v-.001c-.014-.014-.025-.026-.039-.04-.121-.126-.206-.21-.206-.21-1.961-1.994-2.701-2.49-4.237-2.943-5.907-1.74-11.658 1.353-13.479 7.296-1.119 3.652-1.135 7.411-.479 11.109 1.417 8.009 7.374 10.691 13.723 9.369 1.948-.406 3.396-1.619 4.739-3.308 0 0 .121-.148.269-.436v3.524h8.124V43.233h-8.124v3.485Zm-.715 13.855c-.272 2.546-2.332 4.075-4.767 3.979-2.495-.097-4.146-1.433-4.685-3.827-.646-3.406.11-7.453.174-7.781.652-2.286 2.315-3.417 4.755-3.36 2.396.054 4.243 1.472 4.513 3.954.253 2.322.259 4.712.01 7.035Z"/>
    <path fill="#FFFFFF" d="M96.852 68.792c-.377-1.379-.806-2.739-1.221-4.053l-.392-1.461s-10.182 4.888-11.77-4.4c-.147-1.533-.102-3.115.109-4.628.396-2.855 2.138-4.384 4.909-4.646.936-.089 1.91-.044 2.837.113 1.262.213 2.494.593 3.875.934.48-1.469.971-2.922 1.428-4.385.072-.229.132-.427.179-.604l.001-.001.229-.879c-.057-.117-.196-.238-.382-.356-.234-.196-.633-.359-1.256-.587-.249-.091-.499-.172-.749-.25-.224-.071-.37-.113-.37-.113-2.675-.765-5.421-.824-8.211-.53-5.88.621-9.871 4.091-10.978 9.819-.581 3.014-.554 6.065.113 9.088.999 4.527 3.743 7.452 8.204 8.76 2.911.853 5.894.896 8.862.433 1.248-.195 3.038-.842 4.323-1.303l.489-.172-.231-.783Z"/>
    <path fill="#FFFFFF" d="M123.657 58.021c-.039-1.906-.013-3.821-.283-5.694-.743-5.136-3.87-8.386-8.927-9.235-1.93-.323-3.971-.28-5.932-.093-5.367.512-9.441 3.855-10.276 8.886-.507 3.052-.572 6.291-.162 9.356.619 4.611 2.864 7.548 6.748 8.958h.001c.017.001.034.004.051.006-.002.002-.001.002-.002.003 1.773.53 10.45 2.799 18.099-1.044l-.307-1.126c-.003.002-.008.002-.011.002-.354-1.502-.78-2.988-1.181-4.477l-.043-.146s-.159.057-.441.147c-.006.001-.014.001-.02.002-.334.087-.664.189-.992.299-.061.02-.121.039-.182.057-1.158.326-2.813.728-4.561.953-1.467.148-2.949.154-4.445.026-2.429-.402-4.288-1.703-4.199-4.779h1.388c4.762 0 9.523 0 14.286-.001.113 0 .228.001.341-.001v.002s1.023-.013 1.066-.023c0 0-.001-.27 0-.303l-.017-.768Zm-7.83-3.754h-9.406c.049-1.871.283-3.61 1.946-4.669 1.766-1.122 3.717-1.164 5.533-.158 1.836 1.014 1.98 2.846 1.927 4.827Z"/>
    <polygon fill="#FFFFFF" points="242.362 43.52 233.128 43.52 225.108 56.058 225.108 29.896 225.108 29.724 225.108 28.669 216.403 29.724 216.403 70.765 225.108 70.765 225.108 58.205 233.128 70.783 242.362 70.783 233.659 57.129"/>
    <path fill="#FFFFFF" d="M204.421 43.342c-3.025-.81-6.082-.8-9.1.004-4.518 1.204-7.547 4.063-8.523 8.611-.533 2.483-.639 5.121-.498 7.667.32 5.822 3.922 9.97 9.508 11.257.08.019.162.033.242.051h-.002s.014.003.039.008c.215.043.432.083.648.115.072.007.145.014.217.018.002.002.004.002.006.002.273.05.596.088.936.115 1.096.116 2.49.199 3.65.062.006-.002.01-.002.018-.004.061-.001.119-.001.176-.004 5.771-.301 10.15-3.94 11.428-9.519.701-3.061.701-6.138.025-9.201-1.105-4.808-4.019-7.901-8.81-9.182Zm.367 16.825c-.029.182-.059.36-.1.539-.58 2.568-2.443 3.956-4.93 3.842-2.674-.125-4.508-1.687-4.766-4.358-.186-1.951-.203-3.944-.041-5.897.258-3.084 2.184-4.77 5.078-4.713 2.373.046 4.068 1.393 4.672 3.678.547 2.298.143 6.387.087 6.909Z"/>
  </g>
</svg>
