<svg xmlns="http://www.w3.org/2000/svg" viewBox="0 0 24 24">
  <g transform="scale(0.00425208)">
    <path fill="#0F9D58" d="M2553.316 3090.856l2268.569-2535.46c-37.479-11.6-77.248-17.856-118.408-17.856H403.155C181.42 537.54 0 718.96 0 940.695v4300.322c0 41.16 6.257 80.929 17.856 118.408l2535.46-2268.569z"/>
    <path fill="#4285F4" d="M2553.316 3090.856L284.747 5626.316c37.479 11.6 77.248 17.856 118.408 17.856h4300.322c41.16 0 80.929-6.256 118.408-17.856l-2268.569-2535.46z"/>
    <path fill="#D2D2D2" d="M2553.316 3090.856l2535.46 2268.569c11.6-37.479 17.856-77.248 17.856-118.408V940.695c0-41.16-6.257-80.929-17.856-118.408l-2535.46 2268.569z"/>
    <path fill="#F1F1F1" d="M5106.633 5241.018L2687.701 2822.086l-470.348 403.155 2418.931 2418.931h67.192c221.737.001 403.157-181.419 403.157-403.154z"/>
    <path fill="#FFDE48" d="M4703.478 537.54L0 5241.018c0 221.736 181.42 403.155 403.155 403.155h67.193l4636.285-4636.285v-67.193c0-221.735-181.42-403.155-403.155-403.155z"/>
    <path fill="#EEE" d="M1142.273 1545.428v286.24h397.78c-31.581 169.997-180.748 293.631-397.78 293.631-241.221 0-437.423-204.265-437.423-444.814s196.202-444.814 437.423-444.814c108.852 0 205.609 37.628 282.881 110.196l211.657-211.656c-128.338-120.275-294.975-193.515-494.537-193.515-408.531 0-739.118 330.587-739.118 739.118s330.587 739.118 739.118 739.118c426.672 0 709.553-300.351 709.553-722.32 0-52.41-4.703-102.805-13.438-151.183h-696.116z"/>
    <path fill="#DB4437" d="M4300.322 0c-742.478 0-1343.851 601.373-1343.851 1343.851 0 1012.591 1130.85 1540.053 1264.563 2985.364 4.031 40.315 38.3 71.896 79.287 71.896s75.927-31.581 79.287-71.896c133.713-1445.312 1264.563-1972.773 1264.563-2985.364C5644.173 601.373 5042.8 0 4300.322 0z"/>
    <circle cx="4300.322" cy="1343.851" r="470.348" fill="#7B231E"/>
  </g>
</svg>
