<svg xmlns="http://www.w3.org/2000/svg" viewBox="0 0 24 24">
  <g fill="currentColor" transform="scale(0.00425208)">
    <path fill-rule="evenodd" d="M403.155 537.54h4300.322c221.736 0 403.156 181.42 403.156 403.156V5241.018c0 221.736-181.42 403.155-403.155 403.155H403.155C181.42 5644.173 0 5462.752 0 5241.018V940.695C0 718.96 181.42 537.54 403.155 537.54zM1142.273 1545.428v286.24h397.78c-31.581 169.997-180.748 293.631-397.78 293.631-241.221 0-437.423-204.265-437.423-444.814s196.202-444.814 437.423-444.814c108.852 0 205.609 37.628 282.881 110.196l211.657-211.656c-128.338-120.275-294.975-193.515-494.537-193.515-408.531 0-739.118 330.587-739.118 739.118s330.587 739.118 739.118 739.118c426.672 0 709.553-300.351 709.553-722.32 0-52.41-4.703-102.805-13.438-151.183h-696.116z"/>
    <path fill-rule="evenodd" d="M4300.322 0c-742.478 0-1343.851 601.373-1343.851 1343.851 0 1012.591 1130.85 1540.053 1264.563 2985.364 4.031 40.315 38.3 71.896 79.287 71.896s75.927-31.581 79.287-71.896c133.713-1445.312 1264.563-1972.773 1264.563-2985.364C5644.173 601.373 5042.8 0 4300.322 0zM4300.322 873.503a470.348 470.348 0 1 0 0 940.696 470.348 470.348 0 0 0 0-940.696z"/>
  </g>
</svg>
