<svg xmlns="http://www.w3.org/2000/svg" viewBox="0 0 24 24">
  <defs>
    <linearGradient id="g" x1="12" x2="12" y1="0" y2="24" gradientUnits="userSpaceOnUse">
      <stop stop-color="#fff"/>
      <stop offset="1" stop-color="#fff" stop-opacity="0"/>
    </linearGradient>
    <mask id="a">
      <path fill="#fff" fill-rule="evenodd" d="M17.019 23.836a2.16 2.16 0 0 0 1.19-.046l4.942-2.378A2.16 2.16 0 0 0 24 19.461V4.539a2.16 2.16 0 0 0-1.85-2.139L17.21.298a2.16 2.16 0 0 0-2.464.348l-9.46 8.63L1.17 6.275a1.44 1.44 0 0 0-1.795.054L.054 7.535a1.44 1.44 0 0 0 0 2.137L3.628 12 .054 14.328a1.44 1.44 0 0 0 0 2.137l1.321 1.206a1.44 1.44 0 0 0 1.795.054l4.116-3.127 9.46 8.63a2.16 2.16 0 0 0 .273.218zM18 6.552 10.825 12 18 17.448z" clip-rule="evenodd"/>
    </mask>
  </defs>
  <g mask="url(#a)">
    <path fill="#009A7C" d="M23.151 2.587 18.207.205a2.16 2.16 0 0 0-2.457.357L.31 14.328a1.44 1.44 0 0 0 0 2.137l1.323 1.206a1.44 1.44 0 0 0 1.838.072L22.467 3.295C23.121 2.799 24 3.266 24 4.087v-.057a2.16 2.16 0 0 0-.849-1.443"/>
    <path fill="#00B294" d="M23.151 21.413 18.207 23.79a2.16 2.16 0 0 1-2.457-.292L.31 8.74a1.44 1.44 0 0 1 0-1.474l1.323-1.207a1.44 1.44 0 0 1 1.838.024l19.005 14.79c.654.495 1.524.029 1.524-.793v.058a2.16 2.16 0 0 1-.849 1.275"/>
    <path fill="#24BFA5" d="M18.207 23.79a2.16 2.16 0 0 1-2.457-.292c.553.553 1.5.16 1.5-.62V1.122c0-.78-.947-1.174-1.5-.62a2.16 2.16 0 0 1 2.457-.297l4.942 2.378A2.16 2.16 0 0 1 24 4.722v14.556a2.16 2.16 0 0 1-.849 1.776z"/>
    <path fill="url(#g)" fill-rule="evenodd" d="M17.019 23.836a2.16 2.16 0 0 0 1.19-.046l4.942-2.378A2.16 2.16 0 0 0 24 19.461V4.539a2.16 2.16 0 0 0-1.85-2.139L17.21.298a2.16 2.16 0 0 0-2.464.348l-9.46 8.63L1.17 6.275a1.44 1.44 0 0 0-1.795.054L.054 7.535a1.44 1.44 0 0 0 0 2.137L3.628 12 .054 14.328a1.44 1.44 0 0 0 0 2.137l1.321 1.206a1.44 1.44 0 0 0 1.795.054l4.116-3.127 9.46 8.63a2.16 2.16 0 0 0 .273.218zM18 6.552 10.825 12 18 17.448z" clip-rule="evenodd" opacity=".25" style="mix-blend-mode:overlay"/>
  </g>
</svg>
