<svg xmlns="http://www.w3.org/2000/svg" viewBox="0 0 24 24"><defs><linearGradient id="a" x1="-223.116" y1="-25.627" x2="-221.714" y2="-25.627" gradientUnits="userSpaceOnUse" gradientTransform="matrix(0 -365 -365 0 -9098 -80925.5)"><stop offset="0" stop-color="#dbdbda"/><stop offset=".25" stop-color="#dbdbda"/><stop offset="1" stop-color="#fff"/></linearGradient><radialGradient id="b" cx="-221.873" cy="-25.201" r="1.403" gradientTransform="matrix(214.751 0 0 214.751 47949.012 5625.71)" gradientUnits="userSpaceOnUse"><stop offset="0" stop-color="#69beff"/><stop offset="1" stop-color="#0072c4"/></radialGradient></defs><g transform="scale(.04688)"><path fill="url(#a)" d="M222.9 21.46c11.22-1.68 22.72-2.52 34.51-2.52 130.74 0 236.78 106.05 236.78 236.78 0 119.51-88.65 218.41-203.68 234.54-11.22 1.68-22.72 2.52-34.51 2.52C125.26 492.78 19.22 386.74 19.22 256 19.22 136.49 107.73 37.59 222.9 21.46M256 0C114.6 0 0 114.6 0 256s114.6 256 256 256 256-114.6 256-256S397.4 0 256 0"/><path fill="url(#b)" d="M256 19.22c-11.22 0-22.3.84-33.1 2.24C108.43 38.15 20.62 136.77 20.62 255.86c0 130.74 106.05 236.78 236.78 236.78 11.22 0 22.3-.84 33.1-2.24 114.46-16.69 202.28-115.31 202.28-234.26C492.78 125.26 386.74 19.22 256 19.22"/><path fill="#cd151e" d="m417.74 94.26-188.67 134.11 55.97 55.68z"/><path fill="#fa5153" d="m229.21 227.95 28.19 27.91 160.34-161.6z"/><path fill="#acacac" d="m229.21 227.95 55.97 55.68L96.37 417.74z"/><path fill="#eeeeee" d="M96.37 417.74 257.4 255.86l-28.19-27.91z"/><g fill="#e9e9e9"><circle cx="256" cy="32" r="3.23"/><circle cx="256" cy="480" r="3.23"/><circle cx="32" cy="256" r="3.23"/><circle cx="480" cy="256" r="3.23"/><circle cx="120" cy="56" r="2.5"/><circle cx="392" cy="56" r="2.5"/><circle cx="120" cy="456" r="2.5"/><circle cx="392" cy="456" r="2.5"/><circle cx="56" cy="120" r="2.5"/><circle cx="56" cy="392" r="2.5"/><circle cx="456" cy="120" r="2.5"/><circle cx="456" cy="392" r="2.5"/><circle cx="195" cy="40" r="2"/><circle cx="317" cy="40" r="2"/><circle cx="195" cy="472" r="2"/><circle cx="317" cy="472" r="2"/><circle cx="40" cy="195" r="2"/><circle cx="40" cy="317" r="2"/><circle cx="472" cy="195" r="2"/><circle cx="472" cy="317" r="2"/></g></g></svg>
