<svg xmlns="http://www.w3.org/2000/svg" viewBox="0 0 24 24" fill="currentColor"><g transform="scale(.04688)"><path fill="none" stroke="currentColor" stroke-width="18" d="M256 9C119.6 9 9 119.6 9 256s110.6 247 247 247 247-110.6 247-247S392.4 9 256 9z"/><path d="m417.74 94.26-188.67 134.11 55.97 55.68z"/><path d="m229.21 227.95 28.19 27.91 160.34-161.6z" opacity=".7"/><path d="m229.21 227.95 55.97 55.68L96.37 417.74z" opacity=".5"/><path d="M96.37 417.74 257.4 255.86l-28.19-27.91z" opacity=".25"/><g><circle cx="256" cy="32" r="3.23"/><circle cx="256" cy="480" r="3.23"/><circle cx="32" cy="256" r="3.23"/><circle cx="480" cy="256" r="3.23"/><circle cx="120" cy="56" r="2.5"/><circle cx="392" cy="56" r="2.5"/><circle cx="120" cy="456" r="2.5"/><circle cx="392" cy="456" r="2.5"/><circle cx="56" cy="120" r="2.5"/><circle cx="56" cy="392" r="2.5"/><circle cx="456" cy="120" r="2.5"/><circle cx="456" cy="392" r="2.5"/><circle cx="195" cy="40" r="2"/><circle cx="317" cy="40" r="2"/><circle cx="195" cy="472" r="2"/><circle cx="317" cy="472" r="2"/><circle cx="40" cy="195" r="2"/><circle cx="40" cy="317" r="2"/><circle cx="472" cy="195" r="2"/><circle cx="472" cy="317" r="2"/></g></g></svg>
