<svg xmlns="http://www.w3.org/2000/svg" viewBox="0 0 24 24" fill="none">
  <circle cx="12" cy="12" r="12" fill="#14C2D8"/>
  <path d="M3.515 20.485A12 12 0 0 0 12 24c6.627 0 12-5.373 12-12a12 12 0 0 0-3.515-8.485z" fill="#17B3C7"/>
  <path d="M5.382 19.673a1.6 1.6 0 0 1-.146-.66l5.107-5.107L18.62 5.63a1.6 1.6 0 0 1 .536 1.187V17.4a1.6 1.6 0 0 1-1.598 1.6H5.998a1.6 1.6 0 0 1-.616-.123z" fill="#000" fill-opacity=".08"/>
  <path d="M9.164 7.564c0-1.526 1.237-2.764 2.764-2.764s2.764 1.238 2.764 2.764h2.184c.883 0 1.598.716 1.598 1.6V17.4c0 .884-.717 1.6-1.598 1.6H5.998c-.883 0-1.598-.717-1.598-1.6V9.164c0-.884.717-1.6 1.598-1.6zm1.309 0h2.91c0-.804-.65-1.455-1.455-1.455s-1.455.651-1.455 1.455z" fill="#EFEFEF"/>
  <path d="M18.473 16.213V17.4c0 .884-.717 1.6-1.598 1.6H5.998c-.883 0-1.598-.717-1.598-1.6v-1.187 1.61c0 .908.717 1.642 1.598 1.642h10.877c.881 0 1.598-.734 1.598-1.642z" fill="#000" fill-opacity=".05"/>
</svg>
