<svg xmlns="http://www.w3.org/2000/svg" viewBox="0 0 24 24">
  <g transform="translate(4.4806 0) scale(0.046875) translate(-95 0)" fill="currentColor" fill-rule="evenodd">
    <path d="M175.034 21.925C175.034 9.816 184.85 0 196.96 0h118.41c12.11 0 21.926 9.815 21.926 21.925v118.41c0 12.11-9.815 21.926-21.926 21.926H196.96c-12.11 0-21.926-9.815-21.926-21.925zm39.47 15.351v82.227h82.226V37.276z"/>
    <circle cx="173.39" cy="470.887" r="41.113"/>
    <circle cx="337.844" cy="470.887" r="41.113"/>
    <path d="M95 134.852c0-21.797 17.672-39.469 39.469-39.469h243.392c21.797 0 39.469 17.672 39.469 39.469v294.901c0 21.797-17.672 39.469-39.469 39.469H134.469C112.672 469.222 95 451.55 95 429.753zM350.714 265.627a107.857 107.857 0 0 1 1.838 19.915c0 54.176-36.333 92.702-91.196 92.702-52.487 0-95-42.44-95-94.835 0-52.396 42.513-94.835 95-94.835 25.652 0 47.082 9.423 63.532 24.716l-26.783 26.733v-.061c-9.973-9.485-22.619-14.344-36.75-14.344-31.348 0-56.82 26.435-56.82 57.733 0 31.29 25.472 57.79 56.82 57.79 28.442 0 47.796-16.242 51.78-38.527h-51.78v-36.987z"/>
  </g>
</svg>
